<svg xmlns="http://www.w3.org/2000/svg" viewBox="0 0 394.98 306.8">
  <defs>
    <style>
      .cls-1 {
        fill: #f6dfe5;
      }

      .cls-2 {
        fill: #fff;
      }

      .cls-3 {
        fill: #a585a6;
        opacity: 0.18;
      }

      .cls-4 {
        fill: #1677ff;
      }

      .cls-5 {
        fill: #d18515;
      }

      .cls-6 {
        fill: #faac22;
      }

      .cls-7 {
        fill: #e5981c;
      }

      .cls-8 {
        fill: #ffd8ae;
        opacity: 0.47;
      }

      .cls-9 {
        fill: #55a2ff;
      }

      .cls-10 {
        fill: #c3cbff;
      }

      .cls-11, .cls-17, .cls-18 {
        fill: #9badff;
      }

      .cls-11 {
        opacity: 0.32;
      }

      .cls-12 {
        fill: #5061c1;
      }

      .cls-13 {
        fill: #3b4fa8;
      }

      .cls-14 {
        fill: #aabcff;
      }

      .cls-15 {
        fill: #d4ddfc;
      }

      .cls-16 {
        fill: #e4e9ff;
      }

      .cls-17 {
        opacity: 0.34;
      }

      .cls-18 {
        opacity: 0.5;
      }

      .cls-19 {
        fill: #283d88;
      }

      .cls-20 {
        fill: #99afff;
      }

      .cls-21 {
        fill: #6d87f2;
      }

      .cls-22 {
        fill: #aebcff;
      }

      .cls-23, .cls-24 {
        fill: none;
        stroke: #5061c1;
        stroke-miterlimit: 10;
      }

      .cls-23 {
        stroke-width: 3px;
      }

      .cls-24 {
        stroke-width: 2.86px;
      }
    </style>
  </defs>
  <g id="Layer_2" data-name="Layer 2">
    <g id="OBJECTS">
      <g>
        <g>
          <path class="cls-1" d="M93.77,46.47a12.18,12.18,0,0,1,6.57,1.91,14.34,14.34,0,0,1,20.47-7,21.62,21.62,0,0,1,42.43,2.26A12.5,12.5,0,0,1,165,43.5a12.3,12.3,0,0,1,11.79,8.81H83.31A12.3,12.3,0,0,1,93.77,46.47Z"/>
          <path class="cls-1" d="M74.52,95.84a6.3,6.3,0,0,1,3.41,1,7.47,7.47,0,0,1,6.91-4.66,7.4,7.4,0,0,1,3.74,1,11.24,11.24,0,0,1,22.07,1.18,5.49,5.49,0,0,1,.91-.07,6.4,6.4,0,0,1,6.13,4.58H69.07A6.41,6.41,0,0,1,74.52,95.84Z"/>
          <path class="cls-2" d="M347.3,187.55a3.81,3.81,0,0,1,2.05.6,4.46,4.46,0,0,1,6.39-2.19,6.74,6.74,0,0,1,13.23.7,4.93,4.93,0,0,1,.55,0,3.84,3.84,0,0,1,3.68,2.74H344A3.85,3.85,0,0,1,347.3,187.55Z"/>
          <path class="cls-1" d="M128.57,149.32a3.79,3.79,0,0,0-2,.59,4.4,4.4,0,0,0-4.08-2.75,4.35,4.35,0,0,0-2.21.59,6.64,6.64,0,0,0-13,.7,3.27,3.27,0,0,0-.54,0,3.78,3.78,0,0,0-3.63,2.71h28.74A3.77,3.77,0,0,0,128.57,149.32Z"/>
          <path class="cls-1" d="M75.71,9.8a3.79,3.79,0,0,0-2,.59A4.39,4.39,0,0,0,67.4,8.23a6.64,6.64,0,0,0-13,.69l-.54,0a3.78,3.78,0,0,0-3.63,2.71H78.93A3.77,3.77,0,0,0,75.71,9.8Z"/>
          <path class="cls-1" d="M341.49,114.93a3.78,3.78,0,0,0-2,.58,4.4,4.4,0,0,0-4.08-2.75,4.45,4.45,0,0,0-2.21.59,6.65,6.65,0,0,0-13.05.7,3.08,3.08,0,0,0-.53,0,3.78,3.78,0,0,0-3.63,2.71h28.74A3.76,3.76,0,0,0,341.49,114.93Z"/>
          <path class="cls-2" d="M381,42.86a6.32,6.32,0,0,0-3.39,1,7.4,7.4,0,0,0-10.55-3.62,11.13,11.13,0,0,0-21.85,1.17,6.82,6.82,0,0,0-.9-.07,6.33,6.33,0,0,0-6.07,4.54h48.15A6.36,6.36,0,0,0,381,42.86Z"/>
          <path class="cls-2" d="M321.72,15.84a9,9,0,0,0-4.82,1.4,10.49,10.49,0,0,0-15-5.14,15.84,15.84,0,0,0-31.1,1.66,8.94,8.94,0,0,0-9.92,6.36h68.51A9,9,0,0,0,321.72,15.84Z"/>
          <g>
            <ellipse class="cls-3" cx="197.49" cy="288" rx="197.49" ry="18.79"/>
            <path class="cls-4" d="M28.73,275.82a22.07,22.07,0,0,1,11.9,3.45,26,26,0,0,1,37.09-12.71,39.16,39.16,0,0,1,76.86,4.1,22,22,0,0,1,3.16-.23,22.27,22.27,0,0,1,21.36,16H9.78A22.25,22.25,0,0,1,28.73,275.82Z"/>
            <path class="cls-4" d="M244.61,275.19a22.16,22.16,0,0,1,11.9,3.45,26,26,0,0,1,37.09-12.7A39.15,39.15,0,0,1,370.46,270a21.86,21.86,0,0,1,3.16-.23,22.28,22.28,0,0,1,21.36,16H225.66A22.24,22.24,0,0,1,244.61,275.19Z"/>
          </g>
        </g>
        <g>
          <g>
            <g>
              <path class="cls-5" d="M351.41,283.2c-16.2,0-29.34-1.37-29.34-3.05v5.05c0,1.68,13.14,3.05,29.34,3.05s29.34-1.37,29.34-3.05v-5.05C380.75,281.83,367.61,283.2,351.41,283.2Z"/>
              <path class="cls-6" d="M351.41,283.2c16.2,0,29.34-1.37,29.34-3.05s-13.14-3-29.34-3-29.34,1.37-29.34,3S335.21,283.2,351.41,283.2Z"/>
              <path class="cls-7" d="M351.41,282a172.45,172.45,0,0,1-24.8-1.42.44.44,0,0,1,0-.86c4.56-.75,13.2-1.42,24.8-1.42s20.23.67,24.8,1.42a.44.44,0,0,1,0,.86A172.56,172.56,0,0,1,351.41,282Z"/>
              <path class="cls-8" d="M327.07,281.85v5c2.25.35,5.18.65,8.57.87v-5C332.25,282.49,329.32,282.2,327.07,281.85Z"/>
              <path class="cls-7" d="M351.41,283.2c-1.55,0-3.07,0-4.55,0v5c1.48,0,3,0,4.55,0q2,0,4,0v-5.05Q353.45,283.2,351.41,283.2Z"/>
              <path class="cls-8" d="M366.65,282.75v5.06c3.36-.22,6.27-.5,8.57-.83v-5.05C372.92,282.26,370,282.54,366.65,282.75Z"/>
            </g>
            <g>
              <path class="cls-5" d="M350.41,276.8c-16.2,0-29.34-1.37-29.34-3.05v5.05c0,1.69,13.14,3.05,29.34,3.05s29.34-1.36,29.34-3.05v-5.05C379.75,275.43,366.61,276.8,350.41,276.8Z"/>
              <ellipse class="cls-6" cx="350.41" cy="273.75" rx="29.34" ry="3.05"/>
              <path class="cls-7" d="M350.41,275.6c-11.6,0-20.24-.67-24.8-1.42a.44.44,0,0,1,0-.86,172.45,172.45,0,0,1,24.8-1.42,172.56,172.56,0,0,1,24.8,1.42.44.44,0,0,1,0,.86C370.64,274.93,362,275.6,350.41,275.6Z"/>
              <path class="cls-8" d="M326.07,275.45v5.06c2.25.34,5.18.64,8.57.86v-5.05C331.25,276.09,328.32,275.8,326.07,275.45Z"/>
              <path class="cls-7" d="M350.41,276.8c-1.55,0-3.07,0-4.55,0v5.05c1.48,0,3,0,4.55,0q2,0,4,0v-5.05Q352.45,276.8,350.41,276.8Z"/>
              <path class="cls-8" d="M365.65,276.35v5.06c3.36-.21,6.27-.5,8.57-.83v-5.05C371.92,275.86,369,276.14,365.65,276.35Z"/>
            </g>
            <g>
              <path class="cls-5" d="M350.41,270.4c-16.2,0-29.34-1.36-29.34-3v5.06c0,1.68,13.14,3,29.34,3s29.34-1.36,29.34-3v-5.06C379.75,269,366.61,270.4,350.41,270.4Z"/>
              <path class="cls-6" d="M350.41,270.4c16.2,0,29.34-1.36,29.34-3s-13.14-3-29.34-3-29.34,1.36-29.34,3S334.21,270.4,350.41,270.4Z"/>
              <path class="cls-7" d="M350.41,269.21c-11.6,0-20.24-.68-24.8-1.43a.43.43,0,0,1,0-.85c4.56-.75,13.2-1.43,24.8-1.43a170.66,170.66,0,0,1,24.8,1.43.43.43,0,0,1,0,.85A170.66,170.66,0,0,1,350.41,269.21Z"/>
              <path class="cls-8" d="M326.07,269.06v5.05c2.25.35,5.18.64,8.57.87v-5.06C331.25,269.7,328.32,269.4,326.07,269.06Z"/>
              <path class="cls-7" d="M350.41,270.4c-1.55,0-3.07,0-4.55,0v5.06c1.48,0,3,0,4.55,0q2,0,4,0v-5.05Q352.45,270.4,350.41,270.4Z"/>
              <path class="cls-8" d="M365.65,270V275c3.36-.21,6.27-.49,8.57-.82v-5.06C371.92,269.46,369,269.74,365.65,270Z"/>
            </g>
            <g>
              <path class="cls-5" d="M349.42,264c-16.2,0-29.34-1.36-29.34-3V266c0,1.68,13.14,3.05,29.34,3.05s29.34-1.37,29.34-3.05V261C378.76,262.64,365.62,264,349.42,264Z"/>
              <path class="cls-6" d="M349.42,264c16.2,0,29.34-1.36,29.34-3s-13.14-3-29.34-3-29.34,1.36-29.34,3S333.22,264,349.42,264Z"/>
              <path class="cls-7" d="M349.42,262.81c-11.6,0-20.24-.68-24.8-1.43a.43.43,0,0,1,0-.85c4.56-.75,13.2-1.43,24.8-1.43a170.66,170.66,0,0,1,24.8,1.43.43.43,0,0,1,0,.85A170.66,170.66,0,0,1,349.42,262.81Z"/>
              <path class="cls-8" d="M325.08,262.66v5c2.25.35,5.18.64,8.57.87v-5.06C330.26,263.3,327.33,263,325.08,262.66Z"/>
              <path class="cls-7" d="M349.42,264c-1.55,0-3.07,0-4.55,0v5c1.48,0,3,0,4.55,0q2,0,4,0V264Q351.46,264,349.42,264Z"/>
              <path class="cls-8" d="M364.66,263.56v5.05c3.36-.21,6.27-.49,8.57-.82v-5.05C370.93,263.07,368,263.35,364.66,263.56Z"/>
            </g>
            <g>
              <path class="cls-5" d="M351.41,257.6c-16.2,0-29.34-1.36-29.34-3v5.05c0,1.68,13.14,3.05,29.34,3.05s29.34-1.37,29.34-3.05v-5.05C380.75,256.24,367.61,257.6,351.41,257.6Z"/>
              <ellipse class="cls-6" cx="351.41" cy="254.56" rx="29.34" ry="3.05"/>
              <path class="cls-7" d="M351.41,256.41c-11.6,0-20.24-.68-24.8-1.43a.43.43,0,0,1,0-.85c4.56-.75,13.2-1.42,24.8-1.42s20.23.67,24.8,1.42a.43.43,0,0,1,0,.85A170.66,170.66,0,0,1,351.41,256.41Z"/>
              <path class="cls-8" d="M327.07,256.26v5.05c2.25.35,5.18.64,8.57.87v-5.05C332.25,256.9,329.32,256.61,327.07,256.26Z"/>
              <path class="cls-7" d="M351.41,257.6c-1.55,0-3.07,0-4.55,0v5.05c1.48,0,3,0,4.55,0q2,0,4,0v-5.05Z"/>
              <path class="cls-8" d="M366.65,257.16v5.06c3.36-.22,6.27-.5,8.57-.83v-5.05C372.92,256.67,370,257,366.65,257.16Z"/>
            </g>
            <g>
              <path class="cls-5" d="M353.4,251.21c-16.21,0-29.34-1.37-29.34-3.05v5.05c0,1.69,13.13,3,29.34,3s29.34-1.36,29.34-3v-5.05C382.74,249.84,369.6,251.21,353.4,251.21Z"/>
              <path class="cls-6" d="M353.4,251.21c16.2,0,29.34-1.37,29.34-3.05s-13.14-3-29.34-3-29.34,1.37-29.34,3S337.19,251.21,353.4,251.21Z"/>
              <path class="cls-7" d="M353.4,250c-11.6,0-20.24-.67-24.8-1.42a.44.44,0,0,1,0-.86c4.56-.75,13.2-1.42,24.8-1.42s20.23.67,24.8,1.42a.44.44,0,0,1,0,.86C373.63,249.34,365,250,353.4,250Z"/>
              <path class="cls-8" d="M329.06,249.86v5.06c2.25.34,5.18.64,8.57.86v-5.05C334.24,250.5,331.31,250.21,329.06,249.86Z"/>
              <path class="cls-7" d="M353.4,251.21c-1.55,0-3.07,0-4.55,0v5.05c1.48,0,3,0,4.55,0q2,0,4,0v-5.05Q355.44,251.21,353.4,251.21Z"/>
              <path class="cls-8" d="M368.64,250.76v5.06c3.36-.22,6.27-.5,8.57-.83v-5.05C374.91,250.27,372,250.55,368.64,250.76Z"/>
            </g>
            <g>
              <path class="cls-5" d="M351.41,244.81c-16.2,0-29.34-1.36-29.34-3.05v5.06c0,1.68,13.14,3,29.34,3s29.34-1.36,29.34-3v-5.06C380.75,243.45,367.61,244.81,351.41,244.81Z"/>
              <path class="cls-6" d="M351.41,244.81c16.2,0,29.34-1.36,29.34-3.05s-13.14-3-29.34-3-29.34,1.36-29.34,3S335.21,244.81,351.41,244.81Z"/>
              <path class="cls-7" d="M351.41,243.62c-11.6,0-20.24-.68-24.8-1.43a.43.43,0,0,1,0-.85c4.56-.75,13.2-1.43,24.8-1.43a170.66,170.66,0,0,1,24.8,1.43.43.43,0,0,1,0,.85A170.66,170.66,0,0,1,351.41,243.62Z"/>
              <path class="cls-8" d="M327.07,243.46v5.06c2.25.34,5.18.64,8.57.86v-5C332.25,244.11,329.32,243.81,327.07,243.46Z"/>
              <path class="cls-7" d="M351.41,244.81c-1.55,0-3.07,0-4.55,0v5.06c1.48,0,3,0,4.55,0q2,0,4,0v-5.05Q353.45,244.81,351.41,244.81Z"/>
              <path class="cls-8" d="M366.65,244.37v5c3.36-.21,6.27-.49,8.57-.82v-5.06C372.92,243.87,370,244.15,366.65,244.37Z"/>
            </g>
            <g>
              <path class="cls-5" d="M351.41,238.41c-16.2,0-29.34-1.36-29.34-3v5.06c0,1.68,13.14,3,29.34,3s29.34-1.36,29.34-3v-5.06C380.75,237.05,367.61,238.41,351.41,238.41Z"/>
              <ellipse class="cls-6" cx="351.41" cy="235.36" rx="29.34" ry="3.05"/>
              <path class="cls-7" d="M351.41,237.22c-11.6,0-20.24-.68-24.8-1.43a.43.43,0,0,1,0-.85c4.56-.75,13.2-1.43,24.8-1.43a170.66,170.66,0,0,1,24.8,1.43.43.43,0,0,1,0,.85A170.66,170.66,0,0,1,351.41,237.22Z"/>
              <path class="cls-8" d="M327.07,237.07v5.05c2.25.35,5.18.64,8.57.87v-5.06C332.25,237.71,329.32,237.41,327.07,237.07Z"/>
              <path class="cls-7" d="M351.41,238.41c-1.55,0-3.07,0-4.55,0v5.05c1.48,0,3,0,4.55,0l4,0v-5.06Q353.45,238.41,351.41,238.41Z"/>
              <path class="cls-8" d="M366.65,238V243c3.36-.21,6.27-.49,8.57-.82v-5.06C372.92,237.47,370,237.76,366.65,238Z"/>
            </g>
            <g>
              <path class="cls-5" d="M349.41,231.16c-16.2,0-29.34-1.36-29.34-3v5.06c0,1.68,13.14,3,29.34,3s29.34-1.36,29.34-3v-5.06C378.75,229.8,365.61,231.16,349.41,231.16Z"/>
              <path class="cls-6" d="M349.41,231.16c16.2,0,29.34-1.36,29.34-3s-13.14-3-29.34-3-29.34,1.36-29.34,3S333.21,231.16,349.41,231.16Z"/>
              <path class="cls-7" d="M349.41,230c-11.6,0-20.24-.68-24.8-1.43a.43.43,0,0,1,0-.85c4.56-.75,13.2-1.43,24.8-1.43a170.66,170.66,0,0,1,24.8,1.43.43.43,0,0,1,0,.85A170.66,170.66,0,0,1,349.41,230Z"/>
              <path class="cls-8" d="M325.07,229.81v5.06c2.25.34,5.18.64,8.57.86v-5C330.25,230.46,327.32,230.16,325.07,229.81Z"/>
              <path class="cls-7" d="M349.41,231.16c-1.55,0-3.07,0-4.55,0v5.06c1.48,0,3,0,4.55,0q2,0,4,0v-5.05Q351.45,231.16,349.41,231.16Z"/>
              <path class="cls-8" d="M364.65,230.72v5.05c3.36-.21,6.27-.49,8.57-.82v-5.06C370.92,230.22,368,230.5,364.65,230.72Z"/>
            </g>
            <g>
              <path class="cls-5" d="M349.42,224.76c-16.2,0-29.34-1.36-29.34-3v5.06c0,1.68,13.14,3,29.34,3s29.34-1.36,29.34-3v-5.06C378.76,223.4,365.62,224.76,349.42,224.76Z"/>
              <ellipse class="cls-6" cx="349.42" cy="221.71" rx="29.34" ry="3.05"/>
              <path class="cls-7" d="M349.42,223.57c-11.6,0-20.24-.68-24.8-1.43a.43.43,0,0,1,0-.85c4.56-.75,13.2-1.43,24.8-1.43a170.66,170.66,0,0,1,24.8,1.43.43.43,0,0,1,0,.85A170.66,170.66,0,0,1,349.42,223.57Z"/>
              <path class="cls-8" d="M325.08,223.42v5.05c2.25.35,5.18.64,8.57.87v-5.06C330.26,224.06,327.33,223.76,325.08,223.42Z"/>
              <path class="cls-7" d="M349.42,224.76c-1.55,0-3.07,0-4.55,0v5.06c1.48,0,3,0,4.55,0l4,0v-5.06Q351.46,224.76,349.42,224.76Z"/>
              <path class="cls-8" d="M364.66,224.32v5.05c3.36-.21,6.27-.49,8.57-.82v-5.06C370.93,223.82,368,224.11,364.66,224.32Z"/>
            </g>
            <g>
              <path class="cls-5" d="M349.42,218.36c-16.2,0-29.34-1.36-29.34-3v5.05c0,1.68,13.14,3,29.34,3s29.34-1.37,29.34-3v-5.05C378.76,217,365.62,218.36,349.42,218.36Z"/>
              <path class="cls-6" d="M349.42,218.36c16.2,0,29.34-1.36,29.34-3s-13.14-3-29.34-3-29.34,1.36-29.34,3S333.22,218.36,349.42,218.36Z"/>
              <path class="cls-7" d="M349.42,217.17c-11.6,0-20.24-.68-24.8-1.43a.43.43,0,0,1,0-.85c4.56-.75,13.2-1.43,24.8-1.43a170.66,170.66,0,0,1,24.8,1.43.43.43,0,0,1,0,.85A170.66,170.66,0,0,1,349.42,217.17Z"/>
              <path class="cls-8" d="M325.08,217v5c2.25.35,5.18.64,8.57.87v-5.05C330.26,217.66,327.33,217.37,325.08,217Z"/>
              <path class="cls-7" d="M349.42,218.36c-1.55,0-3.07,0-4.55,0v5c1.48,0,3,0,4.55,0q2,0,4,0v-5.06Q351.46,218.36,349.42,218.36Z"/>
              <path class="cls-8" d="M364.66,217.92V223c3.36-.21,6.27-.49,8.57-.82V217.1C370.93,217.43,368,217.71,364.66,217.92Z"/>
            </g>
            <g>
              <path class="cls-5" d="M349.42,212c-16.2,0-29.34-1.37-29.34-3.05V214c0,1.69,13.14,3.05,29.34,3.05s29.34-1.36,29.34-3.05v-5.05C378.76,210.6,365.62,212,349.42,212Z"/>
              <ellipse class="cls-6" cx="349.42" cy="208.92" rx="29.34" ry="3.05"/>
              <path class="cls-7" d="M349.42,210.77a172.45,172.45,0,0,1-24.8-1.42.44.44,0,0,1,0-.86c4.56-.75,13.2-1.42,24.8-1.42s20.23.67,24.8,1.42a.44.44,0,0,1,0,.86A172.56,172.56,0,0,1,349.42,210.77Z"/>
              <path class="cls-8" d="M325.08,210.62v5c2.25.35,5.18.65,8.57.87v-5C330.26,211.26,327.33,211,325.08,210.62Z"/>
              <path class="cls-7" d="M349.42,212c-1.55,0-3.07,0-4.55,0v5c1.48,0,3,0,4.55,0q2,0,4,0v-5.05Q351.46,212,349.42,212Z"/>
              <path class="cls-8" d="M364.66,211.52v5.06c3.36-.22,6.27-.5,8.57-.83V210.7C370.93,211,368,211.31,364.66,211.52Z"/>
            </g>
            <g>
              <path class="cls-5" d="M346.42,205.57c-16.2,0-29.34-1.37-29.34-3v5c0,1.69,13.14,3.05,29.34,3.05s29.34-1.36,29.34-3.05v-5C375.76,204.2,362.62,205.57,346.42,205.57Z"/>
              <ellipse class="cls-6" cx="346.42" cy="202.52" rx="29.34" ry="3.05"/>
              <path class="cls-7" d="M346.42,204.37c-11.6,0-20.24-.67-24.8-1.42a.44.44,0,0,1,0-.86,172.45,172.45,0,0,1,24.8-1.42,172.56,172.56,0,0,1,24.8,1.42.44.44,0,0,1,0,.86C366.65,203.7,358,204.37,346.42,204.37Z"/>
              <path class="cls-8" d="M322.08,204.22v5.06c2.25.34,5.18.64,8.57.86v-5C327.26,204.86,324.33,204.57,322.08,204.22Z"/>
              <path class="cls-7" d="M346.42,205.57c-1.55,0-3.07,0-4.55,0v5.05c1.48,0,3,0,4.55,0q2,0,4,0v-5.05Q348.46,205.57,346.42,205.57Z"/>
              <path class="cls-8" d="M361.66,205.13v5.05c3.36-.21,6.27-.5,8.57-.83v-5C367.93,204.63,365,204.91,361.66,205.13Z"/>
            </g>
            <g>
              <path class="cls-5" d="M349.42,199.17c-16.2,0-29.34-1.36-29.34-3v5.06c0,1.68,13.14,3,29.34,3s29.34-1.36,29.34-3v-5.06C378.76,197.81,365.62,199.17,349.42,199.17Z"/>
              <path class="cls-6" d="M349.42,199.17c16.2,0,29.34-1.36,29.34-3s-13.14-3-29.34-3-29.34,1.36-29.34,3S333.22,199.17,349.42,199.17Z"/>
              <path class="cls-7" d="M349.42,198c-11.6,0-20.24-.68-24.8-1.43a.43.43,0,0,1,0-.85c4.56-.75,13.2-1.43,24.8-1.43a170.66,170.66,0,0,1,24.8,1.43.43.43,0,0,1,0,.85A170.66,170.66,0,0,1,349.42,198Z"/>
              <path class="cls-8" d="M325.08,197.83v5c2.25.35,5.18.64,8.57.87v-5.06C330.26,198.47,327.33,198.17,325.08,197.83Z"/>
              <path class="cls-7" d="M349.42,199.17c-1.55,0-3.07,0-4.55,0v5.06c1.48,0,3,0,4.55,0q2,0,4,0v-5.05Q351.46,199.17,349.42,199.17Z"/>
              <path class="cls-8" d="M364.66,198.73v5.05c3.36-.21,6.27-.49,8.57-.82V197.9C370.93,198.23,368,198.51,364.66,198.73Z"/>
            </g>
            <g>
              <path class="cls-5" d="M350,192.77c-16.2,0-29.34-1.36-29.34-3v5.05c0,1.68,13.14,3.05,29.34,3.05s29.34-1.37,29.34-3.05v-5.05C379.34,191.41,366.2,192.77,350,192.77Z"/>
              <ellipse class="cls-6" cx="350" cy="189.73" rx="29.34" ry="3.05"/>
              <path class="cls-7" d="M350,191.58a170.66,170.66,0,0,1-24.8-1.43.43.43,0,0,1,0-.85,170.66,170.66,0,0,1,24.8-1.43c11.6,0,20.24.68,24.8,1.43a.43.43,0,0,1,0,.85C370.24,190.9,361.6,191.58,350,191.58Z"/>
              <path class="cls-8" d="M325.66,191.43v5c2.26.35,5.18.64,8.57.87v-5.06C330.84,192.07,327.92,191.77,325.66,191.43Z"/>
              <path class="cls-7" d="M350,192.77c-1.55,0-3.06,0-4.55,0v5c1.49,0,3,0,4.55,0q2,0,4,0v-5.06Q352,192.77,350,192.77Z"/>
              <path class="cls-8" d="M365.24,192.33v5c3.36-.21,6.27-.49,8.57-.82v-5.05C371.51,191.84,368.6,192.12,365.24,192.33Z"/>
            </g>
            <g>
              <path class="cls-5" d="M351,186.37c-16.2,0-29.34-1.36-29.34-3v5c0,1.68,13.14,3.05,29.34,3.05s29.34-1.37,29.34-3.05v-5C380.34,185,367.2,186.37,351,186.37Z"/>
              <path class="cls-6" d="M351,186.37c16.2,0,29.34-1.36,29.34-3s-13.14-3.05-29.34-3.05-29.34,1.37-29.34,3.05S334.8,186.37,351,186.37Z"/>
              <path class="cls-7" d="M351,185.18a170.66,170.66,0,0,1-24.8-1.43.43.43,0,0,1,0-.85c4.57-.75,13.2-1.42,24.8-1.42s20.24.67,24.8,1.42a.43.43,0,0,1,0,.85C371.24,184.5,362.6,185.18,351,185.18Z"/>
              <path class="cls-8" d="M326.66,185v5.05c2.26.35,5.18.64,8.57.87v-5C331.84,185.67,328.92,185.38,326.66,185Z"/>
              <path class="cls-7" d="M351,186.37c-1.55,0-3.06,0-4.55,0v5c1.49,0,3,0,4.55,0q2,0,4,0v-5.05Z"/>
              <path class="cls-8" d="M366.24,185.93V191c3.36-.22,6.27-.5,8.57-.83v-5C372.51,185.44,369.6,185.72,366.24,185.93Z"/>
            </g>
            <g>
              <path class="cls-5" d="M350.39,178.9c-16.2,0-29.33-1.36-29.33-3.05v5.06c0,1.68,13.13,3,29.33,3s29.34-1.36,29.34-3v-5.06C379.73,177.54,366.6,178.9,350.39,178.9Z"/>
              <ellipse class="cls-6" cx="350.39" cy="175.85" rx="29.34" ry="3.05"/>
              <path class="cls-7" d="M350.39,177.7c-11.6,0-20.23-.67-24.79-1.42a.43.43,0,0,1,0-.85c4.56-.75,13.19-1.43,24.79-1.43s20.24.68,24.8,1.43a.43.43,0,0,1,0,.85C370.63,177,362,177.7,350.39,177.7Z"/>
              <path class="cls-8" d="M326.06,177.55v5.06c2.25.34,5.17.64,8.57.86v-5.05C331.23,178.2,328.31,177.9,326.06,177.55Z"/>
              <path class="cls-7" d="M350.39,178.9c-1.54,0-3.06,0-4.54,0v5.06c1.48,0,3,0,4.54,0q2.06,0,4,0v-5Q352.45,178.9,350.39,178.9Z"/>
              <path class="cls-8" d="M365.64,178.46v5c3.36-.21,6.27-.49,8.56-.82v-5.06C371.91,178,369,178.24,365.64,178.46Z"/>
            </g>
            <g>
              <path class="cls-5" d="M350.39,172.09c-16.2,0-29.33-1.36-29.33-3.05v5.06c0,1.68,13.13,3,29.33,3s29.34-1.36,29.34-3V169C379.73,170.73,366.6,172.09,350.39,172.09Z"/>
              <ellipse class="cls-6" cx="350.39" cy="169.04" rx="29.34" ry="3.05"/>
              <path class="cls-7" d="M350.39,170.9c-11.6,0-20.23-.68-24.79-1.43a.43.43,0,0,1,0-.85c4.56-.75,13.19-1.43,24.79-1.43s20.24.68,24.8,1.43a.43.43,0,0,1,0,.85C370.63,170.22,362,170.9,350.39,170.9Z"/>
              <path class="cls-8" d="M326.06,170.75v5.05c2.25.35,5.17.64,8.57.87v-5.06C331.23,171.39,328.31,171.09,326.06,170.75Z"/>
              <path class="cls-7" d="M350.39,172.09c-1.54,0-3.06,0-4.54,0v5.06c1.48,0,3,0,4.54,0l4,0v-5.06Q352.45,172.09,350.39,172.09Z"/>
              <path class="cls-8" d="M365.64,171.65v5c3.36-.21,6.27-.49,8.56-.82v-5.06C371.91,171.15,369,171.44,365.64,171.65Z"/>
            </g>
            <g>
              <path class="cls-5" d="M348.39,165.28c-16.2,0-29.33-1.36-29.33-3v5c0,1.68,13.13,3.05,29.33,3.05s29.34-1.37,29.34-3.05v-5C377.73,163.92,364.6,165.28,348.39,165.28Z"/>
              <ellipse class="cls-6" cx="348.39" cy="162.24" rx="29.34" ry="3.05"/>
              <path class="cls-7" d="M348.39,164.09c-11.6,0-20.23-.68-24.79-1.43a.43.43,0,0,1,0-.85c4.56-.75,13.19-1.43,24.79-1.43s20.24.68,24.8,1.43a.43.43,0,0,1,0,.85C368.63,163.41,360,164.09,348.39,164.09Z"/>
              <path class="cls-8" d="M324.06,163.94V169c2.25.35,5.17.64,8.57.87v-5.05C329.23,164.58,326.31,164.29,324.06,163.94Z"/>
              <path class="cls-7" d="M348.39,165.28c-1.54,0-3.06,0-4.54,0v5.05c1.48,0,3,0,4.54,0q2.06,0,4,0v-5.06Q350.45,165.28,348.39,165.28Z"/>
              <path class="cls-8" d="M363.64,164.84v5c3.36-.21,6.27-.49,8.56-.82v-5C369.91,164.35,367,164.63,363.64,164.84Z"/>
            </g>
            <g>
              <path class="cls-5" d="M350.39,158.48c-16.2,0-29.33-1.37-29.33-3v5c0,1.69,13.13,3.05,29.33,3.05s29.34-1.36,29.34-3.05v-5C379.73,157.11,366.6,158.48,350.39,158.48Z"/>
              <path class="cls-6" d="M350.39,158.48c16.21,0,29.34-1.37,29.34-3s-13.13-3.05-29.34-3.05-29.33,1.37-29.33,3.05S334.19,158.48,350.39,158.48Z"/>
              <path class="cls-7" d="M350.39,157.28c-11.6,0-20.23-.67-24.79-1.42a.44.44,0,0,1,0-.86c4.56-.75,13.19-1.42,24.79-1.42s20.24.67,24.8,1.42a.44.44,0,0,1,0,.86C370.63,156.61,362,157.28,350.39,157.28Z"/>
              <path class="cls-8" d="M326.06,157.13v5.05c2.25.35,5.17.65,8.57.87V158C331.23,157.77,328.31,157.48,326.06,157.13Z"/>
              <path class="cls-7" d="M350.39,158.48c-1.54,0-3.06,0-4.54,0v5.05c1.48,0,3,0,4.54,0q2.06,0,4,0v-5.05Q352.45,158.48,350.39,158.48Z"/>
              <path class="cls-8" d="M365.64,158v5.06c3.36-.22,6.27-.5,8.56-.83v-5C371.91,157.54,369,157.82,365.64,158Z"/>
            </g>
            <g>
              <path class="cls-5" d="M349.39,151.67c-16.2,0-29.33-1.37-29.33-3v5c0,1.69,13.13,3.05,29.33,3.05s29.34-1.36,29.34-3.05v-5C378.73,150.3,365.6,151.67,349.39,151.67Z"/>
              <path class="cls-6" d="M349.39,151.67c16.21,0,29.34-1.37,29.34-3s-13.13-3.05-29.34-3.05-29.33,1.37-29.33,3.05S333.19,151.67,349.39,151.67Z"/>
              <path class="cls-7" d="M349.39,150.47c-11.6,0-20.23-.67-24.79-1.42a.43.43,0,0,1,0-.85c4.56-.75,13.19-1.43,24.79-1.43s20.24.68,24.8,1.43a.43.43,0,0,1,0,.85C369.63,149.8,361,150.47,349.39,150.47Z"/>
              <path class="cls-8" d="M325.06,150.32v5.06c2.25.34,5.17.64,8.57.86v-5.05C330.23,151,327.31,150.67,325.06,150.32Z"/>
              <path class="cls-7" d="M349.39,151.67c-1.54,0-3.06,0-4.54,0v5.06c1.48,0,3,0,4.54,0q2.06,0,4,0v-5.05Q351.45,151.67,349.39,151.67Z"/>
              <path class="cls-8" d="M364.64,151.23v5.05c3.36-.21,6.27-.5,8.56-.83v-5C370.91,150.73,368,151,364.64,151.23Z"/>
            </g>
            <g>
              <path class="cls-5" d="M350.4,144.86c-16.21,0-29.34-1.36-29.34-3.05v5.06c0,1.68,13.13,3,29.34,3s29.33-1.36,29.33-3v-5.06C379.73,143.5,366.6,144.86,350.4,144.86Z"/>
              <path class="cls-6" d="M350.4,144.86c16.2,0,29.33-1.36,29.33-3.05s-13.13-3-29.33-3-29.34,1.36-29.34,3S334.19,144.86,350.4,144.86Z"/>
              <path class="cls-7" d="M350.39,143.67c-11.6,0-20.23-.68-24.79-1.43a.43.43,0,0,1,0-.85c4.56-.75,13.19-1.43,24.79-1.43s20.24.68,24.8,1.43a.43.43,0,0,1,0,.85C370.63,143,362,143.67,350.39,143.67Z"/>
              <path class="cls-8" d="M326.06,143.52v5c2.25.35,5.17.64,8.57.87v-5.06C331.23,144.16,328.31,143.86,326.06,143.52Z"/>
              <path class="cls-7" d="M350.4,144.86c-1.55,0-3.07,0-4.55,0v5.06c1.48,0,3,0,4.55,0,1.36,0,2.7,0,4,0v-5C353.1,144.85,351.76,144.86,350.4,144.86Z"/>
              <path class="cls-8" d="M365.64,144.42v5.05c3.36-.21,6.27-.49,8.56-.82v-5.06C371.91,143.92,369,144.21,365.64,144.42Z"/>
            </g>
          </g>
          <g>
            <rect class="cls-9" x="162.19" y="7.91" width="17.59" height="44.4"/>
            <rect class="cls-4" x="148.26" y="30.26" width="151.67" height="47.1"/>
            <polygon class="cls-10" points="299.93 279.85 148.26 279.85 148.26 75.72 223.22 38.58 299.93 75.72 299.93 279.85"/>
            <rect class="cls-11" x="148.26" y="267.31" width="151.67" height="12.17"/>
            <rect class="cls-11" x="148.26" y="102.04" width="151.67" height="3.73"/>
            <rect class="cls-11" x="148.26" y="90.67" width="151.67" height="3.73"/>
            <rect class="cls-11" x="148.26" y="79.3" width="151.67" height="3.73"/>
            <rect class="cls-12" x="194.65" y="211.49" width="60.9" height="65.88"/>
            <rect class="cls-13" x="200.01" y="216.54" width="50.96" height="62.94"/>
            <rect class="cls-14" x="200.04" y="264.53" width="50.76" height="7.47"/>
            <rect class="cls-4" x="204.82" y="220.58" width="41.92" height="9.14"/>
            <rect class="cls-4" x="204.82" y="232.36" width="41.92" height="32.17"/>
            <path class="cls-14" d="M220.52,245.77a1.79,1.79,0,1,1-1.78-1.78A1.79,1.79,0,0,1,220.52,245.77Z"/>
            <path class="cls-14" d="M232.65,245.77a1.79,1.79,0,1,1-1.79-1.78A1.79,1.79,0,0,1,232.65,245.77Z"/>
            <polygon class="cls-9" points="142.31 84.38 142.88 71.79 223.19 32.88 306.1 71.26 305.05 83.89 223.24 44.29 142.31 84.38"/>
            <rect class="cls-13" x="223.78" y="219.31" width="2.6" height="45.22"/>
            <rect class="cls-15" x="193.54" y="270.66" width="62.01" height="8.81"/>
            <g>
              <rect class="cls-9" x="148.02" y="156.84" width="52.07" height="23.73" transform="translate(342.76 -5.35) rotate(90)"/>
              <rect class="cls-2" x="165.66" y="145.72" width="16.8" height="45.98"/>
              <rect class="cls-16" x="160.76" y="194.74" width="26.6" height="7.14"/>
              <rect class="cls-17" x="160.76" y="198.86" width="26.6" height="3.17"/>
              <polygon class="cls-18" points="165.66 145.72 182.46 145.72 182.46 153.99 165.66 179.04 165.66 145.72"/>
              <rect class="cls-9" x="163.73" y="167.61" width="20.68" height="3.41"/>
              <rect class="cls-9" x="172.35" y="143.59" width="3.41" height="50.23"/>
            </g>
            <g>
              <rect class="cls-9" x="198.52" y="156.84" width="52.07" height="23.73" transform="translate(393.26 -55.84) rotate(90)"/>
              <rect class="cls-2" x="216.15" y="145.72" width="16.8" height="45.98"/>
              <rect class="cls-16" x="211.25" y="194.74" width="26.6" height="7.14"/>
              <rect class="cls-17" x="211.25" y="198.86" width="26.6" height="3.17"/>
              <polygon class="cls-18" points="216.15 145.72 232.95 145.72 232.95 153.99 216.15 179.04 216.15 145.72"/>
              <rect class="cls-9" x="214.22" y="167.61" width="20.68" height="3.41"/>
              <rect class="cls-9" x="222.85" y="143.59" width="3.41" height="50.23"/>
            </g>
            <g>
              <rect class="cls-9" x="249.01" y="156.84" width="52.07" height="23.73" transform="translate(443.75 -106.33) rotate(90)"/>
              <rect class="cls-2" x="266.64" y="145.72" width="16.8" height="45.98"/>
              <rect class="cls-16" x="261.74" y="194.74" width="26.6" height="7.14"/>
              <rect class="cls-17" x="261.74" y="198.86" width="26.6" height="3.17"/>
              <polygon class="cls-18" points="266.64 145.72 283.44 145.72 283.44 153.99 266.64 179.04 266.64 145.72"/>
              <rect class="cls-9" x="264.72" y="167.61" width="20.68" height="3.41"/>
              <rect class="cls-9" x="273.34" y="143.59" width="3.41" height="50.23"/>
            </g>
            <polygon class="cls-4" points="148.26 112.99 139.55 130.05 309.04 130.05 299.93 112.99 148.26 112.99"/>
            <rect class="cls-19" x="139.55" y="130.05" width="169.49" height="2.09"/>
            <rect class="cls-16" x="142.2" y="278.52" width="165.34" height="8.96"/>
            <rect class="cls-11" x="148.3" y="132.15" width="5.46" height="146.37"/>
            <rect class="cls-11" x="294.47" y="132.15" width="5.46" height="146.37"/>
            <g>
              <path class="cls-9" d="M210.54,95.65V74.16a13.67,13.67,0,1,1,27.33,0V95.65Z"/>
              <path class="cls-2" d="M235,92.8H213.39V74.16a10.82,10.82,0,0,1,10.82-10.82h0A10.82,10.82,0,0,1,235,74.16Z"/>
              <rect class="cls-9" x="222.74" y="65.59" width="2.94" height="25.35" transform="translate(302.47 -145.94) rotate(90)"/>
              <rect class="cls-9" x="222.54" y="61.83" width="2.95" height="16.24"/>
              <rect class="cls-16" x="207.64" y="95.65" width="33.14" height="6.07"/>
              <rect class="cls-17" x="207.64" y="99.15" width="33.14" height="2.7"/>
            </g>
          </g>
          <g>
            <path class="cls-20" d="M102,180.43H96.92A17.06,17.06,0,0,0,82.14,189l-2.55,4.42a17,17,0,0,0,0,17.06l2.55,4.43a17.08,17.08,0,0,0,14.78,8.53H102a17.08,17.08,0,0,0,14.77-8.53l2.56-4.43a17.1,17.1,0,0,0,0-17.06L116.8,189A17.06,17.06,0,0,0,102,180.43Z"/>
            <path class="cls-21" d="M92.26,196.14H85.73a21.83,21.83,0,0,0-18.91,10.92l-3.27,5.66a21.83,21.83,0,0,0,0,21.83l3.27,5.66a21.83,21.83,0,0,0,18.91,10.92h6.53a21.83,21.83,0,0,0,18.91-10.92l3.27-5.66a21.83,21.83,0,0,0,0-21.83l-3.27-5.66A21.83,21.83,0,0,0,92.26,196.14Z"/>
            <path class="cls-22" d="M107.94,223.63H105.1a9.52,9.52,0,0,0-8.24,4.76l-1.42,2.46a9.49,9.49,0,0,0,0,9.5l1.42,2.47a9.52,9.52,0,0,0,8.24,4.75h2.84a9.5,9.5,0,0,0,8.23-4.75l1.42-2.47a9.49,9.49,0,0,0,0-9.5l-1.42-2.46A9.51,9.51,0,0,0,107.94,223.63Z"/>
            <path class="cls-20" d="M51.15,204.81H48.31a9.49,9.49,0,0,0-8.23,4.75L38.65,212a9.55,9.55,0,0,0,0,9.51L40.08,224a9.5,9.5,0,0,0,8.23,4.76h2.84A9.5,9.5,0,0,0,59.38,224l1.43-2.46a9.55,9.55,0,0,0,0-9.51l-1.43-2.46A9.49,9.49,0,0,0,51.15,204.81Z"/>
            <path class="cls-20" d="M95,216.78H93.38a5.25,5.25,0,0,0-4.55,2.63L88,220.77A5.26,5.26,0,0,0,88,226l.79,1.36A5.27,5.27,0,0,0,93.38,230H95a5.28,5.28,0,0,0,4.55-2.63l.79-1.36a5.31,5.31,0,0,0,0-5.26l-.79-1.36A5.26,5.26,0,0,0,95,216.78Z"/>
            <path class="cls-20" d="M120.94,186.62h-1.58a5.26,5.26,0,0,0-4.55,2.63l-.79,1.36a5.26,5.26,0,0,0,0,5.26l.79,1.36a5.26,5.26,0,0,0,4.55,2.63h1.58a5.25,5.25,0,0,0,4.55-2.63l.79-1.36a5.26,5.26,0,0,0,0-5.26l-.79-1.36A5.25,5.25,0,0,0,120.94,186.62Z"/>
            <path class="cls-20" d="M59.78,175.47H58.21a5.26,5.26,0,0,0-4.56,2.63l-.78,1.36a5.26,5.26,0,0,0,0,5.26l.78,1.36a5.26,5.26,0,0,0,4.56,2.63h1.57a5.25,5.25,0,0,0,4.55-2.63l.79-1.36a5.26,5.26,0,0,0,0-5.26l-.79-1.36A5.25,5.25,0,0,0,59.78,175.47Z"/>
            <path class="cls-22" d="M69.48,181.6h-4.7a15.68,15.68,0,0,0-13.59,7.85l-2.35,4.06a15.72,15.72,0,0,0,0,15.7l2.35,4.06a15.68,15.68,0,0,0,13.59,7.85h4.7a15.7,15.7,0,0,0,13.59-7.85l2.35-4.06a15.72,15.72,0,0,0,0-15.7l-2.35-4.06A15.7,15.7,0,0,0,69.48,181.6Z"/>
            <path class="cls-10" d="M88.87,156.23H83a19.6,19.6,0,0,0-17,9.79l-2.93,5.08a19.57,19.57,0,0,0,0,19.58l2.93,5.08a19.58,19.58,0,0,0,17,9.79h5.86a19.59,19.59,0,0,0,17-9.79l2.93-5.08a19.62,19.62,0,0,0,0-19.58L105.83,166A19.61,19.61,0,0,0,88.87,156.23Z"/>
            <path class="cls-10" d="M119.74,193.66H115a15.9,15.9,0,0,0-13.77,8l-2.38,4.12a15.92,15.92,0,0,0,0,15.91l2.38,4.12a15.9,15.9,0,0,0,13.77,8h4.76a15.93,15.93,0,0,0,13.78-8l2.38-4.12a15.92,15.92,0,0,0,0-15.91l-2.38-4.12A15.93,15.93,0,0,0,119.74,193.66Z"/>
            <path class="cls-10" d="M67.84,211.43h-4a13.5,13.5,0,0,0-11.69,6.76l-2,3.5a13.46,13.46,0,0,0,0,13.5l2,3.5a13.49,13.49,0,0,0,11.69,6.75h4a13.5,13.5,0,0,0,11.7-6.75l2-3.5a13.51,13.51,0,0,0,0-13.5l-2-3.5A13.51,13.51,0,0,0,67.84,211.43Z"/>
            <line class="cls-23" x1="85.94" y1="170.83" x2="85.94" y2="286.05"/>
            <path class="cls-24" d="M85.94,223.63h25.64a8.57,8.57,0,0,0,8.57-8.57v-5.19"/>
            <path class="cls-24" d="M85.63,242H74.4a8.57,8.57,0,0,1-8.58-8.57v-5.2"/>
            <polyline class="cls-24" points="73.33 178.92 85.8 191.39 97.92 178.84"/>
          </g>
          <g>
            <g>
              <path class="cls-5" d="M323.17,284.78c-16.2,0-29.33-1.36-29.33-3v5.05c0,1.68,13.13,3,29.33,3s29.34-1.37,29.34-3v-5.05C352.51,283.42,339.38,284.78,323.17,284.78Z"/>
              <path class="cls-6" d="M323.17,284.78c16.21,0,29.34-1.36,29.34-3s-13.13-3.05-29.34-3.05-29.33,1.37-29.33,3.05S307,284.78,323.17,284.78Z"/>
              <path class="cls-7" d="M323.17,283.59c-11.6,0-20.23-.68-24.79-1.43a.43.43,0,0,1,0-.85c4.56-.75,13.19-1.42,24.79-1.42s20.24.67,24.8,1.42a.43.43,0,0,1,0,.85C343.41,282.91,334.78,283.59,323.17,283.59Z"/>
              <path class="cls-8" d="M298.84,283.44v5.05c2.25.35,5.17.64,8.57.87v-5.05C304,284.08,301.09,283.79,298.84,283.44Z"/>
              <path class="cls-7" d="M323.17,284.78c-1.54,0-3.06,0-4.54,0v5.05c1.48,0,3,0,4.54,0q2.06,0,4,0v-5.05Z"/>
              <path class="cls-8" d="M338.42,284.34v5.06c3.36-.22,6.27-.5,8.56-.83v-5.05C344.69,283.85,341.78,284.13,338.42,284.34Z"/>
            </g>
            <g>
              <path class="cls-5" d="M323.17,278.39c-16.2,0-29.33-1.37-29.33-3.05v5.05c0,1.69,13.13,3.05,29.33,3.05s29.34-1.36,29.34-3.05v-5.05C352.51,277,339.38,278.39,323.17,278.39Z"/>
              <ellipse class="cls-6" cx="323.17" cy="275.34" rx="29.34" ry="3.05"/>
              <path class="cls-7" d="M323.17,277.19c-11.6,0-20.23-.67-24.79-1.42a.44.44,0,0,1,0-.86c4.56-.75,13.19-1.42,24.79-1.42s20.24.67,24.8,1.42a.44.44,0,0,1,0,.86C343.41,276.52,334.78,277.19,323.17,277.19Z"/>
              <path class="cls-8" d="M298.84,277v5.06c2.25.34,5.17.64,8.57.86v-5C304,277.68,301.09,277.39,298.84,277Z"/>
              <path class="cls-7" d="M323.17,278.39c-1.54,0-3.06,0-4.54,0v5c1.48,0,3,0,4.54,0q2.06,0,4,0v-5.05Q325.23,278.39,323.17,278.39Z"/>
              <path class="cls-8" d="M338.42,277.94V283c3.36-.22,6.27-.5,8.56-.83v-5.05C344.69,277.45,341.78,277.73,338.42,277.94Z"/>
            </g>
            <g>
              <path class="cls-5" d="M323.17,272c-16.2,0-29.33-1.36-29.33-3.05V274c0,1.68,13.13,3,29.33,3s29.34-1.36,29.34-3v-5.06C352.51,270.63,339.38,272,323.17,272Z"/>
              <path class="cls-6" d="M323.17,272c16.21,0,29.34-1.36,29.34-3.05s-13.13-3-29.34-3-29.33,1.36-29.33,3S307,272,323.17,272Z"/>
              <path class="cls-7" d="M323.17,270.8c-11.6,0-20.23-.68-24.79-1.43a.43.43,0,0,1,0-.85c4.56-.75,13.19-1.43,24.79-1.43s20.24.68,24.8,1.43a.43.43,0,0,1,0,.85C343.41,270.12,334.78,270.8,323.17,270.8Z"/>
              <path class="cls-8" d="M298.84,270.64v5.06c2.25.34,5.17.64,8.57.86v-5.05C304,271.29,301.09,271,298.84,270.64Z"/>
              <path class="cls-7" d="M323.17,272c-1.54,0-3.06,0-4.54,0V277c1.48,0,3,0,4.54,0q2.06,0,4,0V272Q325.23,272,323.17,272Z"/>
              <path class="cls-8" d="M338.42,271.55v5.05c3.36-.21,6.27-.49,8.56-.82v-5.06C344.69,271.05,341.78,271.33,338.42,271.55Z"/>
            </g>
            <g>
              <path class="cls-5" d="M321.19,265.59c-16.21,0-29.34-1.36-29.34-3v5.06c0,1.68,13.13,3,29.34,3s29.33-1.36,29.33-3v-5.06C350.52,264.23,337.39,265.59,321.19,265.59Z"/>
              <ellipse class="cls-6" cx="321.19" cy="262.54" rx="29.34" ry="3.05"/>
              <path class="cls-7" d="M321.19,264.4c-11.61,0-20.24-.68-24.8-1.43a.43.43,0,0,1,0-.85c4.56-.75,13.19-1.43,24.8-1.43s20.23.68,24.79,1.43a.43.43,0,0,1,0,.85C341.42,263.72,332.79,264.4,321.19,264.4Z"/>
              <path class="cls-8" d="M296.85,264.25v5.05c2.25.35,5.17.64,8.57.87v-5.06C302,264.89,299.1,264.59,296.85,264.25Z"/>
              <path class="cls-7" d="M321.19,265.59c-1.55,0-3.07,0-4.55,0v5.06c1.48,0,3,0,4.55,0l4,0v-5.06C323.89,265.58,322.55,265.59,321.19,265.59Z"/>
              <path class="cls-8" d="M336.43,265.15v5.05c3.36-.21,6.27-.49,8.56-.82v-5.06C342.7,264.65,339.79,264.94,336.43,265.15Z"/>
            </g>
            <g>
              <path class="cls-5" d="M323.17,259.19c-16.2,0-29.33-1.36-29.33-3v5.05c0,1.68,13.13,3.05,29.33,3.05s29.34-1.37,29.34-3.05v-5.05C352.51,257.83,339.38,259.19,323.17,259.19Z"/>
              <path class="cls-6" d="M323.17,259.19c16.21,0,29.34-1.36,29.34-3s-13.13-3-29.34-3-29.33,1.36-29.33,3S307,259.19,323.17,259.19Z"/>
              <path class="cls-7" d="M323.17,258c-11.6,0-20.23-.68-24.79-1.43a.43.43,0,0,1,0-.85c4.56-.75,13.19-1.43,24.79-1.43s20.24.68,24.8,1.43a.43.43,0,0,1,0,.85C343.41,257.32,334.78,258,323.17,258Z"/>
              <path class="cls-8" d="M298.84,257.85v5c2.25.35,5.17.64,8.57.87v-5C304,258.49,301.09,258.2,298.84,257.85Z"/>
              <path class="cls-7" d="M323.17,259.19c-1.54,0-3.06,0-4.54,0v5c1.48,0,3,0,4.54,0q2.06,0,4,0v-5.06Q325.23,259.19,323.17,259.19Z"/>
              <path class="cls-8" d="M338.42,258.75v5.05c3.36-.21,6.27-.49,8.56-.82v-5.05C344.69,258.26,341.78,258.54,338.42,258.75Z"/>
            </g>
            <g>
              <path class="cls-5" d="M325.16,252.8c-16.2,0-29.33-1.37-29.33-3.05v5.05c0,1.69,13.13,3.05,29.33,3.05s29.34-1.36,29.34-3.05v-5.05C354.5,251.43,341.37,252.8,325.16,252.8Z"/>
              <path class="cls-6" d="M325.16,252.8c16.21,0,29.34-1.37,29.34-3.05s-13.13-3.05-29.34-3.05-29.33,1.37-29.33,3.05S309,252.8,325.16,252.8Z"/>
              <path class="cls-7" d="M325.16,251.6c-11.6,0-20.23-.67-24.79-1.42a.44.44,0,0,1,0-.86c4.56-.75,13.19-1.42,24.79-1.42s20.24.67,24.8,1.42a.44.44,0,0,1,0,.86C345.4,250.93,336.77,251.6,325.16,251.6Z"/>
              <path class="cls-8" d="M300.83,251.45v5.05c2.25.35,5.17.65,8.57.87v-5.05C306,252.09,303.08,251.8,300.83,251.45Z"/>
              <path class="cls-7" d="M325.16,252.8c-1.54,0-3.06,0-4.54,0v5.05c1.48,0,3,0,4.54,0q2.05,0,4,0v-5Q327.22,252.8,325.16,252.8Z"/>
              <path class="cls-8" d="M340.41,252.35v5.06c3.36-.22,6.27-.5,8.56-.83v-5C346.68,251.86,343.77,252.14,340.41,252.35Z"/>
            </g>
            <g>
              <path class="cls-5" d="M323.17,246.4c-16.2,0-29.33-1.37-29.33-3.05v5.05c0,1.69,13.13,3,29.33,3s29.34-1.36,29.34-3v-5.05C352.51,245,339.38,246.4,323.17,246.4Z"/>
              <ellipse class="cls-6" cx="323.17" cy="243.35" rx="29.34" ry="3.05"/>
              <path class="cls-7" d="M323.17,245.2c-11.6,0-20.23-.67-24.79-1.42a.43.43,0,0,1,0-.85c4.56-.75,13.19-1.43,24.79-1.43s20.24.68,24.8,1.43a.43.43,0,0,1,0,.85C343.41,244.53,334.78,245.2,323.17,245.2Z"/>
              <path class="cls-8" d="M298.84,245.05v5.06c2.25.34,5.17.64,8.57.86v-5.05C304,245.69,301.09,245.4,298.84,245.05Z"/>
              <path class="cls-7" d="M323.17,246.4c-1.54,0-3.06,0-4.54,0v5.06c1.48,0,3,0,4.54,0q2.06,0,4,0v-5Q325.23,246.4,323.17,246.4Z"/>
              <path class="cls-8" d="M338.42,246v5c3.36-.21,6.27-.5,8.56-.83v-5.05C344.69,245.46,341.78,245.74,338.42,246Z"/>
            </g>
            <g>
              <path class="cls-5" d="M323.17,240c-16.2,0-29.33-1.36-29.33-3.05V242c0,1.68,13.13,3,29.33,3s29.34-1.36,29.34-3V237C352.51,238.64,339.38,240,323.17,240Z"/>
              <path class="cls-6" d="M323.17,240c16.21,0,29.34-1.36,29.34-3.05s-13.13-3-29.34-3-29.33,1.36-29.33,3S307,240,323.17,240Z"/>
              <path class="cls-7" d="M323.17,238.81c-11.6,0-20.23-.68-24.79-1.43a.43.43,0,0,1,0-.85c4.56-.75,13.19-1.43,24.79-1.43s20.24.68,24.8,1.43a.43.43,0,0,1,0,.85C343.41,238.13,334.78,238.81,323.17,238.81Z"/>
              <path class="cls-8" d="M298.84,238.66v5.05c2.25.35,5.17.64,8.57.87v-5.06C304,239.3,301.09,239,298.84,238.66Z"/>
              <path class="cls-7" d="M323.17,240c-1.54,0-3.06,0-4.54,0V245c1.48,0,3,0,4.54,0q2.06,0,4,0V240Q325.23,240,323.17,240Z"/>
              <path class="cls-8" d="M338.42,239.56v5.05c3.36-.21,6.27-.49,8.56-.82v-5.06C344.69,239.06,341.78,239.35,338.42,239.56Z"/>
            </g>
            <g>
              <path class="cls-5" d="M323.18,232.75c-16.21,0-29.34-1.37-29.34-3.05v5.05c0,1.69,13.13,3.05,29.34,3.05s29.33-1.36,29.33-3.05V229.7C352.51,231.38,339.38,232.75,323.18,232.75Z"/>
              <ellipse class="cls-6" cx="323.18" cy="229.7" rx="29.34" ry="3.05"/>
              <path class="cls-7" d="M323.17,231.55c-11.6,0-20.23-.67-24.79-1.42a.44.44,0,0,1,0-.86,172.28,172.28,0,0,1,24.79-1.42,172.34,172.34,0,0,1,24.8,1.42.44.44,0,0,1,0,.86C343.41,230.88,334.78,231.55,323.17,231.55Z"/>
              <path class="cls-8" d="M298.84,231.4v5.06c2.25.34,5.17.64,8.57.86v-5C304,232,301.09,231.75,298.84,231.4Z"/>
              <path class="cls-7" d="M323.18,232.75c-1.55,0-3.07,0-4.55,0v5c1.48,0,3,0,4.55,0,1.36,0,2.7,0,4,0v-5.05C325.88,232.74,324.54,232.75,323.18,232.75Z"/>
              <path class="cls-8" d="M338.42,232.31v5.05c3.36-.21,6.27-.5,8.56-.83v-5.05C344.69,231.81,341.78,232.09,338.42,232.31Z"/>
            </g>
            <g>
              <path class="cls-5" d="M321.19,226.35c-16.21,0-29.34-1.36-29.34-3v5.06c0,1.68,13.13,3,29.34,3s29.33-1.36,29.33-3V223.3C350.52,225,337.39,226.35,321.19,226.35Z"/>
              <path class="cls-6" d="M321.19,226.35c16.2,0,29.33-1.36,29.33-3s-13.13-3-29.33-3-29.34,1.36-29.34,3S305,226.35,321.19,226.35Z"/>
              <path class="cls-7" d="M321.19,225.16c-11.61,0-20.24-.68-24.8-1.43a.43.43,0,0,1,0-.85c4.56-.75,13.19-1.43,24.8-1.43s20.23.68,24.79,1.43a.43.43,0,0,1,0,.85C341.42,224.48,332.79,225.16,321.19,225.16Z"/>
              <path class="cls-8" d="M296.85,225v5.05c2.25.35,5.17.64,8.57.87v-5.06C302,225.65,299.1,225.35,296.85,225Z"/>
              <path class="cls-7" d="M321.19,226.35c-1.55,0-3.07,0-4.55,0v5.06c1.48,0,3,0,4.55,0,1.36,0,2.7,0,4,0v-5.05C323.89,226.34,322.55,226.35,321.19,226.35Z"/>
              <path class="cls-8" d="M336.43,225.91V231c3.36-.21,6.27-.49,8.56-.82v-5.06C342.7,225.41,339.79,225.69,336.43,225.91Z"/>
            </g>
            <g>
              <path class="cls-5" d="M321.19,220c-16.21,0-29.34-1.36-29.34-3V222c0,1.68,13.13,3,29.34,3s29.33-1.37,29.33-3v-5.05C350.52,218.59,337.39,220,321.19,220Z"/>
              <path class="cls-6" d="M321.19,220c16.2,0,29.33-1.36,29.33-3s-13.13-3-29.33-3-29.34,1.36-29.34,3S305,220,321.19,220Z"/>
              <path class="cls-7" d="M321.19,218.76c-11.61,0-20.24-.68-24.8-1.43a.43.43,0,0,1,0-.85c4.56-.75,13.19-1.43,24.8-1.43s20.23.68,24.79,1.43a.43.43,0,0,1,0,.85C341.42,218.08,332.79,218.76,321.19,218.76Z"/>
              <path class="cls-8" d="M296.85,218.61v5c2.25.35,5.17.64,8.57.87v-5.06C302,219.25,299.1,219,296.85,218.61Z"/>
              <path class="cls-7" d="M321.19,220c-1.55,0-3.07,0-4.55,0V225c1.48,0,3,0,4.55,0,1.36,0,2.7,0,4,0v-5.06C323.89,219.94,322.55,220,321.19,220Z"/>
              <path class="cls-8" d="M336.43,219.51v5.05c3.36-.21,6.27-.49,8.56-.82v-5.05C342.7,219,339.79,219.3,336.43,219.51Z"/>
            </g>
            <g>
              <path class="cls-5" d="M321.19,213.55c-16.21,0-29.34-1.36-29.34-3v5.05c0,1.68,13.13,3.05,29.34,3.05s29.33-1.37,29.33-3.05v-5.05C350.52,212.19,337.39,213.55,321.19,213.55Z"/>
              <ellipse class="cls-6" cx="321.19" cy="210.51" rx="29.34" ry="3.05"/>
              <path class="cls-7" d="M321.19,212.36c-11.61,0-20.24-.68-24.8-1.43a.43.43,0,0,1,0-.85c4.56-.75,13.19-1.42,24.8-1.42s20.23.67,24.79,1.42a.43.43,0,0,1,0,.85C341.42,211.68,332.79,212.36,321.19,212.36Z"/>
              <path class="cls-8" d="M296.85,212.21v5c2.25.35,5.17.64,8.57.87v-5C302,212.85,299.1,212.56,296.85,212.21Z"/>
              <path class="cls-7" d="M321.19,213.55c-1.55,0-3.07,0-4.55,0v5c1.48,0,3,0,4.55,0,1.36,0,2.7,0,4,0v-5.05Z"/>
              <path class="cls-8" d="M336.43,213.11v5.06c3.36-.22,6.27-.5,8.56-.83v-5.05C342.7,212.62,339.79,212.9,336.43,213.11Z"/>
            </g>
            <g>
              <path class="cls-5" d="M321.19,207.16c-16.21,0-29.34-1.37-29.34-3v5c0,1.69,13.13,3.05,29.34,3.05s29.33-1.36,29.33-3.05v-5C350.52,205.79,337.39,207.16,321.19,207.16Z"/>
              <path class="cls-6" d="M321.19,207.16c16.2,0,29.33-1.37,29.33-3s-13.13-3.05-29.33-3.05-29.34,1.37-29.34,3.05S305,207.16,321.19,207.16Z"/>
              <path class="cls-7" d="M321.19,206c-11.61,0-20.24-.67-24.8-1.42a.44.44,0,0,1,0-.86c4.56-.75,13.19-1.42,24.8-1.42s20.23.67,24.79,1.42a.44.44,0,0,1,0,.86C341.42,205.29,332.79,206,321.19,206Z"/>
              <path class="cls-8" d="M296.85,205.81v5.06c2.25.34,5.17.64,8.57.86v-5C302,206.45,299.1,206.16,296.85,205.81Z"/>
              <path class="cls-7" d="M321.19,207.16c-1.55,0-3.07,0-4.55,0v5c1.48,0,3,0,4.55,0,1.36,0,2.7,0,4,0v-5.05C323.89,207.15,322.55,207.16,321.19,207.16Z"/>
              <path class="cls-8" d="M336.43,206.71v5.06c3.36-.22,6.27-.5,8.56-.83v-5.05C342.7,206.22,339.79,206.5,336.43,206.71Z"/>
            </g>
            <g>
              <path class="cls-5" d="M321.19,200.76c-16.21,0-29.34-1.36-29.34-3v5.06c0,1.68,13.13,3,29.34,3s29.33-1.36,29.33-3v-5.06C350.52,199.4,337.39,200.76,321.19,200.76Z"/>
              <ellipse class="cls-6" cx="321.19" cy="197.71" rx="29.34" ry="3.05"/>
              <path class="cls-7" d="M321.19,199.57c-11.61,0-20.24-.68-24.8-1.43a.43.43,0,0,1,0-.85c4.56-.75,13.19-1.43,24.8-1.43s20.23.68,24.79,1.43a.43.43,0,0,1,0,.85C341.42,198.89,332.79,199.57,321.19,199.57Z"/>
              <path class="cls-8" d="M296.85,199.41v5.06c2.25.34,5.17.64,8.57.86v-5.05C302,200.06,299.1,199.76,296.85,199.41Z"/>
              <path class="cls-7" d="M321.19,200.76c-1.55,0-3.07,0-4.55,0v5.06c1.48,0,3,0,4.55,0,1.36,0,2.7,0,4,0v-5.05C323.89,200.75,322.55,200.76,321.19,200.76Z"/>
              <path class="cls-8" d="M336.43,200.32v5.05c3.36-.21,6.27-.49,8.56-.82v-5.06C342.7,199.82,339.79,200.1,336.43,200.32Z"/>
            </g>
            <g>
              <path class="cls-5" d="M324.77,194.36c-16.21,0-29.34-1.36-29.34-3.05v5.06c0,1.68,13.13,3,29.34,3s29.34-1.36,29.34-3v-5.06C354.11,193,341,194.36,324.77,194.36Z"/>
              <ellipse class="cls-6" cx="324.77" cy="191.31" rx="29.34" ry="3.05"/>
              <path class="cls-7" d="M324.77,193.17c-11.61,0-20.24-.68-24.8-1.43a.43.43,0,0,1,0-.85c4.56-.75,13.19-1.43,24.8-1.43a170.66,170.66,0,0,1,24.8,1.43.43.43,0,0,1,0,.85A170.66,170.66,0,0,1,324.77,193.17Z"/>
              <path class="cls-8" d="M300.43,193v5c2.25.35,5.17.64,8.57.87v-5.06C305.6,193.66,302.68,193.36,300.43,193Z"/>
              <path class="cls-7" d="M324.77,194.36c-1.55,0-3.07,0-4.55,0v5c1.48,0,3,0,4.55,0l4,0v-5.06Q326.81,194.36,324.77,194.36Z"/>
              <path class="cls-8" d="M340,193.92V199c3.36-.21,6.27-.49,8.56-.82v-5.06C346.28,193.42,343.37,193.71,340,193.92Z"/>
            </g>
            <g>
              <path class="cls-5" d="M324.77,188c-16.21,0-29.34-1.36-29.34-3V190c0,1.68,13.13,3.05,29.34,3.05s29.34-1.37,29.34-3.05v-5.05C354.11,186.6,341,188,324.77,188Z"/>
              <path class="cls-6" d="M324.77,188c16.2,0,29.34-1.36,29.34-3s-13.14-3-29.34-3-29.34,1.36-29.34,3S308.56,188,324.77,188Z"/>
              <path class="cls-7" d="M324.77,186.77c-11.61,0-20.24-.68-24.8-1.43a.43.43,0,0,1,0-.85c4.56-.75,13.19-1.43,24.8-1.43a170.66,170.66,0,0,1,24.8,1.43.43.43,0,0,1,0,.85A170.66,170.66,0,0,1,324.77,186.77Z"/>
              <path class="cls-8" d="M300.43,186.62v5c2.25.35,5.17.64,8.57.87v-5C305.6,187.26,302.68,187,300.43,186.62Z"/>
              <path class="cls-7" d="M324.77,188c-1.55,0-3.07,0-4.55,0v5c1.48,0,3,0,4.55,0q2,0,4,0v-5.06Q326.81,188,324.77,188Z"/>
              <path class="cls-8" d="M340,187.52v5c3.36-.21,6.27-.49,8.56-.82V186.7C346.28,187,343.37,187.31,340,187.52Z"/>
            </g>
          </g>
          <g>
            <g>
              <path class="cls-5" d="M34,287.87c-16.2,0-29.34-1.37-29.34-3.05v5.05c0,1.69,13.14,3.05,29.34,3.05s29.34-1.36,29.34-3.05v-5.05C63.3,286.5,50.16,287.87,34,287.87Z"/>
              <path class="cls-6" d="M34,287.87c16.2,0,29.34-1.37,29.34-3.05S50.16,281.77,34,281.77s-29.34,1.37-29.34,3.05S17.76,287.87,34,287.87Z"/>
              <path class="cls-7" d="M34,286.67c-11.6,0-20.23-.67-24.8-1.42a.44.44,0,0,1,0-.86c4.57-.75,13.2-1.42,24.8-1.42s20.24.67,24.8,1.42a.44.44,0,0,1,0,.86C54.2,286,45.56,286.67,34,286.67Z"/>
              <path class="cls-8" d="M9.63,286.52v5.06c2.25.34,5.17.64,8.56.86v-5.05C14.8,287.16,11.88,286.87,9.63,286.52Z"/>
              <path class="cls-7" d="M34,287.87c-1.55,0-3.06,0-4.55,0v5.05c1.49,0,3,0,4.55,0q2,0,4,0v-5.05Q36,287.87,34,287.87Z"/>
              <path class="cls-8" d="M49.2,287.42v5.06c3.36-.22,6.27-.5,8.57-.83v-5C55.47,286.93,52.56,287.21,49.2,287.42Z"/>
            </g>
            <g>
              <path class="cls-5" d="M34,281.47c-16.2,0-29.34-1.36-29.34-3.05v5.06c0,1.68,13.14,3,29.34,3s29.34-1.36,29.34-3v-5.06C63.3,280.11,50.16,281.47,34,281.47Z"/>
              <ellipse class="cls-6" cx="33.96" cy="278.42" rx="29.34" ry="3.05"/>
              <path class="cls-7" d="M34,280.28a170.66,170.66,0,0,1-24.8-1.43.43.43,0,0,1,0-.85A170.66,170.66,0,0,1,34,276.57c11.6,0,20.24.68,24.8,1.43a.43.43,0,0,1,0,.85C54.2,279.6,45.56,280.28,34,280.28Z"/>
              <path class="cls-8" d="M9.63,280.12v5.06c2.25.34,5.17.64,8.56.86V281C14.8,280.77,11.88,280.47,9.63,280.12Z"/>
              <path class="cls-7" d="M34,281.47c-1.55,0-3.06,0-4.55,0v5.06c1.49,0,3,0,4.55,0q2,0,4,0v-5.05Q36,281.47,34,281.47Z"/>
              <path class="cls-8" d="M49.2,281v5.05c3.36-.21,6.27-.49,8.57-.82V280.2C55.47,280.53,52.56,280.81,49.2,281Z"/>
            </g>
            <g>
              <path class="cls-5" d="M34,275.07c-16.2,0-29.34-1.36-29.34-3.05v5.06c0,1.68,13.14,3,29.34,3s29.34-1.36,29.34-3V272C63.3,273.71,50.16,275.07,34,275.07Z"/>
              <path class="cls-6" d="M34,275.07c16.2,0,29.34-1.36,29.34-3.05S50.16,269,34,269s-29.34,1.36-29.34,3S17.76,275.07,34,275.07Z"/>
              <path class="cls-7" d="M34,273.88a170.66,170.66,0,0,1-24.8-1.43.43.43,0,0,1,0-.85A170.66,170.66,0,0,1,34,270.17c11.6,0,20.24.68,24.8,1.43a.43.43,0,0,1,0,.85C54.2,273.2,45.56,273.88,34,273.88Z"/>
              <path class="cls-8" d="M9.63,273.73v5c2.25.35,5.17.64,8.56.87v-5.06C14.8,274.37,11.88,274.07,9.63,273.73Z"/>
              <path class="cls-7" d="M34,275.07c-1.55,0-3.06,0-4.55,0v5c1.49,0,3,0,4.55,0l4,0V275Q36,275.07,34,275.07Z"/>
              <path class="cls-8" d="M49.2,274.63v5.05c3.36-.21,6.27-.49,8.57-.82V273.8C55.47,274.14,52.56,274.42,49.2,274.63Z"/>
            </g>
            <g>
              <path class="cls-5" d="M32,268.67c-16.2,0-29.34-1.36-29.34-3v5.05c0,1.68,13.14,3.05,29.34,3.05s29.34-1.37,29.34-3.05v-5.05C61.31,267.31,48.17,268.67,32,268.67Z"/>
              <path class="cls-6" d="M32,268.67c16.2,0,29.34-1.36,29.34-3S48.17,262.58,32,262.58s-29.34,1.36-29.34,3.05S15.77,268.67,32,268.67Z"/>
              <path class="cls-7" d="M32,267.48a170.66,170.66,0,0,1-24.8-1.43.43.43,0,0,1,0-.85A170.66,170.66,0,0,1,32,263.77c11.6,0,20.24.68,24.8,1.43a.43.43,0,0,1,0,.85C52.21,266.8,43.57,267.48,32,267.48Z"/>
              <path class="cls-8" d="M7.64,267.33v5.05c2.25.35,5.17.64,8.56.87V268.2C12.81,268,9.89,267.68,7.64,267.33Z"/>
              <path class="cls-7" d="M32,268.67c-1.55,0-3.06,0-4.55,0v5.05c1.49,0,3,0,4.55,0q2,0,4,0v-5.06Q34,268.67,32,268.67Z"/>
              <path class="cls-8" d="M47.21,268.23v5c3.36-.21,6.27-.49,8.57-.82v-5C53.48,267.74,50.57,268,47.21,268.23Z"/>
            </g>
            <g>
              <path class="cls-5" d="M34,262.28c-16.2,0-29.34-1.37-29.34-3v5c0,1.69,13.14,3.05,29.34,3.05S63.3,266,63.3,264.28v-5C63.3,260.91,50.16,262.28,34,262.28Z"/>
              <ellipse class="cls-6" cx="33.96" cy="259.23" rx="29.34" ry="3.05"/>
              <path class="cls-7" d="M34,261.08c-11.6,0-20.23-.67-24.8-1.42a.44.44,0,0,1,0-.86c4.57-.75,13.2-1.42,24.8-1.42s20.24.67,24.8,1.42a.44.44,0,0,1,0,.86C54.2,260.41,45.56,261.08,34,261.08Z"/>
              <path class="cls-8" d="M9.63,260.93V266c2.25.34,5.17.64,8.56.86V261.8C14.8,261.57,11.88,261.28,9.63,260.93Z"/>
              <path class="cls-7" d="M34,262.28c-1.55,0-3.06,0-4.55,0v5.05c1.49,0,3,0,4.55,0q2,0,4,0v-5.05Q36,262.28,34,262.28Z"/>
              <path class="cls-8" d="M49.2,261.83v5.06c3.36-.22,6.27-.5,8.57-.83V261C55.47,261.34,52.56,261.62,49.2,261.83Z"/>
            </g>
            <g>
              <path class="cls-5" d="M36,255.88c-16.2,0-29.34-1.37-29.34-3v5.06c0,1.68,13.14,3,29.34,3s29.34-1.36,29.34-3v-5.06C65.29,254.51,52.15,255.88,36,255.88Z"/>
              <path class="cls-6" d="M36,255.88c16.2,0,29.34-1.37,29.34-3S52.15,249.78,36,249.78s-29.34,1.37-29.34,3.05S19.75,255.88,36,255.88Z"/>
              <path class="cls-7" d="M36,254.68c-11.6,0-20.23-.67-24.8-1.42a.43.43,0,0,1,0-.85A170.66,170.66,0,0,1,36,251c11.6,0,20.24.68,24.8,1.43a.43.43,0,0,1,0,.85C56.19,254,47.55,254.68,36,254.68Z"/>
              <path class="cls-8" d="M11.61,254.53v5.06c2.26.34,5.18.64,8.57.86v-5C16.79,255.18,13.87,254.88,11.61,254.53Z"/>
              <path class="cls-7" d="M36,255.88c-1.55,0-3.06,0-4.55,0v5.06c1.49,0,3,0,4.55,0q2,0,4,0v-5Q38,255.88,36,255.88Z"/>
              <path class="cls-8" d="M51.19,255.44v5.05c3.36-.21,6.27-.49,8.57-.83v-5.05C57.46,254.94,54.55,255.22,51.19,255.44Z"/>
            </g>
            <g>
              <path class="cls-5" d="M32,249.48c-16.2,0-29.34-1.36-29.34-3v5.06c0,1.68,13.14,3,29.34,3s29.34-1.36,29.34-3v-5.06C61.3,248.12,48.16,249.48,32,249.48Z"/>
              <path class="cls-6" d="M32,249.48c16.2,0,29.34-1.36,29.34-3s-13.14-3-29.34-3-29.34,1.36-29.34,3S15.76,249.48,32,249.48Z"/>
              <path class="cls-7" d="M32,248.29a170.66,170.66,0,0,1-24.8-1.43.43.43,0,0,1,0-.85A170.66,170.66,0,0,1,32,244.58c11.6,0,20.24.68,24.8,1.43a.43.43,0,0,1,0,.85C52.2,247.61,43.56,248.29,32,248.29Z"/>
              <path class="cls-8" d="M7.63,248.14v5.05c2.25.35,5.17.64,8.56.87V249C12.8,248.78,9.88,248.48,7.63,248.14Z"/>
              <path class="cls-7" d="M32,249.48c-1.55,0-3.06,0-4.55,0v5.06c1.49,0,3,0,4.55,0q2,0,4,0v-5.05Q34,249.48,32,249.48Z"/>
              <path class="cls-8" d="M47.2,249v5.05c3.36-.21,6.27-.49,8.57-.82v-5.06C53.47,248.54,50.56,248.83,47.2,249Z"/>
            </g>
          </g>
          <g>
            <g>
              <path class="cls-5" d="M95.7,287.72c-16.2,0-29.34-1.37-29.34-3.05v5.05c0,1.69,13.14,3,29.34,3s29.34-1.36,29.34-3v-5.05C125,286.35,111.91,287.72,95.7,287.72Z"/>
              <ellipse class="cls-6" cx="95.7" cy="284.67" rx="29.34" ry="3.05"/>
              <path class="cls-7" d="M95.7,286.52a172.56,172.56,0,0,1-24.8-1.42.44.44,0,0,1,0-.86c4.57-.75,13.2-1.42,24.8-1.42s20.24.67,24.8,1.42a.44.44,0,0,1,0,.86A172.34,172.34,0,0,1,95.7,286.52Z"/>
              <path class="cls-8" d="M71.37,286.37v5.05c2.25.35,5.17.65,8.56.87v-5.05C76.54,287,73.62,286.72,71.37,286.37Z"/>
              <path class="cls-7" d="M95.7,287.72c-1.54,0-3.06,0-4.54,0v5.05c1.48,0,3,0,4.54,0q2.05,0,4,0v-5.05Q97.76,287.72,95.7,287.72Z"/>
              <path class="cls-8" d="M110.94,287.27v5.06c3.37-.22,6.28-.5,8.57-.83v-5.05C117.22,286.78,114.31,287.06,110.94,287.27Z"/>
            </g>
            <g>
              <path class="cls-5" d="M96.7,281.32c-16.2,0-29.34-1.37-29.34-3.05v5.05c0,1.69,13.14,3.05,29.34,3.05S126,285,126,283.32v-5.05C126,280,112.91,281.32,96.7,281.32Z"/>
              <path class="cls-6" d="M96.7,281.32c16.21,0,29.34-1.37,29.34-3.05s-13.13-3-29.34-3-29.34,1.37-29.34,3S80.5,281.32,96.7,281.32Z"/>
              <path class="cls-7" d="M96.7,280.12c-11.6,0-20.23-.67-24.8-1.42a.44.44,0,0,1,0-.86,172.56,172.56,0,0,1,24.8-1.42,172.34,172.34,0,0,1,24.8,1.42.44.44,0,0,1,0,.86C116.94,279.45,108.31,280.12,96.7,280.12Z"/>
              <path class="cls-8" d="M72.37,280V285c2.25.34,5.17.64,8.56.86v-5.05C77.54,280.61,74.62,280.32,72.37,280Z"/>
              <path class="cls-7" d="M96.7,281.32c-1.54,0-3.06,0-4.54,0v5.05c1.48,0,3,0,4.54,0q2.05,0,4,0v-5Q98.76,281.32,96.7,281.32Z"/>
              <path class="cls-8" d="M111.94,280.88v5.05c3.37-.21,6.28-.5,8.57-.83v-5.05C118.22,280.38,115.31,280.66,111.94,280.88Z"/>
            </g>
            <g>
              <path class="cls-5" d="M94.7,274.92c-16.2,0-29.34-1.36-29.34-3.05v5.06c0,1.68,13.14,3,29.34,3s29.34-1.36,29.34-3v-5.06C124,273.56,110.91,274.92,94.7,274.92Z"/>
              <ellipse class="cls-6" cx="94.7" cy="271.87" rx="29.34" ry="3.05"/>
              <path class="cls-7" d="M94.7,273.73a170.66,170.66,0,0,1-24.8-1.43.43.43,0,0,1,0-.85A170.66,170.66,0,0,1,94.7,270c11.61,0,20.24.68,24.8,1.43a.43.43,0,0,1,0,.85C114.94,273.05,106.31,273.73,94.7,273.73Z"/>
              <path class="cls-8" d="M70.37,273.58v5.05c2.25.35,5.17.64,8.56.87v-5.06C75.54,274.22,72.62,273.92,70.37,273.58Z"/>
              <path class="cls-7" d="M94.7,274.92c-1.54,0-3.06,0-4.54,0v5.06c1.48,0,3,0,4.54,0q2.05,0,4,0v-5.05Q96.76,274.92,94.7,274.92Z"/>
              <path class="cls-8" d="M109.94,274.48v5c3.37-.21,6.28-.49,8.57-.82v-5.06C116.22,274,113.31,274.26,109.94,274.48Z"/>
            </g>
          </g>
          <path class="cls-2" d="M373.76,137.12a4.84,4.84,0,0,0,3.56-3,.32.32,0,0,1,.61,0,4.73,4.73,0,0,0,3.58,3.16.32.32,0,0,1,.08.61,7,7,0,0,0-3.85,3.76.32.32,0,0,1-.61,0,6.53,6.53,0,0,0-3.41-3.91A.33.33,0,0,1,373.76,137.12Z"/>
          <path class="cls-2" d="M293,185.11a4.86,4.86,0,0,0,3.56-3,.32.32,0,0,1,.61,0,4.73,4.73,0,0,0,3.58,3.16.32.32,0,0,1,.08.61,7,7,0,0,0-3.85,3.76.33.33,0,0,1-.61,0,6.53,6.53,0,0,0-3.41-3.91A.33.33,0,0,1,293,185.11Z"/>
          <path class="cls-2" d="M381.27,128.59a2.6,2.6,0,0,0,1.9-1.59.17.17,0,0,1,.33,0,2.51,2.51,0,0,0,1.91,1.68.18.18,0,0,1,0,.33,3.75,3.75,0,0,0-2.06,2,.18.18,0,0,1-.33,0,3.49,3.49,0,0,0-1.82-2.09A.17.17,0,0,1,381.27,128.59Z"/>
          <path class="cls-2" d="M338.33,205.4a2.57,2.57,0,0,0,1.9-1.59.18.18,0,0,1,.33,0,2.52,2.52,0,0,0,1.91,1.69.17.17,0,0,1,0,.32,3.75,3.75,0,0,0-2.06,2,.17.17,0,0,1-.32,0,3.49,3.49,0,0,0-1.82-2.09A.18.18,0,0,1,338.33,205.4Z"/>
          <path class="cls-2" d="M289.7,261.11a2.57,2.57,0,0,0,1.9-1.59.17.17,0,0,1,.32,0,2.52,2.52,0,0,0,1.92,1.69.18.18,0,0,1,0,.33,3.7,3.7,0,0,0-2.06,2,.18.18,0,0,1-.33,0,3.44,3.44,0,0,0-1.81-2.09A.17.17,0,0,1,289.7,261.11Z"/>
          <path class="cls-2" d="M309.52,166.92a2.56,2.56,0,0,0,1.9-1.58.17.17,0,0,1,.33,0,2.51,2.51,0,0,0,1.91,1.68.18.18,0,0,1,0,.33,3.75,3.75,0,0,0-2.06,2,.18.18,0,0,1-.33,0,3.49,3.49,0,0,0-1.82-2.09A.18.18,0,0,1,309.52,166.92Z"/>
          <path class="cls-2" d="M58.32,253.43a2.58,2.58,0,0,0,1.9-1.59.18.18,0,0,1,.33,0,2.52,2.52,0,0,0,1.91,1.69.17.17,0,0,1,0,.32,3.75,3.75,0,0,0-2.06,2,.18.18,0,0,1-.33,0,3.44,3.44,0,0,0-1.82-2.09A.18.18,0,0,1,58.32,253.43Z"/>
          <path class="cls-2" d="M119.87,269.06a4.58,4.58,0,0,0,3.16-3.19c.09-.31.45-.33.54,0a4.6,4.6,0,0,0,3.17,3.39.36.36,0,0,1,.07.65,6.92,6.92,0,0,0-3.41,4,.27.27,0,0,1-.54,0,6.85,6.85,0,0,0-3-4.19A.37.37,0,0,1,119.87,269.06Z"/>
          <path class="cls-2" d="M114.39,277.83a2.44,2.44,0,0,0,1.68-1.7c.05-.17.24-.18.29,0a2.47,2.47,0,0,0,1.7,1.8.2.2,0,0,1,0,.35,3.71,3.71,0,0,0-1.82,2.16.15.15,0,0,1-.29,0,3.64,3.64,0,0,0-1.61-2.24A.2.2,0,0,1,114.39,277.83Z"/>
          <path class="cls-2" d="M12.07,278.07a2.42,2.42,0,0,0,1.68-1.7c.05-.16.24-.18.29,0a2.48,2.48,0,0,0,1.7,1.81.2.2,0,0,1,0,.35A3.69,3.69,0,0,0,14,280.67a.15.15,0,0,1-.29,0,3.61,3.61,0,0,0-1.61-2.24A.2.2,0,0,1,12.07,278.07Z"/>
          <path class="cls-2" d="M51.89,243.21a4.84,4.84,0,0,0,3.56-3,.32.32,0,0,1,.61,0,4.73,4.73,0,0,0,3.58,3.16.32.32,0,0,1,.08.61,7.06,7.06,0,0,0-3.86,3.76.32.32,0,0,1-.61,0,6.48,6.48,0,0,0-3.4-3.91A.33.33,0,0,1,51.89,243.21Z"/>
        </g>
      </g>
    </g>
  </g>
</svg>
