<svg xmlns="http://www.w3.org/2000/svg" viewBox="0 0 492.3 259.2">
  <defs>
    <style>
      .cls-1 {
        isolation: isolate;
      }

      .cls-2, .cls-27, .cls-28 {
        fill: #f5f6ff;
      }

      .cls-3 {
        fill: #e6e8fc;
      }

      .cls-11, .cls-13, .cls-16, .cls-19, .cls-23, .cls-24, .cls-31, .cls-32, .cls-35, .cls-38, .cls-39, .cls-4, .cls-40, .cls-41, .cls-42, .cls-44, .cls-46, .cls-48, .cls-49, .cls-6 {
        fill: none;
      }

      .cls-4 {
        stroke: #b6c2ff;
      }

      .cls-38, .cls-4 {
        stroke-linecap: round;
      }

      .cls-11, .cls-13, .cls-38, .cls-4, .cls-42, .cls-44, .cls-6 {
        stroke-linejoin: round;
      }

      .cls-18, .cls-22, .cls-5 {
        fill: #fff;
      }

      .cls-5 {
        stroke: #cdd2f9;
      }

      .cls-16, .cls-19, .cls-22, .cls-23, .cls-24, .cls-31, .cls-32, .cls-35, .cls-39, .cls-40, .cls-41, .cls-46, .cls-48, .cls-49, .cls-5 {
        stroke-miterlimit: 10;
      }

      .cls-6 {
        stroke: #fff;
      }

      .cls-7 {
        fill: #cdd2f9;
      }

      .cls-8 {
        fill: #ffc6b0;
      }

      .cls-9 {
        fill: #0b0b3a;
      }

      .cls-10 {
        fill: #182270;
      }

      .cls-11, .cls-39, .cls-44 {
        stroke: #2944b7;
      }

      .cls-11, .cls-13, .cls-16, .cls-19, .cls-39, .cls-40, .cls-41, .cls-49 {
        stroke-width: 0.75px;
      }

      .cls-12 {
        fill: #ffcbbd;
      }

      .cls-13, .cls-42 {
        stroke: #e88872;
      }

      .cls-14 {
        fill: #ff855a;
      }

      .cls-15 {
        fill: #212237;
      }

      .cls-16 {
        stroke: #e8927e;
      }

      .cls-17 {
        fill: #f94c43;
      }

      .cls-19 {
        stroke: #d62137;
      }

      .cls-20 {
        fill: #b6c2ff;
      }

      .cls-21 {
        fill: #8693f2;
      }

      .cls-22, .cls-23 {
        stroke: #8693f2;
      }

      .cls-24 {
        stroke: #277ef1;
        stroke-width: 1.5px;
      }

      .cls-25 {
        fill: #277ef1;
      }

      .cls-26 {
        fill: #e0ebfc;
      }

      .cls-26, .cls-27, .cls-29 {
        opacity: 0.75;
      }

      .cls-28 {
        mix-blend-mode: multiply;
      }

      .cls-30 {
        fill: #d4daff;
      }

      .cls-31 {
        stroke: #d4daff;
      }

      .cls-32 {
        stroke: #f5f6ff;
        stroke-width: 2px;
      }

      .cls-33 {
        fill: #fa0;
      }

      .cls-34 {
        fill: #e58303;
      }

      .cls-35 {
        stroke: #ffd550;
      }

      .cls-36 {
        fill: #ffc41f;
      }

      .cls-37 {
        fill: #f2940c;
      }

      .cls-38 {
        stroke: #a53b00;
      }

      .cls-40 {
        stroke: #a52828;
      }

      .cls-41 {
        stroke: #ffa6a4;
      }

      .cls-42, .cls-44, .cls-46 {
        stroke-width: 0.5px;
      }

      .cls-43 {
        fill: #202263;
      }

      .cls-45 {
        fill: #4a63fe;
      }

      .cls-46, .cls-49 {
        stroke: #1f38b2;
      }

      .cls-47 {
        fill: #0029b7;
      }

      .cls-48 {
        stroke: #0029b7;
      }
    </style>
  </defs>
  <g class="cls-1">
    <g id="Layer_2" data-name="Layer 2">
      <g id="OBJECTS">
        <g>
          <g>
            <g>
              <path class="cls-2" d="M366.93,57.26a21.42,21.42,0,0,0,2.93,10.17l3.59-1.52a20.1,20.1,0,0,0,3.75,4.68L375,73.83a21.18,21.18,0,0,0,4.47,3.23c.65.35,1.31.66,2,.94.17.08.35.14.53.21a18.87,18.87,0,0,0,2.28.73l1.48-3.65.66.17.76.17a20.09,20.09,0,0,0,4.53.36l.7,3.88a21.52,21.52,0,0,0,5.44-.88,20.81,20.81,0,0,0,4.72-2L401,73.33a19.92,19.92,0,0,0,4.7-3.73l3.23,2.24a20.93,20.93,0,0,0,3.23-4.47A21.52,21.52,0,0,0,414,62.59l-3.63-1.47a19.86,19.86,0,0,0,.7-6l3.85-.69a21.16,21.16,0,0,0-.88-5.45A20.93,20.93,0,0,0,412,44.3l-3.58,1.51a19.91,19.91,0,0,0-3.74-4.7l2.23-3.21a21.25,21.25,0,0,0-4.48-3.23,20.86,20.86,0,0,0-4.78-1.89l-1.46,3.61a19.89,19.89,0,0,0-6-.71l-.69-3.82a21.33,21.33,0,0,0-10.16,2.93l1.51,3.55a20.11,20.11,0,0,0-4.72,3.75L373,39.88a21.18,21.18,0,0,0-3.23,4.47,21.52,21.52,0,0,0-1.89,4.78l3.6,1.46a20.25,20.25,0,0,0-.69,6Zm11.34,1.9a13.09,13.09,0,1,1,16.8,9.09A13.14,13.14,0,0,1,378.27,59.16Z"/>
              <path class="cls-2" d="M392.83,48.31a6.94,6.94,0,0,1,1.77.69A6.22,6.22,0,0,1,396,50a4.51,4.51,0,0,1,.88,1.16,2.57,2.57,0,0,1,.35,1.17.45.45,0,0,1-.14.33.41.41,0,0,1-.31.14H393.9a1.11,1.11,0,0,1-.49-.08,1.72,1.72,0,0,1-.38-.26l-.21-.22a1.74,1.74,0,0,0-.4-.31,2.63,2.63,0,0,0-.65-.29,3.28,3.28,0,0,0-.95-.12,5.19,5.19,0,0,0-.8.06,3.12,3.12,0,0,0-.67.17,1.27,1.27,0,0,0-.48.34.8.8,0,0,0-.18.54.73.73,0,0,0,.21.54,1.67,1.67,0,0,0,.69.4,7.82,7.82,0,0,0,1.29.36c.53.12,1.2.26,2,.41A11.76,11.76,0,0,1,395,55a4.91,4.91,0,0,1,1.48.92,3.43,3.43,0,0,1,.89,1.31,4.66,4.66,0,0,1,.3,1.76,4,4,0,0,1-.35,1.67,4.18,4.18,0,0,1-1,1.35,5.28,5.28,0,0,1-1.52,1,8.21,8.21,0,0,1-1.95.57V65a.58.58,0,0,1-.17.41.54.54,0,0,1-.41.17h-2.84a.57.57,0,0,1-.42-.17.58.58,0,0,1-.17-.41V63.43a7.6,7.6,0,0,1-1.88-.68,6.75,6.75,0,0,1-1.43-1,4.36,4.36,0,0,1-.92-1.22,3.34,3.34,0,0,1-.35-1.34.45.45,0,0,1,.14-.33.44.44,0,0,1,.32-.15h2.84a1.26,1.26,0,0,1,.48.08,1.36,1.36,0,0,1,.34.23c.06.06.15.15.26.28a3.35,3.35,0,0,0,.47.4,2.83,2.83,0,0,0,.74.36,3.41,3.41,0,0,0,1.09.15,6.17,6.17,0,0,0,1.92-.25.92.92,0,0,0,.77-.9.64.64,0,0,0-.28-.54,2.74,2.74,0,0,0-.84-.4,14.56,14.56,0,0,0-1.45-.36L389,57.32a6,6,0,0,1-3.26-1.6,4.2,4.2,0,0,1-1-3,3.83,3.83,0,0,1,.28-1.46,4.42,4.42,0,0,1,.81-1.3,5.34,5.34,0,0,1,1.3-1,7.4,7.4,0,0,1,1.75-.67v-1.6a.57.57,0,0,1,.17-.41.58.58,0,0,1,.42-.18h2.84a.55.55,0,0,1,.41.18.57.57,0,0,1,.17.41Z"/>
            </g>
            <path class="cls-3" d="M346.78,18.5c2-1.61,5.49-.86,6.67-1.71,1.42-1,1.3-2.07,1.57-3.67A23.84,23.84,0,0,1,356.5,8a8.63,8.63,0,0,1,8.37-5.57,8.87,8.87,0,0,1,5.93,2.47c1.43,1.38,2.13,4.34,4,5.07,2.67,1,5.14-2.73,7.85-2.21a4.83,4.83,0,0,1,3.88,3.48,13.69,13.69,0,0,1-.08,3.44,3.45,3.45,0,0,0,1.18,3.09,3.06,3.06,0,0,0,1.45.43,15.84,15.84,0,0,0,3.91-.56,5.31,5.31,0,0,1,3.83.42c1.45,1,1.85,2.77,2.52,4.25a8.63,8.63,0,0,0,3.43,3.89c3.53,2,8.06.2,11.11,3.25H348.83c-2.12,0-4.76-2.19-4.76-5.6A6.93,6.93,0,0,1,346.78,18.5Z"/>
            <path class="cls-3" d="M141.83,42.46c-4.37-.78-8.06-1.28-10.06-5.24s-3.28-8.33-5.93-11.89C121.21,19.12,112,16,104.61,19.85c-8.38,4.35-9,18.38-20.06,18.4-2.41,0-4.73-.92-7.13-1.17-5.27-.55-12.36,2.84-13.69,8.29-.36,1.47-2.12,8.1-6.74,8.1-3,0-10.31-1.22-14.16,4.51H143.56c3.76,0,6.11-3.59,6.11-6.15A9.58,9.58,0,0,0,141.83,42.46Z"/>
            <g>
              <path class="cls-4" d="M177.3,36.32a2.11,2.11,0,1,1-2.73-1.22A2.11,2.11,0,0,1,177.3,36.32Z"/>
              <path class="cls-4" d="M85.4,17.94a2.12,2.12,0,1,1-2.74-1.22A2.12,2.12,0,0,1,85.4,17.94Z"/>
              <path class="cls-4" d="M4.59,130a2.12,2.12,0,1,1-2.73-1.22A2.12,2.12,0,0,1,4.59,130Z"/>
              <path class="cls-4" d="M247.46,39.37a2.12,2.12,0,1,1-2.73-1.22A2.11,2.11,0,0,1,247.46,39.37Z"/>
              <path class="cls-4" d="M435.9,49.31a2.11,2.11,0,1,1-2.73-1.22A2.11,2.11,0,0,1,435.9,49.31Z"/>
              <path class="cls-4" d="M491.65,157.73a2.11,2.11,0,1,1-2.73-1.22A2.11,2.11,0,0,1,491.65,157.73Z"/>
              <g>
                <line class="cls-4" x1="202.95" y1="5.97" x2="202.95" y2="10.11"/>
                <line class="cls-4" x1="205.02" y1="8.04" x2="200.88" y2="8.04"/>
              </g>
              <g>
                <line class="cls-4" x1="255.98" y1="0.5" x2="255.98" y2="4.64"/>
                <line class="cls-4" x1="258.05" y1="2.57" x2="253.91" y2="2.57"/>
              </g>
              <g>
                <line class="cls-4" x1="110.12" y1="94.68" x2="110.12" y2="98.82"/>
                <line class="cls-4" x1="112.19" y1="96.75" x2="108.05" y2="96.75"/>
              </g>
              <g>
                <line class="cls-4" x1="36.1" y1="74.46" x2="36.1" y2="78.6"/>
                <line class="cls-4" x1="38.17" y1="76.53" x2="34.03" y2="76.53"/>
              </g>
              <g>
                <line class="cls-4" x1="358.79" y1="38.06" x2="358.79" y2="42.2"/>
                <line class="cls-4" x1="360.86" y1="40.13" x2="356.72" y2="40.13"/>
              </g>
              <g>
                <line class="cls-4" x1="21.73" y1="152.68" x2="21.73" y2="156.82"/>
                <line class="cls-4" x1="23.8" y1="154.75" x2="19.66" y2="154.75"/>
              </g>
              <g>
                <line class="cls-4" x1="478.69" y1="111.64" x2="478.69" y2="115.78"/>
                <line class="cls-4" x1="480.76" y1="113.71" x2="476.62" y2="113.71"/>
              </g>
              <g>
                <line class="cls-4" x1="413.73" y1="89.03" x2="413.73" y2="93.17"/>
                <line class="cls-4" x1="415.8" y1="91.1" x2="411.67" y2="91.1"/>
              </g>
            </g>
            <g>
              <path class="cls-5" d="M91.35,92.46A14.39,14.39,0,1,1,77,78.07,14.39,14.39,0,0,1,91.35,92.46Z"/>
              <path class="cls-3" d="M78.76,85.32a6.66,6.66,0,0,1,1.67.64,5.84,5.84,0,0,1,1.28,1,4.52,4.52,0,0,1,.85,1.1,2.71,2.71,0,0,1,.33,1.1.43.43,0,0,1-.14.32.42.42,0,0,1-.3.14H79.76a1,1,0,0,1-.46-.09,1.6,1.6,0,0,1-.36-.24L78.75,89a2.8,2.8,0,0,0-.38-.3,2.57,2.57,0,0,0-.62-.26,3,3,0,0,0-.9-.12,4.56,4.56,0,0,0-.75.06,2.85,2.85,0,0,0-.64.16,1.23,1.23,0,0,0-.45.32.76.76,0,0,0-.18.51.73.73,0,0,0,.2.52,1.94,1.94,0,0,0,.66.38,8.51,8.51,0,0,0,1.22.33L78.8,91a11.62,11.62,0,0,1,2,.58,4.68,4.68,0,0,1,1.41.87A3.46,3.46,0,0,1,83,93.7a4.77,4.77,0,0,1,.28,1.68A3.76,3.76,0,0,1,83,97,4,4,0,0,1,82,98.23a5,5,0,0,1-1.43.93,8.12,8.12,0,0,1-1.85.53v1.46a.54.54,0,0,1-.17.39.53.53,0,0,1-.39.16H75.51a.55.55,0,0,1-.55-.55V99.63A7.2,7.2,0,0,1,73.18,99a6.1,6.1,0,0,1-1.35-1A4.14,4.14,0,0,1,71,96.87a3.1,3.1,0,0,1-.32-1.27.42.42,0,0,1,.13-.31.42.42,0,0,1,.3-.14h2.69a1.32,1.32,0,0,1,.45.07,1.26,1.26,0,0,1,.33.22l.24.27a2.94,2.94,0,0,0,.44.38,3,3,0,0,0,.7.34,3.44,3.44,0,0,0,1,.14,5.9,5.9,0,0,0,1.82-.24.88.88,0,0,0,.73-.85.61.61,0,0,0-.27-.51,2.6,2.6,0,0,0-.8-.38,11.37,11.37,0,0,0-1.37-.34l-2-.41A5.75,5.75,0,0,1,72,92.33a4,4,0,0,1-1-2.83,3.64,3.64,0,0,1,.26-1.38,4.12,4.12,0,0,1,.77-1.22,5.09,5.09,0,0,1,1.24-1A6.83,6.83,0,0,1,75,85.29V83.78a.55.55,0,0,1,.16-.4.57.57,0,0,1,.39-.16H78.2a.57.57,0,0,1,.39.16.54.54,0,0,1,.17.4Z"/>
            </g>
            <g>
              <path class="cls-5" d="M166.2,14.25a10,10,0,1,1-10-10A10,10,0,0,1,166.2,14.25Z"/>
              <path class="cls-3" d="M157.45,9.28a5,5,0,0,1,1.16.45,4.47,4.47,0,0,1,.89.66,3.39,3.39,0,0,1,.59.76,1.87,1.87,0,0,1,.23.77.3.3,0,0,1-.1.22.26.26,0,0,1-.2.1h-1.87a.78.78,0,0,1-.33-.06,1.18,1.18,0,0,1-.24-.17l-.14-.14a1.18,1.18,0,0,0-.26-.21,2.5,2.5,0,0,0-.43-.19,2.25,2.25,0,0,0-.63-.08,4.38,4.38,0,0,0-.52,0,1.77,1.77,0,0,0-.44.11.85.85,0,0,0-.32.23.51.51,0,0,0-.12.35.52.52,0,0,0,.14.36,1.3,1.3,0,0,0,.45.26,7.28,7.28,0,0,0,.85.24l1.32.27a7.22,7.22,0,0,1,1.37.4,3,3,0,0,1,1,.61,2.29,2.29,0,0,1,.59.85,3.17,3.17,0,0,1,.19,1.16,2.68,2.68,0,0,1-.87,2,3.73,3.73,0,0,1-1,.64,5.14,5.14,0,0,1-1.28.37v1a.38.38,0,0,1-.12.28.37.37,0,0,1-.27.11h-1.87a.4.4,0,0,1-.27-.11.41.41,0,0,1-.11-.28V19.23a5.49,5.49,0,0,1-1.24-.45,4.88,4.88,0,0,1-.94-.66,3.08,3.08,0,0,1-.61-.81,2.16,2.16,0,0,1-.22-.88.31.31,0,0,1,.09-.22.29.29,0,0,1,.21-.09H154a.69.69,0,0,1,.31.05.75.75,0,0,1,.23.15l.17.18a1.43,1.43,0,0,0,.31.27,1.65,1.65,0,0,0,.48.23,2.2,2.2,0,0,0,.72.1,4.07,4.07,0,0,0,1.26-.16c.34-.11.51-.31.51-.59a.43.43,0,0,0-.18-.36,1.84,1.84,0,0,0-.56-.26,7.21,7.21,0,0,0-.95-.24l-1.36-.29a3.91,3.91,0,0,1-2.15-1,2.81,2.81,0,0,1-.68-2,2.45,2.45,0,0,1,.19-1,2.81,2.81,0,0,1,.53-.85,3.42,3.42,0,0,1,.86-.67,4.37,4.37,0,0,1,1.15-.44V8.21a.38.38,0,0,1,.38-.38h1.87a.37.37,0,0,1,.27.11.37.37,0,0,1,.12.27Z"/>
            </g>
          </g>
          <g>
            <g>
              <path class="cls-3" d="M364.38,248.86c-1.62-25.48,1-61.73,12.27-94.32,11.7-33.82,32.54-63.49,55.66-54.82,8.88,3.32,10.07,18.23,6.33,32.11-11,40.93-36.52,65.67-46.33,117"/>
              <path class="cls-6" d="M379.5,248.86C383.43,169.1,428,98.37,428,98.37"/>
            </g>
            <g>
              <path class="cls-3" d="M101.29,248.86C87.4,213.65,37.78,148.71,16.66,181.42c-4.12,6.39-.28,16.61,6.11,23.83,18.83,21.26,38.74,15,60.05,43.61"/>
              <path class="cls-6" d="M92.51,248.86C69,199.13,19.66,177.61,19.66,177.61"/>
            </g>
            <g>
              <path class="cls-7" d="M110.45,248.86c8.09-54.07-24.11-156.5-65.9-129.68-9.57,6.14-5,29.8.44,43.15,13.67,33.55,36.83,42,46.23,86.53"/>
              <path class="cls-6" d="M102.53,248.76C101.8,178.57,48.8,116.9,48.8,116.9"/>
            </g>
            <g>
              <path class="cls-3" d="M150.83,248.86c10.76-42.29,8.56-132.25-37-121.4-8.55,2-11.62,14.85-10.43,26.16,3.51,33.34,25.28,53.4,26.16,95.24"/>
              <path class="cls-6" d="M141,248.86c6.1-68.83-25.71-122.8-25.71-122.8"/>
            </g>
            <g>
              <path class="cls-7" d="M393.31,248.86c3.17-31.79,13-71.46,28.77-95.2,12.63-19,32.35-27.52,44-15.68,6.49,6.59,4,25.62-5.84,40-17.46,25.35-38.31,34.42-49.94,70.93"/>
              <path class="cls-6" d="M401.5,248.86c15.14-71.72,61.7-113.28,61.7-113.28"/>
            </g>
            <g>
              <path class="cls-3" d="M409.62,248.86c10.57-29.76,38.15-64.13,59.07-70.36,8.45-2.52,21.46-1.59,23.08,7.87,1.29,7.58-6.32,19.07-15,25.5-15.91,11.83-30.92,16.61-48.51,37"/>
              <path class="cls-6" d="M420.79,248.86c31.17-55.14,68.89-67,68.89-67"/>
            </g>
          </g>
          <g>
            <g>
              <g>
                <g>
                  <path class="cls-8" d="M347.51,137.56c.43,3.19.85,6.39,1.27,9.58-5.5-.11-10.75.31-16.25.46,1.81-1.06,5.65-3.17,7-5.91"/>
                  <path class="cls-9" d="M348.66,151.37h-3.14a8.26,8.26,0,0,0,0-1.32,15.07,15.07,0,0,0-2,.14,2.36,2.36,0,0,0-.58.6,1.56,1.56,0,0,1-1.23.58H329.18c-1.54,0-1.78-1.62-.14-2.39,1.49-.71,4.74-2.22,4.88-2.25,5,.42,13.07-.38,14.66-1.86C349.79,146,348.68,151.34,348.66,151.37Z"/>
                </g>
                <path class="cls-8" d="M344.51,86.56c2.22,27.57,3.71,56.32,3.71,56.32l-8.67-1.19s-9.21-37-11.57-55.13"/>
              </g>
              <g>
                <g>
                  <path class="cls-8" d="M322.53,137.56c.42,3.19.84,6.39,1.27,9.58-5.51-.11-10.76.31-16.26.46,1.81-1.06,5.66-3.17,7-5.91"/>
                  <path class="cls-9" d="M323.67,151.37h-3.14a8.26,8.26,0,0,0,0-1.32,14.9,14.9,0,0,0-2,.14,2.21,2.21,0,0,0-.59.6,1.56,1.56,0,0,1-1.23.58H304.19c-1.54,0-1.78-1.62-.13-2.39,1.49-.71,4.73-2.22,4.87-2.25,5,.42,13.08-.38,14.66-1.86C324.8,146,323.69,151.34,323.67,151.37Z"/>
                </g>
                <path class="cls-8" d="M327.3,86.56c-1.77,27.56-4.07,56.32-4.07,56.32l-8.67-1.19s-3.79-35.48-3.79-55.13"/>
              </g>
              <g>
                <path class="cls-10" d="M338.78,57.39c7.92,18.29,8.82,38.51,8.82,38.51s-11.29,3-20.5,3a143.76,143.76,0,0,1-18.82-1.47s2.46-31.61,6.26-41.29"/>
                <path class="cls-11" d="M336.47,63.74c5.4,11.12,8.09,32.88,8.09,32.88"/>
              </g>
            </g>
            <g>
              <g>
                <path class="cls-12" d="M307.23,21.79l.54,3.71s2.7,1.74,5,.82S315,24.05,315,24.05l-2.87-6.81"/>
                <path class="cls-12" d="M303.3,15.6c-.46,2.15,1,8.2,4.11,8,3.33-.26,5.81-3,4.61-6.73C310.77,12.91,304.52,10,303.3,15.6Z"/>
                <path class="cls-13" d="M307.53,23.83A5.48,5.48,0,0,0,312,20.5"/>
                <polygon class="cls-14" points="311.51 16.63 311.51 16.63 311.51 16.63 311.51 16.63"/>
                <path class="cls-14" d="M311.48,16.63v0a0,0,0,1,0,.08,0v0a0,0,0,0,0,0,0s0,0,0,0Z"/>
                <path class="cls-15" d="M311.6,17.56a2.52,2.52,0,0,1-2-1.74,2.66,2.66,0,0,1-2.53.17,3.12,3.12,0,0,1-1.46-1.43,3.41,3.41,0,0,1-2.49,2,4.71,4.71,0,0,1,2.28-4.65,5.83,5.83,0,0,1,5.51-.44,5.93,5.93,0,0,1,3,4.48c.13,1.15-.19,3.45-1.16,3.31C312.31,19.17,311.6,17.56,311.6,17.56Z"/>
                <path class="cls-12" d="M310.9,17.43a.84.84,0,0,1,.43-.75c.66-.4,1.3.39,1.36,1.11a1.89,1.89,0,0,1-.27,1.24c-.3.53-.81.75-1.22.26"/>
              </g>
              <path class="cls-15" d="M306.64,11.34a1,1,0,0,1-.82-1.23,2.17,2.17,0,0,1,1-1.3,3.11,3.11,0,0,1,.76-.36,3,3,0,0,1,1.26,0,2.13,2.13,0,0,1,1.32.62,1.47,1.47,0,0,1,0,1.72,2.61,2.61,0,0,1-1.6,1"/>
            </g>
            <g>
              <g>
                <path class="cls-12" d="M308.12,42.6c-5.69,14.66-21,30.47-21,30.47l-5-3.77s10.64-14.93,15.41-30.14"/>
                <path class="cls-12" d="M283.46,67.62c-1.29,1.89-6,6.77-5.75,7.17s1.91-1.29,2-.93-2.26,3.14-1.92,3.48,2.76-2.5,2.76-2.5-2.33,3.37-1.79,3.66c.38.21,2.28-2.28,3.13-3.15-.8,1.05-1.87,2.89-1.48,3.1s1.73-1.46,2.83-2.69c-.61.82-1.63,2.38-1.27,2.59s3.9-3.64,7.09-7.39"/>
                <path class="cls-16" d="M280.45,73.63a9.48,9.48,0,0,0,3-1.2"/>
              </g>
              <path class="cls-17" d="M306.71,26.2c-6.52,2-9.64,13.43-9.64,13.43l7.23,3.08L307.5,28"/>
              <path class="cls-17" d="M306.71,26.2a5.85,5.85,0,0,0,3.65-.07,18.26,18.26,0,0,0,4.2-2s6.83-.33,13.48,6.7c3.41,3.6,9.1,13.83,12.48,27.51C327.83,62.47,309.34,65,309.34,65s-6.72-25.87-6.47-33.55C303,28.9,306.71,26.2,306.71,26.2Z"/>
              <polygon class="cls-18" points="314.38 22.56 310.05 26.23 312.82 29.83 315.69 24.16 314.38 22.56"/>
              <polygon class="cls-18" points="310.05 26.23 307.6 24.31 306.71 26.2 308.03 30.18 310.05 26.23"/>
              <path class="cls-19" d="M304,42.39c-.77-3.86-1.16-6.64-1.16-6.64"/>
            </g>
          </g>
          <g>
            <path class="cls-20" d="M287.73,205.38h-61.1s2.54,38.91-9.56,38.91H297.3C285.2,244.29,287.73,205.38,287.73,205.38Z"/>
            <path class="cls-21" d="M225.94,228.77l61.6-12.48c-.12-6.17.19-10.91.19-10.91h-61.1A135,135,0,0,1,225.94,228.77Z"/>
            <rect class="cls-20" x="134.58" y="56.21" width="245.2" height="160.9" rx="5.57"/>
            <rect class="cls-22" x="141.47" y="61.91" width="231.43" height="149.49" rx="2.59"/>
            <line class="cls-23" x1="141.47" y1="80.77" x2="372.9" y2="80.77"/>
            <path class="cls-3" d="M345.1,74.9H185.67a4,4,0,0,1-4-4h0a4,4,0,0,1,4-4H345.1a4,4,0,0,1,4,4h0A4,4,0,0,1,345.1,74.9Z"/>
            <g>
              <path class="cls-22" d="M152.83,71.14A2.11,2.11,0,1,1,150.72,69,2.12,2.12,0,0,1,152.83,71.14Z"/>
              <path class="cls-22" d="M162.68,71.14A2.12,2.12,0,1,1,160.57,69,2.12,2.12,0,0,1,162.68,71.14Z"/>
              <path class="cls-22" d="M172.52,71.14A2.11,2.11,0,1,1,170.41,69,2.11,2.11,0,0,1,172.52,71.14Z"/>
            </g>
            <g>
              <g>
                <path class="cls-24" d="M321.77,134.94H192.59a8.86,8.86,0,0,1-8.86-8.86h0a8.87,8.87,0,0,1,8.86-8.87H321.77a8.87,8.87,0,0,1,8.87,8.87h0A8.87,8.87,0,0,1,321.77,134.94Z"/>
                <path class="cls-25" d="M321.77,117.21H306.9v17.73h14.87a8.87,8.87,0,0,0,8.87-8.86h0A8.87,8.87,0,0,0,321.77,117.21Z"/>
              </g>
              <path class="cls-18" d="M324.36,130.35l-2.93-2.93a4.67,4.67,0,0,0,.92-2.76,4.62,4.62,0,1,0-2.49,4.09l3.06,3.05a1,1,0,0,0,1.44,0,1,1,0,0,0,.3-.73A1,1,0,0,0,324.36,130.35Zm-3.31-5.69a3.31,3.31,0,1,1-3.31-3.31A3.31,3.31,0,0,1,321.05,124.66Z"/>
              <path class="cls-26" d="M229.78,129.89h-37a3.82,3.82,0,0,1-3.82-3.81h0a3.82,3.82,0,0,1,3.82-3.82h37a3.82,3.82,0,0,1,3.81,3.82h0A3.82,3.82,0,0,1,229.78,129.89Z"/>
            </g>
            <rect class="cls-20" x="206.16" y="243.18" width="102.05" height="5.68"/>
            <g>
              <g>
                <path class="cls-26" d="M239.84,154.49h-25a4.26,4.26,0,0,1-4.27-4.26h0a4.27,4.27,0,0,1,4.27-4.26h25a4.27,4.27,0,0,1,4.27,4.26h0A4.26,4.26,0,0,1,239.84,154.49Z"/>
                <line class="cls-24" x1="215.15" y1="151.3" x2="239.52" y2="151.3"/>
              </g>
              <g>
                <path class="cls-26" d="M299.54,154.49H255.13a4.25,4.25,0,0,1-4.26-4.26h0a4.26,4.26,0,0,1,4.26-4.26h44.41a4.26,4.26,0,0,1,4.26,4.26h0A4.26,4.26,0,0,1,299.54,154.49Z"/>
                <line class="cls-24" x1="260.16" y1="151.3" x2="294.51" y2="151.3"/>
              </g>
            </g>
            <line class="cls-22" x1="327.57" y1="87.91" x2="336.93" y2="87.91"/>
            <line class="cls-22" x1="341.46" y1="87.91" x2="350.83" y2="87.91"/>
            <g>
              <rect class="cls-27" x="354.2" y="85.37" width="1.26" height="1.26"/>
              <rect class="cls-27" x="355.95" y="85.37" width="1.26" height="1.26"/>
              <rect class="cls-27" x="357.71" y="85.37" width="1.26" height="1.26"/>
              <rect class="cls-27" x="354.2" y="87.28" width="1.26" height="1.26"/>
              <rect class="cls-27" x="355.95" y="87.28" width="1.26" height="1.26"/>
              <rect class="cls-27" x="357.71" y="87.28" width="1.26" height="1.26"/>
              <rect class="cls-27" x="354.2" y="89.19" width="1.26" height="1.26"/>
              <rect class="cls-27" x="355.95" y="89.19" width="1.26" height="1.26"/>
              <rect class="cls-27" x="357.71" y="89.19" width="1.26" height="1.26"/>
            </g>
            <path class="cls-2" d="M367.37,87.91a3.2,3.2,0,1,1-3.19-3.19A3.19,3.19,0,0,1,367.37,87.91Z"/>
            <g>
              <circle class="cls-21" cx="366.5" cy="66.98" r="0.83"/>
              <circle class="cls-21" cx="366.5" cy="70.94" r="0.83"/>
              <circle class="cls-21" cx="366.5" cy="74.9" r="0.83"/>
            </g>
            <line class="cls-23" x1="294.51" y1="243.49" x2="242.29" y2="243.49"/>
            <line class="cls-23" x1="236.43" y1="243.49" x2="219.39" y2="243.49"/>
            <g>
              <rect class="cls-28" x="157.16" y="106.97" width="127.25" height="89.89" rx="3.68"/>
              <rect class="cls-22" x="149.73" y="102.35" width="127.25" height="89.89" rx="3.68"/>
              <path class="cls-21" d="M273.49,102.35H153.22a3.48,3.48,0,0,0-3.49,3.48v5.76H277v-5.76A3.48,3.48,0,0,0,273.49,102.35Z"/>
              <g>
                <path class="cls-2" d="M264.35,166.19H163.42a1.72,1.72,0,0,1-1.72-1.72h0a1.72,1.72,0,0,1,1.72-1.72H264.35a1.72,1.72,0,0,1,1.71,1.72h0A1.72,1.72,0,0,1,264.35,166.19Z"/>
                <path class="cls-2" d="M264.35,172.17H163.42a1.72,1.72,0,0,1-1.72-1.72h0a1.71,1.71,0,0,1,1.72-1.71H264.35a1.71,1.71,0,0,1,1.71,1.71h0A1.72,1.72,0,0,1,264.35,172.17Z"/>
                <path class="cls-2" d="M264.35,178.14H163.42a1.72,1.72,0,0,1-1.72-1.72h0a1.72,1.72,0,0,1,1.72-1.71H264.35a1.72,1.72,0,0,1,1.71,1.71h0A1.72,1.72,0,0,1,264.35,178.14Z"/>
                <path class="cls-2" d="M264.35,184.11H163.42a1.72,1.72,0,0,1-1.72-1.71h0a1.72,1.72,0,0,1,1.72-1.72H264.35a1.72,1.72,0,0,1,1.71,1.72h0A1.72,1.72,0,0,1,264.35,184.11Z"/>
                <path class="cls-2" d="M264.35,160.2H163.42a1.72,1.72,0,0,1-1.72-1.71h0a1.72,1.72,0,0,1,1.72-1.72H264.35a1.72,1.72,0,0,1,1.71,1.72h0A1.72,1.72,0,0,1,264.35,160.2Z"/>
              </g>
              <g>
                <g class="cls-29">
                  <path class="cls-20" d="M185.73,123.76a13.71,13.71,0,0,0-11.45-6.15v13.74Z"/>
                </g>
                <path class="cls-3" d="M184.74,125.79l-11.44,7.59V119.64a13.77,13.77,0,1,0,11.44,6.15Z"/>
                <path class="cls-3" d="M253.41,119.64v13.74l-10.92,8.31h0a13.73,13.73,0,1,0,10.92-22Z"/>
                <path class="cls-20" d="M223.75,141a13.73,13.73,0,0,0-10.89-22.1v13.74Z"/>
                <path class="cls-3" d="M222.21,141.74l-10.88-8.36V119.64a13.74,13.74,0,1,0,10.88,22.1Z"/>
                <path class="cls-20" d="M238.37,132.66a13.66,13.66,0,0,0,2.82,8.31l10.92-8.31V118.92A13.74,13.74,0,0,0,238.37,132.66Z"/>
              </g>
            </g>
            <g>
              <rect class="cls-28" x="226.66" y="80.13" width="139.87" height="102.81" rx="4.05"/>
              <rect class="cls-22" x="218.5" y="75.05" width="139.87" height="102.81" rx="4.05"/>
              <path class="cls-21" d="M354.54,75.05H222.33a3.82,3.82,0,0,0-3.83,3.83v6.33H358.37V78.88A3.83,3.83,0,0,0,354.54,75.05Z"/>
              <g>
                <g>
                  <rect class="cls-30" x="326.01" y="104.05" width="9.36" height="6.59"/>
                  <line class="cls-31" x1="339.67" y1="104.05" x2="346.14" y2="104.05"/>
                  <line class="cls-31" x1="339.67" y1="110.64" x2="352.76" y2="110.64"/>
                  <line class="cls-31" x1="339.67" y1="108.52" x2="352.76" y2="108.52"/>
                  <line class="cls-31" x1="339.67" y1="106.46" x2="352.76" y2="106.46"/>
                </g>
                <g>
                  <rect class="cls-30" x="326.01" y="117.84" width="9.36" height="6.59"/>
                  <line class="cls-31" x1="339.67" y1="117.84" x2="346.14" y2="117.84"/>
                  <line class="cls-31" x1="339.67" y1="124.43" x2="352.76" y2="124.43"/>
                  <line class="cls-31" x1="339.67" y1="122.31" x2="352.76" y2="122.31"/>
                  <line class="cls-31" x1="339.67" y1="120.25" x2="352.76" y2="120.25"/>
                </g>
                <g>
                  <rect class="cls-30" x="326.01" y="131.63" width="9.36" height="6.59"/>
                  <line class="cls-31" x1="339.67" y1="131.63" x2="346.14" y2="131.63"/>
                  <line class="cls-31" x1="339.67" y1="138.22" x2="352.76" y2="138.22"/>
                  <line class="cls-31" x1="339.67" y1="136.1" x2="352.76" y2="136.1"/>
                  <line class="cls-31" x1="339.67" y1="134.03" x2="352.76" y2="134.03"/>
                </g>
                <g>
                  <rect class="cls-30" x="326.01" y="145.42" width="9.36" height="6.59"/>
                  <line class="cls-31" x1="339.67" y1="145.42" x2="346.14" y2="145.42"/>
                  <line class="cls-31" x1="339.67" y1="152.01" x2="352.76" y2="152.01"/>
                  <line class="cls-31" x1="339.67" y1="149.89" x2="352.76" y2="149.89"/>
                  <line class="cls-31" x1="339.67" y1="147.82" x2="352.76" y2="147.82"/>
                </g>
                <g>
                  <rect class="cls-30" x="326.01" y="159.21" width="9.36" height="6.59"/>
                  <line class="cls-31" x1="339.67" y1="159.21" x2="346.14" y2="159.21"/>
                  <line class="cls-31" x1="339.67" y1="165.8" x2="352.76" y2="165.8"/>
                  <line class="cls-31" x1="339.67" y1="163.68" x2="352.76" y2="163.68"/>
                  <line class="cls-31" x1="339.67" y1="161.61" x2="352.76" y2="161.61"/>
                </g>
              </g>
              <line class="cls-32" x1="247.94" y1="93.13" x2="328.93" y2="93.13"/>
              <line class="cls-32" x1="259.02" y1="97.24" x2="317.84" y2="97.24"/>
              <g>
                <polygon class="cls-20" points="260.07 129.9 260.07 164.75 267.07 164.75 267.07 124.81 260.07 129.9"/>
                <polygon class="cls-20" points="250.72 136.7 247.22 134.47 247.22 164.75 254.22 164.75 254.22 134.16 250.72 136.7"/>
                <polygon class="cls-20" points="237.86 128.48 234.36 130.71 234.36 164.75 241.36 164.75 241.36 130.72 237.86 128.48"/>
                <polygon class="cls-20" points="298.64 121.77 298.64 164.75 305.63 164.75 305.63 117.6 298.64 121.77"/>
                <polygon class="cls-20" points="276.43 118.01 272.93 120.56 272.93 164.75 279.92 164.75 279.92 120.55 276.43 118.01"/>
                <polygon class="cls-20" points="289.28 127.34 285.78 124.81 285.78 164.75 292.78 164.75 292.78 125.26 289.28 127.34"/>
                <polyline class="cls-31" points="226.47 127.94 226.47 164.75 319.68 164.75"/>
                <polyline class="cls-31" points="224.92 128.85 226.47 127.7 228.01 128.85"/>
                <polyline class="cls-31" points="318.59 163.6 320.14 164.75 318.59 165.9"/>
                <polyline class="cls-31" points="228.24 132.01 237.86 125.88 250.72 134.1 276.43 115.41 289.28 124.74 314.27 109.85"/>
                <polyline class="cls-31" points="311.15 109.3 314.12 109.8 313.33 112.8"/>
                <line class="cls-31" x1="234.36" y1="169.81" x2="241.15" y2="169.81"/>
                <line class="cls-31" x1="247.32" y1="169.81" x2="254.11" y2="169.81"/>
                <line class="cls-31" x1="260.28" y1="169.81" x2="267.07" y2="169.81"/>
                <line class="cls-31" x1="273.24" y1="169.81" x2="280.03" y2="169.81"/>
                <line class="cls-31" x1="286.2" y1="169.81" x2="292.99" y2="169.81"/>
                <line class="cls-31" x1="299.16" y1="169.81" x2="305.95" y2="169.81"/>
              </g>
            </g>
            <line class="cls-23" x1="33.59" y1="248.86" x2="480.77" y2="248.86"/>
          </g>
          <g>
            <g>
              <path class="cls-33" d="M85,197.14c-16.33,0-43.28,45.09-34,51.4s53.81,6.31,64,0S105.1,197.14,85,197.14Z"/>
              <path class="cls-33" d="M89.29,204.67,97,185.46s-.24-3.13-5.52-4.09-4.57,3.13-9.37,3.13-10.45-4.69-14.41-.73L79,204.67Z"/>
              <path class="cls-34" d="M88,214.69a9.83,9.83,0,0,1,2.47.95,8.75,8.75,0,0,1,1.89,1.4,6.37,6.37,0,0,1,1.24,1.62,3.67,3.67,0,0,1,.49,1.63.65.65,0,0,1-.2.47.62.62,0,0,1-.44.2h-4a1.59,1.59,0,0,1-.68-.12,2.13,2.13,0,0,1-.53-.37c-.07-.06-.16-.16-.29-.3a2.8,2.8,0,0,0-.56-.44,3.88,3.88,0,0,0-.91-.39,4.63,4.63,0,0,0-1.33-.17,7.94,7.94,0,0,0-1.11.08,4.17,4.17,0,0,0-.94.24,1.69,1.69,0,0,0-.66.47,1.12,1.12,0,0,0-.26.75,1.06,1.06,0,0,0,.29.76,2.57,2.57,0,0,0,1,.56,12.78,12.78,0,0,0,1.8.5l2.78.58a15.83,15.83,0,0,1,2.91.84A7,7,0,0,1,93,225.24a5,5,0,0,1,1.25,1.82,6.79,6.79,0,0,1,.4,2.46,5.63,5.63,0,0,1-.48,2.34,5.91,5.91,0,0,1-1.36,1.87,7.35,7.35,0,0,1-2.12,1.36,11,11,0,0,1-2.73.79V238a.8.8,0,0,1-.24.58.78.78,0,0,1-.57.24h-4a.82.82,0,0,1-.58-.24.8.8,0,0,1-.24-.58v-2.24a10.67,10.67,0,0,1-2.62-.95,9.52,9.52,0,0,1-2-1.41,5.76,5.76,0,0,1-1.29-1.71,4.6,4.6,0,0,1-.49-1.86.65.65,0,0,1,.2-.47.62.62,0,0,1,.44-.2h4a1.67,1.67,0,0,1,.66.11,1.86,1.86,0,0,1,.49.32l.36.39a3.81,3.81,0,0,0,.65.56,4.12,4.12,0,0,0,1,.5,4.79,4.79,0,0,0,1.53.21,8.89,8.89,0,0,0,2.68-.35,1.3,1.3,0,0,0,1.07-1.25.92.92,0,0,0-.39-.76,4.06,4.06,0,0,0-1.18-.56,18.34,18.34,0,0,0-2-.5c-.82-.16-1.79-.36-2.9-.61A8.39,8.39,0,0,1,78,225a5.9,5.9,0,0,1-1.44-4.16,5.53,5.53,0,0,1,.39-2.05,6.15,6.15,0,0,1,1.14-1.8,7.09,7.09,0,0,1,1.82-1.42,9.11,9.11,0,0,1,2.43-.94v-2.24a.82.82,0,0,1,.82-.82h4a.78.78,0,0,1,.57.24.82.82,0,0,1,.24.58Z"/>
              <path class="cls-35" d="M76.55,200.22c8,3.69,15.12-1.51,15.12-1.51"/>
              <path class="cls-35" d="M87.15,200.84s6-3.37,4.19-8.71c-2.45-7.35-5.3,9-5.3,9,5.59,0,2.2,6.2,7.16,7.33"/>
              <path class="cls-35" d="M85,201.33s-7.81-1.35-7.78-7c0-7.75,8.43,6.77,8.43,6.77-8.38,4.51-4.82,8.77-9.14,10.47"/>
            </g>
            <g>
              <path class="cls-33" d="M371.11,191.57c-18.19,0-48.21,50.22-37.84,57.25s59.93,7,71.31,0S393.54,191.57,371.11,191.57Z"/>
              <path class="cls-33" d="M375.92,200l8.56-21.4s-.26-3.48-6.15-4.55-5.08,3.48-10.43,3.48-11.64-5.22-16.06-.8L364.42,200Z"/>
              <path class="cls-34" d="M374.45,211.12a11,11,0,0,1,2.75,1.06,10.19,10.19,0,0,1,2.11,1.55,7.8,7.8,0,0,1,1.38,1.8,4.43,4.43,0,0,1,.54,1.83.74.74,0,0,1-.22.52.71.71,0,0,1-.49.22H376.1a1.81,1.81,0,0,1-.76-.14,2.68,2.68,0,0,1-.59-.4l-.32-.34a2.84,2.84,0,0,0-.62-.49,4.56,4.56,0,0,0-1-.44,5.33,5.33,0,0,0-1.49-.18,9.9,9.9,0,0,0-1.23.08,4.77,4.77,0,0,0-1,.27,1.94,1.94,0,0,0-.74.52,1.24,1.24,0,0,0-.29.85,1.13,1.13,0,0,0,.32.84,2.79,2.79,0,0,0,1.08.62,13.14,13.14,0,0,0,2,.56l3.11.64a17,17,0,0,1,3.23.95,7.75,7.75,0,0,1,2.31,1.43,5.5,5.5,0,0,1,1.39,2,7.62,7.62,0,0,1,.45,2.75,6.21,6.21,0,0,1-.54,2.6,6.56,6.56,0,0,1-1.52,2.09,8.24,8.24,0,0,1-2.36,1.51,12.28,12.28,0,0,1-3,.88v2.4a.89.89,0,0,1-.27.64.87.87,0,0,1-.64.27h-4.42a.87.87,0,0,1-.64-.27.89.89,0,0,1-.27-.64v-2.5a12,12,0,0,1-2.92-1.06,10.45,10.45,0,0,1-2.22-1.57,6.42,6.42,0,0,1-1.43-1.91,4.9,4.9,0,0,1-.54-2.07.7.7,0,0,1,.22-.52.64.64,0,0,1,.48-.22h4.42a1.84,1.84,0,0,1,.74.12,2.06,2.06,0,0,1,.54.35l.41.44a4.24,4.24,0,0,0,.72.62,4.56,4.56,0,0,0,1.15.56,5.23,5.23,0,0,0,1.7.24,9.81,9.81,0,0,0,3-.39,1.45,1.45,0,0,0,1.19-1.4,1,1,0,0,0-.44-.84,4.32,4.32,0,0,0-1.31-.63,19.86,19.86,0,0,0-2.24-.55c-.91-.18-2-.41-3.22-.68a9.37,9.37,0,0,1-5.08-2.48,6.53,6.53,0,0,1-1.6-4.63,6.13,6.13,0,0,1,.44-2.28,6.66,6.66,0,0,1,1.26-2,8.16,8.16,0,0,1,2-1.58,10.62,10.62,0,0,1,2.71-1v-2.49a.92.92,0,0,1,.91-.91h4.42a.92.92,0,0,1,.91.91Z"/>
              <path class="cls-35" d="M361.74,195c8.9,4.1,16.84-1.69,16.84-1.69"/>
              <path class="cls-35" d="M373.55,195.69s6.64-3.76,4.66-9.7c-2.73-8.19-5.9,10-5.9,10,6.22,0,2.45,6.9,8,8.16"/>
              <path class="cls-35" d="M371.2,196.24s-8.71-1.5-8.67-7.77c.05-8.63,9.38,7.55,9.38,7.55-9.33,5-5.36,9.76-10.17,11.66"/>
            </g>
            <g>
              <path class="cls-36" d="M318.38,208.86c-13.6,0-36.05,37.55-28.29,42.8s44.81,5.26,53.32,0S335.15,208.86,318.38,208.86Z"/>
              <path class="cls-36" d="M322,215.13l6.4-16s-.2-2.61-4.6-3.41-3.8,2.61-7.8,2.61-8.7-3.91-12-.61l9.4,17.41Z"/>
              <path class="cls-37" d="M320.88,223.47a8,8,0,0,1,2.05.8,7.18,7.18,0,0,1,1.58,1.16,5.29,5.29,0,0,1,1,1.34,3.15,3.15,0,0,1,.41,1.37.54.54,0,0,1-.17.39.5.5,0,0,1-.36.16h-3.31a1.28,1.28,0,0,1-.56-.1,1.91,1.91,0,0,1-.44-.3l-.24-.25a2.48,2.48,0,0,0-.47-.37,2.84,2.84,0,0,0-.76-.33,3.9,3.9,0,0,0-1.11-.14,5.53,5.53,0,0,0-.92.07,3.42,3.42,0,0,0-.78.2,1.38,1.38,0,0,0-.55.39.91.91,0,0,0-.22.63.88.88,0,0,0,.24.63,2.27,2.27,0,0,0,.81.47,10.93,10.93,0,0,0,1.5.41c.62.14,1.39.3,2.32.48a13.18,13.18,0,0,1,2.42.71,5.71,5.71,0,0,1,1.73,1.07,4.11,4.11,0,0,1,1,1.51,5.59,5.59,0,0,1,.34,2.06,4.61,4.61,0,0,1-.4,1.94,4.83,4.83,0,0,1-1.14,1.56,6.12,6.12,0,0,1-1.76,1.13,8.94,8.94,0,0,1-2.27.66v1.79a.66.66,0,0,1-.2.48.69.69,0,0,1-.48.2h-3.3a.66.66,0,0,1-.48-.2.63.63,0,0,1-.21-.48v-1.86a8.93,8.93,0,0,1-2.18-.8,7.44,7.44,0,0,1-1.66-1.17,5,5,0,0,1-1.07-1.43,3.85,3.85,0,0,1-.41-1.55.54.54,0,0,1,.17-.39.5.5,0,0,1,.36-.16h3.31a1.26,1.26,0,0,1,.95.35l.31.33a2.93,2.93,0,0,0,.54.47,3.45,3.45,0,0,0,.86.41,3.88,3.88,0,0,0,1.27.18,7.45,7.45,0,0,0,2.23-.29,1.08,1.08,0,0,0,.9-1.05.77.77,0,0,0-.33-.63,3.33,3.33,0,0,0-1-.46,12.77,12.77,0,0,0-1.68-.42c-.68-.13-1.48-.3-2.41-.5a7,7,0,0,1-3.79-1.86,4.9,4.9,0,0,1-1.2-3.47,4.55,4.55,0,0,1,.33-1.7,5,5,0,0,1,.94-1.5,6,6,0,0,1,1.51-1.18,7.79,7.79,0,0,1,2-.78v-1.87a.7.7,0,0,1,.69-.68h3.3a.68.68,0,0,1,.68.68Z"/>
              <path class="cls-38" d="M311.38,211.42c6.65,3.07,12.59-1.25,12.59-1.25"/>
              <path class="cls-38" d="M320.2,211.93s5-2.8,3.49-7.25c-2-6.12-4.41,7.5-4.41,7.5,4.65,0,1.83,5.16,6,6.1"/>
              <path class="cls-38" d="M318.45,212.35s-6.51-1.13-6.48-5.81c0-6.45,7,5.64,7,5.64-7,3.76-4,7.3-7.6,8.72"/>
            </g>
          </g>
          <g>
            <path class="cls-5" d="M473.19,89.82a10,10,0,1,1-10-10A10,10,0,0,1,473.19,89.82Z"/>
            <path class="cls-3" d="M464.44,84.85a4.31,4.31,0,0,1,1.17.45,3.81,3.81,0,0,1,.89.66,2.9,2.9,0,0,1,.58.76,1.7,1.7,0,0,1,.23.77.29.29,0,0,1-.09.22.29.29,0,0,1-.21.09h-1.87a.74.74,0,0,1-.32,0,1.59,1.59,0,0,1-.25-.17l-.13-.15a1.35,1.35,0,0,0-.27-.2,1.36,1.36,0,0,0-.42-.19,2.3,2.3,0,0,0-.63-.08,2.89,2.89,0,0,0-.52,0,1.85,1.85,0,0,0-.45.11.87.87,0,0,0-.31.22.56.56,0,0,0-.12.36.48.48,0,0,0,.14.36,1.3,1.3,0,0,0,.45.26,7.28,7.28,0,0,0,.85.24l1.31.27a6.38,6.38,0,0,1,1.37.4,3.25,3.25,0,0,1,1,.6,2.41,2.41,0,0,1,.59.86,3.4,3.4,0,0,1,.19,1.16,2.64,2.64,0,0,1-.23,1.1,2.92,2.92,0,0,1-.64.89,3.73,3.73,0,0,1-1,.64,5.55,5.55,0,0,1-1.29.37v1a.33.33,0,0,1-.11.27.37.37,0,0,1-.27.12h-1.87a.37.37,0,0,1-.27-.12.33.33,0,0,1-.11-.27v-1a5.49,5.49,0,0,1-1.24-.45,4.26,4.26,0,0,1-.94-.67,2.89,2.89,0,0,1-.61-.8,2.21,2.21,0,0,1-.23-.88.3.3,0,0,1,.1-.22.28.28,0,0,1,.2-.09H461a.72.72,0,0,1,.32,0,.9.9,0,0,1,.23.15l.17.18a1.6,1.6,0,0,0,.3.26,2,2,0,0,0,.49.24,2.12,2.12,0,0,0,.72.1,4.15,4.15,0,0,0,1.26-.16.62.62,0,0,0,.51-.6.41.41,0,0,0-.19-.35,1.75,1.75,0,0,0-.55-.27,7.84,7.84,0,0,0-1-.23l-1.37-.29a4,4,0,0,1-2.14-1,2.78,2.78,0,0,1-.68-2,2.45,2.45,0,0,1,.19-1,2.81,2.81,0,0,1,.53-.85,3.25,3.25,0,0,1,.86-.67,4.24,4.24,0,0,1,1.15-.44V83.78a.36.36,0,0,1,.11-.27.37.37,0,0,1,.27-.12h1.87a.37.37,0,0,1,.27.12.36.36,0,0,1,.11.27Z"/>
          </g>
          <g>
            <g>
              <path class="cls-10" d="M188.6,229.44s-35.74-3.48-37.9,6.07C147.44,250,195.93,250,195.93,250l4.18-9.71-19.87-7.78"/>
              <path class="cls-12" d="M187.57,252.22l-9.88-.36s-1.57-.5-2.57-3.46-.59-3.22-.59-3.22l11.5-1.29"/>
              <path class="cls-10" d="M200.11,228.2s27.33,1.66,26.18,14.08-41.9,11.44-41.9,11.44l-2.94-12.34s21.06-4.62,30-4.62"/>
              <path class="cls-10" d="M198.27,226.88l21,11s-15.66,8.89-30.64,5.21-17.26-10.41-17.26-10.41Z"/>
              <path class="cls-9" d="M178.37,244.62a1,1,0,0,0,.2.84c.31.31,1-.16,1.7.56s1,3.5.74,4.06-.9.48-.86.83c.08.74.95,1.07.95,1.07s-2.19.32-5.07.52c-5.12.37-6.67.31-8.55,0-1.53-.25-3.34-3.1-1.38-5.05,2.93-2.93,9.34-2.74,9.34-2.74l2.93-.09"/>
              <path class="cls-39" d="M181.9,243.27s18.79-7.12,29.53-7.82"/>
              <path class="cls-39" d="M185.86,241.85s-14.2-8.47-23.31-9.13"/>
            </g>
            <g>
              <path class="cls-12" d="M191.65,182.53s-2.48,6.44-.44,8.6c1.06,1.12,4.25,1.38,5.64.32,1-.78,2.63-5.74,2.07-6.63C196.81,181.43,191.65,182.53,191.65,182.53Z"/>
              <path class="cls-12" d="M199.74,188.89l.45,7s-4.5,3.52-8.18-.43l.78-4.57Z"/>
              <path class="cls-9" d="M201.39,187.56c.32-1.47,1.26-3.85.37-4.78-.33-.35-.78-.58-1.11-.93a4.82,4.82,0,0,1-.73-1.24,5.19,5.19,0,0,0-1.55-1.92,2.65,2.65,0,0,0-2.37-.38,5.58,5.58,0,0,1-.85.34,3,3,0,0,1-1.07-.11,5.86,5.86,0,0,0-2.85.13,3.54,3.54,0,0,0-2.49,2.18,2,2,0,0,0,1.57,2.56c.54,0,1.14-.23,1.6.08a2.28,2.28,0,0,1,.38.38,2.07,2.07,0,0,0,2.24.5c1-.38,1.45-.56,1.62.62a2.43,2.43,0,0,0,1.56,1.91,4.67,4.67,0,0,1,1.44.52,1.2,1.2,0,0,1,.33,1.43,3.84,3.84,0,0,0-.28.53c-.16.52.28,1,.69,1.39A6.3,6.3,0,0,0,201.39,187.56Z"/>
              <path class="cls-12" d="M198.41,187.63c.64-1,1.24-.9,1.61-.42s-.23,2.12-.61,2.4c-.77.56-1.43.57-1.56-.08"/>
              <path class="cls-13" d="M192.57,192.19a6,6,0,0,0,4.52-1"/>
            </g>
            <g>
              <path class="cls-17" d="M184.36,197.13s-5.86,1.48-8.09,11.12c-1.29,5.59-2.74,11.26-2.74,11.26s-9.44,1.05-12.52,2l1.15,5.36s18.22,1.59,22.23-2.42,2.37-14.63,2.37-14.63"/>
              <path class="cls-18" d="M194.48,196.92l6.66-.89,1.52.33s-11.71,33-12,33-4.33-.67-4.33-.67l3-32.53,1.43-.57Z"/>
              <g>
                <path class="cls-10" d="M193.91,198.61l-.63,1.55s-5.06,10-5.06,12.33-.82,16.43-.62,16.43,3.65.41,3.65.41l3.58-14.93.17-14.24"/>
                <path class="cls-10" d="M192.76,197.16a6.47,6.47,0,0,0,.52,3,1.93,1.93,0,0,0,1.72,0c.26-.26,1.52-2.59,1.11-3A4.88,4.88,0,0,0,192.76,197.16Z"/>
              </g>
              <path class="cls-17" d="M190,219.85c6.05-16.13,12.77-23.49,12.77-23.49s7.28.68,9.34,4.29c2.57,4.52-.47,10.86-1.11,19.84s-1.36,6.69-1.36,6.69-9,3.43-17,3.43c0,0-9.24-.28-11.61-1.23V216.46c0-5.67-1.43-14.77,1.47-18.3,1.28-1.56,7-2,7-2Z"/>
              <g>
                <path class="cls-21" d="M159.59,230h27.5l-2.15-16.45a1.07,1.07,0,0,0-1.05-.93H158.47a1,1,0,0,0-1,1.14Z"/>
                <path class="cls-20" d="M169.26,221.17a2.05,2.05,0,0,0,2,1.89,1.73,1.73,0,0,0,1.75-1.89,2,2,0,0,0-2-1.88A1.73,1.73,0,0,0,169.26,221.17Z"/>
              </g>
              <polygon class="cls-18" points="200.09 194.36 194.66 196.57 192.2 194.36 190.82 195.61 191.84 198.9 194.6 197.09 196.37 199.91 201.14 196.03 200.09 194.36"/>
              <path class="cls-40" d="M204.38,196.86a52.76,52.76,0,0,0-2.8,12.17h-3l1.61,2.58s-6.28,3.23-10.21,12.85"/>
              <path class="cls-40" d="M187.57,196.64a36.11,36.11,0,0,1-2.19,8.82l1.89,1.36-2.35,1.33s4.31,10.62,3.61,16.31"/>
              <polyline class="cls-41" points="201.24 196.18 196.43 200.19 194.6 197.09 191.83 199.11 190.64 195.68"/>
              <path class="cls-12" d="M185.44,227.43c-1.19-.08-6.55-.35-6.55,0s1.77.68,1.68.83-1.51.22-2.28.15-1.81-.06-1.87.24c-.13.56,3.65.87,3.65.87,0,.17-4-1.1-4.16-.64-.22.67,4.06,1.66,4.17,1.85,0,0-3.47-1.9-3.64-1.41s2.89,2.26,3.93,2.44c-.82-.31-3.11-2.09-3.23-1.74s1.94,1.66,2.3,1.77a21.14,21.14,0,0,0,5.69,1"/>
              <polygon class="cls-18" points="186.61 226.88 184.39 227.13 185.26 234.34 188.32 234.19 186.61 226.88"/>
              <path class="cls-17" d="M203.15,209.84a119.46,119.46,0,0,1-.49,13,85.29,85.29,0,0,1-17.42,3.76c.56,3.59,1.12,8.15,1.12,8.15s18.67-1.34,24-5.09c5.78-4.06,6.42-27.83-.32-31"/>
              <path class="cls-40" d="M186.89,226.22c14.42-2.32,16.42-3.38,16.42-3.38s1.07-8.87.65-14"/>
            </g>
          </g>
          <g>
            <g>
              <path class="cls-12" d="M105.79,118.79l-1.46,7.37s4.12,4.17,8.44.29l0-4.94Z"/>
              <path class="cls-12" d="M112.67,111.9s4.34,6.63,2.17,9c-1.14,1.21-5.19,2.31-6.69,1.18-1.11-.84-2.86-6.16-2.27-7.12C108.13,111.27,112.67,111.9,112.67,111.9Z"/>
              <path class="cls-9" d="M105.06,112.38c.38-2.5,2.92-3,7.65-2.31.63.09,1.8-.24,2.05.35a2.38,2.38,0,0,1-2.1,3.48c-.88.12-1.83.86-1.45,1.81.1.24.35.67.15.85a2.55,2.55,0,0,1-.54.22c-.36.16-.38.68-.2,1s.06.7.24,1a2.21,2.21,0,0,1-1.12,2.57,5.64,5.64,0,0,1-4.69-.18c-1.39-.89-2.08-3-1.77-6.72C103.4,113.1,104.54,112.24,105.06,112.38Z"/>
              <path class="cls-12" d="M111.71,116.79c-.7-1.06-1.34-1-1.74-.44-.53.68.27,2.28.68,2.58.82.6,1.54.6,1.67-.1"/>
              <path class="cls-42" d="M112.65,122.06a2.66,2.66,0,0,1-1.42-1.67"/>
            </g>
            <g>
              <g>
                <polyline class="cls-12" points="100.89 243.11 98.55 252.98 106.77 256.14 89.52 253.93 90.99 242.08"/>
                <path class="cls-9" d="M99,251c.52.18.15.54,1,1.59s6,3.08,8.48,3.81,1.85,2.75,1,2.75H96.9c-.93,0-1.61-.76-2.33-.76-.19,0-.6-.13-.71,0a1.44,1.44,0,0,0-.16.75H89.4a.65.65,0,0,1-.73-.67l.46-6.1s5.25.71,6.73.28c.6-.17,0-.63.22-.88A6.49,6.49,0,0,1,99,251Z"/>
              </g>
              <path class="cls-43" d="M93.47,175.4c.64,22.83-4.42,72.15-4.42,72.15l14-.06s7.78-33.83,9.7-50.85c1.14-10.14,1.61-21.58,1.79-30.21"/>
              <path class="cls-44" d="M111,197.11c-2.19,16.82-10.58,50.1-10.58,50.1"/>
              <g>
                <polyline class="cls-12" points="124.13 242.75 124.63 252.98 132.85 256.14 115.6 253.93 114.75 242.08"/>
                <path class="cls-9" d="M125.12,251c.52.18.14.54,1,1.59s6,3.08,8.48,3.81,1.85,2.75,1,2.75H123c-.94,0-1.61-.76-2.33-.76-.2,0-.6-.13-.71,0a1.44,1.44,0,0,0-.16.75h-4.3c-.48,0-.77-.31-.73-.67l.46-6.1s5.25.71,6.72.28c.6-.17,0-.63.23-.88A6.49,6.49,0,0,1,125.12,251Z"/>
              </g>
              <path class="cls-43" d="M125.27,176.49S127,202.05,127,214.32s.79,34.47.79,34.47H113.68s-3.5-37.71-11.41-63.91c-2.83-9.37-3.21-13.59-2-18.78l17.61-4.56Z"/>
              <path class="cls-44" d="M119.69,175.76c5.07,34.34,6,73.09,6,73.09"/>
              <path class="cls-44" d="M99.91,177.56c1.1,6.36,3.69,10.26,5.12,12.85,2.12,8.56,2.54,14.91,4.3,26.07"/>
              <path class="cls-44" d="M110.7,180.67a26.12,26.12,0,0,1-8.17.16"/>
              <path class="cls-44" d="M96.7,180.41a9.91,9.91,0,0,1-3.11-.07"/>
            </g>
            <g>
              <path class="cls-12" d="M121.4,127a9.47,9.47,0,0,0-2.6-4.26c-.93-.71-1.12-.43-1.58-.7-.75-.45-1.19-.3-1.5.12-.21.26-.77.09-1.07.31-.47.35-.14.85-.46,1-1.4.66.15,2,.15,2s-.31-.72-.89-.41c-.38.2,1.06,2.25,2.08,3.61.52.7.93,1.22.93,1.22"/>
              <path class="cls-18" d="M121.85,125.82c-.12-.12-1.29-1.7-1.29-1.7l-4.63,4.32,1.46.92"/>
              <polyline class="cls-18" points="116.91 130.73 115.46 129.37 121.25 124.6 122.58 126.59"/>
              <path class="cls-45" d="M105,125.92a13.75,13.75,0,0,0-7.79.82c-9.11,4.5-14.12,19.85-14.36,23.49-.61,9.47,10.35,25.21,10.35,25.21l6.32-3s-6.77-16.07-4.94-21.27S105,136.7,105,136.7"/>
              <path class="cls-45" d="M104.42,126s-7.62,1.67-10.51,12.65c-1.31,4.95.1,12.89-.21,19.73a174.27,174.27,0,0,1-1.94,19.15c14.08,2.85,34.35-.22,34.35-.22s-1.46-11.18-2-18.31a150.3,150.3,0,0,1-.49-16.28c0-14.63-10.36-15.67-10.36-15.67Z"/>
              <path class="cls-45" d="M103.43,126a12.53,12.53,0,0,1,.9-1.91c1.88-.44,7.31-.25,8.75,1.19.58.58.31,1.36.44,2.35"/>
              <path class="cls-46" d="M92.55,173.44c1.65-11.31,1-33.32,1-33.32"/>
              <path class="cls-45" d="M113.73,138s4.71,19.31,15.53,19.23c10.24-.08,7.48-17.23-7.92-32.64l-9.4,7.88"/>
              <path class="cls-46" d="M123.75,155.15a44.1,44.1,0,0,1-6.36-7.16"/>
              <path class="cls-46" d="M117.39,128.61c8.72,6.52,13.2,16.39,13.2,16.39"/>
            </g>
          </g>
          <g>
            <g>
              <path class="cls-12" d="M317.52,71c-.25,2.22-2.1,8.56-1.7,8.82s1.09-2,1.38-1.69-.52,3.75,0,3.91c.64.22,1.26-3.39,1.26-3.39s-.46,4,.15,4c.44,0,.95-3,1.29-4.13-.21,1.27-.28,3.38.17,3.39s.84-2,1.23-3.59c-.14,1-.3,2.82.12,2.85s1.74-4.89,2.78-9.58"/>
              <path class="cls-12" d="M327.83,39.16c1.79,15.5-4.5,36-4.5,36l-6.24-1.34s2.54-17.79-.32-33.42"/>
            </g>
            <path class="cls-17" d="M321.63,26.59c5.94,4.17,6.41,13,6.41,13l-11.33,2.14s-.57-6.9-.65-9.26"/>
            <path class="cls-19" d="M316.32,41.76a31.37,31.37,0,0,0-1.31-6"/>
            <path class="cls-19" d="M328.55,39.51c-.33-3.17-.83-5.74-.83-5.74"/>
          </g>
          <g>
            <circle class="cls-17" cx="131.5" cy="62.48" r="25.4" transform="translate(39.3 175.14) rotate(-76.12)"/>
            <circle class="cls-18" cx="131.5" cy="62.48" r="18.38"/>
            <circle class="cls-17" cx="131.5" cy="62.48" r="12.62"/>
            <circle class="cls-18" cx="131.5" cy="62.48" r="6.61"/>
            <g>
              <polygon class="cls-47" points="132.52 63.5 128.37 63.5 132.52 59.35 132.52 63.5"/>
              <polygon class="cls-47" points="105.6 36.57 100.84 36.57 100.84 35.38 104.4 35.38 104.4 31.82 105.6 31.82 105.6 36.57"/>
              <polygon class="cls-47" points="103.42 34.4 98.67 34.4 98.67 33.2 102.22 33.2 102.22 29.65 103.42 29.65 103.42 34.4"/>
              <rect class="cls-47" x="116.39" y="27.65" width="1.2" height="40.63" transform="translate(0.35 96.78) rotate(-45)"/>
            </g>
          </g>
          <g>
            <g>
              <line class="cls-48" x1="374.62" y1="259.17" x2="366.7" y2="153.31"/>
              <polyline class="cls-48" points="406.75 259.17 398.83 153.31 366.7 153.31"/>
              <line class="cls-48" x1="390.92" y1="259.17" x2="398.83" y2="153.31"/>
              <polyline class="cls-48" points="358.79 259.17 366.7 153.31 398.83 153.31"/>
              <line class="cls-48" x1="405.48" y1="244.17" x2="359.91" y2="244.17"/>
              <line class="cls-48" x1="404.45" y1="231.21" x2="360.88" y2="231.21"/>
              <line class="cls-48" x1="403.18" y1="217.89" x2="361.87" y2="217.89"/>
              <line class="cls-48" x1="401.91" y1="205.2" x2="362.82" y2="205.2"/>
              <line class="cls-48" x1="401.12" y1="191.93" x2="363.77" y2="191.93"/>
              <line class="cls-48" x1="400.32" y1="178.79" x2="364.76" y2="178.79"/>
              <line class="cls-48" x1="399.59" y1="166.38" x2="365.72" y2="166.38"/>
            </g>
            <g>
              <g>
                <path class="cls-12" d="M396.53,105.72l1.65,7.33s-4,4.27-8.43.5l-.08-4.94Z"/>
                <path class="cls-12" d="M387.15,99.31s-2,7.69.85,9.19c1.46.77,5.65.5,6.7-1,.78-1.15.73-6.75-.14-7.47C391.24,97.25,387.15,99.31,387.15,99.31Z"/>
                <path class="cls-17" d="M395.66,97.09c-1.17-2.24-3.75-1.79-7.67-.22-1.51.6-3.15,0-3.3.66a3.11,3.11,0,0,0,1.47,3.63,4.29,4.29,0,0,0,2.33,0c1.69-.58,3.11.23,3.06,1.24,0,.27-.11.75.13.86a2.88,2.88,0,0,0,.59,0c.38,0,.58.51.51.9s.83.3.76.68c-.15.91,1.6,2.07,2.52,2.17s1.17-.53,1.57-1.64C398.19,103.82,399.16,97,395.66,97.09Z"/>
                <path class="cls-12" d="M391.94,103.47c.32-1.23,1-1.35,1.5-1,.72.48.49,2.25.2,2.66-.59.84-1.26,1.07-1.62.45"/>
                <path class="cls-13" d="M389.68,109.06a4.47,4.47,0,0,0,2.89-1.56"/>
              </g>
              <g>
                <g>
                  <polyline class="cls-12" points="420.79 220.28 428.76 226.56 424.29 234.14 436.43 221.69 427.91 213.33"/>
                  <path class="cls-9" d="M427.17,225.32c-.3.47.22.52.19,1.88s-2.82,6.17-4.27,8.26.25,3.3.88,2.8l9.93-7.88c.73-.58.79-1.59,1.36-2,.15-.13.38-.48.56-.44s.59.48.59.48l3.37-2.67a.65.65,0,0,0,.15-1l-4.15-4.49s-3.67,3.82-5.09,4.4c-.58.24-.37-.51-.73-.55A6.49,6.49,0,0,0,427.17,225.32Z"/>
                </g>
                <path class="cls-45" d="M414.91,159.93c0,7.61-.12,19.34,1.71,31.43.73,4.78,17.11,26.11,17.11,26.11L424,226.62s-28.22-25-27.52-43.08c.76-19.57-2.74-46.06-2.74-46.06"/>
                <g>
                  <polyline class="cls-12" points="387.81 226.62 388.72 237.51 380.5 240.67 397.75 238.46 397.72 226.62"/>
                  <path class="cls-9" d="M388.23,235.55c-.52.18-.14.54-1,1.59s-6.05,3.08-8.48,3.82-1.85,2.74-1.05,2.74h12.68c.93,0,1.6-.75,2.32-.75.2,0,.6-.14.72,0a1.56,1.56,0,0,1,.16.75h4.3a.65.65,0,0,0,.73-.67l-.46-6.1s-5.25.72-6.73.28c-.6-.17,0-.63-.22-.88A6.49,6.49,0,0,0,388.23,235.55Z"/>
                </g>
                <path class="cls-45" d="M383.11,161s-1.76,25.57-1.76,37.84,3.47,34.47,3.47,34.47H399s-.75-37.71,7.16-63.91c2.83-9.38,3.21-13.6,2-18.79l-17.61-4.56Z"/>
                <path class="cls-49" d="M387.67,160.3c-5.35,31.75-.07,73-.07,73"/>
                <path class="cls-49" d="M408.78,163.68c0,3.94-1.16,5.83-4.21,8.87-2.17,9.18-2.44,17.48-3.9,25.72"/>
                <path class="cls-49" d="M401.79,192.05c8.15,16.49,23.89,32.28,23.89,32.28"/>
                <path class="cls-49" d="M397.68,165.2a25.84,25.84,0,0,0,8.18.16"/>
                <path class="cls-49" d="M411.68,164.94a10,10,0,0,0,3.11-.06"/>
              </g>
              <path class="cls-10" d="M388.65,112.85a11.7,11.7,0,0,1,.71-2.24,19.39,19.39,0,0,1,8.09-2l.84,2.67"/>
              <g>
                <path class="cls-12" d="M353.54,131.09c-2.31.11-9.07-.68-9.28-.25s2.17.73,1.93,1-3.92.09-4,.57c-.13.65,3.66.69,3.66.69s-4.15.17-4.1.77c0,.42,3.21.43,4.42.59-1.33,0-3.49.25-3.45.69s2.21.49,3.86.62c-1,0-2.93.14-2.9.55s5.26.91,10.22,1.19"/>
                <polyline class="cls-18" points="352.51 138.08 349.9 137.97 350.56 130.57 353.35 130.51"/>
                <path class="cls-10" d="M392.32,110.66c.25,0,3.09-.45,3.38-.47,2.95-.17,8,1.82,11.85,11.24,4.89,12.11,8.15,39.34,8.15,39.34s-20.65,3.93-35.18,2.64C379.48,144.43,374.88,114.24,392.32,110.66Z"/>
                <path class="cls-11" d="M384.59,134.33a141.58,141.58,0,0,1,4.53,29.27"/>
                <path class="cls-10" d="M394.63,110.44a21,21,0,0,0-13.09,6.13c-3.74,3.86-6.54,8.55-9.32,10.77-3.17,2.53-20.46,2.86-20.46,2.86l.11,8.49s16.84,2.26,22.49.53,12.12-6.7,12.12-6.7"/>
                <path class="cls-11" d="M380,137.06a33.86,33.86,0,0,0,6.33-4.07"/>
              </g>
            </g>
          </g>
        </g>
      </g>
    </g>
  </g>
</svg>
