<svg xmlns="http://www.w3.org/2000/svg" viewBox="0 0 42.01 72.82">
  <defs>
    <style>
      .cls-1 {
        fill: #16110d;
      }

      .cls-2 {
        fill: #1677ff;
      }

      .cls-3 {
        fill: #92c9ff;
      }
    </style>
  </defs>
  <g id="Layer_2" data-name="Layer 2">
    <g id="content">
      <g id="icons">
        <g id="_1" data-name="1">
          <g>
            <g>
              <path class="cls-1" d="M29,70.92c.27.15.27.4,0,.56a1.08,1.08,0,0,1-1,0c-.27-.16-.27-.41,0-.56A1,1,0,0,1,29,70.92Z"/>
              <path class="cls-1" d="M31.56,69.46c.27.15.27.4,0,.56a1.08,1.08,0,0,1-1,0c-.27-.16-.27-.41,0-.56A1,1,0,0,1,31.56,69.46Z"/>
              <path class="cls-1" d="M34.1,68a.29.29,0,0,1,0,.55,1,1,0,0,1-1,0c-.27-.15-.27-.4,0-.55A1,1,0,0,1,34.1,68Z"/>
              <ellipse class="cls-1" cx="26.02" cy="69.74" rx="0.68" ry="0.4"/>
              <path class="cls-1" d="M29,68c.27.15.27.4,0,.55a1,1,0,0,1-1,0c-.27-.15-.27-.4,0-.55A1,1,0,0,1,29,68Z"/>
              <ellipse class="cls-1" cx="31.08" cy="66.81" rx="0.68" ry="0.4"/>
              <path class="cls-1" d="M24,68c.27.15.27.4,0,.55a1,1,0,0,1-1,0A.29.29,0,0,1,23,68,1,1,0,0,1,24,68Z"/>
              <path class="cls-1" d="M26.5,66.53c.27.16.27.41,0,.56a1,1,0,0,1-1,0,.3.3,0,0,1,0-.56A1.1,1.1,0,0,1,26.5,66.53Z"/>
              <path class="cls-1" d="M29,65.07c.27.16.27.41,0,.56a1,1,0,0,1-1,0c-.27-.15-.27-.4,0-.56A1.08,1.08,0,0,1,29,65.07Z"/>
              <ellipse class="cls-1" cx="20.96" cy="66.81" rx="0.68" ry="0.4"/>
              <path class="cls-1" d="M24,65.07c.27.16.27.41,0,.56a1,1,0,0,1-1,0,.3.3,0,0,1,0-.56A1.1,1.1,0,0,1,24,65.07Z"/>
              <ellipse class="cls-1" cx="26.02" cy="63.89" rx="0.68" ry="0.4"/>
              <path class="cls-1" d="M18.91,65.07c.27.16.27.41,0,.56a1,1,0,0,1-1,0c-.27-.15-.27-.4,0-.56A1.1,1.1,0,0,1,18.91,65.07Z"/>
              <path class="cls-1" d="M21.44,63.61c.27.16.27.41,0,.56a1.1,1.1,0,0,1-1,0c-.27-.15-.27-.4,0-.56A1.1,1.1,0,0,1,21.44,63.61Z"/>
              <path class="cls-1" d="M24,62.15c.27.15.27.4,0,.56a1.1,1.1,0,0,1-1,0,.3.3,0,0,1,0-.56A1.1,1.1,0,0,1,24,62.15Z"/>
              <path class="cls-1" d="M16.36,63.6a.3.3,0,0,1,0,.56,1.1,1.1,0,0,1-1,0c-.27-.16-.27-.41,0-.56A1,1,0,0,1,16.36,63.6Z"/>
              <path class="cls-1" d="M18.89,62.13a.3.3,0,0,1,0,.56,1,1,0,0,1-1,0c-.27-.15-.27-.4,0-.56A1.1,1.1,0,0,1,18.89,62.13Z"/>
              <path class="cls-1" d="M21.42,60.67c.27.16.27.41,0,.56a1,1,0,0,1-1,0c-.27-.15-.27-.4,0-.56A1.1,1.1,0,0,1,21.42,60.67Z"/>
              <path class="cls-1" d="M13.82,62.13c.27.16.27.41,0,.56a1,1,0,0,1-1,0c-.27-.15-.27-.4,0-.56A1.08,1.08,0,0,1,13.82,62.13Z"/>
              <ellipse class="cls-1" cx="15.87" cy="60.95" rx="0.68" ry="0.4"/>
              <ellipse class="cls-1" cx="18.4" cy="59.49" rx="0.68" ry="0.4"/>
              <path class="cls-1" d="M11.29,60.67c.27.16.27.41,0,.56a1,1,0,0,1-1,0c-.27-.15-.27-.4,0-.56A1.08,1.08,0,0,1,11.29,60.67Z"/>
              <path class="cls-1" d="M13.82,59.21c.27.16.27.41,0,.56a1,1,0,0,1-1,0c-.27-.15-.27-.4,0-.56A1.08,1.08,0,0,1,13.82,59.21Z"/>
              <path class="cls-1" d="M16.36,57.75a.3.3,0,0,1,0,.56,1.1,1.1,0,0,1-1,0,.29.29,0,0,1,0-.56A1.1,1.1,0,0,1,16.36,57.75Z"/>
              <ellipse class="cls-1" cx="8.28" cy="59.49" rx="0.68" ry="0.4"/>
              <path class="cls-1" d="M11.29,57.75c.27.16.27.41,0,.56a1.08,1.08,0,0,1-1,0c-.27-.15-.27-.4,0-.56A1.08,1.08,0,0,1,11.29,57.75Z"/>
              <ellipse class="cls-1" cx="13.34" cy="56.57" rx="0.68" ry="0.4"/>
              <path class="cls-1" d="M6.23,57.75c.27.16.27.41,0,.56a1.1,1.1,0,0,1-1,0,.3.3,0,0,1,0-.56A1.1,1.1,0,0,1,6.23,57.75Z"/>
              <path class="cls-1" d="M8.76,56.29c.27.15.27.4,0,.56a1.1,1.1,0,0,1-1,0,.3.3,0,0,1,0-.56A1,1,0,0,1,8.76,56.29Z"/>
              <path class="cls-1" d="M11.29,54.83c.27.15.27.4,0,.56a1.08,1.08,0,0,1-1,0c-.27-.16-.27-.41,0-.56A1,1,0,0,1,11.29,54.83Z"/>
              <ellipse class="cls-1" cx="3.22" cy="56.57" rx="0.68" ry="0.4"/>
              <path class="cls-1" d="M6.23,54.83c.27.15.27.4,0,.56a1.1,1.1,0,0,1-1,0,.3.3,0,0,1,0-.56A1,1,0,0,1,6.23,54.83Z"/>
              <ellipse class="cls-1" cx="8.28" cy="53.65" rx="0.68" ry="0.4"/>
              <path class="cls-1" d="M1.17,54.83c.27.15.27.4,0,.56a1.1,1.1,0,0,1-1,0c-.27-.16-.27-.41,0-.56A1,1,0,0,1,1.17,54.83Z"/>
              <path class="cls-1" d="M3.7,53.37c.27.15.27.4,0,.56a1.1,1.1,0,0,1-1,0c-.27-.16-.27-.41,0-.56A1,1,0,0,1,3.7,53.37Z"/>
              <path class="cls-1" d="M6.23,51.91c.27.15.27.4,0,.55a1,1,0,0,1-1,0,.29.29,0,0,1,0-.55A1,1,0,0,1,6.23,51.91Z"/>
              <path class="cls-1" d="M1.17,51.91c.27.15.27.4,0,.55a1,1,0,0,1-1,0c-.27-.15-.27-.4,0-.55A1,1,0,0,1,1.17,51.91Z"/>
              <path class="cls-1" d="M3.7,50.44c.27.16.27.41,0,.56a1,1,0,0,1-1,0c-.27-.15-.27-.4,0-.56A1.1,1.1,0,0,1,3.7,50.44Z"/>
              <path class="cls-1" d="M36.73,72.15a.29.29,0,0,1,0,.55,1,1,0,0,1-1,0c-.27-.15-.27-.4,0-.55A1,1,0,0,1,36.73,72.15Z"/>
              <path class="cls-1" d="M39.26,70.68a.3.3,0,0,1,0,.56,1,1,0,0,1-1,0c-.27-.15-.27-.4,0-.56A1.1,1.1,0,0,1,39.26,70.68Z"/>
              <ellipse class="cls-1" cx="31.18" cy="72.43" rx="0.68" ry="0.4"/>
              <ellipse class="cls-1" cx="33.71" cy="70.96" rx="0.68" ry="0.4"/>
              <ellipse class="cls-1" cx="36.24" cy="69.5" rx="0.68" ry="0.4"/>
              <path class="cls-1" d="M36.65,66.55a.3.3,0,0,1,0,.56,1.1,1.1,0,0,1-1,0c-.27-.16-.27-.41,0-.56A1,1,0,0,1,36.65,66.55Z"/>
              <path class="cls-1" d="M39.18,65.09c.27.15.27.4,0,.55a1,1,0,0,1-1,0c-.27-.15-.27-.4,0-.55A1,1,0,0,1,39.18,65.09Z"/>
              <path class="cls-1" d="M36.65,63.62a.3.3,0,0,1,0,.56,1,1,0,0,1-1,0c-.27-.15-.27-.4,0-.56A1.1,1.1,0,0,1,36.65,63.62Z"/>
              <path class="cls-1" d="M30.61,63.63a1.07,1.07,0,0,1,1,0c.27.16.27.41,0,.56a1,1,0,0,1-1,0C30.35,64,30.35,63.78,30.61,63.63Z"/>
              <path class="cls-1" d="M34.12,62.16a.3.3,0,0,1,0,.56,1,1,0,0,1-1,0c-.27-.15-.27-.4,0-.56A1.1,1.1,0,0,1,34.12,62.16Z"/>
              <path class="cls-1" d="M28.08,62.16a1.1,1.1,0,0,1,1,0c.27.16.27.41,0,.56a1,1,0,0,1-1,0A.3.3,0,0,1,28.08,62.16Z"/>
              <path class="cls-1" d="M31.58,60.7c.27.16.27.41,0,.56a1.08,1.08,0,0,1-1,0c-.27-.15-.27-.4,0-.56A1.08,1.08,0,0,1,31.58,60.7Z"/>
              <path class="cls-1" d="M25.55,60.7a1.1,1.1,0,0,1,1,0c.27.16.27.41,0,.56a1,1,0,0,1-1,0A.3.3,0,0,1,25.55,60.7Z"/>
              <ellipse class="cls-1" cx="28.57" cy="59.52" rx="0.68" ry="0.4"/>
              <path class="cls-1" d="M31.58,58.34a1.08,1.08,0,0,1-1,0c-.27-.16-.27-.41,0-.56S31.85,58.18,31.58,58.34Z"/>
              <ellipse class="cls-1" cx="23.48" cy="59.51" rx="0.68" ry="0.4"/>
              <ellipse class="cls-1" cx="26.02" cy="58.04" rx="0.68" ry="0.4"/>
              <path class="cls-1" d="M29,56.86a1.1,1.1,0,0,1-1,0,.3.3,0,0,1,0-.56C28.33,56.15,29.3,56.71,29,56.86Z"/>
              <path class="cls-1" d="M20.47,57.76a1.1,1.1,0,0,1,1,0,.3.3,0,0,1,0,.56,1,1,0,0,1-1,0C20.2,58.17,20.2,57.92,20.47,57.76Z"/>
              <path class="cls-1" d="M24,56.3c.27.16.27.41,0,.56a1.1,1.1,0,0,1-1,0c-.27-.15-.27-.4,0-.56A1.1,1.1,0,0,1,24,56.3Z"/>
              <path class="cls-1" d="M26.5,55.4a1.1,1.1,0,0,1-1,0,.3.3,0,0,1,0-.56C25.8,54.69,26.77,55.24,26.5,55.4Z"/>
              <path class="cls-1" d="M17.94,56.3a1.08,1.08,0,0,1,1,0c.27.16.27.41,0,.56a1,1,0,0,1-1,0C17.67,56.71,17.67,56.46,17.94,56.3Z"/>
              <path class="cls-1" d="M21.44,54.84c.27.15.27.4,0,.56a1.1,1.1,0,0,1-1,0c-.27-.16-.27-.41,0-.56A1.1,1.1,0,0,1,21.44,54.84Z"/>
              <path class="cls-1" d="M15.4,54.84a1.1,1.1,0,0,1,1,0c.27.16.27.41,0,.56a1,1,0,0,1-1,0A.3.3,0,0,1,15.4,54.84Z"/>
              <path class="cls-1" d="M18.91,53.38a.3.3,0,0,1,0,.56,1.1,1.1,0,0,1-1,0c-.27-.16-.27-.41,0-.56A1,1,0,0,1,18.91,53.38Z"/>
              <path class="cls-1" d="M12.87,53.38a1.1,1.1,0,0,1,1,0c.27.15.27.4,0,.56a1.08,1.08,0,0,1-1,0A.3.3,0,0,1,12.87,53.38Z"/>
              <path class="cls-1" d="M16.38,51.92a.3.3,0,0,1,0,.56,1.1,1.1,0,0,1-1,0c-.27-.16-.27-.41,0-.56A1,1,0,0,1,16.38,51.92Z"/>
              <path class="cls-1" d="M10.34,51.92a1,1,0,0,1,1,0c.27.15.27.4,0,.56a1.1,1.1,0,0,1-1,0A.3.3,0,0,1,10.34,51.92Z"/>
              <path class="cls-1" d="M13.84,50.46c.27.15.27.4,0,.56a1.08,1.08,0,0,1-1,0c-.27-.16-.27-.41,0-.56a1,1,0,0,1,1,0C14.11,50.61,13.58,50.3,13.84,50.46Z"/>
              <path class="cls-1" d="M7.81,50.46a1,1,0,0,1,1,0c.27.15.27.4,0,.56a1.1,1.1,0,0,1-1,0C7.55,50.86,7.54,50.61,7.81,50.46Z"/>
              <path class="cls-1" d="M11.31,49c.27.16.27.41,0,.56a1,1,0,0,1-1,0c-.27-.15-.27-.4,0-.56a1.08,1.08,0,0,1,1,0Z"/>
              <path class="cls-1" d="M5.28,49a1,1,0,0,1,1,0c.27.15.27.4,0,.55a1.07,1.07,0,0,1-1,0C5,49.4,5,49.15,5.28,49Z"/>
              <path class="cls-1" d="M40.84,69.24a1,1,0,0,1,1,0,.3.3,0,0,1,0,.56,1.1,1.1,0,0,1-1,0C40.57,69.64,40.57,69.39,40.84,69.24Z"/>
              <path class="cls-1" d="M38.31,67.78a1,1,0,0,1,1,0c.27.16.27.41,0,.56a1,1,0,0,1-1,0C38,68.18,38,67.93,38.31,67.78Z"/>
              <path class="cls-1" d="M41.81,66.31c.27.16.27.41,0,.56a1,1,0,0,1-1,0c-.27-.15-.27-.4,0-.56A1.1,1.1,0,0,1,41.81,66.31Z"/>
            </g>
            <g>
              <g>
                <path class="cls-2" d="M37,27.17C37,18.06,30.59,7,22.69,2.42,18.83.19,15.33,0,12.76,1.34h0l-.11.06-.11.07-3.36,2a.41.41,0,0,0,0,.68l2,1.32a15.33,15.33,0,0,0-.49,3.94c0,9.11,6.4,20.2,14.29,24.75a15.39,15.39,0,0,0,3.09,1.39l.75,2.59a.45.45,0,0,0,.66.27l3.23-1.89.21-.11.21-.13v0C35.51,34.63,37,31.53,37,27.17Z"/>
                <path class="cls-3" d="M36.51,28.75c0-9.11-6.4-20.19-14.29-24.75-3.86-2.23-7.36-2.47-9.93-1.08h0L12.17,3,12.06,3,8.7,5a.41.41,0,0,0,0,.68l2,1.32a15.33,15.33,0,0,0-.49,3.94c0,9.11,16.38,25.82,17.38,26.14C27.58,37.08,36.51,33.11,36.51,28.75Z"/>
                <path class="cls-1" d="M29.24,38.89a.84.84,0,0,1-.35-.07.9.9,0,0,1-.54-.6l-.68-2.35a16.87,16.87,0,0,1-3-1.35C16.71,29.9,10.2,18.61,10.2,9.36a16.09,16.09,0,0,1,.42-3.73L8.89,4.49a.9.9,0,0,1-.39-.75A.89.89,0,0,1,8.93,3L12.69.82h0C15.53-.59,19.14-.17,22.93,2c8,4.63,14.53,15.91,14.53,25.16,0,4.28-1.4,7.58-3.94,9.33v0l-.59.37L29.7,38.77A.93.93,0,0,1,29.24,38.89ZM9.51,3.77,11.7,5.21l-.09.33a15.2,15.2,0,0,0-.47,3.82c0,9,6.3,19.87,14.05,24.34a15.39,15.39,0,0,0,3,1.35l.23.08L29.25,38l3.61-2.15c2.36-1.55,3.65-4.61,3.65-8.64,0-9-6.3-19.87-14-24.34C18.88.76,15.52.38,13,1.75l-.18.1h0Z"/>
              </g>
              <g>
                <g>
                  <path class="cls-2" d="M16.43,60.43l7-27.76-8.5-7.4L7.93,53c-.11.45.42,1.14.77,1l4.24-2c.23-.11.59.21.69.6L15.54,60C15.69,60.56,16.32,60.88,16.43,60.43Z"/>
                  <path class="cls-3" d="M15.23,53.51l1.9,7.31c.16.6.79.92.9.47l3.74-14.85-9-5.5-3.26,13c-.12.45.42,1.14.77,1l4.24-2C14.76,52.8,15.13,53.12,15.23,53.51Z"/>
                  <path class="cls-1" d="M16.19,61.12a1.32,1.32,0,0,1-1.11-1l-1.9-7.31a.59.59,0,0,0-.15-.25L8.9,54.44A.84.84,0,0,1,8,54.26a1.44,1.44,0,0,1-.52-1.35l7.18-28.5L24,32.5,16.89,60.55a.73.73,0,0,1-.69.57ZM13,51.56a.77.77,0,0,1,.35.08,1.39,1.39,0,0,1,.7.89L16,59.84a.77.77,0,0,0,.07.16L22.9,32.84l-7.71-6.71-6.8,27c0,.08.09.31.2.39l4.15-1.92A.73.73,0,0,1,13,51.56Z"/>
                </g>
                <g>
                  <path class="cls-2" d="M32.83,67.46,26,31.68,17.5,29.19,24.32,65c.11.58.73,1,.89.57l1.94-5.08c.11-.27.47-.17.7.2l4.21,6.88C32.4,68.11,32.94,68.05,32.83,67.46Z"/>
                  <path class="cls-3" d="M34.56,67.31,30.39,45.43l-7.88.84L26,64.82c.11.59.74,1,.9.58l1.94-5.08c.1-.27.46-.17.69.2l4.22,6.88C34.13,68,34.67,67.9,34.56,67.31Z"/>
                  <path class="cls-1" d="M32.58,68.41a1.16,1.16,0,0,1-.92-.62L27.47,61l-1.82,4.76a.69.69,0,0,1-.73.46,1.34,1.34,0,0,1-1.07-1.12l-7-36.54,9.53,2.79L33.3,67.38a.83.83,0,0,1-.45,1A.86.86,0,0,1,32.58,68.41Zm-5.22-8.56a1.08,1.08,0,0,1,.89.58l4,6.54L25.61,32.05l-7.5-2.19,6.67,35a.55.55,0,0,0,.1.22l1.83-4.81a.68.68,0,0,1,.59-.45Z"/>
                </g>
                <g>
                  <ellipse class="cls-2" cx="19.07" cy="21.03" rx="11.67" ry="20.21" transform="translate(-7.96 12.35) rotate(-30)"/>
                  <path class="cls-1" d="M25.46,40a13.47,13.47,0,0,1-6.62-2C10.83,33.32,4.31,22,4.31,12.78c0-4.59,1.57-8,4.42-9.66s6.61-1.3,10.58,1c8,4.62,14.53,15.91,14.53,25.16,0,4.58-1.57,8-4.42,9.66A7.84,7.84,0,0,1,25.46,40ZM12.69,3a7,7,0,0,0-3.49.89C6.66,5.4,5.25,8.55,5.25,12.78c0,9,6.31,19.87,14.06,24.34,3.66,2.12,7.09,2.48,9.63,1s3.95-4.61,3.95-8.84c0-9-6.3-19.87-14-24.35A12.61,12.61,0,0,0,12.69,3Z"/>
                </g>
                <g>
                  <ellipse class="cls-3" cx="19.76" cy="23.21" rx="9.11" ry="15.78" transform="translate(-8.96 12.99) rotate(-30)"/>
                  <path class="cls-1" d="M24.06,35.92a10.6,10.6,0,0,1-5.22-1.6C12.55,30.7,7.44,21.84,7.44,14.59,7.44,11,8.69,8.26,11,7s5.22-1,8.36.78c6.28,3.63,11.4,12.49,11.4,19.74,0,3.62-1.25,6.33-3.51,7.63A6.13,6.13,0,0,1,24.06,35.92Zm-10-28.83a5.23,5.23,0,0,0-2.67.68c-2,1.13-3,3.55-3,6.82,0,7,4.9,15.44,10.92,18.92,2.83,1.63,5.46,1.91,7.42.78s3-3.55,3-6.82c0-6.95-4.9-15.44-10.92-18.92A9.71,9.71,0,0,0,14.09,7.09Z"/>
                </g>
                <g>
                  <path class="cls-2" d="M17.38,28.59l-4.44-8.78c-.61-1.22-.51-2.42.24-2.7h0c.74-.28,1.84.47,2.45,1.69L18,23.41l5.12-4.32c.6-.51,1.7,0,2.45,1.12h0c.75,1.14.86,2.47.26,3l-7.22,6.08C18.28,29.54,17.7,29.21,17.38,28.59Z"/>
                  <path class="cls-1" d="M17.86,28l-.2,0a1.83,1.83,0,0,1-1.17-1l-4.44-8.78a3.24,3.24,0,0,1-.31-2.54,1.35,1.35,0,0,1,.8-.82c1-.37,2.31.48,3,1.92l2.07,4.08,4.66-3.94a1.39,1.39,0,0,1,1.11-.29,3.2,3.2,0,0,1,2,1.52c.89,1.35,1,2.93.17,3.6L18.42,27.8A.87.87,0,0,1,17.86,28Zm-.53-1.47c.19.37.45.52.53.52h0L25,21c.37-.31.3-1.39-.34-2.36a2.44,2.44,0,0,0-1.39-1.11.43.43,0,0,0-.37.09l-5.58,4.7-2.6-5.14c-.53-1.05-1.43-1.63-1.87-1.47a.45.45,0,0,0-.25.29,2.35,2.35,0,0,0,.27,1.76Z"/>
                </g>
              </g>
              <polygon class="cls-1" points="31.66 20.17 35.08 18.05 36.51 22.18 36.98 28.52 36.51 32.31 32.55 36.73 30.96 37.38 32.26 35.02 33.32 31.14 33.32 26.13 31.66 21.03 31.66 20.17"/>
            </g>
          </g>
        </g>
      </g>
    </g>
  </g>
</svg>
