<svg xmlns="http://www.w3.org/2000/svg" xmlns:xlink="http://www.w3.org/1999/xlink" viewBox="0 0 982.96 500">
  <defs>
    <style>
      .cls-1, .cls-3 {
        fill: none;
      }

      .cls-2 {
        clip-path: url(#clip-path);
      }

      .cls-3 {
        stroke: #fff;
        stroke-miterlimit: 10;
        stroke-width: 0.64px;
      }

      .cls-4 {
        fill: #fff;
      }

      .cls-5 {
        fill: #1677ff;
      }
    </style>
    <clipPath id="clip-path" transform="translate(168.94)">
      <path class="cls-1" d="M0,216.32A121.93,121.93,0,0,0,121.93,338.26a123.42,123.42,0,0,0,21.73-1.93,69.7,69.7,0,0,0,125,6.95,138.77,138.77,0,0,0,89,32.14,140.18,140.18,0,0,0,25.17-2.27A102.19,102.19,0,0,0,559.29,313,70.86,70.86,0,0,0,641,243c0-2-.1-4.05-.27-6a70.83,70.83,0,1,0-76.37-70.6c0,2,.1,4.05.27,6a70.85,70.85,0,0,0-58.79,40.93A102.59,102.59,0,0,0,494.21,208a139.4,139.4,0,0,0-259.37-37.79A122,122,0,0,0,0,216.32"/>
    </clipPath>
  </defs>
  <g id="Layer_2" data-name="Layer 2">
    <g id="OBJECTS">
      <g class="cls-2">
        <g>
          <path class="cls-3" d="M-168.64,486.67s11.29-37.35,24.61-38.08,15.53,25.65,31.93,26.78,25.16-1.39,33.72-34.5,4.75-34.95,21.69-91,18.48-68.35,52.3-74.3,53.84,33.73,71.8,89.86,23.46,88.45,38.83,97.8,16.57-9.08,27.73-21.94,13.45-25.22,29.85-24.09,21.53-13.43,36.52-51,8.64-71.88,28.22-66.85,12.87-8.87,39.42,54.94,27,71.94,49.93,97.19" transform="translate(168.94)"/>
          <path class="cls-3" d="M-168.26,485.31s11.14-37.15,24.34-38.08,15.38,25,31.62,26c15.15.86,23.73-1.38,31.88-28.12.6-2,1.2-4.06,1.8-6.3,8.87-32.72,5.21-34,22.17-89.32s18.59-67.69,52.12-73.62A34.13,34.13,0,0,1,12.73,277C33.26,283.9,48,310.68,61.07,347.17q3.07,8.58,6.05,17.85c17.82,55.55,23.38,87.68,38.78,97s16.66-9,27.81-21.86c10.42-12,13.12-23.63,26.87-24.25.9,0,1.85,0,2.86,0,16.34.89,21.51-13.84,36.45-51.07a165.49,165.49,0,0,0,6.33-19.22c7.55-28.73,6.16-50.94,22.29-46.52,15.35,4.21,14.29-3.19,26.42,23.66,3.38,7.51,7.68,17.13,13.51,31,26.57,63.19,27.05,71.47,49.73,96.61" transform="translate(168.94)"/>
          <path class="cls-3" d="M-167.26,483s11-37,24-38.07,15.24,24.48,31.33,25.27c15,.74,23.52-1.69,31.79-28.1q.91-2.91,1.85-6.22c9.07-32.35,5.68-33.15,22.64-87.69s18.7-67,51.94-72.93a33.66,33.66,0,0,1,16.94,1.11c20.42,6.88,35.14,33.41,48.13,69.54,2.05,5.67,4,11.59,6,17.71,17.69,55,23.3,86.9,38.72,96.11s16.76-8.91,27.9-21.79c10.36-12,13.1-23.56,26.76-24.34.9-.05,1.85-.05,2.85,0,16.28.64,21.39-14.29,36.37-51.16a175.7,175.7,0,0,0,6.46-19.1c7.85-28.35,6.44-50.23,22.56-45.55,15.35,4.49,14.05-2.62,26.56,23.83,3.55,7.51,8,16.59,13.89,30.54,26.57,62.57,27.1,71,49.51,96" transform="translate(168.94)"/>
          <path class="cls-3" d="M-165.68,479.65s10.84-36.76,23.78-38.06,15.09,23.9,31,24.51c14.9.58,23.33-2,31.72-28.07.62-1.93,1.25-4,1.89-6.15,9.33-32,6.15-32.25,23.12-86.06s18.8-66.38,51.75-72.24a33.32,33.32,0,0,1,16.82,1.1c20.32,6.89,35,33.18,47.92,68.94,2,5.62,4,11.49,6,17.57,17.55,54.4,23.21,86.12,38.67,95.26s16.85-8.83,28-21.71c10.3-11.91,13.09-23.5,26.66-24.44.89-.06,1.83-.06,2.82,0,16.24.39,21.33-14.72,36.3-51.26a189.22,189.22,0,0,0,6.6-19c8.08-28,6.71-49.54,22.82-44.58,15.36,4.76,13.83-2.06,26.7,24,3.72,7.52,8.24,16.06,14.26,30.09,26.58,62,27.15,70.55,49.31,95.46" transform="translate(168.94)"/>
          <path class="cls-3" d="M-163.53,475.5s10.69-36.56,23.5-38.06,14.94,23.31,30.72,23.76c14.78.42,23.13-2.32,31.63-28.05.63-1.91,1.28-3.93,1.93-6.08,9.6-31.6,6.62-31.35,23.61-84.42s18.91-65.73,51.56-71.56a33,33,0,0,1,16.7,1.09c20.22,6.9,34.85,32.95,47.71,68.34q3.06,8.36,6,17.43c17.53,53.79,23.13,85.34,38.62,94.41,15.31,9,16.94-8.75,28.05-21.63,10.25-11.86,13.08-23.44,26.57-24.54.88-.07,1.82-.05,2.8-.07,16.19-.38,21.26-15.15,36.22-51.35,2.72-6.57,4.95-12.9,6.74-18.84,8.32-27.62,7-48.83,23.08-43.61,15.36,5,13.63-1.49,26.85,24.16,3.88,7.53,8.51,15.52,14.63,29.64,26.57,61.35,27.2,70.09,49.1,94.89" transform="translate(168.94)"/>
          <path class="cls-3" d="M-160.84,470.56s10.52-36.37,23.22-38.05,14.8,22.72,30.42,23c14.65.26,22.93-2.64,31.54-28,.64-1.89,1.31-3.89,2-6,9.86-31.22,7.09-30.45,24.08-82.79,16.82-52.36,19-65.07,51.39-70.87a32.58,32.58,0,0,1,16.57,1.09c20.11,6.91,34.71,32.71,47.5,67.74q3,8.26,6,17.28c17.43,53.21,23.07,84.53,38.58,93.57,15.31,8.92,17-8.67,28.13-21.56,10.19-11.81,13.06-23.38,26.46-24.64.88-.08,1.81-.05,2.79-.1,16.12-.75,21.19-15.58,36.14-51.44,2.73-6.56,5-12.84,6.87-18.71,8.56-27.26,7.26-48.13,23.35-42.64,15.37,5.3,13.44-.93,27,24.32,4.05,7.54,8.79,15,15,29.19,26.57,60.75,27.25,69.64,48.89,94.32" transform="translate(168.94)"/>
          <path class="cls-3" d="M-157.64,464.91s10.36-36.17,22.94-38.05c12.39-1.84,14.65,22.46,30.12,22.24,14.52-.2,22.73-3,31.46-28,.65-1.87,1.33-3.84,2-5.93C-61,384.31-63.55,385.6-46.54,334c16.8-51.64,19.13-64.43,51.2-70.19a32.16,32.16,0,0,1,16.46,1.08c20,6.92,34.56,32.47,47.28,67.14,2,5.46,4,11.19,6,17.14,17.32,52.63,23,83.75,38.52,92.72,15.3,8.84,17.14-8.58,28.22-21.48,10.13-11.76,13-23.32,26.36-24.74.88-.09,1.8-.06,2.76-.13,16.07-1.13,21.13-16,36.07-51.53,2.75-6.55,5.11-12.79,7-18.59,8.8-26.89,7.54-47.46,23.62-41.67,15.37,5.55,13.25-.36,27.13,24.49,4.21,7.55,9.06,14.46,15.37,28.75,26.55,60.13,27.29,69.17,48.68,93.74" transform="translate(168.94)"/>
          <path class="cls-3" d="M-154,458.61s10.2-36,22.66-38c12.23-2,14.52,21.92,29.82,21.48,14.4-.41,22.54-3.28,31.38-28,.66-1.85,1.36-3.8,2.06-5.86,10.38-30.47,8.14-28.62,25-79.52s19.23-63.77,51-69.5a31.78,31.78,0,0,1,16.33,1.07c19.9,6.93,34.42,32.24,47.08,66.54,2,5.41,4,11.09,6,17,17.21,52.05,22.91,83,38.47,91.87,15.28,8.76,17.22-8.5,28.29-21.41,10.08-11.7,13-23.25,26.26-24.83.87-.1,1.78-.13,2.75-.17,16-.6,21.06-16.43,36-51.62,2.77-6.54,5.19-12.72,7.14-18.46,9-26.51,7.82-46.76,23.88-40.69,15.39,5.81,13.1.2,27.28,24.65,4.39,7.57,9.33,13.92,15.74,28.3,26.53,59.53,27.34,68.71,48.47,93.16" transform="translate(168.94)"/>
          <path class="cls-3" d="M-149.82,451.75s10-35.77,22.38-38c12.07-2.2,14.37,21,29.53,20.73,14.27-.23,22.33-3.59,31.29-28,.67-1.83,1.38-3.76,2.1-5.79C-53.87,370.59-55.9,373-39,322.8S-19.66,259.69,11.83,254a31.47,31.47,0,0,1,16.22,1.07c19.79,6.93,34.2,32,46.86,65.94,2,5.36,4,11,6,16.85,17.1,51.47,22.83,82.18,38.42,91,15.27,8.67,17.32-8.42,28.37-21.34,10-11.65,13-23.18,26.16-24.93.87-.11,1.77-.14,2.73-.19,16-.86,21-16.86,35.91-51.72,2.79-6.53,5.28-12.67,7.28-18.33,9.27-26.15,8.09-46.06,24.15-39.72,15.39,6.07,12.94.76,27.42,24.81,4.56,7.59,9.6,13.39,16.11,27.85,26.5,58.93,27.39,68.25,48.26,92.59" transform="translate(168.94)"/>
          <path class="cls-3" d="M-145.24,444.4s9.87-35.57,22.1-38c11.9-2.38,14.22,20.38,29.22,20,14.16-.38,22.14-3.91,31.21-27.95.68-1.81,1.41-3.71,2.15-5.71,10.91-29.73,9.1-26.81,26-76.26S-15.12,254,16.08,248.29a31.08,31.08,0,0,1,16.09,1.07c19.69,6.94,34.05,31.79,46.66,65.34,2,5.31,4,10.89,6,16.71,17,50.88,22.74,81.39,38.36,90.18,15.26,8.58,17.41-8.34,28.45-21.26,10-11.6,13-23.15,26.07-25,.85-.12,1.76-.16,2.7-.23,16-1.11,20.95-17.28,35.84-51.8,2.81-6.52,5.35-12.61,7.42-18.21,9.49-25.78,8.36-45.36,24.41-38.75,15.39,6.34,12.8,1.32,27.56,25,4.74,7.61,9.88,12.85,16.48,27.4,26.47,58.33,27.44,67.79,48.06,92" transform="translate(168.94)"/>
          <path class="cls-3" d="M-140.26,436.62s9.7-35.37,21.82-38c11.74-2.56,14.08,19.79,28.92,19.21,14-.54,22-4.23,31.12-27.93.7-1.79,1.45-3.66,2.2-5.64,11.17-29.35,9.59-25.91,26.48-74.62s19.55-61.8,50.46-67.44a30.53,30.53,0,0,1,16,1.06c19.6,6.9,33.89,31.56,46.44,64.74,2,5.25,4,10.78,5.95,16.57,16.88,50.3,22.67,80.6,38.31,89.33,15.25,8.5,17.51-8.26,28.53-21.19,9.91-11.54,13-23.09,26-25.12.85-.13,1.74-.18,2.68-.26,15.95-1.37,20.89-17.72,35.76-51.9,2.84-6.51,5.44-12.55,7.56-18.08,9.73-25.41,8.64-44.67,24.67-37.78,15.4,6.61,12.68,1.88,27.71,25.15,4.92,7.62,10.15,12.31,16.85,26.95C323.58,369.38,324.63,379,345,403.09" transform="translate(168.94)"/>
          <path class="cls-3" d="M-134.9,428.49s9.54-35.16,21.54-38c11.58-2.74,13.94,19.2,28.62,18.45,13.92-.7,21.76-4.55,31-27.9.71-1.78,1.47-3.62,2.24-5.57,11.44-29,10.08-25,27-73s19.66-61.15,50.28-66.76a30.16,30.16,0,0,1,15.84,1.06c19.5,6.91,33.74,31.33,46.24,64.14,2,5.2,4,10.69,5.93,16.42,16.78,49.72,22.59,79.82,38.27,88.48,15.23,8.42,17.59-8.17,28.6-21.1,9.86-11.5,13-23,25.87-25.22.84-.15,1.73-.2,2.66-.3,15.91-1.62,20.84-18.14,35.69-52,2.85-6.5,5.52-12.5,7.69-18,10-25,8.92-44,24.94-36.81,15.4,6.88,12.57,2.44,27.84,25.32,5.11,7.64,10.43,11.78,17.23,26.5,26.39,57.13,27.54,66.86,47.64,90.86" transform="translate(168.94)"/>
          <path class="cls-3" d="M-129.18,420.09s9.36-35,21.26-38c11.41-2.92,13.8,18.6,28.32,17.69,13.79-.87,21.57-4.87,30.95-27.89.72-1.75,1.5-3.57,2.29-5.49,11.71-28.62,10.55-24.1,27.43-71.35S.84,234.55,31.17,229A29.82,29.82,0,0,1,46.89,230c19.4,6.91,33.59,31.1,46,63.54,2,5.15,4,10.59,5.93,16.29,16.67,49.13,22.51,79,38.21,87.63,15.22,8.33,17.69-8.09,28.69-21,9.8-11.45,12.95-23,25.76-25.32.84-.15,1.73-.22,2.65-.33,15.88-1.88,20.78-18.56,35.61-52.07,2.87-6.5,5.6-12.44,7.82-17.84,10.19-24.66,9.2-43.26,25.21-35.83,15.41,7.15,12.47,3,28,25.48,5.29,7.66,10.69,11.24,17.59,26,26.35,56.54,27.59,66.4,47.44,90.29" transform="translate(168.94)"/>
          <path class="cls-3" d="M-123.14,411.48s9.19-34.75,21-38c11.25-3.09,13.67,18,28,16.93,13.67-1,21.38-5.19,30.87-27.86.72-1.74,1.52-3.53,2.32-5.43,12-28.24,11-23.19,27.92-69.71S6.85,227.57,36.89,222a29.38,29.38,0,0,1,15.6,1C71.78,230,85.93,253.93,98.3,286c2,5.1,4,10.49,5.92,16.14,16.55,48.55,22.42,78.25,38.16,86.79,15.21,8.25,17.78-8,28.76-21,9.74-11.39,12.94-22.91,25.67-25.41.83-.17,1.71-.24,2.62-.36,15.85-2.14,20.73-19,35.54-52.17,2.89-6.48,5.67-12.37,8-17.7,10.41-24.29,9.47-42.57,25.47-34.87,15.41,7.42,12.38,3.54,28.13,25.64,5.48,7.7,11,10.71,18,25.61,26.29,55.94,27.63,65.94,47.22,89.71" transform="translate(168.94)"/>
          <path class="cls-3" d="M-116.79,402.75s9-34.55,20.7-38c11.07-3.26,13.52,17.42,27.72,16.17,13.56-1.19,21.2-5.51,30.79-27.84.74-1.72,1.55-3.49,2.37-5.35C-23,319.86-23.69,325.45-6.82,279.66s20-59.19,49.73-64.71a29,29,0,0,1,15.48,1c19.19,6.92,33.28,30.63,45.6,62.34,2,5.05,4,10.39,5.9,16,16.45,48,22.35,77.46,38.11,85.94,15.2,8.16,17.85-7.95,28.85-20.88,9.66-11.37,12.92-22.85,25.56-25.52.83-.17,1.7-.25,2.61-.39,15.82-2.4,20.67-19.41,35.46-52.25,2.91-6.48,5.75-12.32,8.09-17.58,10.64-23.92,9.75-41.87,25.74-33.9,15.42,7.69,12.31,4.08,28.27,25.81,5.68,7.72,11.24,10.18,18.34,25.16,26.24,55.35,27.68,65.48,47,89.14" transform="translate(168.94)"/>
          <path class="cls-3" d="M-110.17,394s8.84-34.34,20.42-38c10.91-3.42,13.39,16.83,27.43,15.42,13.44-1.36,21-5.83,30.7-27.82.75-1.7,1.58-3.45,2.41-5.28,12.52-27.51,12-21.38,28.88-66.45s20.09-58.54,49.54-64a28.6,28.6,0,0,1,15.36,1c19.08,6.92,33.13,30.39,45.39,61.73,2,5,4,10.29,5.89,15.86,16.33,47.38,22.27,76.68,38.06,85.09,15.18,8.08,17.94-7.87,28.92-20.81,9.6-11.31,12.91-22.79,25.46-25.61.83-.18,1.69-.27,2.59-.42,15.8-2.66,20.62-19.84,35.38-52.35,2.94-6.46,5.84-12.25,8.24-17.45,10.86-23.54,10-41.17,26-32.92,15.42,8,12.24,4.62,28.42,26,5.86,7.74,11.5,9.64,18.7,24.71,26.18,54.76,27.74,65,46.81,88.56" transform="translate(168.94)"/>
          <path class="cls-3" d="M-103.29,385.18s8.66-34.14,20.14-38c10.73-3.59,13.24,16.24,27.12,14.66,13.32-1.52,20.83-6.15,30.62-27.8.76-1.68,1.6-3.4,2.46-5.21C-10.16,301.71-10.46,308.38,6.4,264s20.2-57.89,49.36-63.34a28.23,28.23,0,0,1,15.23,1c19,6.92,33,30.16,45.18,61.13,2,4.95,4,10.19,5.88,15.71,16.22,46.81,22.19,75.9,38,84.24,15.17,8,18-7.78,29-20.72,9.55-11.26,12.89-22.73,25.37-25.71.81-.19,1.68-.29,2.56-.46,15.78-2.92,20.57-20.26,35.31-52.44,2.95-6.45,5.91-12.19,8.37-17.32C271.75,223,271,205.7,286.94,214.22c15.42,8.22,12.18,5.16,28.56,26.14,6.06,7.76,11.77,9.1,19.07,24.26,26.12,54.16,27.79,64.55,46.61,88" transform="translate(168.94)"/>
          <path class="cls-3" d="M-96.2,376.49s8.49-33.92,19.87-38c10.56-3.76,13.1,15.64,26.82,13.9,13.2-1.68,20.65-6.48,30.53-27.78.78-1.66,1.64-3.36,2.5-5.13,13.07-26.78,13-19.58,29.84-63.18s20.3-57.23,49.17-62.65a27.89,27.89,0,0,1,15.11,1c18.89,6.93,32.83,29.93,45,60.54,1.94,4.89,4,10.09,5.87,15.57,16.11,46.22,22.11,75.11,38,83.39,15.15,7.92,18.12-7.7,29.08-20.65,9.49-11.21,12.87-22.67,25.26-25.81.81-.2,1.67-.31,2.55-.48,15.75-3.2,20.52-20.69,35.23-52.53,3-6.45,6-12.14,8.51-17.21,11.3-22.78,10.57-39.76,26.53-31,15.43,8.49,12.14,5.69,28.7,26.3,6.26,7.79,12,8.57,19.45,23.81,26,53.58,27.83,64.09,46.39,87.42" transform="translate(168.94)"/>
          <path class="cls-3" d="M-88.9,368s8.3-33.71,19.58-38c10.39-3.92,13,15.05,26.53,13.14,13.08-1.85,20.47-6.8,30.45-27.76.78-1.65,1.66-3.31,2.54-5.06C3.54,283.9,3.66,291.65,20.51,248.78s20.41-56.58,49-62a27.47,27.47,0,0,1,15,1c18.78,6.93,32.68,29.7,44.76,59.94,1.93,4.84,3.95,10,5.86,15.42,16,45.64,22,74.33,37.9,82.55,15.15,7.83,18.22-7.63,29.16-20.58,9.43-11.16,12.86-22.61,25.17-25.9.8-.22,1.66-.33,2.53-.52,15.72-3.47,20.47-21.12,35.15-52.62,3-6.43,6.07-12.08,8.64-17.08,11.52-22.41,10.85-39.06,26.8-30,15.44,8.76,12.11,6.22,28.84,26.46,6.46,7.82,12.31,8,19.82,23.37,26,53,27.88,63.63,46.19,86.84" transform="translate(168.94)"/>
          <path class="cls-3" d="M-81.43,359.66s8.12-33.49,19.3-38c10.22-4.08,12.84,14.46,26.22,12.38,13-2,20.3-7.12,30.37-27.73.8-1.63,1.69-3.27,2.59-5C10.67,275.31,11,283.61,27.84,241.46s20.52-55.93,48.8-61.28a27,27,0,0,1,14.87,1c18.68,6.94,32.53,29.46,44.55,59.34,1.93,4.79,3.95,9.89,5.85,15.28,15.88,45.06,21.94,73.54,37.85,81.7C194.89,345.26,198.07,330,209,317c9.37-11.11,12.84-22.55,25.07-26,.79-.23,1.64-.35,2.5-.56,15.71-3.73,20.43-21.53,35.08-52.71,3-6.42,6.15-12,8.78-17,11.74-22,11.12-38.36,27.06-29,15.44,9,12.08,6.75,29,26.63,6.66,7.84,12.57,7.5,20.19,22.92,25.89,52.41,27.93,63.17,46,86.26" transform="translate(168.94)"/>
          <path class="cls-3" d="M-73.82,351.67s7.94-33.27,19-37.94c10-4.24,12.7,13.86,25.93,11.62,12.86-2.17,20.12-7.44,30.28-27.71.81-1.61,1.72-3.23,2.63-4.92,13.9-25.69,14.43-16.85,31.27-58.27s20.63-55.28,48.62-60.6a26.81,26.81,0,0,1,14.75,1c18.57,6.94,32.37,29.23,44.34,58.74,1.92,4.73,3.94,9.78,5.83,15.14,15.77,44.47,21.87,72.76,37.8,80.84,15.12,7.68,18.4-7.46,29.32-20.42,9.32-11.06,12.83-22.48,25-26.1.79-.23,1.63-.36,2.49-.58,15.69-4,20.38-22,35-52.8,3-6.42,6.23-12,8.91-16.83,12-21.65,11.4-37.66,27.33-28.06,15.45,9.3,12.07,7.27,29.13,26.8,6.87,7.86,12.84,7,20.56,22.47,25.81,51.82,28,62.7,45.77,85.69" transform="translate(168.94)"/>
          <path class="cls-3" d="M-66.09,344.06s7.76-33.05,18.75-37.93c9.87-4.39,12.56,13.26,25.62,10.86,12.75-2.34,20-7.77,30.2-27.69.82-1.59,1.74-3.19,2.67-4.85,14.18-25.32,14.91-15.94,31.75-56.64,16.78-40.53,20.75-54.56,48.44-59.91a26.48,26.48,0,0,1,14.63,1c18.47,6.94,32.22,29,44.12,58.13,1.92,4.69,3.94,9.69,5.83,15,15.65,43.89,21.78,72,37.75,80,15.1,7.59,18.49-7.38,29.4-20.35,9.25-11,12.81-22.42,24.86-26.19.79-.25,1.62-.39,2.47-.62,15.67-4.28,20.34-22.38,34.92-52.89,3.06-6.4,6.31-11.9,9.06-16.7C306.54,184,306,168.33,322,178.2c15.45,9.57,12,7.78,29.27,27,7.08,7.88,13.11,6.43,20.93,22,25.72,51.24,28,62.25,45.56,85.12" transform="translate(168.94)"/>
          <path class="cls-3" d="M-58.26,336.91s7.57-32.83,18.47-37.93c9.69-4.54,12.42,12.66,25.32,10.1C-1.84,306.57,5.3,301,15.64,281.41c.83-1.57,1.78-3.14,2.72-4.77,14.46-25,15.39-15,32.23-55,16.77-39.8,20.85-53.91,48.25-59.23a26.05,26.05,0,0,1,14.51,1c18.36,7,32.07,28.76,43.91,57.53,1.91,4.64,3.93,9.59,5.82,14.85,15.53,43.32,21.69,71.2,37.69,79.16,15.09,7.51,18.59-7.3,29.48-20.27,9.2-11,12.8-22.36,24.77-26.29.78-.26,1.61-.41,2.44-.65,15.66-4.56,20.3-22.81,34.85-53,3.09-6.39,6.39-11.83,9.19-16.57,12.38-20.89,11.95-36.26,27.86-26.12,15.45,9.85,12.06,8.29,29.41,27.13,7.29,7.9,13.38,5.89,21.31,21.57,25.63,50.66,28.07,61.78,45.35,84.54" transform="translate(168.94)"/>
          <path class="cls-3" d="M-50.36,330.28s7.38-32.61,18.18-37.93c9.52-4.69,12.29,12.07,25,9.35,12.51-2.67,19.6-8.41,30-27.65.85-1.55,1.81-3.1,2.77-4.7,14.74-24.6,15.87-14.13,32.71-53.37,16.75-39.06,20.95-53.25,48.06-58.54a25.78,25.78,0,0,1,14.38,1c18.27,7,31.92,28.53,43.71,56.94,1.9,4.58,3.92,9.49,5.8,14.71,15.42,42.73,21.62,70.41,37.65,78.3,15.07,7.43,18.67-7.21,29.56-20.19,9.14-10.91,12.77-22.3,24.66-26.39.77-.27,1.6-.43,2.43-.68,15.64-4.84,20.26-23.23,34.77-53.08a186.85,186.85,0,0,1,9.33-16.44c12.58-20.52,12.22-35.56,28.12-25.15,15.46,10.12,12.06,8.8,29.56,27.29,7.5,7.93,13.63,5.36,21.67,21.13,25.54,50.08,28.12,61.32,45.14,84" transform="translate(168.94)"/>
          <path class="cls-3" d="M-42.43,324.25s7.2-32.38,17.91-37.92c9.34-4.84,12.16,11.47,24.72,8.59,12.41-2.85,19.44-8.74,30-27.63.85-1.54,1.83-3.05,2.8-4.63,15-24.24,16.36-13.22,33.19-51.73,16.75-38.32,21.07-52.6,47.88-57.86a25.36,25.36,0,0,1,14.26,1c18.17,7,31.77,28.3,43.5,56.33,1.89,4.53,3.91,9.39,5.79,14.57,15.31,42.15,21.54,69.63,37.6,77.46,15.06,7.34,18.76-7.14,29.63-20.12,9.09-10.86,12.76-22.24,24.57-26.49.76-.28,1.59-.44,2.41-.71C287.4,250,292,231.45,306.47,201.93a168.64,168.64,0,0,1,9.46-16.32c12.79-20.13,12.5-34.85,28.39-24.17,15.46,10.38,12.08,9.3,29.7,27.45,7.72,8,13.9,4.83,22.05,20.68C421.5,259.08,424.24,270.43,441,293" transform="translate(168.94)"/>
          <path class="cls-3" d="M-34.48,318.89s7-32.15,17.63-37.91c9.17-5,12,10.87,24.42,7.83s19.28-9.07,29.86-27.61c.87-1.52,1.86-3,2.85-4.55C55.6,232.76,57.12,244.33,74,206.54c16.74-37.57,21.18-51.93,47.7-57.17a25.14,25.14,0,0,1,14.14,1c18.06,7,31.61,28.07,43.28,55.74,1.89,4.48,3.91,9.29,5.78,14.42,15.19,41.58,21.46,68.85,37.55,76.61,15,7.27,18.86-7.05,29.71-20,9-10.81,12.75-22.18,24.47-26.58.76-.29,1.57-.47,2.39-.75,15.6-5.41,20.18-24.07,34.62-53.26a149.9,149.9,0,0,1,9.59-16.19c13-19.76,12.77-34.15,28.66-23.2,15.46,10.65,12.09,9.79,29.84,27.62,7.93,8,14.16,4.29,22.41,20.23,25.34,48.93,28.22,60.39,44.73,82.81" transform="translate(168.94)"/>
          <path class="cls-3" d="M-26.53,314.27s6.81-31.91,17.34-37.9c9-5.12,11.89,10.27,24.13,7.07s19.11-9.39,29.77-27.58c.88-1.51,1.89-3,2.89-4.49C63.22,227.85,64.92,240,81.75,202.91c16.73-36.84,21.28-51.29,47.52-56.49a24.69,24.69,0,0,1,14,1c18,7,31.47,27.84,43.07,55.14,1.89,4.43,3.91,9.19,5.78,14.28,15.06,41,21.37,68.07,37.49,75.76,15,7.18,18.95-7,29.79-20,9-10.75,12.73-22.11,24.37-26.68.75-.29,1.56-.48,2.37-.77,15.58-5.7,20.14-24.49,34.54-53.35a135.43,135.43,0,0,1,9.73-16.07c13.19-19.38,13.05-33.45,28.92-22.23,15.47,10.93,12.13,10.29,30,27.78,8.15,8,14.43,3.76,22.78,19.78,25.23,48.36,28.27,59.94,44.52,82.24" transform="translate(168.94)"/>
          <path class="cls-3" d="M-18.63,310.47s6.63-31.68,17.07-37.9c8.82-5.25,11.75,9.67,23.82,6.32s19-9.71,29.69-27.56c.9-1.49,1.92-2.93,2.94-4.41,15.9-23.17,17.8-10.51,34.63-46.84,16.71-36.09,21.39-50.63,47.33-55.8a24.29,24.29,0,0,1,13.89,1c17.85,7,31.31,27.6,42.86,54.54,1.88,4.37,3.89,9.09,5.76,14.13,14.95,40.42,21.29,67.29,37.44,74.92,15,7.1,19-6.89,29.87-19.89,8.92-10.71,12.72-22,24.27-26.78.75-.31,1.56-.51,2.35-.81,15.57-6,20.11-24.91,34.47-53.44A123.9,123.9,0,0,1,337.63,172c13.38-19,13.31-32.75,29.18-21.26,15.47,11.2,12.16,10.78,30.13,27.95,8.37,8,14.69,3.22,23.16,19.33,25.11,47.79,28.31,59.48,44.31,81.67" transform="translate(168.94)"/>
          <path class="cls-3" d="M-10.79,307.56S-4.34,276.12,6,269.67c8.65-5.39,11.62,9.07,23.52,5.56s18.8-10,29.61-27.54c.91-1.47,1.95-2.88,3-4.34,16.2-22.81,18.28-9.6,35.11-45.2,16.71-35.36,21.49-50,47.14-55.12a24,24,0,0,1,13.77,1c17.75,7,31.17,27.37,42.65,53.93,1.87,4.33,3.89,9,5.76,14,14.83,39.83,21.2,66.5,37.38,74.07,15,7,19.14-6.81,30-19.82,8.85-10.65,12.69-22,24.16-26.88.74-.31,1.55-.52,2.33-.84,15.56-6.28,20.07-25.33,34.39-53.53a113.5,113.5,0,0,1,10-15.81c13.58-18.63,13.59-32.05,29.45-20.29,15.47,11.47,12.19,11.26,30.26,28.11,8.6,8,15,2.7,23.53,18.89,25,47.21,28.37,59,44.11,81.09" transform="translate(168.94)"/>
          <path class="cls-3" d="M-3,305.62s6.26-31.2,16.51-37.89c8.47-5.53,11.49,8.46,23.23,4.8S55.34,262.17,66.22,245c.92-1.45,2-2.84,3-4.26,16.5-22.45,18.77-8.69,35.59-43.57,16.7-34.62,21.6-49.32,47-54.43a23.56,23.56,0,0,1,13.65,1c17.65,7,31,27.13,42.44,53.33,1.86,4.28,3.88,8.89,5.74,13.85,14.71,39.26,21.12,65.72,37.33,73.23,15,6.93,19.23-6.73,30-19.75,8.8-10.6,12.68-21.92,24.06-27,.74-.33,1.54-.55,2.31-.87,15.54-6.58,20-25.75,34.32-53.63a104.63,104.63,0,0,1,10.14-15.68c13.77-18.25,13.86-31.34,29.72-19.32,15.47,11.74,12.23,11.74,30.4,28.28,8.83,8,15.22,2.16,23.9,18.43,24.89,46.65,28.42,58.56,43.9,80.52" transform="translate(168.94)"/>
          <path class="cls-3" d="M4.6,304.71s6.07-31,16.23-37.88c8.3-5.66,11.36,7.86,22.92,4,11.74-3.87,18.5-10.68,29.44-27.5.94-1.44,2-2.79,3.07-4.19,16.79-22.09,19.24-7.78,36.06-41.93C129,163.37,134,148.58,159.1,143.5a23.25,23.25,0,0,1,13.53.95c17.54,7,30.86,26.9,42.23,52.74,1.86,4.22,3.87,8.79,5.73,13.71,14.59,38.67,21,64.93,37.28,72.37,15,6.86,19.32-6.65,30.11-19.67,8.74-10.55,12.67-21.86,24-27.07.73-.33,1.52-.56,2.29-.9,15.52-6.88,20-26.17,34.24-53.72a98.71,98.71,0,0,1,10.27-15.56c14-17.87,14.15-30.63,30-18.34,15.48,12,12.28,12.22,30.55,28.44,9,8,15.48,1.63,24.27,18,24.77,46.08,28.46,58.09,43.69,79.94" transform="translate(168.94)"/>
          <path class="cls-3" d="M12.1,305.24S18,274.53,28,267.37c8.14-5.79,11.23,7.25,22.63,3.28,11.63-4,18.34-11,29.36-27.48.94-1.41,2-2.75,3.11-4.12,17.09-21.72,19.72-6.87,36.54-40.29,16.68-33.14,21.82-48,46.59-53.06a22.93,22.93,0,0,1,13.41.94c17.44,7,30.71,26.67,42,52.14,1.85,4.17,3.86,8.69,5.72,13.56,14.46,38.1,21,64.16,37.23,71.53,15,6.77,19.41-6.57,30.19-19.59,8.68-10.5,12.65-21.8,23.86-27.17.73-.35,1.52-.59,2.27-.94,15.51-7.18,20-26.58,34.17-53.8a90.81,90.81,0,0,1,10.41-15.43C379.71,149.44,380,137,395.8,149.56c15.48,12.29,12.34,12.69,30.69,28.61,9.28,8.05,15.74,1.09,24.64,17.54,24.65,45.51,28.51,57.63,43.48,79.36" transform="translate(168.94)"/>
          <path class="cls-3" d="M19.43,307.06s5.7-30.45,15.66-37.86c8-5.91,11.1,6.64,22.33,2.53,11.52-4.23,18.2-11.33,29.27-27.46,1-1.4,2.06-2.71,3.15-4.05,17.4-21.37,20.21-6,37-38.66,16.66-32.39,21.93-47.35,46.41-52.38a22.5,22.5,0,0,1,13.28.95c17.34,7,30.57,26.43,41.81,51.53,1.84,4.12,3.86,8.59,5.71,13.42,14.34,37.51,20.87,63.38,37.18,70.68,14.94,6.7,19.5-6.48,30.27-19.52,8.62-10.44,12.63-21.73,23.76-27.26.72-.36,1.5-.61,2.25-1,15.49-7.48,19.95-27,34.09-53.9a85.62,85.62,0,0,1,10.55-15.3c14.34-17.12,14.69-29.23,30.51-16.4,15.49,12.55,12.4,13.15,30.84,28.77,9.51,8,16,.56,25,17.09,24.52,44.95,28.56,57.17,43.27,78.79" transform="translate(168.94)"/>
          <path class="cls-3" d="M27.72,310.5s5.52-30.21,15.39-37.86c7.79-6,11,6,22,1.77,11.41-4.41,18-11.65,29.19-27.44,1-1.38,2.09-2.66,3.19-4,17.7-21,20.68-5.06,37.51-37,16.65-31.65,22-46.7,46.22-51.69a22.26,22.26,0,0,1,13.16.93c17.24,7,30.42,26.21,41.6,50.94,1.84,4.07,3.85,8.49,5.7,13.28,14.22,36.93,20.79,62.59,37.12,69.83,14.93,6.61,19.6-6.4,30.35-19.44,8.57-10.4,12.62-21.68,23.67-27.36.71-.37,1.49-.63,2.23-1,15.47-7.79,19.92-27.42,34-54a79.65,79.65,0,0,1,10.69-15.18c14.52-16.75,15-28.53,30.78-15.43,15.49,12.82,12.45,13.61,31,28.93,9.75,8.06,16.26,0,25.39,16.65,24.39,44.38,28.6,56.7,43.06,78.21" transform="translate(168.94)"/>
          <path class="cls-3" d="M36.12,314.7s5.33-30,15.11-37.85c7.62-6.16,10.83,5.42,21.72,1,11.3-4.58,17.92-12,29.11-27.41,1-1.37,2.12-2.62,3.24-3.9,18-20.65,21.16-4.14,38-35.4,16.64-30.9,22.14-46,46-51a21.88,21.88,0,0,1,13,.93c17.13,7,30.27,26,41.39,50.33,1.83,4,3.84,8.39,5.68,13.14,14.1,36.35,20.71,61.81,37.08,69,14.91,6.54,19.69-6.32,30.43-19.36,8.51-10.35,12.6-21.61,23.56-27.46.71-.38,1.48-.65,2.21-1,15.46-8.1,19.9-27.83,33.94-54.07a75.8,75.8,0,0,1,10.82-15.06c14.71-16.37,15.24-27.82,31-14.46,15.49,13.1,12.52,14.07,31.12,29.1,10,8.07,16.51-.5,25.75,16.2,24.26,43.83,28.66,56.24,42.85,77.64" transform="translate(168.94)"/>
          <path class="cls-3" d="M44.16,319.36s5.15-29.7,14.82-37.84c7.46-6.28,10.7,4.81,21.43.24,11.19-4.76,17.78-12.28,29-27.39,1-1.35,2.15-2.58,3.28-3.83,18.32-20.28,21.64-3.23,38.47-33.76,16.62-30.16,22.25-45.38,45.85-50.32a21.57,21.57,0,0,1,12.92.93c17,7,30.12,25.73,41.17,49.73,1.83,4,3.84,8.29,5.68,13,14,35.78,20.63,61,37,68.14,14.89,6.45,19.78-6.24,30.5-19.29,8.46-10.29,12.59-21.55,23.47-27.56.7-.38,1.46-.67,2.19-1.06,15.43-8.42,19.87-28.25,33.86-54.17a71.49,71.49,0,0,1,11-14.93c14.88-16,15.51-27.12,31.31-13.49,15.49,13.38,12.58,14.53,31.26,29.27,10.22,8.07,16.77-1,26.12,15.75,24.13,43.26,28.71,55.78,42.65,77.06" transform="translate(168.94)"/>
          <path class="cls-3" d="M51.86,324.41s5-29.43,14.55-37.83c7.29-6.39,10.56,4.2,21.12-.51,11.08-4.94,17.64-12.61,28.94-27.37a49.42,49.42,0,0,1,3.33-3.76c18.63-19.92,22.11-2.32,38.94-32.12,16.61-29.43,22.36-44.74,45.67-49.64a21.15,21.15,0,0,1,12.79.92c16.93,7,30,25.5,41,49.13,1.82,3.92,3.83,8.19,5.66,12.85,13.85,35.2,20.55,60.25,37,67.29,14.88,6.38,19.87-6.15,30.58-19.21,8.4-10.24,12.57-21.49,23.37-27.66.69-.39,1.45-.69,2.17-1.1,15.41-8.72,19.85-28.66,33.79-54.25a67.79,67.79,0,0,1,11.09-14.81c15.06-15.62,15.78-26.41,31.57-12.51,15.5,13.64,12.66,15,31.41,29.43,10.46,8.06,17-1.57,26.49,15.3,24,42.71,28.76,55.32,42.44,76.49" transform="translate(168.94)"/>
          <path class="cls-3" d="M59.25,329.8s4.8-29.18,14.27-37.83c7.13-6.5,10.44,3.59,20.83-1.26,11-5.13,17.51-12.93,28.85-27.35a47.09,47.09,0,0,1,3.37-3.69c19-19.55,22.6-1.41,39.42-30.49,16.6-28.68,22.47-44.08,45.49-49a20.92,20.92,0,0,1,12.67.91c16.82,7,29.82,25.27,40.76,48.54,1.81,3.86,3.82,8.09,5.65,12.71C284.28,277,291,301.85,307.48,308.82c14.87,6.3,20-6.07,30.67-19.13,8.34-10.19,12.55-21.42,23.26-27.75.69-.41,1.45-.72,2.16-1.14,15.38-9,19.82-29.08,33.71-54.35a64.51,64.51,0,0,1,11.22-14.67c15.24-15.26,16.06-25.71,31.84-11.54,15.5,13.91,12.74,15.41,31.55,29.59,10.7,8.06,17.28-2.1,26.87,14.85,23.84,42.15,28.8,54.86,42.23,75.92" transform="translate(168.94)"/>
          <path class="cls-3" d="M66.37,335.45s4.61-28.91,14-37.82c7-6.62,10.3,3,20.52-2,10.86-5.31,17.38-13.25,28.77-27.33a44.86,44.86,0,0,1,3.41-3.61c19.26-19.19,23.08-.5,39.9-28.86,16.59-27.94,22.58-43.42,45.31-48.27a20.54,20.54,0,0,1,12.55.91c16.72,7,29.67,25,40.54,47.94,1.81,3.8,3.82,8,5.64,12.56,13.6,34,20.38,58.69,36.88,65.59,14.85,6.22,20.06-6,30.74-19.06,8.29-10.14,12.54-21.36,23.16-27.85.69-.42,1.44-.74,2.14-1.16,15.36-9.37,19.8-29.5,33.63-54.44a61.44,61.44,0,0,1,11.37-14.55c15.4-14.89,16.32-25,32.1-10.57,15.51,14.19,12.81,15.86,31.69,29.75,10.94,8.06,17.53-2.62,27.24,14.41,23.7,41.59,28.85,54.4,42,75.34" transform="translate(168.94)"/>
          <path class="cls-3" d="M73.22,341.31s4.45-28.65,13.71-37.82c6.81-6.73,10.17,2.35,20.23-2.78,10.75-5.49,17.25-13.56,28.68-27.31a44.5,44.5,0,0,1,3.46-3.54c19.58-18.82,23.55.41,40.38-27.22,16.57-27.2,22.68-42.77,45.12-47.58a20.17,20.17,0,0,1,12.43.9c16.61,7,29.52,24.8,40.33,47.33,1.8,3.76,3.81,7.9,5.63,12.43,13.47,33.46,20.3,57.9,36.82,64.74,14.84,6.14,20.15-5.91,30.83-19,8.23-10.08,12.52-21.29,23.06-27.94.68-.43,1.42-.76,2.11-1.2,15.34-9.68,19.78-29.91,33.56-54.53a58.84,58.84,0,0,1,11.5-14.42c15.58-14.52,16.6-24.31,32.37-9.6,15.51,14.46,12.89,16.29,31.83,29.92,11.19,8,17.79-3.15,27.61,14,23.56,41,28.9,53.93,41.82,74.76" transform="translate(168.94)"/>
          <path class="cls-3" d="M79.85,347.29s4.27-28.38,13.43-37.81c6.65-6.84,10,1.74,19.93-3.54,10.64-5.67,17.12-13.87,28.59-27.29a44.05,44.05,0,0,1,3.51-3.46c19.9-18.46,24,1.32,40.86-25.59,16.54-26.45,22.78-42.11,44.93-46.9a19.94,19.94,0,0,1,12.31.9c16.51,7.06,29.38,24.57,40.12,46.74,1.8,3.7,3.8,7.79,5.62,12.27,13.34,32.89,20.21,57.13,36.77,63.9,14.82,6.06,20.24-5.83,30.9-18.91,8.17-10,12.51-21.23,23-28,.68-.44,1.42-.78,2.1-1.23,15.3-10,19.76-30.32,33.48-54.62A55.9,55.9,0,0,1,427,209.41c15.74-14.16,16.87-23.6,32.63-8.63,15.51,14.73,13,16.73,32,30.09,11.43,8,18-3.69,28,13.51,23.4,40.48,28.95,53.47,41.6,74.19" transform="translate(168.94)"/>
          <path class="cls-3" d="M86.27,353.35s4.11-28.11,13.15-37.81c6.49-7,9.9,1.12,19.63-4.3,10.53-5.86,17-14.18,28.51-27.26a40.48,40.48,0,0,1,3.55-3.39c20.22-18.09,24.5,2.23,41.34-24,16.53-25.71,22.89-41.46,44.75-46.21a19.53,19.53,0,0,1,12.18.89c16.41,7.06,29.23,24.34,39.91,46.14,1.79,3.65,3.79,7.69,5.61,12.13,13.21,32.31,20.13,56.35,36.72,63.05,14.8,6,20.34-5.75,31-18.84,8.12-10,12.49-21.16,22.86-28.13.67-.45,1.4-.81,2.08-1.26,15.27-10.34,19.74-30.74,33.4-54.72a53.92,53.92,0,0,1,11.78-14.17c15.9-13.79,17.14-22.9,32.9-7.66,15.51,15,13,17.16,32.12,30.26,11.67,8,18.29-4.22,28.35,13.06,23.25,39.93,29,53,41.39,73.61" transform="translate(168.94)"/>
          <path class="cls-3" d="M92.51,359.4s3.94-27.83,12.87-37.79c6.34-7.06,9.77.49,19.33-5.06,10.42-6.05,16.89-14.5,28.43-27.24a40.11,40.11,0,0,1,3.59-3.33c20.55-17.71,25,3.15,41.82-22.31,16.51-25,23-40.81,44.56-45.53a19.16,19.16,0,0,1,12.06.89c16.31,7.06,29.09,24.1,39.71,45.53,1.78,3.6,3.78,7.59,5.59,12,13.08,31.73,20,55.57,36.67,62.2,14.79,5.9,20.43-5.66,31.06-18.76,8.06-9.93,12.48-21.1,22.76-28.23.67-.46,1.39-.83,2.06-1.3,15.24-10.66,19.73-31.14,33.33-54.8a51.61,51.61,0,0,1,11.91-14c16.07-13.43,17.42-22.19,33.17-6.68,15.51,15.28,13.12,17.59,32.25,30.42,11.93,8,18.55-4.75,28.73,12.61,23.09,39.38,29,52.55,41.18,73" transform="translate(168.94)"/>
          <path class="cls-3" d="M98.6,365.4s3.78-27.57,12.59-37.79c6.18-7.17,9.63-.13,19-5.82,10.3-6.24,16.77-14.81,28.34-27.22a38,38,0,0,1,3.63-3.25c20.88-17.34,25.45,4.06,42.3-20.68,16.5-24.22,23.11-40.16,44.39-44.85a18.84,18.84,0,0,1,11.93.89c16.21,7.07,28.94,23.86,39.5,44.93,1.78,3.55,3.77,7.49,5.58,11.85,12.95,31.15,20,54.79,36.62,61.35,14.77,5.82,20.52-5.58,31.14-18.68,8-9.88,12.46-21,22.66-28.34.65-.47,1.38-.84,2-1.32,15.2-11,19.71-31.56,33.25-54.9a49.75,49.75,0,0,1,12-13.92c16.24-13.07,17.7-21.48,33.44-5.71,15.51,15.55,13.21,18,32.4,30.58,12.17,8,18.79-5.27,29.09,12.17,22.94,38.83,29.09,52.09,41,72.46" transform="translate(168.94)"/>
          <path class="cls-3" d="M104.56,371.26s3.61-27.29,12.31-37.78c6-7.27,9.5-.75,18.73-6.58,10.19-6.43,16.66-15.11,28.26-27.2a37.52,37.52,0,0,1,3.67-3.17c21.21-17,25.92,5,42.78-19,16.48-23.48,23.22-39.5,44.2-44.16a18.58,18.58,0,0,1,11.82.88c16.09,7.08,28.79,23.63,39.28,44.33,1.77,3.5,3.76,7.39,5.57,11.71,12.82,30.57,19.88,54,36.57,60.5,14.75,5.75,20.61-5.5,31.21-18.61,8-9.83,12.45-21,22.57-28.43.65-.48,1.36-.87,2-1.35,15.17-11.33,19.7-32,33.18-55a47.78,47.78,0,0,1,12.18-13.79c16.4-12.72,18-20.79,33.7-4.74,15.52,15.82,13.29,18.42,32.54,30.74,12.43,7.95,19-5.8,29.47,11.72,22.78,38.28,29.14,51.62,40.77,71.89" transform="translate(168.94)"/>
          <path class="cls-3" d="M110.41,376.93s3.46-27,12-37.77c5.87-7.38,9.36-1.37,18.42-7.34,10.08-6.62,16.55-15.42,28.18-27.18a37.26,37.26,0,0,1,3.72-3.1C194.3,285,199.16,307.43,216,284.12c16.45-22.73,23.32-38.84,44-43.47a18.24,18.24,0,0,1,11.69.88c16,7.09,28.65,23.39,39.08,43.73,1.76,3.44,3.75,7.29,5.56,11.56,12.68,30,19.79,53.23,36.51,59.66,14.74,5.66,20.71-5.42,31.3-18.54,7.89-9.77,12.43-20.9,22.46-28.52.65-.49,1.35-.89,2-1.39,15.13-11.67,19.68-32.38,33.1-55.08a46,46,0,0,1,12.32-13.67c16.55-12.36,18.24-20.08,34-3.76,15.52,16.09,13.38,18.84,32.69,30.9,12.68,7.93,19.29-6.32,29.83,11.27,22.62,37.74,29.19,51.17,40.56,71.32" transform="translate(168.94)"/>
          <path class="cls-3" d="M116.19,382.34s3.31-26.73,11.75-37.76c5.73-7.48,9.23-2,18.13-8.1,10-6.82,16.44-15.72,28.09-27.15a34.26,34.26,0,0,1,3.77-3c21.86-16.21,26.86,6.79,43.73-15.79,16.44-22,23.44-38.19,43.83-42.78a17.91,17.91,0,0,1,11.58.86c15.89,7.1,28.5,23.17,38.86,43.13,1.76,3.4,3.75,7.2,5.55,11.42C334,332.56,341.19,355.6,357.94,362c14.72,5.59,20.8-5.33,31.38-18.45,7.83-9.73,12.41-20.85,22.36-28.63.64-.5,1.34-.91,2-1.42,15.09-12,19.67-32.79,33-55.17a44.55,44.55,0,0,1,12.45-13.54c16.71-12,18.52-19.37,34.23-2.79,15.52,16.36,13.47,19.25,32.83,31.07,12.94,7.89,19.54-6.85,30.21,10.82,22.46,37.19,29.24,50.7,40.35,70.74" transform="translate(168.94)"/>
          <path class="cls-3" d="M121.92,387.43s3.15-26.46,11.47-37.76c5.58-7.58,9.09-2.63,17.83-8.85,9.85-7,16.33-16,28-27.14a35,35,0,0,1,3.8-3c22.2-15.81,27.33,7.72,44.22-14.14,16.41-21.25,23.54-37.54,43.65-42.11a17.61,17.61,0,0,1,11.45.87c15.78,7.1,28.35,22.92,38.64,42.53,1.76,3.34,3.75,7.09,5.55,11.27C339,338,346.16,360.82,363,367.11c14.7,5.51,20.89-5.26,31.45-18.39,7.78-9.67,12.4-20.78,22.27-28.72.63-.51,1.32-.93,1.95-1.45,15.05-12.34,19.66-33.2,32.95-55.26a43.14,43.14,0,0,1,12.59-13.42c16.87-11.65,18.78-18.67,34.5-1.82,15.52,16.64,13.55,19.66,33,31.24,13.18,7.86,19.78-7.38,30.57,10.37,22.29,36.65,29.29,50.24,40.15,70.17" transform="translate(168.94)"/>
          <path class="cls-3" d="M127.62,392.12s3-26.17,11.19-37.75c5.44-7.68,8.95-3.25,17.53-9.61,9.73-7.21,16.23-16.33,27.93-27.11a31.71,31.71,0,0,1,3.85-2.89c22.53-15.43,27.79,8.63,44.69-12.51,16.38-20.5,23.65-36.89,43.46-41.42a17.25,17.25,0,0,1,11.33.86c15.68,7.11,28.21,22.69,38.44,41.93,1.75,3.29,3.73,7,5.53,11.13,12.28,28.27,19.54,50.9,36.36,57.12,14.69,5.43,21-5.17,31.53-18.31,7.72-9.62,12.39-20.72,22.16-28.82.63-.52,1.32-1,1.94-1.48,15-12.69,19.65-33.61,32.88-55.36a41.52,41.52,0,0,1,12.72-13.28c17-11.31,19.06-18,34.76-.86,15.52,16.92,13.64,20.07,33.11,31.41,13.45,7.82,20-7.9,31,9.92,22.12,36.11,29.34,49.78,39.94,69.59" transform="translate(168.94)"/>
          <path class="cls-3" d="M133.32,396.36s2.86-25.89,10.91-37.74c5.3-7.79,8.81-3.88,17.23-10.37,9.62-7.41,16.13-16.63,27.84-27.09a32,32,0,0,1,3.9-2.82c22.87-15,28.26,9.54,45.17-10.88,16.36-19.75,23.75-36.23,43.28-40.73a17,17,0,0,1,11.2.85c15.58,7.12,28.07,22.46,38.23,41.33,1.75,3.24,3.73,6.9,5.52,11,12.14,27.7,19.46,50.12,36.31,56.27,14.67,5.36,21.08-5.09,31.61-18.23,7.67-9.57,12.37-20.65,22.06-28.92.62-.53,1.31-1,1.92-1.51,14.95-13,19.64-34,32.8-55.45a40.42,40.42,0,0,1,12.86-13.16c17.18-11,19.33-17.26,35,.12,15.52,17.19,13.72,20.47,33.25,31.57,13.7,7.78,20.27-8.43,31.32,9.47,22,35.57,29.38,49.32,39.73,69" transform="translate(168.94)"/>
          <path class="cls-3" d="M139.05,400.08s2.71-25.61,10.63-37.74c5.15-7.89,8.66-4.51,16.93-11.12,9.49-7.61,16-16.93,27.75-27.08a32.43,32.43,0,0,1,3.94-2.74c23.21-14.65,28.73,10.46,45.65-9.24,16.34-19,23.87-35.58,43.1-40.05a16.64,16.64,0,0,1,11.08.85c15.48,7.12,27.92,22.22,38,40.72,1.74,3.19,3.71,6.8,5.51,10.85,12,27.12,19.37,49.34,36.25,55.42,14.66,5.28,21.18-5,31.7-18.15,7.61-9.52,12.35-20.59,22-29,.61-.54,1.29-1,1.9-1.55,14.9-13.36,19.63-34.42,32.72-55.53a39.07,39.07,0,0,1,13-13c17.33-10.62,19.59-16.56,35.29,1.09,15.52,17.46,13.81,20.87,33.39,31.73,14,7.74,20.51-8.95,31.69,9,21.78,35,29.44,48.85,39.52,68.44" transform="translate(168.94)"/>
          <path class="cls-3" d="M144.82,403.21s2.58-25.33,10.36-37.73c5-8,8.52-5.14,16.62-11.89,9.38-7.8,15.94-17.22,27.68-27a32.17,32.17,0,0,1,4-2.67c23.54-14.25,29.19,11.37,46.13-7.61,16.3-18.26,24-34.92,42.91-39.36a16.43,16.43,0,0,1,11,.84c15.37,7.14,27.78,22,37.81,40.13,1.73,3.14,3.7,6.7,5.5,10.71,11.86,26.54,19.28,48.56,36.2,54.57,14.64,5.2,21.27-4.92,31.77-18.08,7.55-9.47,12.34-20.52,21.86-29.11.61-.55,1.28-1,1.88-1.58,14.85-13.71,19.63-34.83,32.65-55.63a38.19,38.19,0,0,1,13.13-12.91c17.49-10.27,19.87-15.85,35.56,2.06,15.52,17.74,13.9,21.27,33.54,31.9,14.21,7.7,20.75-9.47,32.06,8.58,21.6,34.49,29.48,48.4,39.31,67.87" transform="translate(168.94)"/>
          <path class="cls-3" d="M150.67,405.69s2.45-25.05,10.08-37.73c4.88-8.1,8.38-5.77,16.33-12.64,9.25-8,15.84-17.51,27.59-27a29.85,29.85,0,0,1,4-2.6c23.89-13.85,29.65,12.29,46.61-6C271.58,302.2,279.38,285.45,298,281a16.08,16.08,0,0,1,10.84.84c15.26,7.14,27.63,21.75,37.59,39.52,1.73,3.09,3.7,6.6,5.49,10.57,11.72,26,19.2,47.78,36.15,53.72,14.63,5.13,21.36-4.84,31.85-18,7.5-9.42,12.33-20.46,21.77-29.21.6-.56,1.26-1.05,1.85-1.61,14.79-14.06,19.63-35.24,32.57-55.72a37.09,37.09,0,0,1,13.27-12.78c17.64-9.94,20.15-15.15,35.83,3,15.52,18,14,21.66,33.68,32.06,14.47,7.65,21-10,32.43,8.13,21.43,34,29.53,47.94,39.1,67.3" transform="translate(168.94)"/>
          <path class="cls-3" d="M156.63,407.45s2.31-24.77,9.8-37.72c4.73-8.21,8.23-6.4,16-13.4,9.14-8.21,15.75-17.8,27.51-27A29.2,29.2,0,0,1,214,326.8c24.23-13.46,30.12,13.19,47.1-4.35,16.24-16.78,24.18-33.62,42.54-38a15.77,15.77,0,0,1,10.71.83c15.17,7.15,27.5,21.52,37.39,38.93,1.72,3,3.69,6.5,5.48,10.42,11.57,25.39,19.12,47,36.1,52.87,14.6,5.05,21.45-4.75,31.93-17.92,7.44-9.37,12.31-20.4,21.66-29.31.6-.57,1.25-1.07,1.84-1.65,14.73-14.4,19.62-35.63,32.49-55.8a36.11,36.11,0,0,1,13.41-12.66c17.79-9.6,20.41-14.44,36.08,4,15.53,18.28,14.07,22.05,33.83,32.22,14.74,7.59,21.23-10.51,32.8,7.69,21.25,33.42,29.58,47.47,38.9,66.71" transform="translate(168.94)"/>
          <path class="cls-3" d="M162.71,408.42s2.18-24.48,9.52-37.71c4.6-8.31,8.09-7,15.72-14.16,9-8.41,15.66-18.08,27.43-27a30.08,30.08,0,0,1,4.11-2.45c24.56-13.05,30.57,14.11,47.57-2.71,16.21-16,24.29-33,42.35-37.3a15.46,15.46,0,0,1,10.6.82c15.06,7.16,27.35,21.29,37.17,38.33,1.72,3,3.68,6.4,5.47,10.28,11.43,24.82,19,46.23,36.05,52,14.59,5,21.55-4.68,32-17.86,7.38-9.31,12.3-20.33,21.56-29.4.59-.58,1.24-1.1,1.82-1.68,14.67-14.75,19.62-36,32.42-55.9a35.22,35.22,0,0,1,13.54-12.53c17.94-9.26,20.68-13.74,36.35,5,15.53,18.55,14.16,22.44,34,32.39,15,7.54,21.46-11,33.17,7.24,21.07,32.88,29.63,47,38.69,66.14" transform="translate(168.94)"/>
          <path class="cls-3" d="M169,408.54s2.05-24.19,9.23-37.7c4.47-8.41,7.95-7.66,15.43-14.92,8.88-8.61,15.57-18.36,27.34-27a29.07,29.07,0,0,1,4.15-2.38c24.91-12.64,31,15,48-1.07,16.17-15.3,24.4-32.32,42.17-36.63a15.24,15.24,0,0,1,10.48.82c14.95,7.17,27.2,21.05,37,37.73,1.71,2.93,3.67,6.3,5.46,10.13,11.28,24.25,18.95,45.46,36,51.19,14.58,4.89,21.65-4.6,32.09-17.78,7.33-9.26,12.29-20.26,21.46-29.5.59-.59,1.23-1.12,1.8-1.71,14.61-15.1,19.62-36.44,32.35-56a34.23,34.23,0,0,1,13.67-12.4c18.1-8.94,21-13,36.62,5.94,15.53,18.83,14.24,22.83,34.11,32.56,15.26,7.47,21.7-11.55,33.54,6.79,20.9,32.35,29.68,46.55,38.48,65.57" transform="translate(168.94)"/>
          <path class="cls-3" d="M175.36,407.75s1.93-23.91,9-37.69c4.34-8.52,7.79-8.3,15.12-15.68,8.76-8.81,15.48-18.64,27.26-26.94a28.06,28.06,0,0,1,4.2-2.31c25.24-12.23,31.48,15.93,48.53.56,16.13-14.55,24.5-31.66,42-35.93a14.83,14.83,0,0,1,10.35.81c14.85,7.18,27.07,20.81,36.76,37.13a113.67,113.67,0,0,1,5.44,10c11.14,23.68,18.87,44.68,36,50.33,14.55,4.82,21.73-4.51,32.16-17.7,7.28-9.21,12.27-20.2,21.37-29.6.58-.6,1.21-1.14,1.78-1.74,14.54-15.45,19.61-36.85,32.26-56.08a33.51,33.51,0,0,1,13.82-12.28c18.24-8.6,21.23-12.33,36.88,6.92,15.53,19.1,14.32,23.21,34.25,32.72,15.52,7.41,21.94-12.06,33.91,6.34,20.71,31.82,29.73,46.09,38.28,65" transform="translate(168.94)"/>
          <path class="cls-3" d="M182,406s1.81-23.63,8.68-37.69c4.21-8.62,7.65-8.93,14.82-16.43,8.63-9,15.4-18.92,27.17-26.93a29.79,29.79,0,0,1,4.24-2.23c25.59-11.82,31.94,16.84,49,2.2,16.1-13.81,24.61-31,41.81-35.25a14.61,14.61,0,0,1,10.23.8c14.74,7.2,26.92,20.58,36.54,36.53a112.44,112.44,0,0,1,5.43,9.85c11,23.11,18.78,43.9,35.89,49.49,14.55,4.74,21.84-4.43,32.25-17.63,7.22-9.15,12.26-20.13,21.26-29.7.58-.61,1.21-1.16,1.77-1.77,14.47-15.8,19.61-37.25,32.19-56.17a32.69,32.69,0,0,1,13.94-12.15c18.4-8.28,21.51-11.63,37.15,7.89,15.54,19.37,14.41,23.59,34.4,32.88,15.78,7.35,22.16-12.58,34.28,5.9,20.52,31.29,29.78,45.62,38.07,64.41" transform="translate(168.94)"/>
          <path class="cls-3" d="M188.83,403.17s1.69-23.35,8.4-37.69c4.08-8.72,7.49-9.56,14.52-17.19,8.5-9.22,15.31-19.19,27.09-26.9a28.64,28.64,0,0,1,4.28-2.16c25.93-11.41,32.39,17.75,49.49,3.83,16.06-13.07,24.72-30.36,41.62-34.57a14.34,14.34,0,0,1,10.11.8c14.64,7.2,26.78,20.35,36.33,35.93a105.87,105.87,0,0,1,5.42,9.71c10.85,22.53,18.7,43.12,35.84,48.63,14.53,4.67,21.93-4.34,32.33-17.55,7.16-9.1,12.24-20.06,21.16-29.79.57-.62,1.19-1.18,1.74-1.81,14.4-16.14,19.62-37.64,32.12-56.26a32,32,0,0,1,14.08-12c18.55-8,21.77-10.92,37.42,8.86s14.48,24,34.53,33.05c16.05,7.27,22.4-13.1,34.66,5.44,20.33,30.77,29.82,45.17,37.85,63.85" transform="translate(168.94)"/>
          <path class="cls-3" d="M196.83,398.93s1.58-23.07,8.12-37.68c4-8.83,7.34-10.2,14.23-17.95,8.36-9.43,15.21-19.47,27-26.88a28.5,28.5,0,0,1,4.32-2.09c26.28-11,32.84,18.66,50,5.47,16-12.34,24.83-29.71,41.44-33.89a14,14,0,0,1,10,.8c14.54,7.21,26.65,20.11,36.12,35.33a102,102,0,0,1,5.41,9.56c10.7,22,18.62,42.35,35.79,47.79,14.51,4.6,22-4.26,32.41-17.47,7.11-9.05,12.23-20,21.06-29.89.57-.63,1.18-1.21,1.72-1.84,14.33-16.5,19.62-38.05,32-56.35a31.34,31.34,0,0,1,14.22-11.9c18.71-7.64,22.05-10.22,37.68,9.83S582.91,296.11,603,305c16.31,7.2,22.63-13.62,35,5,20.15,30.24,29.87,44.7,37.65,63.27" transform="translate(168.94)"/>
          <path class="cls-3" d="M205.64,394s1.47-22.79,7.84-37.67c3.83-8.94,7.19-10.84,13.92-18.71,8.24-9.64,15.14-19.74,26.92-26.86a28.41,28.41,0,0,1,4.37-2c26.62-10.56,33.29,19.57,50.45,7.1,16-11.6,24.93-29.05,41.25-33.2a13.72,13.72,0,0,1,9.86.8c14.43,7.22,26.51,19.86,35.91,34.72a102.83,102.83,0,0,1,5.41,9.42c10.54,21.4,18.52,41.58,35.73,46.94,14.49,4.52,22.12-4.17,32.49-17.4,7-9,12.21-19.93,21-30,.56-.64,1.16-1.23,1.7-1.87,14.25-16.85,19.63-38.45,32-56.45A30.76,30.76,0,0,1,538.77,257c18.86-7.31,22.32-9.51,38,10.81s14.64,24.71,34.82,33.38c16.57,7.12,22.85-14.13,35.39,4.54,20,29.72,29.93,44.24,37.44,62.7" transform="translate(168.94)"/>
          <path class="cls-3" d="M214.64,388.73s1.35-22.51,7.56-37.66c3.7-9.05,7-11.47,13.62-19.47,8.1-9.84,15.05-20,26.84-26.84a29.19,29.19,0,0,1,4.41-1.94c27-10.13,33.73,20.47,50.93,8.73,15.92-10.86,25-28.4,41.07-32.51a13.46,13.46,0,0,1,9.74.79c14.32,7.23,26.36,19.63,35.7,34.13a98.62,98.62,0,0,1,5.39,9.27c10.38,20.83,18.44,40.8,35.68,46.1,14.48,4.44,22.21-4.1,32.57-17.33,7-8.94,12.2-19.87,20.86-30.08.55-.65,1.15-1.25,1.68-1.91,14.17-17.2,19.63-38.84,31.89-56.53a30.12,30.12,0,0,1,14.49-11.64c19-7,22.59-8.81,38.21,11.77s14.73,25.08,35,33.55c16.84,7,23.08-14.64,35.77,4.1,19.77,29.18,30,43.77,37.23,62.11" transform="translate(168.94)"/>
          <path class="cls-3" d="M223.76,383.22S225,361,231,345.57c3.58-9.16,6.89-12.1,13.33-20.23,8-10,15-20.26,26.75-26.82a29.62,29.62,0,0,1,4.46-1.87C302.87,287,309.75,318,327,307c15.88-10.13,25.15-27.75,40.89-31.83a13.16,13.16,0,0,1,9.61.78c14.22,7.25,26.23,19.4,35.49,33.53a93,93,0,0,1,5.38,9.13c10.23,20.26,18.36,40,35.64,45.25,14.45,4.37,22.3-4,32.64-17.25,6.94-8.89,12.19-19.8,20.76-30.18.55-.66,1.14-1.27,1.67-1.93,14.08-17.56,19.63-39.24,31.81-56.63a29.6,29.6,0,0,1,14.62-11.52c19.18-6.68,22.86-8.1,38.48,12.75s14.8,25.45,35.11,33.71c17.09,7,23.3-15.15,36.13,3.65,19.58,28.66,30,43.32,37,61.54" transform="translate(168.94)"/>
          <path class="cls-3" d="M233,377.51s1.15-21.95,7-37.65c3.46-9.26,6.73-12.73,13-21,7.82-10.25,14.88-20.52,26.66-26.8a29,29,0,0,1,4.51-1.79c27.63-9.28,34.61,22.26,51.88,12,15.82-9.41,25.25-27.1,40.7-31.14a12.81,12.81,0,0,1,9.49.77c14.12,7.25,26.09,19.16,35.28,32.93a87.44,87.44,0,0,1,5.37,9c10.08,19.69,18.27,39.25,35.59,44.4,14.44,4.29,22.39-3.93,32.72-17.18,6.88-8.83,12.17-19.74,20.66-30.27.54-.67,1.12-1.3,1.64-2,14-17.91,19.64-39.64,31.74-56.72,4.17-5.89,9.14-9.54,14.76-11.39,19.33-6.36,23.13-7.4,38.74,13.72S617.6,280.24,638,288.3c17.36,6.87,23.52-15.65,36.51,3.21,19.38,28.14,30.07,42.85,36.82,61" transform="translate(168.94)"/>
          <path class="cls-3" d="M242.14,371.66s1-21.68,6.72-37.65c3.33-9.37,6.57-13.36,12.73-21.74,7.68-10.46,14.79-20.77,26.58-26.77a28.84,28.84,0,0,1,4.54-1.73c28-8.84,35.06,23.16,52.37,13.64,15.77-8.68,25.36-26.45,40.51-30.46a12.62,12.62,0,0,1,9.38.77c14,7.26,25.95,18.92,35.06,32.33a85.08,85.08,0,0,1,5.36,8.84c9.92,19.13,18.19,38.48,35.53,43.56,14.43,4.22,22.5-3.85,32.8-17.1,6.83-8.79,12.17-19.68,20.57-30.38.53-.68,1.1-1.32,1.62-2,13.92-18.25,19.65-40,31.66-56.8,4.2-5.87,9.21-9.5,14.9-11.27,19.48-6.05,23.36-6.66,39,14.69s15,26.18,35.4,34c17.62,6.78,23.74-16.16,36.88,2.75,19.18,27.63,30.11,42.4,36.6,60.4" transform="translate(168.94)"/>
          <path class="cls-3" d="M251.26,365.72s.94-21.4,6.45-37.64c3.21-9.49,6.41-14,12.42-22.5,7.54-10.66,14.71-21,26.5-26.75a29.54,29.54,0,0,1,4.59-1.65c28.3-8.41,35.49,24.05,52.84,15.27,15.72-8,25.47-25.8,40.33-29.78a12.34,12.34,0,0,1,9.25.77c13.91,7.27,25.82,18.68,34.86,31.72a84.52,84.52,0,0,1,5.35,8.71c9.76,18.56,18.1,37.7,35.48,42.7,14.4,4.15,22.59-3.75,32.88-17,6.77-8.73,12.15-19.61,20.46-30.47.53-.69,1.09-1.34,1.6-2,13.83-18.61,19.66-40.43,31.59-56.9,4.23-5.85,9.27-9.46,15-11.14,19.65-5.74,23.63-6,39.27,15.66s15,26.54,35.54,34.2c17.89,6.69,24-16.66,37.25,2.31,19,27.11,30.16,41.93,36.4,59.82" transform="translate(168.94)"/>
          <path class="cls-3" d="M260.26,359.75s.84-21.12,6.16-37.63c3.1-9.6,6.26-14.63,12.13-23.26C286,288,293.17,277.59,305,272.13a29.58,29.58,0,0,1,4.64-1.58c28.64-8,35.92,24.94,53.32,16.9,15.66-7.23,25.57-25.14,40.14-29.08a12.06,12.06,0,0,1,9.14.76c13.79,7.28,25.67,18.44,34.64,31.12a81.11,81.11,0,0,1,5.34,8.56c9.59,18,18,36.93,35.43,41.86,14.38,4.07,22.68-3.67,32.95-16.95,6.72-8.68,12.14-19.54,20.37-30.57.52-.7,1.08-1.36,1.58-2.06,13.74-19,19.67-40.82,31.51-57,4.27-5.83,9.34-9.41,15.17-11,19.8-5.43,23.9-5.26,39.54,16.63s15.09,26.9,35.67,34.37c18.16,6.59,24.18-17.17,37.63,1.86,18.79,26.59,30.21,41.47,36.19,59.24" transform="translate(168.94)"/>
          <path class="cls-3" d="M269.07,353.81s.75-20.85,5.88-37.62c3-9.72,6.1-15.27,11.83-24,7.25-11.07,14.54-21.52,26.33-26.71a30.85,30.85,0,0,1,4.67-1.51c29-7.52,36.37,25.83,53.81,18.54,15.61-6.52,25.68-24.49,40-28.4a11.78,11.78,0,0,1,9,.75A102.89,102.89,0,0,1,455,285.37a76.63,76.63,0,0,1,5.33,8.42c9.43,17.43,17.93,36.15,35.37,41,14.38,4,22.78-3.59,33-16.87,6.67-8.62,12.13-19.48,20.27-30.66.51-.71,1.06-1.39,1.56-2.1C564.2,265.85,570.23,244,582,228.08c4.31-5.81,9.4-9.37,15.31-10.89,20-5.12,24.17-4.55,39.8,17.61s15.16,27.26,35.82,34.53c18.42,6.49,24.39-17.66,38,1.41,18.59,26.07,30.26,41,36,58.67" transform="translate(168.94)"/>
          <path class="cls-3" d="M277.63,348s.65-20.57,5.6-37.62c2.86-9.82,5.93-15.89,11.53-24.77,7.1-11.28,14.44-21.76,26.24-26.69a31.2,31.2,0,0,1,4.72-1.43c29.31-7.08,36.8,26.7,54.28,20.17,15.56-5.81,25.79-23.85,39.78-27.72a11.53,11.53,0,0,1,8.89.75,105,105,0,0,1,34.22,29.93,72.61,72.61,0,0,1,5.31,8.27c9.27,16.87,17.85,35.38,35.33,40.16,14.36,3.93,22.87-3.5,33.12-16.79,6.61-8.58,12.11-19.42,20.16-30.77.51-.72,1.05-1.41,1.54-2.13,13.55-19.66,19.69-41.6,31.36-57.17,4.34-5.79,9.47-9.33,15.44-10.76,20.13-4.82,24.45-3.85,40.07,18.58s15.23,27.61,36,34.7c18.68,6.38,24.6-18.17,38.37,1,18.39,25.56,30.31,40.55,35.77,58.09" transform="translate(168.94)"/>
          <path class="cls-3" d="M285.87,342.23s.55-20.3,5.32-37.61c2.74-9.94,5.77-16.53,11.23-25.53,7-11.48,14.35-22,26.16-26.67a32.36,32.36,0,0,1,4.76-1.36c29.64-6.63,37.23,27.58,54.76,21.81,15.5-5.1,25.89-23.2,39.59-27a11.24,11.24,0,0,1,8.77.74,107.11,107.11,0,0,1,34,29.32,70.86,70.86,0,0,1,5.3,8.14c9.11,16.31,17.77,34.6,35.28,39.31,14.34,3.85,23-3.42,33.19-16.72,6.56-8.52,12.1-19.35,20.07-30.86.5-.73,1-1.43,1.52-2.16,13.45-20,19.7-42,31.28-57.26,4.38-5.78,9.54-9.3,15.58-10.64,20.3-4.51,24.72-3.15,40.34,19.55s15.29,28,36.1,34.86c18.94,6.28,24.8-18.66,38.73.52,18.19,25,30.36,40.08,35.57,57.52" transform="translate(168.94)"/>
          <path class="cls-3" d="M293.73,336.71s.46-20,5-37.6a95.34,95.34,0,0,1,10.93-26.29c6.81-11.69,14.26-22.24,26.07-26.65a31.9,31.9,0,0,1,4.81-1.29c30-6.18,37.67,28.44,55.24,23.44,15.44-4.39,26-22.54,39.41-26.34a11,11,0,0,1,8.64.73,109.88,109.88,0,0,1,33.8,28.73,68.67,68.67,0,0,1,5.3,8c8.93,15.75,17.67,33.83,35.22,38.46,14.32,3.78,23.06-3.34,33.27-16.64,6.5-8.47,12.09-19.29,20-31,.5-.74,1-1.46,1.5-2.19,13.35-20.37,19.71-42.38,31.2-57.36,4.42-5.75,9.61-9.25,15.72-10.51,20.46-4.2,25-2.44,40.6,20.53s15.35,28.32,36.24,35c19.21,6.17,25-19.15,39.11.07,18,24.53,30.41,39.62,35.36,56.94" transform="translate(168.94)"/>
          <path class="cls-3" d="M301.14,331.44s.38-19.76,4.77-37.6a99.8,99.8,0,0,1,10.63-27c6.66-11.89,14.17-22.46,26-26.62a32.8,32.8,0,0,1,4.85-1.22c30.3-5.73,38.11,29.31,55.72,25.08,15.39-3.7,26.1-21.9,39.22-25.66a10.72,10.72,0,0,1,8.52.73,112.92,112.92,0,0,1,33.6,28.12,66,66,0,0,1,5.27,7.85c8.77,15.19,17.6,33.06,35.18,37.62,14.3,3.7,23.18-3.24,33.35-16.57,6.46-8.41,12.1-19.21,19.86-31.06.5-.74,1-1.47,1.49-2.22,13.25-20.72,19.72-42.77,31.13-57.44,4.45-5.74,9.66-9.22,15.85-10.39,20.63-3.91,25.27-1.74,40.86,21.5s15.42,28.66,36.39,35.19c19.47,6.05,25.21-19.65,39.48-.38,17.78,24,30.45,39.16,35.15,56.36" transform="translate(168.94)"/>
          <path class="cls-3" d="M308.06,326.48s.28-19.49,4.48-37.59a104.91,104.91,0,0,1,10.33-27.81c6.51-12.09,14.07-22.7,25.9-26.6a33.47,33.47,0,0,1,4.9-1.14c30.62-5.28,38.55,30.16,56.2,26.7,15.34-3,26.21-21.24,39-25a10.48,10.48,0,0,1,8.4.72c13.15,7.37,24.87,17,33.38,27.53A63.45,63.45,0,0,1,496,271c8.59,14.64,17.5,32.29,35.12,36.77,14.29,3.63,23.28-3.15,33.43-16.49,6.41-8.35,12.08-19.14,19.77-31.15.48-.76,1-1.5,1.46-2.26,13.15-21.07,19.74-43.15,31-57.54,4.5-5.71,9.74-9.17,16-10.25,20.8-3.61,25.54-1,41.13,22.46s15.47,29,36.53,35.36c19.73,5.94,25.41-20.14,39.85-.83,17.58,23.52,30.5,38.7,34.94,55.79" transform="translate(168.94)"/>
          <path class="cls-3" d="M314.4,321.88a211.75,211.75,0,0,1,4.2-37.58,109.9,109.9,0,0,1,10-28.56c6.36-12.3,14-22.93,25.82-26.59a35.11,35.11,0,0,1,4.94-1.07c30.95-4.82,39,31,56.68,28.35,15.29-2.32,26.32-20.6,38.86-24.3a10.22,10.22,0,0,1,8.27.73c13.05,7.37,24.75,16.74,33.18,26.92a62,62,0,0,1,5.25,7.56c8.42,14.08,17.42,31.52,35.07,35.92,14.27,3.56,23.37-3.07,33.51-16.42,6.35-8.3,12.07-19.07,19.67-31.25.48-.76,1-1.52,1.44-2.28,13-21.42,19.76-43.54,31-57.63,4.53-5.69,9.8-9.13,16.12-10.13,21-3.31,25.82-.34,41.4,23.44s15.53,29.36,36.67,35.52c20,5.81,25.61-20.63,40.22-1.28,17.37,23,30.55,38.24,34.73,55.22" transform="translate(168.94)"/>
          <path class="cls-3" d="M320.11,317.71A219.79,219.79,0,0,1,324,280.14a115.53,115.53,0,0,1,9.72-29.33c6.21-12.5,13.88-23.15,25.74-26.56a36.89,36.89,0,0,1,5-1c31.28-4.36,39.44,31.87,57.16,30,15.25-1.63,26.43-19.95,38.67-23.61a10,10,0,0,1,8.16.72c12.94,7.39,24.61,16.5,33,26.32a59.64,59.64,0,0,1,5.25,7.42c8.24,13.53,17.33,30.75,35,35.07,14.26,3.49,23.47-3,33.59-16.34,6.3-8.25,12.06-19,19.57-31.35.47-.77,1-1.54,1.42-2.32,12.94-21.76,19.77-43.92,30.9-57.71,4.58-5.67,9.87-9.1,16.26-10,21.14-3,26.09.37,41.66,24.41s15.59,29.71,36.82,35.69c20.25,5.69,25.8-21.11,40.59-1.73,17.17,22.51,30.6,37.78,34.52,54.64" transform="translate(168.94)"/>
          <path class="cls-3" d="M325.13,314a228.19,228.19,0,0,1,3.64-37.56,121.3,121.3,0,0,1,9.43-30.09c6.05-12.7,13.77-23.37,25.65-26.54a38.57,38.57,0,0,1,5-.92c31.59-3.91,39.89,32.71,57.64,31.61,15.2-.94,26.53-19.3,38.49-22.92a9.7,9.7,0,0,1,8,.71c12.83,7.4,24.48,16.25,32.75,25.72A57.41,57.41,0,0,1,511,261.3c8.07,13,17.25,30,35,34.22,14.24,3.42,23.56-2.9,33.67-16.26,6.23-8.2,12-19,19.46-31.45.47-.79,1-1.56,1.41-2.35,12.83-22.12,19.78-44.31,30.82-57.81,4.62-5.64,9.94-9.06,16.4-9.88,21.31-2.71,26.36,1.07,41.92,25.39s15.64,30.05,37,35.84c20.51,5.58,26-21.58,41-2.17,17,22,30.65,37.31,34.32,54.07" transform="translate(168.94)"/>
          <path class="cls-3" d="M329.38,310.85a237,237,0,0,1,3.37-37.56,126.8,126.8,0,0,1,9.13-30.84c5.89-12.91,13.67-23.6,25.57-26.52a40.34,40.34,0,0,1,5.07-.85c31.91-3.45,40.34,33.55,58.11,33.25,15.17-.26,26.64-18.66,38.31-22.24a9.47,9.47,0,0,1,7.91.7c12.72,7.42,24.35,16,32.54,25.13a54.76,54.76,0,0,1,5.22,7.13c7.89,12.42,17.17,29.2,34.92,33.38,14.22,3.34,23.65-2.82,33.74-16.19,6.18-8.15,12-18.89,19.37-31.54l1.39-2.39c12.72-22.46,19.8-44.69,30.74-57.9,4.66-5.62,10-9,16.54-9.75,21.48-2.41,26.63,1.77,42.19,26.35s15.68,30.4,37.09,36c20.78,5.44,26.18-22.07,41.34-2.63,16.76,21.51,30.7,36.86,34.11,53.5" transform="translate(168.94)"/>
          <path class="cls-3" d="M332.82,308.28a245.16,245.16,0,0,1,3.09-37.55c1.82-10.91,4.43-21.56,8.83-31.6,5.73-13.11,13.55-23.82,25.48-26.5a40.66,40.66,0,0,1,5.11-.78c32.24-3,40.8,34.39,58.6,34.88,15.14.42,26.73-18,38.12-21.55a9.24,9.24,0,0,1,7.79.7c12.6,7.46,24.22,15.75,32.33,24.52a54.18,54.18,0,0,1,5.21,7c7.71,11.88,17.07,28.46,34.86,32.53,14.2,3.3,23.75-2.74,33.83-16.11,6.12-8.1,12-18.83,19.26-31.64.46-.81.93-1.61,1.37-2.42,12.61-22.81,19.82-45.07,30.67-58,4.7-5.59,10.07-9,16.67-9.62,21.67-2.12,26.91,2.47,42.46,27.32s15.73,30.74,37.24,36.18c21,5.31,26.36-22.54,41.7-3.07,16.55,21,30.75,36.39,33.9,52.92" transform="translate(168.94)"/>
          <path class="cls-3" d="M335.37,306.36a255.23,255.23,0,0,1,2.81-37.55c1.71-11,4.27-22.18,8.53-32.35,5.57-13.31,13.44-24,25.4-26.48a42.78,42.78,0,0,1,5.16-.71c32.54-2.52,41.26,35.22,59.07,36.52,15.11,1.09,26.84-17.38,37.94-20.87a9,9,0,0,1,7.66.69c12.5,7.47,24.1,15.51,32.12,23.93a50.94,50.94,0,0,1,5.2,6.84c7.53,11.34,17,27.69,34.81,31.69,14.19,3.21,23.84-2.66,33.91-16,6.07-8,12-18.77,19.17-31.74.45-.82.9-1.63,1.34-2.45,12.5-23.16,19.84-45.45,30.6-58.08,4.74-5.57,10.14-8.95,16.8-9.5,21.85-1.82,27.18,3.18,42.72,28.3S714.39,229.64,736,234.9c21.29,5.18,26.54-23,42.07-3.52,16.35,20.51,30.8,35.93,33.69,52.35" transform="translate(168.94)"/>
          <path class="cls-3" d="M337,305.14a263.72,263.72,0,0,1,2.53-37.54c1.59-11.16,4.09-22.81,8.22-33.11,5.42-13.51,13.33-24.25,25.32-26.46a43,43,0,0,1,5.2-.63c32.86-2.07,41.74,36,59.56,38.14,15.08,1.78,26.94-16.71,37.75-20.18a8.76,8.76,0,0,1,7.54.69c12.4,7.47,24,15.25,31.91,23.32a50.45,50.45,0,0,1,5.19,6.71c7.34,10.79,16.91,26.9,34.76,30.83,14.17,3.14,23.93-2.57,34-16,6-8,12-18.7,19.06-31.83.45-.83.89-1.66,1.33-2.49,12.38-23.5,19.85-45.82,30.52-58.17,4.78-5.54,10.21-8.91,16.94-9.37,22-1.53,27.45,3.88,43,29.27s15.83,31.42,37.53,36.5,26.71-23.47,42.44-4c16.14,20,30.85,35.47,33.49,51.77" transform="translate(168.94)"/>
          <path class="cls-3" d="M337.58,304.68S335.46,213,373,206.84s46.54,36.18,65.27,39.22,32.7-26.29,45-18.81,23.85,15,31.7,22.72,17.34,31.68,39.89,36.55,34.22-12.1,53-47.82,26.62-68.79,48.83-70,27.72,4.58,43.25,30.24,15.86,31.76,37.66,36.67,26.89-23.93,42.82-4.42,30.89,35,33.28,51.2" transform="translate(168.94)"/>
        </g>
      </g>
      <g>
        <path class="cls-4" d="M453.11,439.64l-24.23-42h48.45Zm-14.85-36.55,14.85,25.72L468,403.09Z" transform="translate(168.94)"/>
        <g>
          <path class="cls-4" d="M190.5,116.42H142l24.23-42ZM151.42,111h29.7L166.27,85.29Z" transform="translate(168.94)"/>
          <path class="cls-4" d="M39.56,466.35,24.37,440H54.75Zm-5.82-20.9,5.82,10.07,5.81-10.07Z" transform="translate(168.94)"/>
        </g>
      </g>
      <g>
        <path class="cls-4" d="M535.74,500h2.32v-2.32h-2.32Zm10.45,0h2.33v-2.32h-2.33Zm10.45,0H559v-2.32h-2.33Zm10.46,0h2.32v-2.32H567.1Zm10.45,0h2.32v-2.32h-2.32ZM588,500h2.32v-2.32H588Zm10.45,0h2.32v-2.32h-2.32Zm10.45,0h2.32v-2.32H608.9Zm10.45,0h2.33v-2.32h-2.33Zm10.46,0h2.32v-2.32h-2.32Zm10.45,0h2.32v-2.32h-2.32Zm10.45,0H653v-2.32h-2.32Zm10.45,0h2.32v-2.32h-2.32ZM535.74,489.55h2.32v-2.32h-2.32Zm10.45,0h2.33v-2.32h-2.33Zm10.45,0H559v-2.32h-2.33Zm10.46,0h2.32v-2.32H567.1Zm10.45,0h2.32v-2.32h-2.32Zm10.45,0h2.32v-2.32H588Zm10.45,0h2.32v-2.32h-2.32Zm10.45,0h2.32v-2.32H608.9Zm10.45,0h2.33v-2.32h-2.33Zm10.46,0h2.32v-2.32h-2.32Zm10.45,0h2.32v-2.32h-2.32Zm10.45,0H653v-2.32h-2.32Zm10.45,0h2.32v-2.32h-2.32ZM535.74,479.1h2.32v-2.33h-2.32Zm10.45,0h2.33v-2.33h-2.33Zm10.45,0H559v-2.33h-2.33Zm10.46,0h2.32v-2.33H567.1Zm10.45,0h2.32v-2.33h-2.32Zm10.45,0h2.32v-2.33H588Zm10.45,0h2.32v-2.33h-2.32Zm10.45,0h2.32v-2.33H608.9Zm10.45,0h2.33v-2.33h-2.33Zm10.46,0h2.32v-2.33h-2.32Zm10.45,0h2.32v-2.33h-2.32Zm10.45,0H653v-2.33h-2.32Zm10.45,0h2.32v-2.33h-2.32ZM535.74,468.65h2.32v-2.33h-2.32Zm10.45,0h2.33v-2.33h-2.33Zm10.45,0H559v-2.33h-2.33Zm10.46,0h2.32v-2.33H567.1Zm10.45,0h2.32v-2.33h-2.32Zm10.45,0h2.32v-2.33H588Zm10.45,0h2.32v-2.33h-2.32Zm10.45,0h2.32v-2.33H608.9Zm10.45,0h2.33v-2.33h-2.33Zm10.46,0h2.32v-2.33h-2.32Zm10.45,0h2.32v-2.33h-2.32Zm10.45,0H653v-2.33h-2.32Zm10.45,0h2.32v-2.33h-2.32ZM535.74,458.19h2.32v-2.32h-2.32Zm10.45,0h2.33v-2.32h-2.33Zm10.45,0H559v-2.32h-2.33Zm10.46,0h2.32v-2.32H567.1Zm10.45,0h2.32v-2.32h-2.32Zm10.45,0h2.32v-2.32H588Zm10.45,0h2.32v-2.32h-2.32Zm10.45,0h2.32v-2.32H608.9Zm10.45,0h2.33v-2.32h-2.33Zm10.46,0h2.32v-2.32h-2.32Zm10.45,0h2.32v-2.32h-2.32Zm10.45,0H653v-2.32h-2.32Zm10.45,0h2.32v-2.32h-2.32ZM535.74,447.74h2.32v-2.32h-2.32Zm10.45,0h2.33v-2.32h-2.33Zm10.45,0H559v-2.32h-2.33Zm10.46,0h2.32v-2.32H567.1Zm10.45,0h2.32v-2.32h-2.32Zm10.45,0h2.32v-2.32H588Zm10.45,0h2.32v-2.32h-2.32Zm10.45,0h2.32v-2.32H608.9Zm10.45,0h2.33v-2.32h-2.33Zm10.46,0h2.32v-2.32h-2.32Zm10.45,0h2.32v-2.32h-2.32Zm10.45,0H653v-2.32h-2.32Zm10.45,0h2.32v-2.32h-2.32ZM535.74,437.29h2.32V435h-2.32Zm10.45,0h2.33V435h-2.33Zm10.45,0H559V435h-2.33Zm10.46,0h2.32V435H567.1Zm10.45,0h2.32V435h-2.32Zm10.45,0h2.32V435H588Zm10.45,0h2.32V435h-2.32Zm10.45,0h2.32V435H608.9Zm10.45,0h2.33V435h-2.33Zm10.46,0h2.32V435h-2.32Zm10.45,0h2.32V435h-2.32Zm10.45,0H653V435h-2.32Zm10.45,0h2.32V435h-2.32ZM535.74,426.84h2.32v-2.32h-2.32Zm10.45,0h2.33v-2.32h-2.33Zm10.45,0H559v-2.32h-2.33Zm10.46,0h2.32v-2.32H567.1Zm10.45,0h2.32v-2.32h-2.32Zm10.45,0h2.32v-2.32H588Zm10.45,0h2.32v-2.32h-2.32Zm10.45,0h2.32v-2.32H608.9Zm10.45,0h2.33v-2.32h-2.33Zm10.46,0h2.32v-2.32h-2.32Zm10.45,0h2.32v-2.32h-2.32Zm10.45,0H653v-2.32h-2.32Zm10.45,0h2.32v-2.32h-2.32ZM535.74,416.39h2.32v-2.33h-2.32Zm10.45,0h2.33v-2.33h-2.33Zm10.45,0H559v-2.33h-2.33Zm10.46,0h2.32v-2.33H567.1Zm10.45,0h2.32v-2.33h-2.32Zm10.45,0h2.32v-2.33H588Zm10.45,0h2.32v-2.33h-2.32Zm10.45,0h2.32v-2.33H608.9Zm10.45,0h2.33v-2.33h-2.33Zm10.46,0h2.32v-2.33h-2.32Zm10.45,0h2.32v-2.33h-2.32Zm10.45,0H653v-2.33h-2.32Zm10.45,0h2.32v-2.33h-2.32Z" transform="translate(168.94)"/>
        <path class="cls-4" d="M45.29,95.13h2.32V92.81H45.29Zm10.45,0h2.32V92.81H55.74Zm10.45,0h2.33V92.81H66.19Zm10.45,0H79V92.81H76.64Zm10.46,0h2.32V92.81H87.1Zm10.45,0h2.32V92.81H97.55Zm10.45,0h2.32V92.81H108Zm10.45,0h2.32V92.81h-2.32Zm10.45,0h2.32V92.81H128.9Zm10.45,0h2.33V92.81h-2.33Zm10.46,0h2.32V92.81h-2.32Zm10.45,0h2.32V92.81h-2.32Zm10.45,0H173V92.81h-2.32ZM45.29,84.68h2.32V82.36H45.29Zm10.45,0h2.32V82.36H55.74Zm10.45,0h2.33V82.36H66.19Zm10.45,0H79V82.36H76.64Zm10.46,0h2.32V82.36H87.1Zm10.45,0h2.32V82.36H97.55Zm10.45,0h2.32V82.36H108Zm10.45,0h2.32V82.36h-2.32Zm10.45,0h2.32V82.36H128.9Zm10.45,0h2.33V82.36h-2.33Zm10.46,0h2.32V82.36h-2.32Zm10.45,0h2.32V82.36h-2.32Zm10.45,0H173V82.36h-2.32ZM45.29,74.23h2.32V71.9H45.29Zm10.45,0h2.32V71.9H55.74Zm10.45,0h2.33V71.9H66.19Zm10.45,0H79V71.9H76.64Zm10.46,0h2.32V71.9H87.1Zm10.45,0h2.32V71.9H97.55Zm10.45,0h2.32V71.9H108Zm10.45,0h2.32V71.9h-2.32Zm10.45,0h2.32V71.9H128.9Zm10.45,0h2.33V71.9h-2.33Zm10.46,0h2.32V71.9h-2.32Zm10.45,0h2.32V71.9h-2.32Zm10.45,0H173V71.9h-2.32ZM45.29,63.77h2.32V61.45H45.29Zm10.45,0h2.32V61.45H55.74Zm10.45,0h2.33V61.45H66.19Zm10.45,0H79V61.45H76.64Zm10.46,0h2.32V61.45H87.1Zm10.45,0h2.32V61.45H97.55Zm10.45,0h2.32V61.45H108Zm10.45,0h2.32V61.45h-2.32Zm10.45,0h2.32V61.45H128.9Zm10.45,0h2.33V61.45h-2.33Zm10.46,0h2.32V61.45h-2.32Zm10.45,0h2.32V61.45h-2.32Zm10.45,0H173V61.45h-2.32ZM45.29,53.32h2.32V51H45.29Zm10.45,0h2.32V51H55.74Zm10.45,0h2.33V51H66.19Zm10.45,0H79V51H76.64Zm10.46,0h2.32V51H87.1Zm10.45,0h2.32V51H97.55Zm10.45,0h2.32V51H108Zm10.45,0h2.32V51h-2.32Zm10.45,0h2.32V51H128.9Zm10.45,0h2.33V51h-2.33Zm10.46,0h2.32V51h-2.32Zm10.45,0h2.32V51h-2.32Zm10.45,0H173V51h-2.32ZM45.29,42.87h2.32V40.55H45.29Zm10.45,0h2.32V40.55H55.74Zm10.45,0h2.33V40.55H66.19Zm10.45,0H79V40.55H76.64Zm10.46,0h2.32V40.55H87.1Zm10.45,0h2.32V40.55H97.55Zm10.45,0h2.32V40.55H108Zm10.45,0h2.32V40.55h-2.32Zm10.45,0h2.32V40.55H128.9Zm10.45,0h2.33V40.55h-2.33Zm10.46,0h2.32V40.55h-2.32Zm10.45,0h2.32V40.55h-2.32Zm10.45,0H173V40.55h-2.32ZM45.29,32.42h2.32V30.1H45.29Zm10.45,0h2.32V30.1H55.74Zm10.45,0h2.33V30.1H66.19Zm10.45,0H79V30.1H76.64Zm10.46,0h2.32V30.1H87.1Zm10.45,0h2.32V30.1H97.55Zm10.45,0h2.32V30.1H108Zm10.45,0h2.32V30.1h-2.32Zm10.45,0h2.32V30.1H128.9Zm10.45,0h2.33V30.1h-2.33Zm10.46,0h2.32V30.1h-2.32Zm10.45,0h2.32V30.1h-2.32Zm10.45,0H173V30.1h-2.32ZM45.29,22h2.32V19.65H45.29Zm10.45,0h2.32V19.65H55.74Zm10.45,0h2.33V19.65H66.19Zm10.45,0H79V19.65H76.64ZM87.1,22h2.32V19.65H87.1Zm10.45,0h2.32V19.65H97.55ZM108,22h2.32V19.65H108Zm10.45,0h2.32V19.65h-2.32Zm10.45,0h2.32V19.65H128.9Zm10.45,0h2.33V19.65h-2.33Zm10.46,0h2.32V19.65h-2.32Zm10.45,0h2.32V19.65h-2.32Zm10.45,0H173V19.65h-2.32ZM45.29,11.52h2.32V9.19H45.29Zm10.45,0h2.32V9.19H55.74Zm10.45,0h2.33V9.19H66.19Zm10.45,0H79V9.19H76.64Zm10.46,0h2.32V9.19H87.1Zm10.45,0h2.32V9.19H97.55Zm10.45,0h2.32V9.19H108Zm10.45,0h2.32V9.19h-2.32Zm10.45,0h2.32V9.19H128.9Zm10.45,0h2.33V9.19h-2.33Zm10.46,0h2.32V9.19h-2.32Zm10.45,0h2.32V9.19h-2.32Zm10.45,0H173V9.19h-2.32ZM45.29,1.06h2.32V0H45.29Zm10.45,0h2.32V0H55.74Zm10.45,0h2.33V0H66.19Zm10.45,0H79V0H76.64Zm10.46,0h2.32V0H87.1Zm10.45,0h2.32V0H97.55Zm10.45,0h2.32V0H108Zm10.45,0h2.32V0h-2.32Zm10.45,0h2.32V0H128.9Zm10.45,0h2.33V0h-2.33Zm10.46,0h2.32V0h-2.32Zm10.45,0h2.32V0h-2.32Zm10.45,0H173V0h-2.32Z" transform="translate(168.94)"/>
      </g>
      <g>
        <path class="cls-5" d="M188.13,368.61a78.39,78.39,0,1,1-78.39-78.38,78.39,78.39,0,0,1,78.39,78.38" transform="translate(168.94)"/>
        <path class="cls-5" d="M50.71,166.35a20.52,20.52,0,1,1-20.52-20.51,20.52,20.52,0,0,1,20.52,20.51" transform="translate(168.94)"/>
        <path class="cls-5" d="M17.42,124.16a8.52,8.52,0,1,1-8.52-8.51,8.51,8.51,0,0,1,8.52,8.51" transform="translate(168.94)"/>
        <path class="cls-5" d="M562.84,423.58a23.42,23.42,0,1,1-23.42-23.42,23.42,23.42,0,0,1,23.42,23.42" transform="translate(168.94)"/>
        <path class="cls-5" d="M637.55,92.23a21.49,21.49,0,1,1-21.49-21.49,21.49,21.49,0,0,1,21.49,21.49" transform="translate(168.94)"/>
        <rect class="cls-5" x="397.98" y="98.74" width="42.84" height="10.84"/>
        <g>
          <rect class="cls-5" x="542.75" y="444.52" width="42.84" height="10.84"/>
          <rect class="cls-5" x="547.65" y="489.16" width="37.94" height="10.84"/>
        </g>
        <rect class="cls-5" x="397.98" y="153.97" width="24" height="10.84"/>
      </g>
      <g>
        <path class="cls-4" d="M238.06,203.32a6.77,6.77,0,1,1-6.77-6.77,6.78,6.78,0,0,1,6.77,6.77" transform="translate(168.94)"/>
        <path class="cls-4" d="M676.26,261.06a23,23,0,1,1-23-23,23,23,0,0,1,23,23" transform="translate(168.94)"/>
        <path class="cls-4" d="M624,296.48a6.13,6.13,0,1,1-6.13-6.13,6.12,6.12,0,0,1,6.13,6.13" transform="translate(168.94)"/>
        <path class="cls-4" d="M395.74,335.39a7,7,0,1,1-7-7,7,7,0,0,1,7,7" transform="translate(168.94)"/>
      </g>
      <g>
        <g>
          <polygon class="cls-4" points="541.97 74.68 538.14 78.5 534.31 74.68 532.35 76.64 536.18 80.46 532.35 84.29 534.31 86.25 538.14 82.42 541.97 86.25 543.93 84.29 540.1 80.46 543.93 76.64 541.97 74.68"/>
          <polygon class="cls-4" points="563.7 74.68 559.87 78.5 556.05 74.68 554.09 76.64 557.91 80.46 554.09 84.29 556.05 86.25 559.87 82.42 563.7 86.25 565.66 84.29 561.84 80.46 565.66 76.64 563.7 74.68"/>
          <polygon class="cls-4" points="587.4 76.64 585.43 74.68 581.61 78.5 577.78 74.68 575.82 76.64 579.65 80.46 575.82 84.29 577.78 86.25 581.61 82.42 585.43 86.25 587.4 84.29 583.57 80.46 587.4 76.64"/>
        </g>
        <g>
          <polygon class="cls-4" points="854.53 350.76 858.36 354.59 854.53 358.41 856.49 360.37 860.32 356.55 864.14 360.37 866.11 358.41 862.28 354.59 866.11 350.76 864.14 348.8 860.32 352.63 856.49 348.8 854.53 350.76"/>
          <polygon class="cls-4" points="854.53 329.02 858.36 332.85 854.53 336.68 856.49 338.64 860.32 334.81 864.14 338.64 866.11 336.68 862.28 332.85 866.11 329.02 864.14 327.06 860.32 330.89 856.49 327.06 854.53 329.02"/>
          <polygon class="cls-4" points="856.49 305.33 854.53 307.29 858.36 311.12 854.53 314.94 856.49 316.9 860.32 313.08 864.14 316.9 866.11 314.94 862.28 311.12 866.11 307.29 864.14 305.33 860.32 309.16 856.49 305.33"/>
        </g>
        <g>
          <polygon class="cls-4" points="370.79 426.14 366.96 429.96 363.14 426.14 361.18 428.1 365 431.92 361.18 435.75 363.14 437.71 366.96 433.88 370.79 437.71 372.75 435.75 368.92 431.92 372.75 428.1 370.79 426.14"/>
          <polygon class="cls-4" points="392.52 426.14 388.7 429.96 384.87 426.14 382.91 428.1 386.74 431.92 382.91 435.75 384.87 437.71 388.7 433.88 392.52 437.71 394.49 435.75 390.66 431.92 394.49 428.1 392.52 426.14"/>
          <polygon class="cls-4" points="416.22 428.1 414.26 426.14 410.43 429.96 406.61 426.14 404.65 428.1 408.47 431.92 404.65 435.75 406.61 437.71 410.43 433.88 414.26 437.71 416.22 435.75 412.39 431.92 416.22 428.1"/>
          <polygon class="cls-4" points="370.79 448.18 366.96 452.01 363.14 448.18 361.18 450.14 365 453.97 361.18 457.79 363.14 459.75 366.96 455.93 370.79 459.75 372.75 457.79 368.92 453.97 372.75 450.14 370.79 448.18"/>
          <polygon class="cls-4" points="392.52 448.18 388.7 452.01 384.87 448.18 382.91 450.14 386.74 453.97 382.91 457.79 384.87 459.75 388.7 455.93 392.52 459.75 394.49 457.79 390.66 453.97 394.49 450.14 392.52 448.18"/>
        </g>
      </g>
    </g>
  </g>
</svg>
