<svg xmlns="http://www.w3.org/2000/svg" xmlns:xlink="http://www.w3.org/1999/xlink" viewBox="0 0 451.61 457.62">
  <defs>
    <style>
      .cls-1 {
        fill: url(#linear-gradient);
      }

      .cls-2 {
        opacity: 0.95;
      }

      .cls-3 {
        fill: url(#linear-gradient-2);
      }

      .cls-4 {
        opacity: 0.9;
      }

      .cls-5 {
        fill: url(#linear-gradient-3);
      }

      .cls-6 {
        opacity: 0.86;
      }

      .cls-7 {
        fill: url(#linear-gradient-4);
      }

      .cls-8 {
        opacity: 0.81;
      }

      .cls-9 {
        fill: url(#linear-gradient-5);
      }

      .cls-10 {
        opacity: 0.76;
      }

      .cls-11 {
        fill: url(#linear-gradient-6);
      }

      .cls-12 {
        opacity: 0.71;
      }

      .cls-13 {
        fill: url(#linear-gradient-7);
      }

      .cls-14 {
        opacity: 0.67;
      }

      .cls-15 {
        fill: url(#linear-gradient-8);
      }

      .cls-16 {
        opacity: 0.62;
      }

      .cls-17 {
        fill: url(#linear-gradient-9);
      }

      .cls-18 {
        opacity: 0.57;
      }

      .cls-19 {
        fill: url(#linear-gradient-10);
      }

      .cls-20 {
        opacity: 0.52;
      }

      .cls-21 {
        fill: url(#linear-gradient-11);
      }

      .cls-22 {
        opacity: 0.48;
      }

      .cls-23 {
        fill: url(#linear-gradient-12);
      }

      .cls-24 {
        opacity: 0.43;
      }

      .cls-25 {
        fill: url(#linear-gradient-13);
      }

      .cls-26 {
        opacity: 0.38;
      }

      .cls-27 {
        fill: url(#linear-gradient-14);
      }

      .cls-28 {
        opacity: 0.33;
      }

      .cls-29 {
        fill: url(#linear-gradient-15);
      }

      .cls-30 {
        opacity: 0.29;
      }

      .cls-31 {
        fill: url(#linear-gradient-16);
      }

      .cls-32 {
        opacity: 0.24;
      }

      .cls-33 {
        fill: url(#linear-gradient-17);
      }

      .cls-34 {
        opacity: 0.19;
      }

      .cls-35 {
        fill: url(#linear-gradient-18);
      }

      .cls-36 {
        opacity: 0.14;
      }

      .cls-37 {
        fill: url(#linear-gradient-19);
      }

      .cls-38 {
        opacity: 0.1;
      }

      .cls-39 {
        fill: url(#linear-gradient-20);
      }

      .cls-40 {
        opacity: 0.05;
      }

      .cls-41 {
        fill: url(#linear-gradient-21);
      }

      .cls-42 {
        opacity: 0;
      }

      .cls-43 {
        fill: url(#linear-gradient-22);
      }

      .cls-44 {
        fill: url(#linear-gradient-23);
      }
    </style>
    <linearGradient id="linear-gradient" x1="-1375.23" y1="-101.07" x2="-1307.8" y2="-101.07" gradientTransform="translate(-1084.01 474.11) rotate(164.5)" gradientUnits="userSpaceOnUse">
      <stop offset="0" stop-color="#1677ff"/>
      <stop offset="1" stop-color="#169eff"/>
    </linearGradient>
    <linearGradient id="linear-gradient-2" x1="-1382.13" y1="-101.07" x2="-1299.84" y2="-101.07" xlink:href="#linear-gradient"/>
    <linearGradient id="linear-gradient-3" x1="-1389.02" y1="-101.06" x2="-1291.86" y2="-101.06" xlink:href="#linear-gradient"/>
    <linearGradient id="linear-gradient-4" x1="-1395.92" y1="-101.06" x2="-1283.89" y2="-101.06" xlink:href="#linear-gradient"/>
    <linearGradient id="linear-gradient-5" x1="-1402.81" y1="-101.05" x2="-1275.91" y2="-101.05" xlink:href="#linear-gradient"/>
    <linearGradient id="linear-gradient-6" x1="-1409.77" y1="-101.05" x2="-1267.94" y2="-101.05" xlink:href="#linear-gradient"/>
    <linearGradient id="linear-gradient-7" x1="-1416.68" y1="-101.05" x2="-1259.96" y2="-101.05" xlink:href="#linear-gradient"/>
    <linearGradient id="linear-gradient-8" x1="-1423.58" y1="-101.05" x2="-1251.98" y2="-101.05" xlink:href="#linear-gradient"/>
    <linearGradient id="linear-gradient-9" x1="-1430.48" y1="-101.06" x2="-1244.01" y2="-101.06" xlink:href="#linear-gradient"/>
    <linearGradient id="linear-gradient-10" x1="-1437.38" y1="-101.06" x2="-1236.03" y2="-101.06" xlink:href="#linear-gradient"/>
    <linearGradient id="linear-gradient-11" x1="-1444.29" y1="-101.06" x2="-1228.06" y2="-101.06" xlink:href="#linear-gradient"/>
    <linearGradient id="linear-gradient-12" x1="-1451.19" y1="-101.06" x2="-1220.08" y2="-101.06" xlink:href="#linear-gradient"/>
    <linearGradient id="linear-gradient-13" x1="-1458.05" y1="-101.06" x2="-1212.1" y2="-101.06" xlink:href="#linear-gradient"/>
    <linearGradient id="linear-gradient-14" x1="-1464.95" y1="-101.06" x2="-1204.13" y2="-101.06" xlink:href="#linear-gradient"/>
    <linearGradient id="linear-gradient-15" x1="-1471.85" y1="-101.06" x2="-1196.15" y2="-101.06" xlink:href="#linear-gradient"/>
    <linearGradient id="linear-gradient-16" x1="-1478.75" y1="-101.06" x2="-1188.18" y2="-101.06" xlink:href="#linear-gradient"/>
    <linearGradient id="linear-gradient-17" x1="-1485.65" y1="-101.06" x2="-1180.2" y2="-101.06" xlink:href="#linear-gradient"/>
    <linearGradient id="linear-gradient-18" x1="-1492.55" y1="-101.06" x2="-1172.22" y2="-101.06" xlink:href="#linear-gradient"/>
    <linearGradient id="linear-gradient-19" x1="-1499.45" y1="-101.06" x2="-1164.25" y2="-101.06" xlink:href="#linear-gradient"/>
    <linearGradient id="linear-gradient-20" x1="-1506.35" y1="-101.06" x2="-1156.27" y2="-101.06" xlink:href="#linear-gradient"/>
    <linearGradient id="linear-gradient-21" x1="-1513.25" y1="-101.06" x2="-1148.3" y2="-101.06" xlink:href="#linear-gradient"/>
    <linearGradient id="linear-gradient-22" x1="-1520.15" y1="-101.06" x2="-1140.32" y2="-101.06" xlink:href="#linear-gradient"/>
    <linearGradient id="linear-gradient-23" x1="-1395.94" y1="-101.1" x2="-1283.47" y2="-101.1" xlink:href="#linear-gradient"/>
  </defs>
  <g id="Layer_2" data-name="Layer 2">
    <g id="OBJECTS">
      <g>
        <path class="cls-1" d="M239.76,255.69c-30.28,0-37.45-34.39-41.84-55.44-.56-2.69-1.09-5.24-1.6-7.35-2.27-9.34,4.48-15.65,11.72-17.56,9.45-2.5,21.48,1.34,25.57,15.67,3.78,13.23,16.4,20.52,26.54,26.37,9.31,5.38,17.35,10,15.42,17.45-3.9,15-28.81,20.23-29.87,20.45h0A43.86,43.86,0,0,1,239.76,255.69Zm-26.28-80.08a20.41,20.41,0,0,0-5.19.68c-6.79,1.79-13.13,7.68-11,16.38.52,2.13,1,4.68,1.61,7.38,4.6,22,12.28,58.85,46.64,54.26.74-.15,25.39-5.41,29.1-19.72,1.74-6.71-5.63-11-15-16.36-10.29-5.94-23.1-13.34-27-26.95C229.48,180.12,221.28,175.61,213.48,175.61Z"/>
        <g class="cls-2">
          <path class="cls-3" d="M240.38,265.29c-15.36,0-27.54-7.39-36.29-22.05-8.46-14.19-12.26-32.41-15-45.71-.69-3.3-1.34-6.42-2-9-2.75-11.35,5.47-19,14.27-21.35,11.5-3,26.16,1.64,31.15,19.1,4.65,16.25,20.12,25.19,32.56,32.37,11.35,6.56,21.15,12.23,18.82,21.22-4.76,18.36-35.19,24.69-36.48,24.95h0A52.89,52.89,0,0,1,240.38,265.29Zm-32.4-98a25.16,25.16,0,0,0-6.39.83c-8.37,2.21-16.19,9.48-13.59,20.21.64,2.6,1.29,5.73,2,9,5.63,27,15.07,72.18,57.25,66.54.82-.17,31.17-6.63,35.74-24.25,2.15-8.3-6.91-13.54-18.39-20.17-12.58-7.27-28.24-16.31-33-32.93C227.67,172.81,217.57,167.26,208,167.26Z"/>
        </g>
        <g class="cls-4">
          <path class="cls-5" d="M240.82,274.91c-18.14,0-32.53-8.74-42.85-26.05-10-16.77-14.51-38.32-17.79-54.05-.81-3.91-1.58-7.6-2.33-10.67-3.24-13.36,6.44-22.39,16.81-25.13,13.57-3.59,30.85,1.93,36.74,22.53,5.5,19.26,23.83,29.85,38.56,38.36,13.4,7.74,25,14.43,22.23,25-5.61,21.65-42.72,29.36-43.09,29.43h0A62,62,0,0,1,240.82,274.91Zm-38.34-116a30,30,0,0,0-7.59,1c-9.95,2.63-19.25,11.27-16.15,24,.75,3.08,1.52,6.78,2.33,10.69,6.67,32,17.84,85.5,67.86,78.82.9-.19,36.95-7.83,42.38-28.77,2.56-9.9-8.19-16.11-21.8-24-14.87-8.59-33.38-19.28-39-38.9C225.86,165.49,213.87,158.91,202.48,158.91Z"/>
        </g>
        <g class="cls-6">
          <path class="cls-7" d="M241.26,284.52c-20.92,0-37.51-10.07-49.42-30-11.55-19.35-16.74-44.23-20.53-62.4-.94-4.51-1.83-8.77-2.69-12.31C164.89,164.4,176,154,188,150.84c15.62-4.13,35.53,2.23,42.32,26,6.37,22.28,27.55,34.52,44.58,44.36,15.44,8.92,28.78,16.63,25.63,28.77-6.47,24.95-49.27,33.85-49.7,33.93h0A72.86,72.86,0,0,1,241.26,284.52ZM197,150.55a34.73,34.73,0,0,0-8.79,1.14c-11.54,3.05-22.31,13.07-18.72,27.87.87,3.56,1.76,7.83,2.7,12.34,7.71,37,20.61,98.85,78.47,91.1,1-.2,42.72-9,49-33.29,3-11.5-9.46-18.69-25.22-27.79-17.16-9.91-38.52-22.25-45-44.88C224.05,158.17,210.17,150.55,197,150.55Z"/>
        </g>
        <g class="cls-8">
          <path class="cls-9" d="M241.7,294.14c-23.69,0-42.49-11.41-56-34-13.09-22-19-50.15-23.27-70.75-1.07-5.12-2.07-10-3.05-14-4.22-17.38,8.38-29.14,21.88-32.71,17.69-4.67,40.23,2.53,47.91,29.39,7.23,25.3,31.28,39.19,50.59,50.35,17.49,10.1,32.59,18.82,29,32.54-7.33,28.26-55.82,38.33-56.31,38.43h0A82.21,82.21,0,0,1,241.7,294.14ZM191.47,142.2a39,39,0,0,0-10,1.29c-13.12,3.47-25.37,14.87-21.28,31.7,1,4,2,8.88,3,14,4.29,20.54,10.15,48.66,23.17,70.49,15.51,26,37.07,36.74,65.92,32.88,1-.21,48.49-10.22,55.64-37.81,3.4-13.1-10.74-21.26-28.64-31.6-19.45-11.24-43.65-25.22-51-50.85C222.24,150.86,206.47,142.2,191.47,142.2Z"/>
        </g>
        <g class="cls-10">
          <path class="cls-11" d="M242.13,303.75c-26.46,0-47.47-12.75-62.54-38-14.64-24.53-21.22-56.06-26-79.09-1.19-5.72-2.32-11.13-3.41-15.63-4.72-19.39,9.35-32.51,24.42-36.5,19.75-5.22,44.92,2.83,53.49,32.82,8.1,28.32,35,43.86,56.61,56.35,20.34,11.75,36.4,21,32.43,36.31-8.18,31.56-62.36,42.82-62.91,42.93h0A89.66,89.66,0,0,1,242.13,303.75ZM186,133.84a43.78,43.78,0,0,0-11.18,1.45c-14.7,3.89-28.43,16.66-23.85,35.53,1.1,4.51,2.22,9.92,3.42,15.65,4.79,23,11.35,54.43,25.92,78.85,17.35,29.09,41.49,41.13,73.78,36.81,1.08-.23,54.26-11.43,62.27-42.34,3.81-14.69-12-23.84-32.05-35.41-21.74-12.56-48.8-28.2-57-56.83C220.43,143.54,202.77,133.84,186,133.84Z"/>
        </g>
        <g class="cls-12">
          <path class="cls-13" d="M242.46,313.37c-13.76,0-26.2-3.08-37.11-9.22-12.31-6.93-23-18-31.89-32.8-16.18-27.11-23.45-62-28.76-87.43-1.32-6.33-2.57-12.31-3.78-17.28-5.2-21.41,10.34-35.89,27-40.29A48.09,48.09,0,0,1,202.05,130c12,6.26,20.61,17.53,24.91,32.59,9,31.34,38.72,48.53,62.63,62.35,22.46,13,40.2,23.23,35.83,40.09-9,34.86-68.91,47.29-69.51,47.42h0A100.37,100.37,0,0,1,242.46,313.37Zm-62-187.88a48.15,48.15,0,0,0-12.38,1.61c-16.28,4.3-31.49,18.45-26.42,39.36,1.21,5,2.46,11,3.78,17.3,5.3,25.4,12.56,60.2,28.67,87.2,19.21,32.19,45.92,45.51,81.64,40.73,1.14-.24,60-12.62,68.92-46.86,4.22-16.29-13.3-26.41-35.48-39.22-24-13.89-53.94-31.17-63-62.8C218.62,136.23,199.06,125.49,180.47,125.49Z"/>
        </g>
        <g class="cls-14">
          <path class="cls-15" d="M242.89,323c-15.07,0-28.69-3.38-40.63-10.1C188.77,305.3,177,293.22,167.33,277c-17.72-29.7-25.68-67.9-31.5-95.79-1.45-6.93-2.81-13.48-4.14-18.93C126,138.84,143,123,161.2,118.19a52.57,52.57,0,0,1,37.38,4c13.13,6.84,22.56,19.18,27.27,35.67,9.83,34.35,42.44,53.2,68.64,68.34,24.59,14.2,44,25.42,39.24,43.86-9.89,38.16-75.46,51.78-76.12,51.91h0A111.3,111.3,0,0,1,242.89,323ZM175,117.13a52.91,52.91,0,0,0-13.58,1.77c-17.87,4.72-34.55,20.25-29,43.19,1.32,5.46,2.69,12,4.14,18.95,5.81,27.84,13.76,66,31.42,95.56,21.05,35.29,50.33,49.89,89.5,44.65,1.19-.24,65.81-13.82,75.55-51.38,4.64-17.89-14.57-29-38.9-43-26.32-15.2-59.07-34.13-69-68.77C216.81,128.91,195.36,117.13,175,117.13Z"/>
        </g>
        <g class="cls-16">
          <path class="cls-17" d="M243.32,332.61c-16.38,0-31.18-3.68-44.16-11-14.65-8.24-27.42-21.37-37.95-39-19.27-32.28-27.93-73.81-34.25-104.13-1.57-7.54-3.06-14.66-4.5-20.59-6.18-25.43,12.28-42.64,32.05-47.86a57.18,57.18,0,0,1,40.61,4.35c14.26,7.43,24.5,20.83,29.62,38.75C235.43,190.5,270.9,211,299.4,227.46c26.72,15.43,47.82,27.62,42.64,47.63-5.62,21.69-27.84,35.88-45.48,44a191.78,191.78,0,0,1-37.25,12.45h0A120.92,120.92,0,0,1,243.32,332.61ZM169.47,108.78a57.8,57.8,0,0,0-14.79,1.92c-19.44,5.14-37.61,22-31.54,47,1.44,5.94,2.93,13.06,4.5,20.61,6.32,30.27,15,71.73,34.17,103.91,22.9,38.39,54.75,54.28,97.37,48.57,1.24-.25,71.58-15,82.18-55.9,5.05-19.49-15.85-31.56-42.31-46.85-28.61-16.53-64.22-37.1-75-74.74C215,121.59,191.66,108.78,169.47,108.78Z"/>
        </g>
        <g class="cls-18">
          <path class="cls-19" d="M243.74,342.22c-17.68,0-33.66-4-47.68-11.85-15.82-8.9-29.61-23.08-41-42.14-20.81-34.88-30.16-79.73-37-112.48-1.7-8.15-3.31-15.84-4.86-22.24-6.67-27.45,13.25-46,34.58-51.65a61.72,61.72,0,0,1,43.85,4.69c15.39,8,26.45,22.49,32,41.84,11.54,40.39,49.87,62.53,80.67,80.32,28.84,16.67,51.63,29.84,46,51.41-6.07,23.42-30.06,38.73-49.11,47.46A208,208,0,0,1,261,341h0A128.64,128.64,0,0,1,243.74,342.22ZM164,100.43a62.61,62.61,0,0,0-16,2.07c-21,5.56-40.67,23.84-34.1,50.85,1.55,6.41,3.16,14.11,4.86,22.26,6.82,32.71,16.16,77.5,36.91,112.27,24.76,41.49,59.18,58.67,105.24,52.5,1.26-.26,77.35-16.21,88.81-60.42,5.47-21.09-17.12-34.14-45.73-50.67-30.9-17.85-69.35-40.07-81-80.72C213.19,114.28,188,100.43,164,100.43Z"/>
        </g>
        <g class="cls-20">
          <path class="cls-21" d="M244.17,351.84c-19,0-36.15-4.26-51.2-12.73-17-9.56-31.8-24.78-44-45.26-22.34-37.46-32.39-85.64-39.73-120.82-1.83-8.75-3.55-17-5.22-23.9-7.16-29.46,14.22-49.39,37.12-55.44a66.3,66.3,0,0,1,47.07,5c16.53,8.62,28.4,24.15,34.34,44.92,12.41,43.41,53.59,67.2,86.68,86.32,31,17.9,55.45,32,49.44,55.19-6.51,25.13-32.27,41.58-52.73,50.95a223,223,0,0,1-43.21,14.45h0A139.67,139.67,0,0,1,244.17,351.84ZM158.47,92.07a67.37,67.37,0,0,0-17.19,2.23c-22.61,6-43.73,25.64-36.67,54.68,1.67,6.89,3.4,15.16,5.22,23.92,7.33,35.14,17.37,83.26,39.67,120.63,26.6,44.58,63.6,63,113.1,56.41a223.46,223.46,0,0,0,43.07-14.41C326,326.22,351.59,309.89,358,285c5.88-22.69-18.4-36.72-49.14-54.48-33.19-19.18-74.5-43-87-86.7C211.38,107,184.26,92.07,158.47,92.07Z"/>
        </g>
        <g class="cls-22">
          <path class="cls-23" d="M244.6,361.45c-20.3,0-38.64-4.55-54.73-13.6-18.16-10.21-34-26.49-47-48.38-23.89-40-34.64-91.55-42.48-129.17-2-9.35-3.8-18.19-5.59-25.55-3.4-14-.94-27.24,7.13-38.2,7.32-9.94,18.87-17.41,32.54-21a70.8,70.8,0,0,1,50.3,5.38c17.66,9.21,30.34,25.81,36.69,48,13.27,46.43,57.31,71.87,92.7,92.31,33.1,19.13,59.25,34.23,52.84,59-7,26.86-34.49,44.44-56.36,54.45a239.29,239.29,0,0,1-46.19,15.45h0A148.87,148.87,0,0,1,244.6,361.45ZM153,83.72a72.18,72.18,0,0,0-18.39,2.38c-24.19,6.4-46.79,27.43-39.24,58.51,1.79,7.37,3.64,16.21,5.59,25.57,7.84,37.57,18.57,89,42.41,129,28.45,47.68,68,67.42,121,60.33a237.84,237.84,0,0,0,46.07-15.4c21.74-10,49.11-27.43,56-54.06,6.29-24.29-19.68-39.29-52.57-58.29-35.48-20.5-79.63-46-93-92.67C209.58,99.65,180.55,83.72,153,83.72Z"/>
        </g>
        <g class="cls-24">
          <path class="cls-25" d="M245,371.07c-21.6,0-41.12-4.84-58.25-14.48-19.32-10.87-36.17-28.2-50.07-51.49-25.43-42.63-36.87-97.47-45.22-137.52-2.08-10-4-19.37-6-27.2-3.62-14.93-1-29,7.58-40.65,7.79-10.58,20.09-18.52,34.63-22.37a75.4,75.4,0,0,1,53.52,5.73c18.8,9.8,32.3,27.47,39.05,51.09,14.14,49.45,61,76.54,98.71,98.31,17,9.81,33,19.08,43.61,28.95,11.75,11,15.77,21.7,12.64,33.78-7.41,28.59-36.71,47.29-60,57.95a254.48,254.48,0,0,1-49.18,16.45h0A158.52,158.52,0,0,1,245,371.07ZM147.47,75.36a76.93,76.93,0,0,0-19.59,2.54c-25.77,6.82-49.85,29.23-41.8,62.34C88,148.08,90,157.5,92,167.47c8.35,40,19.78,94.79,45.16,137.34,30.3,50.79,72.45,71.8,128.83,64.25a252.72,252.72,0,0,0,49.05-16.4c23.16-10.61,52.32-29.21,59.67-57.58,6.71-25.88-21-41.87-56-62.1-37.77-21.82-84.77-49-99-98.65C207.77,92.33,176.85,75.36,147.47,75.36Z"/>
        </g>
        <g class="cls-26">
          <path class="cls-27" d="M245.45,380.68c-22.91,0-43.61-5.13-61.77-15.35-20.5-11.53-38.36-29.9-53.11-54.61-27-45.21-39.11-103.39-48-145.86C80.4,154.29,78.32,144.31,76.3,136c-3.84-15.82-1.07-30.72,8-43.08,8.26-11.22,21.3-19.65,36.72-23.72a79.9,79.9,0,0,1,56.75,6.07c19.93,10.39,34.24,29.12,41.4,54.17,15,52.47,64.75,81.21,104.73,104.31,18,10.41,35,20.24,46.25,30.7,12.46,11.63,16.72,23,13.4,35.8-7.86,30.31-38.93,50.15-63.61,61.46a269.59,269.59,0,0,1-52.16,17.43h0A169.41,169.41,0,0,1,245.45,380.68ZM142,67a81.23,81.23,0,0,0-20.78,2.7c-27.36,7.23-52.91,31-44.37,66.16,2,8.32,4.1,18.31,6.31,28.88,8.85,42.44,21,100.56,47.91,145.7,32.15,53.89,76.86,76.18,136.69,68.18a269.64,269.64,0,0,0,52-17.41c24.57-11.25,55.51-31,63.31-61.1,7.12-27.48-22.23-44.44-59.4-65.92-20.1-11.61-42.88-24.77-62.14-41.38-22.11-19.09-36.13-39.77-42.83-63.23C206,85,173.15,67,142,67Z"/>
        </g>
        <g class="cls-28">
          <path class="cls-29" d="M245.88,390.3c-24.22,0-46.1-5.43-65.3-16.23-21.66-12.19-40.55-31.61-56.13-57.73C95.93,268.54,83.1,207,73.73,162.13,71.4,151,69.2,140.41,67.07,131.62,63,114.9,65.94,99.16,75.56,86.1,84.28,74.24,98.06,65.34,114.35,61a84.53,84.53,0,0,1,60,6.42c21,11,36.19,30.78,43.75,57.26C234,180.19,286.57,210.59,328.84,235c19,11,37,21.4,48.89,32.46,13.16,12.28,17.66,24.3,14.16,37.82-3.67,14.15-12.39,27.34-25.93,39.21-10.82,9.48-24.72,18.14-41.31,25.74a285.08,285.08,0,0,1-55.13,18.43h0A177.14,177.14,0,0,1,245.88,390.3ZM136.46,58.66a86,86,0,0,0-22,2.85c-28.94,7.65-56,32.81-46.93,70,2.13,8.79,4.33,19.35,6.66,30.52,9.36,44.88,22.18,106.33,50.66,154.06,34,57,81.28,80.57,144.56,72.1a285.08,285.08,0,0,0,55-18.4c26-11.91,58.7-32.78,67-64.63,7.54-29.08-23.51-47-62.82-69.73-21.25-12.27-45.33-26.19-65.69-43.75-23.38-20.18-38.19-42-45.28-66.84C204.15,77.7,169.45,58.66,136.46,58.66Z"/>
        </g>
        <g class="cls-30">
          <path class="cls-31" d="M246.3,399.92c-25.52,0-48.58-5.73-68.81-17.11C154.65,370,134.75,349.49,118.32,322,88.26,271.58,74.74,206.75,64.86,159.41c-2.45-11.78-4.77-22.9-7-32.16-4.28-17.62-1.19-34.21,8.94-48C76,66.79,90.49,57.41,107.66,52.87a89,89,0,0,1,63.21,6.76C193.06,71.2,209,92.07,217,120c16.72,58.51,72.19,90.55,116.75,116.3,20.08,11.6,39,22.55,51.54,34.21,13.87,12.94,18.61,25.6,14.92,39.84-3.87,14.91-13.06,28.81-27.33,41.32-11.4,10-26.05,19.12-43.54,27.13a301.11,301.11,0,0,1-58.11,19.43h0A188.1,188.1,0,0,1,246.3,399.92ZM131,50.3a90.74,90.74,0,0,0-23.18,3c-30.52,8.07-59,34.61-49.5,73.83,2.25,9.27,4.57,20.4,7,32.18,9.87,47.31,23.38,112.09,53.4,162.41,35.85,60.09,85.71,84.95,152.42,76a299.7,299.7,0,0,0,58-19.4c27.41-12.55,61.9-34.56,70.6-68.15,3.65-14.06-1.05-26.57-14.78-39.39-12.46-11.62-31.4-22.56-51.45-34.15-22.41-12.94-47.79-27.61-69.25-46.12-24.64-21.27-40.25-44.31-47.72-70.44C202.34,70.39,165.75,50.3,131,50.3Z"/>
        </g>
        <g class="cls-32">
          <path class="cls-33" d="M246.73,409.53c-26.83,0-51.07-6-72.34-18-24-13.5-44.93-35-62.2-64-31.6-53-45.82-121.13-56.2-170.9-2.58-12.39-5-24.08-7.39-33.82-4.49-18.51-1.24-35.94,9.4-50.41,9.66-13.13,24.92-23,43-27.76a93.63,93.63,0,0,1,66.44,7.11c23.32,12.17,40.08,34.1,48.47,63.43,17.58,61.52,75.91,95.21,122.77,122.29,21.1,12.19,41,23.71,54.18,36,14.57,13.6,19.55,26.9,15.67,41.86-4.06,15.67-13.72,30.29-28.71,43.43-12,10.5-27.39,20.1-45.78,28.52a315.51,315.51,0,0,1-61.09,20.43h0A197.41,197.41,0,0,1,246.73,409.53ZM125.46,42a95.55,95.55,0,0,0-24.38,3.16C69,53.6,39,81.52,49,122.77c2.37,9.74,4.81,21.45,7.39,33.83C66.78,206.34,81,274.47,112.56,327.37c37.69,63.19,90.13,89.34,160.28,79.94a315.27,315.27,0,0,0,61-20.39c28.82-13.2,65.09-36.35,74.25-71.67,3.83-14.8-1.11-28-15.56-41.45-13.1-12.22-33-23.73-54.1-35.91-23.55-13.6-50.24-29-72.8-48.49-25.9-22.35-42.31-46.58-50.17-74.05C200.53,63.07,162,42,125.46,42Z"/>
        </g>
        <g class="cls-34">
          <path class="cls-35" d="M247.16,419.15c-28.14,0-53.57-6.31-75.87-18.86-25.17-14.16-47.11-36.73-65.22-67.08C72.92,277.66,58,206.17,47.12,154c-2.71-13-5.27-25.26-7.75-35.48-4.71-19.41-1.31-37.68,9.85-52.85,10.14-13.76,26.14-24.1,45.06-29.1C117.64,30.37,143,33.08,163.94,44c24.46,12.76,42,35.76,50.83,66.51C233.22,175,294.4,210.39,343.56,238.79c22.13,12.79,43,24.86,56.82,37.72,15.27,14.25,20.5,28.19,16.43,43.87-4.26,16.44-14.39,31.76-30.11,45.54-12.57,11-28.72,21.08-48,29.91a331.75,331.75,0,0,1-64.08,21.43h0A206.92,206.92,0,0,1,247.16,419.15ZM120,33.59a100.31,100.31,0,0,0-25.58,3.32c-33.69,8.9-65.15,38.2-54.63,81.49,2.48,10.22,5,22.49,7.75,35.49C58.38,206.06,73.29,277.52,106.4,333,146,399.3,201,426.73,274.56,416.88a331.89,331.89,0,0,0,64-21.4c30.24-13.85,68.29-38.14,77.9-75.19,4-15.53-1.16-29.35-16.33-43.5-13.74-12.82-34.63-24.89-56.75-37.67-24.7-14.27-52.69-30.44-76.35-50.86-27.17-23.44-44.38-48.84-52.61-77.65C198.72,55.75,158.34,33.59,120,33.59Z"/>
        </g>
        <g class="cls-36">
          <path class="cls-37" d="M247.39,428.77a178.71,178.71,0,0,1-30.81-2.58A151.69,151.69,0,0,1,168.2,409c-26.35-14.82-49.31-38.43-68.26-70.19-34.69-58.14-50.29-133-61.69-187.59-2.83-13.6-5.51-26.44-8.11-37.14-4.93-20.3-1.37-39.42,10.31-55.28,10.6-14.41,27.34-25.22,47.14-30.45,24.44-6.46,51-3.62,72.89,7.79,25.59,13.35,44,37.41,53.18,69.6C233,173.32,297,210.32,348.46,240.05c23.17,13.38,45.05,26,59.47,39.47,16,14.91,21.44,29.49,17.19,45.9-4.46,17.19-15.06,33.22-31.51,47.64-13.15,11.53-30.05,22.06-50.23,31.3a345.7,345.7,0,0,1-67.06,22.42h0A219,219,0,0,1,247.39,428.77ZM114.46,25.24a105.25,105.25,0,0,0-26.79,3.47C52.41,38,19.47,68.71,30.48,114c2.6,10.7,5.28,23.54,8.11,37.14,11.39,54.61,27,129.4,61.65,187.49,41.4,69.38,99,98.1,176,87.78a346.84,346.84,0,0,0,67-22.4c31.65-14.49,71.49-39.92,81.54-78.71,4.22-16.27-1.22-30.74-17.09-45.55-14.39-13.42-36.25-26.06-59.4-39.43-25.85-14.94-55.15-31.86-79.91-53.23C240,162.59,221.94,136,213.32,105.86,196.91,48.44,154.64,25.24,114.46,25.24Z"/>
        </g>
        <g class="cls-38">
          <path class="cls-39" d="M247.8,438.39a186.17,186.17,0,0,1-32.17-2.7,157.32,157.32,0,0,1-66.06-27.89C182.09,431.28,223.8,443.26,278,436a362.51,362.51,0,0,0,70-23.39c33.06-15.15,74.68-41.71,85.18-82.24,4.41-17-1.27-32.12-17.86-47.6-15-14-37.87-27.22-62.05-41.19-27-15.6-57.6-33.28-83.46-55.59-29.69-25.63-48.5-53.39-57.5-84.87C191.19,27.47,129.44,7.71,81,20.52,44.13,30.25,9.71,62.3,21.21,109.66c2.72,11.18,5.52,24.59,8.48,38.8C42.17,208.29,59,288.79,97,349.74c-1.09-1.74-2.16-3.5-3.23-5.28C57.58,283.73,41.28,205.59,29.38,148.52c-3-14.2-5.76-27.62-8.47-38.78C15.76,88.54,19.48,68.57,31.67,52c11.07-15,28.55-26.34,49.22-31.8,25.52-6.75,53.27-3.78,76.13,8.14,26.72,13.94,45.92,39.07,55.53,72.68,20.18,70.58,87.07,109.22,140.82,140.27,24.2,14,47.05,27.19,62.11,41.24,16.68,15.56,22.39,30.79,17.95,47.91-4.66,17.95-15.73,34.69-32.91,49.75-13.73,12-31.38,23-52.46,32.7a362.08,362.08,0,0,1-70,23.41h0A226.9,226.9,0,0,1,247.8,438.39Z"/>
        </g>
        <g class="cls-40">
          <path class="cls-41" d="M248.22,448a193.83,193.83,0,0,1-33.54-2.82A165.38,165.38,0,0,1,162,426.51a178.9,178.9,0,0,1-41.82-32.95,246,246,0,0,1-32.49-43.48C49.91,286.77,32.92,205.29,20.51,145.8c-3.09-14.81-6-28.8-8.83-40.44-5.37-22.1-1.49-42.91,11.21-60.17C34.43,29.51,52.65,17.74,74.2,12.05a112.14,112.14,0,0,1,39.65-3.2,107.86,107.86,0,0,1,39.7,11.68c27.86,14.53,47.88,40.73,57.89,75.76,21,73.6,90.79,113.89,146.83,146.27,25.23,14.58,49.06,28.34,64.76,43,17.39,16.22,23.33,32.09,18.71,49.93-4.85,18.72-16.4,36.17-34.3,51.86-14.32,12.56-32.73,24-54.7,34.09a377.07,377.07,0,0,1-73,24.41h0A236.18,236.18,0,0,1,248.22,448ZM103.46,8.53a114.33,114.33,0,0,0-29.19,3.79C35.84,22.47,0,55.9,12,105.29c2.83,11.65,5.75,25.64,8.84,40.45,12.4,59.48,29.39,140.93,67.14,204.2,45.1,75.59,107.82,106.87,191.75,95.62a376.48,376.48,0,0,0,72.95-24.39c34.48-15.79,77.88-43.49,88.84-85.76,4.59-17.73-1.33-33.51-18.63-49.66-15.68-14.62-39.49-28.38-64.71-42.94-28.15-16.27-60.05-34.7-87-58-31-26.72-50.56-55.66-60-88.48C193.29,33.81,147.24,8.53,103.46,8.53Z"/>
        </g>
        <g class="cls-42">
          <path class="cls-43" d="M248.64,457.62a201.34,201.34,0,0,1-34.91-2.93A177.71,177.71,0,0,1,190.61,449c27.17,8.58,57.35,10.58,90.77,6.11a393,393,0,0,0,75.95-25.4c35.89-16.44,81.07-45.27,92.48-89.28,4.78-18.46-1.38-34.89-19.4-51.71C414.09,273.52,389.3,259.2,363.06,244c-29.3-16.92-62.51-36.11-90.57-60.32-32.22-27.8-52.63-57.92-62.39-92.08C187.24,11.66,120.19-9.79,67.57,4.12,27.56,14.69-9.81,49.5,2.68,100.93c2.95,12.12,6,26.68,9.2,42.1,12.91,61.91,30.6,146.69,69.89,212.55,20.82,34.89,45.24,60.71,73.59,77.62a187.5,187.5,0,0,1-40-32.24,256.73,256.73,0,0,1-33.82-45.25c-39.32-65.9-57-150.71-69.92-212.63-3.22-15.42-6.25-30-9.2-42.1C-3.14,78,.89,56.34,14.11,38.37c12-16.31,31-28.56,53.4-34.49A117.24,117.24,0,0,1,108.78.55a112.39,112.39,0,0,1,41.31,12.16c29,15.12,49.82,42.39,60.24,78.85,21.91,76.61,94.51,118.56,152.85,152.26,26.26,15.17,51.06,29.5,67.4,44.74C448.67,305.44,454.86,322,450,340.51c-5,19.48-17.05,37.64-35.69,54-14.9,13.06-34.06,25-56.92,35.47a393.81,393.81,0,0,1-76,25.41h0A247.59,247.59,0,0,1,248.64,457.62Z"/>
        </g>
      </g>
      <path class="cls-44" d="M241,284.73c-21,0-37.62-10.1-49.57-30.13-11.53-19.32-16.7-44.1-20.47-62.19-.94-4.49-1.82-8.72-2.67-12.23-3.8-15.64,7.51-26.21,19.62-29.41,16.28-4.3,36.19,3.31,42.73,26.18,6.27,21.94,27.23,34.05,44.07,43.77,15.54,9,29,16.74,25.73,29.21-6.52,25.14-48.06,33.77-49.82,34.13h-.07A71.67,71.67,0,0,1,241,284.73ZM197,151.55a33.6,33.6,0,0,0-8.58,1.12c-11.22,3-21.7,12.69-18.21,27,.86,3.55,1.74,7.8,2.68,12.29,7.63,36.56,20.38,97.73,77.38,90.13,1.33-.28,42.14-9,48.28-32.69,2.86-11-9.35-18.09-24.81-27-17.15-9.9-38.48-22.23-45-44.93C223.48,159,209.89,151.55,197,151.55Z"/>
    </g>
  </g>
</svg>
