<svg xmlns="http://www.w3.org/2000/svg" viewBox="0 0 20 19">
  <g id="Layer_2" data-name="Layer 2">
    <g id="Layer_1-2" data-name="Layer 1">
      <g id="Iconly_Light-outline_Wallet" data-name="Iconly Light-outline Wallet">
        <g id="Wallet-6">
          <path id="Wallet-7" d="M5.81,19A5.89,5.89,0,0,1,0,13.06V5.94A5.89,5.89,0,0,1,5.81,0h8.38A5.89,5.89,0,0,1,20,5.94v7.12A5.89,5.89,0,0,1,14.19,19ZM1.45,5.94v7.12a4.42,4.42,0,0,0,4.36,4.45h8.38a4.42,4.42,0,0,0,4.36-4.45v-.28h-3.2A3.41,3.41,0,0,1,15.17,6h3.38v0a4.42,4.42,0,0,0-4.36-4.45H5.81A4.42,4.42,0,0,0,1.45,5.94Zm12,3.43a1.91,1.91,0,0,0,1.73,1.92h3.35V7.45h-3.2a1.9,1.9,0,0,0-1.88,1.92Zm2,.68a.74.74,0,0,1-.1-1.48h.4a.75.75,0,0,1,.74.75.77.77,0,0,1-.64.73h-.4ZM5.12,6a.73.73,0,0,1-.73-.75A.75.75,0,0,1,5,4.5h5.33A.74.74,0,0,1,10.45,6H5.12Z"/>
        </g>
      </g>
    </g>
  </g>
</svg>
