<svg xmlns="http://www.w3.org/2000/svg" viewBox="0 0 436.16 358.4">
  <defs>
    <style>
      .cls-1 {
        fill: #16110d;
      }

      .cls-2 {
        fill: #1677ff;
      }

      .cls-3 {
        fill: #15100c;
      }

      .cls-4 {
        fill: #140f0c;
      }

      .cls-5 {
        fill: #92c9ff;
      }
    </style>
  </defs>
  <g id="Layer_2" data-name="Layer 2">
    <g id="content">
      <g id="_1" data-name="1">
        <g>
          <g>
            <path class="cls-1" d="M83.29,294.12c1.6.93,1.6,2.44,0,3.37a6.5,6.5,0,0,1-5.83,0c-1.61-.93-1.61-2.44,0-3.37A6.5,6.5,0,0,1,83.29,294.12Z"/>
            <ellipse class="cls-1" cx="95.6" cy="287.02" rx="4.12" ry="2.38"/>
            <ellipse class="cls-1" cx="110.82" cy="278.23" rx="4.12" ry="2.38"/>
            <path class="cls-1" d="M68.06,285.33c1.61.93,1.61,2.44,0,3.37a6.42,6.42,0,0,1-5.82,0c-1.61-.93-1.61-2.44,0-3.37A6.48,6.48,0,0,1,68.06,285.33Z"/>
            <path class="cls-1" d="M83.29,276.54c1.6.93,1.6,2.44,0,3.37a6.5,6.5,0,0,1-5.83,0c-1.61-.93-1.61-2.44,0-3.37A6.5,6.5,0,0,1,83.29,276.54Z"/>
            <path class="cls-1" d="M98.51,267.75c1.61.93,1.61,2.44,0,3.37a6.48,6.48,0,0,1-5.82,0c-1.61-.93-1.61-2.44,0-3.37A6.48,6.48,0,0,1,98.51,267.75Z"/>
            <ellipse class="cls-1" cx="49.92" cy="278.23" rx="4.12" ry="2.38"/>
            <ellipse class="cls-1" cx="65.15" cy="269.44" rx="4.12" ry="2.38"/>
            <ellipse class="cls-1" cx="80.37" cy="260.64" rx="4.12" ry="2.38"/>
            <path class="cls-1" d="M37.61,267.75c1.61.93,1.61,2.44,0,3.37a6.48,6.48,0,0,1-5.82,0c-1.61-.93-1.61-2.44,0-3.37A6.48,6.48,0,0,1,37.61,267.75Z"/>
            <path class="cls-1" d="M52.84,259c1.6.93,1.6,2.44,0,3.37a6.5,6.5,0,0,1-5.83,0c-1.61-.93-1.61-2.44,0-3.37A6.5,6.5,0,0,1,52.84,259Z"/>
            <path class="cls-1" d="M68.06,250.17c1.61.93,1.61,2.44,0,3.37a6.48,6.48,0,0,1-5.82,0c-1.61-.93-1.61-2.44,0-3.37A6.48,6.48,0,0,1,68.06,250.17Z"/>
            <path class="cls-1" d="M22.39,259c1.6.93,1.6,2.44,0,3.37a6.5,6.5,0,0,1-5.83,0c-1.6-.93-1.6-2.44,0-3.37A6.5,6.5,0,0,1,22.39,259Z"/>
            <path class="cls-1" d="M37.61,250.17c1.61.93,1.61,2.44,0,3.37a6.48,6.48,0,0,1-5.82,0c-1.61-.93-1.61-2.44,0-3.37A6.48,6.48,0,0,1,37.61,250.17Z"/>
            <path class="cls-1" d="M52.84,241.38c1.6.93,1.6,2.44,0,3.37a6.5,6.5,0,0,1-5.83,0c-1.61-.93-1.61-2.44,0-3.37A6.5,6.5,0,0,1,52.84,241.38Z"/>
            <path class="cls-1" d="M7,250.08c1.61.93,1.61,2.44,0,3.36a6.42,6.42,0,0,1-5.82,0c-1.61-.92-1.61-2.43,0-3.36A6.42,6.42,0,0,1,7,250.08Z"/>
            <path class="cls-1" d="M22.25,241.29c1.61.93,1.61,2.43,0,3.36a6.42,6.42,0,0,1-5.82,0c-1.61-.93-1.61-2.43,0-3.36A6.42,6.42,0,0,1,22.25,241.29Z"/>
            <path class="cls-1" d="M37.48,232.5c1.61.93,1.61,2.43,0,3.36a6.42,6.42,0,0,1-5.82,0c-1.61-.93-1.61-2.43,0-3.36A6.42,6.42,0,0,1,37.48,232.5Z"/>
            <path class="cls-1" d="M7,232.5c1.61.93,1.61,2.43,0,3.36a6.42,6.42,0,0,1-5.82,0c-1.61-.93-1.61-2.43,0-3.36A6.42,6.42,0,0,1,7,232.5Z"/>
            <path class="cls-1" d="M22.25,223.71c1.61.93,1.61,2.43,0,3.36a6.42,6.42,0,0,1-5.82,0c-1.61-.93-1.61-2.43,0-3.36A6.42,6.42,0,0,1,22.25,223.71Z"/>
            <path class="cls-1" d="M221,354.34c1.61.93,1.61,2.44,0,3.36a6.42,6.42,0,0,1-5.82,0c-1.61-.92-1.61-2.43,0-3.36A6.42,6.42,0,0,1,221,354.34Z"/>
            <path class="cls-1" d="M236.26,345.55c1.61.93,1.61,2.43,0,3.36a6.42,6.42,0,0,1-5.82,0c-1.61-.93-1.61-2.43,0-3.36A6.42,6.42,0,0,1,236.26,345.55Z"/>
            <path class="cls-1" d="M251.49,336.76c1.61.93,1.61,2.43,0,3.36a6.42,6.42,0,0,1-5.82,0c-1.61-.93-1.61-2.43,0-3.36A6.42,6.42,0,0,1,251.49,336.76Z"/>
            <path class="cls-1" d="M266.71,328c1.61.93,1.61,2.43,0,3.36a6.42,6.42,0,0,1-5.82,0c-1.61-.93-1.61-2.43,0-3.36A6.42,6.42,0,0,1,266.71,328Z"/>
            <path class="cls-1" d="M281.94,319.18c1.61.93,1.61,2.43,0,3.36a6.42,6.42,0,0,1-5.82,0c-1.61-.93-1.61-2.43,0-3.36A6.42,6.42,0,0,1,281.94,319.18Z"/>
            <path class="cls-1" d="M190.59,354.34c1.61.93,1.61,2.44,0,3.36a6.42,6.42,0,0,1-5.82,0c-1.61-.92-1.61-2.43,0-3.36A6.42,6.42,0,0,1,190.59,354.34Z"/>
            <path class="cls-1" d="M205.81,345.55c1.61.93,1.61,2.43,0,3.36a6.42,6.42,0,0,1-5.82,0c-1.61-.93-1.61-2.43,0-3.36A6.42,6.42,0,0,1,205.81,345.55Z"/>
            <path class="cls-1" d="M221,336.76c1.61.93,1.61,2.43,0,3.36a6.42,6.42,0,0,1-5.82,0c-1.61-.93-1.61-2.43,0-3.36A6.42,6.42,0,0,1,221,336.76Z"/>
            <path class="cls-1" d="M236.26,328c1.61.93,1.61,2.43,0,3.36a6.42,6.42,0,0,1-5.82,0c-1.61-.93-1.61-2.43,0-3.36A6.42,6.42,0,0,1,236.26,328Z"/>
            <path class="cls-1" d="M251.49,319.18c1.61.93,1.61,2.43,0,3.36a6.42,6.42,0,0,1-5.82,0c-1.61-.93-1.61-2.43,0-3.36A6.42,6.42,0,0,1,251.49,319.18Z"/>
            <path class="cls-1" d="M266.71,310.39c1.61.93,1.61,2.43,0,3.36a6.42,6.42,0,0,1-5.82,0c-1.61-.93-1.61-2.43,0-3.36A6.42,6.42,0,0,1,266.71,310.39Z"/>
            <ellipse class="cls-1" cx="172.45" cy="347.23" rx="4.12" ry="2.38"/>
            <path class="cls-1" d="M190.59,336.76c1.61.93,1.61,2.44,0,3.36a6.42,6.42,0,0,1-5.82,0c-1.61-.92-1.61-2.43,0-3.36A6.42,6.42,0,0,1,190.59,336.76Z"/>
            <path class="cls-1" d="M205.81,328c1.61.93,1.61,2.43,0,3.36a6.42,6.42,0,0,1-5.82,0c-1.61-.93-1.61-2.43,0-3.36A6.42,6.42,0,0,1,205.81,328Z"/>
            <path class="cls-1" d="M221,319.18c1.61.93,1.61,2.43,0,3.36a6.42,6.42,0,0,1-5.82,0c-1.61-.93-1.61-2.43,0-3.36A6.42,6.42,0,0,1,221,319.18Z"/>
            <path class="cls-1" d="M236.26,310.39c1.61.93,1.61,2.43,0,3.36a6.42,6.42,0,0,1-5.82,0c-1.61-.93-1.61-2.43,0-3.36A6.42,6.42,0,0,1,236.26,310.39Z"/>
            <path class="cls-1" d="M251.49,301.6c1.61.93,1.61,2.43,0,3.36a6.42,6.42,0,0,1-5.82,0c-1.61-.93-1.61-2.43,0-3.36A6.42,6.42,0,0,1,251.49,301.6Z"/>
            <path class="cls-1" d="M160.14,336.76c1.61.93,1.61,2.44,0,3.36a6.42,6.42,0,0,1-5.82,0c-1.61-.92-1.61-2.43,0-3.36A6.42,6.42,0,0,1,160.14,336.76Z"/>
            <ellipse class="cls-1" cx="172.45" cy="329.65" rx="4.12" ry="2.38"/>
            <path class="cls-1" d="M190.59,319.18c1.61.93,1.61,2.43,0,3.36a6.42,6.42,0,0,1-5.82,0c-1.61-.93-1.61-2.43,0-3.36A6.42,6.42,0,0,1,190.59,319.18Z"/>
            <path class="cls-1" d="M205.81,310.39c1.61.93,1.61,2.43,0,3.36a6.42,6.42,0,0,1-5.82,0C198.38,312.82,204.21,309.46,205.81,310.39Z"/>
            <path class="cls-1" d="M215.22,301.6a6.42,6.42,0,0,1,5.82,0c1.61.93,1.61,2.43,0,3.36a6.42,6.42,0,0,1-5.82,0c-1.61-.93-1.61-2.43,0-3.36Z"/>
            <path class="cls-1" d="M230.44,292.81a6.42,6.42,0,0,1,5.82,0c1.61.93,1.61,2.43,0,3.36a6.42,6.42,0,0,1-5.82,0c-1.61-.93-1.61-2.43,0-3.36Z"/>
            <path class="cls-1" d="M144.78,327.88c1.61.93,1.61,2.43,0,3.36a6.42,6.42,0,0,1-5.82,0c-1.61-.93-1.61-2.43,0-3.36A6.42,6.42,0,0,1,144.78,327.88Z"/>
            <path class="cls-1" d="M160,319.09c1.61.93,1.61,2.43,0,3.36a6.44,6.44,0,0,1-5.83,0c-1.6-.93-1.6-2.43,0-3.36A6.44,6.44,0,0,1,160,319.09Z"/>
            <path class="cls-1" d="M175.23,310.3c1.61.93,1.61,2.43,0,3.36a6.42,6.42,0,0,1-5.82,0c-1.61-.93-1.61-2.43,0-3.36A6.42,6.42,0,0,1,175.23,310.3Z"/>
            <ellipse class="cls-1" cx="126.65" cy="320.77" rx="4.12" ry="2.38"/>
            <path class="cls-1" d="M144.78,310.3c1.61.93,1.61,2.43,0,3.36a6.42,6.42,0,0,1-5.82,0c-1.61-.93-1.61-2.43,0-3.36A6.42,6.42,0,0,1,144.78,310.3Z"/>
            <path class="cls-1" d="M160,301.51c1.61.93,1.61,2.43,0,3.36a6.44,6.44,0,0,1-5.83,0c-1.6-.93-1.6-2.43,0-3.36A6.44,6.44,0,0,1,160,301.51Z"/>
            <path class="cls-1" d="M114.33,310.3c1.61.93,1.61,2.43,0,3.36a6.42,6.42,0,0,1-5.82,0c-1.61-.93-1.61-2.43,0-3.36A6.42,6.42,0,0,1,114.33,310.3Z"/>
            <path class="cls-1" d="M129.56,301.51c1.61.93,1.61,2.43,0,3.36a6.44,6.44,0,0,1-5.83,0c-1.6-.93-1.6-2.43,0-3.36A6.44,6.44,0,0,1,129.56,301.51Z"/>
            <path class="cls-1" d="M144.78,292.72c1.61.93,1.61,2.43,0,3.36a6.42,6.42,0,0,1-5.82,0c-1.61-.93-1.61-2.43,0-3.36A6.42,6.42,0,0,1,144.78,292.72Z"/>
            <path class="cls-1" d="M99.11,301.51c1.61.93,1.61,2.43,0,3.36a6.44,6.44,0,0,1-5.83,0c-1.6-.93-1.6-2.43,0-3.36A6.44,6.44,0,0,1,99.11,301.51Z"/>
            <path class="cls-1" d="M114.33,292.72c1.61.93,1.61,2.43,0,3.36a6.42,6.42,0,0,1-5.82,0c-1.61-.93-1.61-2.43,0-3.36A6.42,6.42,0,0,1,114.33,292.72Z"/>
            <path class="cls-1" d="M129.56,283.93c1.61.93,1.61,2.43,0,3.36a6.44,6.44,0,0,1-5.83,0c-1.6-.93-1.6-2.43,0-3.36A6.44,6.44,0,0,1,129.56,283.93Z"/>
            <path class="cls-1" d="M419,292.92c1.61.93,1.61,2.44,0,3.37a6.48,6.48,0,0,1-5.82,0c-1.61-.93-1.61-2.44,0-3.37A6.48,6.48,0,0,1,419,292.92Z"/>
            <ellipse class="cls-1" cx="431.33" cy="285.81" rx="4.12" ry="2.38"/>
            <path class="cls-1" d="M388.56,292.92c1.61.93,1.61,2.44,0,3.37a6.48,6.48,0,0,1-5.82,0c-1.61-.93-1.61-2.44,0-3.37A6.48,6.48,0,0,1,388.56,292.92Z"/>
            <path class="cls-1" d="M403.79,284.13c1.6.93,1.6,2.44,0,3.37a6.5,6.5,0,0,1-5.83,0c-1.6-.93-1.6-2.44,0-3.37A6.5,6.5,0,0,1,403.79,284.13Z"/>
            <path class="cls-1" d="M419,275.34c1.61.93,1.61,2.44,0,3.37a6.48,6.48,0,0,1-5.82,0c-1.61-.93-1.61-2.44,0-3.37A6.42,6.42,0,0,1,419,275.34Z"/>
            <path class="cls-1" d="M434.24,266.55c1.61.93,1.61,2.44,0,3.37a6.5,6.5,0,0,1-5.83,0c-1.6-.93-1.6-2.44,0-3.37A6.44,6.44,0,0,1,434.24,266.55Z"/>
            <ellipse class="cls-1" cx="370.43" cy="285.81" rx="4.12" ry="2.38"/>
            <path class="cls-1" d="M388.56,275.34c1.61.93,1.61,2.44,0,3.37a6.48,6.48,0,0,1-5.82,0c-1.61-.93-1.61-2.44,0-3.37A6.42,6.42,0,0,1,388.56,275.34Z"/>
            <path class="cls-1" d="M403.79,266.55c1.6.93,1.6,2.44,0,3.37a6.5,6.5,0,0,1-5.83,0c-1.6-.93-1.6-2.44,0-3.37A6.44,6.44,0,0,1,403.79,266.55Z"/>
            <path class="cls-1" d="M291.37,310.52a6.42,6.42,0,0,1,5.82,0c1.61.93,1.62,2.43,0,3.36a6.45,6.45,0,0,1-5.82,0C289.77,313,289.76,311.45,291.37,310.52Z"/>
            <path class="cls-1" d="M312.44,305.08a6.5,6.5,0,0,1-5.83,0c-1.6-.93-1.6-2.44,0-3.37a6.5,6.5,0,0,1,5.83,0c1.6.93,1.6,2.44,0,3.37S314,304.15,312.44,305.08Z"/>
            <path class="cls-1" d="M327.66,292.92c1.61.93,1.61,2.44,0,3.37a6.48,6.48,0,0,1-5.82,0c-1.61-.93-1.61-2.44,0-3.37A6.48,6.48,0,0,1,327.66,292.92Z"/>
            <path class="cls-1" d="M342.89,284.13c1.6.93,1.6,2.44,0,3.37a6.5,6.5,0,0,1-5.83,0c-1.6-.93-1.6-2.44,0-3.37A6.5,6.5,0,0,1,342.89,284.13Z"/>
            <path class="cls-1" d="M358.11,275.34c1.61.93,1.61,2.44,0,3.37a6.48,6.48,0,0,1-5.82,0c-1.61-.93-1.61-2.44,0-3.37A6.42,6.42,0,0,1,358.11,275.34Z"/>
            <path class="cls-1" d="M373.34,266.55c1.6.93,1.6,2.44,0,3.37a6.5,6.5,0,0,1-5.83,0c-1.6-.93-1.6-2.44,0-3.37A6.5,6.5,0,0,1,373.34,266.55Z"/>
            <path class="cls-1" d="M388.56,257.76c1.61.93,1.61,2.44,0,3.37a6.48,6.48,0,0,1-5.82,0c-1.61-.93-1.61-2.44,0-3.37A6.42,6.42,0,0,1,388.56,257.76Z"/>
            <path class="cls-1" d="M276.14,301.73a6.44,6.44,0,0,1,5.83,0c1.61.93,1.61,2.43,0,3.36a6.47,6.47,0,0,1-5.83,0C274.54,304.16,274.54,302.66,276.14,301.73Z"/>
            <path class="cls-1" d="M297.21,292.92c1.61.93,1.61,2.44,0,3.37a6.48,6.48,0,0,1-5.82,0c-1.61-.93-1.61-2.44,0-3.37A6.48,6.48,0,0,1,297.21,292.92Z"/>
            <path class="cls-1" d="M312.44,284.13c1.6.93,1.6,2.44,0,3.37a6.5,6.5,0,0,1-5.83,0c-1.6-.93-1.6-2.44,0-3.37A6.5,6.5,0,0,1,312.44,284.13Z"/>
            <path class="cls-1" d="M327.66,275.34c1.61.93,1.61,2.44,0,3.37a6.48,6.48,0,0,1-5.82,0c-1.61-.93-1.61-2.44,0-3.37A6.42,6.42,0,0,1,327.66,275.34Z"/>
            <path class="cls-1" d="M342.89,266.55c1.6.93,1.6,2.44,0,3.37a6.5,6.5,0,0,1-5.83,0c-1.6-.93-1.6-2.44,0-3.37A6.5,6.5,0,0,1,342.89,266.55Z"/>
            <ellipse class="cls-1" cx="355.2" cy="259.44" rx="4.12" ry="2.38"/>
            <path class="cls-1" d="M373.34,249c1.6.93,1.6,2.44,0,3.36a6.44,6.44,0,0,1-5.83,0c-1.6-.92-1.6-2.43,0-3.36A6.44,6.44,0,0,1,373.34,249Z"/>
            <path class="cls-1" d="M260.92,292.94a6.42,6.42,0,0,1,5.82,0c1.61.93,1.62,2.43,0,3.36a6.45,6.45,0,0,1-5.82,0C259.32,295.37,259.31,293.87,260.92,292.94Z"/>
            <path class="cls-1" d="M282,284.13c1.6.93,1.6,2.44,0,3.37a6.5,6.5,0,0,1-5.83,0c-1.6-.93-1.6-2.44,0-3.37A6.5,6.5,0,0,1,282,284.13Z"/>
            <path class="cls-1" d="M297.21,275.34c1.61.93,1.61,2.44,0,3.37a6.48,6.48,0,0,1-5.82,0c-1.61-.93-1.61-2.44,0-3.37A6.42,6.42,0,0,1,297.21,275.34Z"/>
            <path class="cls-1" d="M312.44,266.55c1.6.93,1.6,2.44,0,3.37a6.5,6.5,0,0,1-5.83,0c-1.6-.93-1.6-2.44,0-3.37A6.5,6.5,0,0,1,312.44,266.55Z"/>
            <path class="cls-1" d="M327.66,257.76c1.61.93,1.61,2.44,0,3.37a6.48,6.48,0,0,1-5.82,0c-1.61-.93-1.61-2.44,0-3.37A6.42,6.42,0,0,1,327.66,257.76Z"/>
            <path class="cls-1" d="M342.89,249c1.6.93,1.6,2.44,0,3.36a6.44,6.44,0,0,1-5.83,0c-1.6-.92-1.6-2.43,0-3.36A6.44,6.44,0,0,1,342.89,249Z"/>
            <path class="cls-1" d="M358.11,240.18c1.61.93,1.61,2.44,0,3.36a6.42,6.42,0,0,1-5.82,0c-1.61-.92-1.61-2.43,0-3.36A6.42,6.42,0,0,1,358.11,240.18Z"/>
            <path class="cls-1" d="M245.69,284.14a6.44,6.44,0,0,1,5.83,0c1.61.93,1.61,2.43,0,3.36a6.45,6.45,0,0,1-5.82,0c-1.62-.93-1.62-2.43,0-3.37S244.09,285.08,245.69,284.14Z"/>
            <path class="cls-1" d="M266.76,275.34c1.61.93,1.61,2.44,0,3.37a6.48,6.48,0,0,1-5.82,0C259.33,277.78,265.15,274.42,266.76,275.34Z"/>
            <path class="cls-1" d="M282,266.55c1.61.93,1.61,2.44,0,3.37a6.5,6.5,0,0,1-5.83,0C274.56,269,280.38,265.63,282,266.55Z"/>
            <path class="cls-1" d="M297.21,257.76c1.61.93,1.61,2.44,0,3.37a6.48,6.48,0,0,1-5.82,0C289.78,260.2,295.6,256.83,297.21,257.76Z"/>
            <path class="cls-1" d="M312.44,249c1.6.93,1.6,2.44,0,3.36a6.44,6.44,0,0,1-5.83,0C305,251.41,310.83,248,312.44,249Z"/>
            <path class="cls-1" d="M321.84,240.18a6.42,6.42,0,0,1,5.82,0c1.61.93,1.61,2.44,0,3.36a6.42,6.42,0,0,1-5.82,0c-1.61-.92-1.61-2.43,0-3.36Z"/>
            <path class="cls-1" d="M337.06,231.39a6.44,6.44,0,0,1,5.83,0c1.6.93,1.6,2.44,0,3.36a6.44,6.44,0,0,1-5.83,0c-1.6-.92-1.6-2.43,0-3.36Z"/>
          </g>
          <g>
            <g>
              <polygon class="cls-2" points="380.68 169.24 202.23 272.27 23.77 169.24 202.23 66.21 380.68 169.24"/>
              <polygon class="cls-2" points="23.77 169.24 23.77 211.1 202.23 314.13 202.23 272.27 23.77 169.24"/>
              <g>
                <polygon class="cls-3" points="380.68 169.24 380.68 211.1 202.23 314.13 202.23 272.27 380.68 169.24"/>
                <path class="cls-4" d="M383.25,167.76l-2.57-1.49-178.45-103-178.46,103-2.57,1.48v44.82l178.46,103,2.56,1.48,2.57-1.48L382,213.32l1.28-.74V167.76Zm-181-98.59L375.55,169.24l-80.73,46.61L202.23,269.3,28.91,169.24ZM26.34,209.61V173.69L199.66,273.75v35.93Zm351.78,0L204.79,309.68V273.75L378.12,173.69Z"/>
              </g>
              <g>
                <path class="cls-2" d="M202.23,66.21,89.79,131.13h0c-30.45,17.57-55.91-1.6-55.91-1.6-3.28,32.83,30.81,60.8,45.07,71a41.28,41.28,0,0,0,5.18,3.58l118.1,68.18,178.45-103Z"/>
                <path class="cls-5" d="M85.08,204.09l118.1,68.18,160.41-92.61L204.46,87.79,92,152.7h0a52,52,0,0,1-53.71-.16c8.74,22.42,30.81,40.27,41.59,48A41.28,41.28,0,0,0,85.08,204.09Z"/>
                <path class="cls-4" d="M202.22,275.23,82.85,206.31a43,43,0,0,1-5.51-3.8c-14.89-10.62-49.42-39.2-46-73.24l.45-4.52,3.64,2.72c1,.74,24.53,17.91,53.08,1.44L202.23,63.25l178.33,103a3.51,3.51,0,0,1,0,6.08ZM36.23,134c0,29.55,30.58,54.7,44.2,64.42a39,39,0,0,0,5,3.45l116.8,67.45L375.55,169.24,202.23,69.17,91.07,133.35C66.54,147.52,44.81,138.7,36.23,134Z"/>
              </g>
              <path class="cls-4" d="M220.88,105.78a24.9,24.9,0,0,1-12.23-3c-3.76-2.17-5.83-5.21-5.82-8.56s2.06-6.38,5.82-8.54l40.23-23.23c8.88-5.13,22.79-5.12,31.64,0,4.71,2.72,7.31,6.49,7.31,10.62s-2.6,7.9-7.31,10.61L254.83,98.56l-2.56-4.45L278,79.28c3.05-1.76,4.74-4,4.74-6.17S281,68.7,278,66.94c-7.18-4.14-19.32-4.15-26.51,0L211.21,90.17c-2.06,1.19-3.25,2.68-3.25,4.09s1.19,2.91,3.25,4.11c5.25,3,14.11,3,19.34,0l36.06-20.81L269.17,82l-36.05,20.81A24.81,24.81,0,0,1,220.88,105.78Z"/>
              <polygon class="cls-4" points="200.96 286.7 22.51 186.02 25.04 183.17 203.49 283.85 200.96 286.7"/>
              <polygon class="cls-4" points="200.95 303.02 22.49 200.44 25.05 197.62 203.5 300.19 200.95 303.02"/>
              <polygon class="cls-2" points="203.5 288.12 203.49 283.61 379.42 182.94 379.23 187.44 203.5 288.12"/>
              <polygon class="cls-2" points="203.5 301.81 203.49 297.31 379.42 196.64 379.23 201.13 203.5 301.81"/>
            </g>
            <g>
              <g>
                <path class="cls-2" d="M335.86,131.47l.37-24.93-10.93-.16c-.09-.12-.2-.23-.3-.35l-9.12,26.11-3.72-.06-9.35,12.61-40.9,16.18-57,5.45-41.48-6.88-38.29-32.35a32.56,32.56,0,0,1,.75-3.18l-11.29-21.06c-.13.16-.28.31-.41.47l-11.11-.16-.41,28.22c0,.34,0,.69,0,1v1.29l.16,2.1c1.36,15.94,12.44,31.76,33.33,44.23,45.19,27,119.08,28.05,165,2.4,21.25-11.86,32.78-27.35,34.6-43.25h0l.15-.51A44.58,44.58,0,0,0,335.86,131.47Z"/>
                <path class="cls-1" d="M221.31,204c-31.45,0-63.05-7.15-86.8-21.32-21-12.52-33.34-29.08-34.84-46.65L99.51,134l.47-34,12.75.19,2-2.38,2.58,3.57,11.88,22.18-.34,1.21c-.11.38-.21.77-.31,1.15l36.21,30.59L205,163.17l56.17-5.37,39.67-15.68,9.77-13.18,3.06.05,10.22-29.23,2.9,3.53,12.6.18-.41,27.9a46.76,46.76,0,0,1,0,7.45l-.11.67c-2.07,17.56-14.92,33.76-36.23,45.66C280.06,197.76,250.75,204,221.31,204ZM106.14,106.32l-.4,27.43.15,1.8c1.32,15.49,12.62,30.34,31.82,41.8,44.26,26.42,116.9,27.48,161.91,2.35,19.53-10.89,31.25-25.41,33-40.88l.16-.68a40.77,40.77,0,0,0,0-6.41l0-.3.33-21.81-6-.09-9,25.76-4.36-.06-8.93,12L262.21,164l-57.43,5.49-42.73-7.08-40.32-34.07.32-1.77c.13-.75.3-1.5.49-2.25L113,106.42Z"/>
              </g>
              <g>
                <path class="cls-1" d="M111.87,106.27c4.39,6.08,9.42,13,13.68,18.88,2.76-11.51,11.88-22.55,27.37-31.19C190.21,73.14,250.17,74,286.84,95.9c15.08,9,23.85,20.15,26.39,31.61L326,107.29a62.36,62.36,0,0,0-4-4.77c2.78,1.23,4.7,2.12,5.45,2.51l0,0c-3.71-3.66-33.31-46.3-33.31-46.3L226.58,41.9l-62.94,8.18L122.49,83.32l-2.9,13.06L115,97.93C111.28,101.22,114.49,102.72,111.87,106.27Z"/>
                <path class="cls-1" d="M311.82,135.59l-1.64-7.4c-2.45-11.1-11.07-21.33-24.94-29.61-35.76-21.34-94.44-22.19-130.79-1.9-14.25,7.95-23.19,18-25.87,29.19L127,132.45,123,127c-4.26-5.87-9.29-12.8-13.68-18.88L108,106.25l1.35-1.83a2.55,2.55,0,0,0,.56-2,7.8,7.8,0,0,1,3-6.78L114,95l2.9-1,2.76-12.41L162.37,47.1l64.39-8.37L296,56l.67,1c11.37,16.4,30.38,43.34,32.93,45.85l1.91,1.89-1.77,2.44,0,0ZM217.7,75.85c25.63,0,51.39,5.82,70.74,17.38,12.67,7.56,21.44,16.78,25.72,27l8-12.7c-.79-1-1.62-1.92-2.5-2.86L309.23,93.43l8.21,3.66c-8.69-11.93-21.62-30.49-25.21-35.65L226.4,45.07l-61.49,8-39.61,32-3.06,13.72-5.59,1.89c-.52.52-.52.76-.5,1.61a9.1,9.1,0,0,1-.59,3.77l8.94,12.35c4.42-10.44,13.61-19.74,26.91-27.16C169.82,81,193.71,75.85,217.7,75.85Z"/>
              </g>
              <path class="cls-2" d="M318.48,197.74l17.74-30.54L315.7,153.87l-.35-.23h0c-2.23-1.27-5.32-1.11-8.75.8-7,3.89-12.7,13.5-12.81,21.47-.05,3.52,1,6.13,2.8,7.61h0a5.55,5.55,0,0,0,1.05.68Z"/>
              <path class="cls-2" d="M284.14,84.65c35.46,21.16,35,54.63-1.08,74.75s-94,19.28-129.48-1.88-35-54.63,1.09-74.75S248.69,63.49,284.14,84.65Z"/>
              <g>
                <path class="cls-5" d="M137.92,55.41c-46,25.65-46.58,68.3-1.39,95.28s119.08,28,165,2.39S348.14,84.77,303,57.8,183.87,29.76,137.92,55.41Zm148.22,88.46c-37.29,20.82-97.25,19.95-133.92-1.94s-36.16-56.5,1.13-77.32,97.24-19.94,133.91,2S323.43,123.06,286.14,143.87Z"/>
                <path class="cls-1" d="M221.74,174.68c-31.46,0-63.06-7.14-86.8-21.32-22.86-13.64-35.29-31.7-35-50.86s13.23-36.85,36.47-49.82h0c46.74-26.09,122.18-25,168.15,2.44,22.86,13.64,35.29,31.71,35,50.86s-13.23,36.85-36.47,49.83C280.49,168.42,251.18,174.68,221.74,174.68ZM217.77,40c-28.35,0-56.57,6-78.33,18.18-21.21,11.84-33,27.63-33.27,44.46s11.1,33,32,45.42c44.27,26.41,116.91,27.47,161.92,2.35,21.21-11.84,33-27.63,33.27-44.47s-11.11-33-32-45.41C278.49,46.84,248.06,40,217.77,40Zm3.59,122c-25.63,0-51.38-5.82-70.73-17.37-18.73-11.18-28.93-26-28.7-41.79s10.85-30.3,29.89-40.93c38.11-21.26,99.58-20.37,137,2,18.73,11.18,28.92,26,28.69,41.79S306.71,136,287.66,146.6C269.24,156.88,245.35,162,221.36,162ZM218.14,52.66c-22.9,0-45.7,4.86-63.27,14.68-17,9.5-26.5,22.13-26.7,35.57s8.92,26.35,25.65,36.34c35.76,21.33,94.44,22.2,130.8,1.9h0c17-9.5,26.5-22.13,26.7-35.57s-8.92-26.35-25.66-36.34C267.19,58.22,242.61,52.66,218.14,52.66Z"/>
              </g>
              <g>
                <path class="cls-5" d="M221.07,101.83c12.65,7.55,12.48,19.5-.39,26.68s-33.55,6.88-46.21-.67-12.48-19.5.39-26.68S208.41,94.28,221.07,101.83Z"/>
                <path class="cls-1" d="M198.31,121.08c-9.16,0-18.35-2.12-25.43-6.35s-11-10-10.9-16.2,4.12-11.84,11.36-15.88c13.95-7.78,35.62-7.47,49.32.72h0c7.13,4.25,11,10,10.9,16.2s-4.12,11.84-11.36,15.88C215.46,119.21,206.9,121.08,198.31,121.08Zm-1.08-37.82c-7.54,0-15.06,1.61-20.84,4.84-5.22,2.91-8.12,6.65-8.17,10.52s2.73,7.7,7.85,10.76c11.78,7,31.12,7.31,43.09.62,5.21-2.91,8.11-6.64,8.16-10.52s-2.73-7.7-7.85-10.76C213.39,85.09,205.29,83.26,197.23,83.26Z"/>
              </g>
              <polygon class="cls-5" points="297.82 163.34 317.95 175.92 333.33 165.32 311.71 152.1 297.82 163.34"/>
              <path class="cls-1" d="M319.52,202.14l-23.59-15.32a7.65,7.65,0,0,1-1.34-.9c-2.59-2.15-4-5.72-3.92-10.06.14-9.1,6.46-19.71,14.41-24.14,4.31-2.4,8.5-2.68,11.82-.78l.56.36,23,14.89ZM312,156a8.31,8.31,0,0,0-3.87,1.19c-6,3.34-11.11,12-11.21,18.79,0,2.41.55,4.25,1.67,5.17l.75.47,18.1,11.75L332,168.19l-18-11.7A3.89,3.89,0,0,0,312,156Z"/>
              <path class="cls-2" d="M336.22,167.2c-2.22-1.18-5.23-1-8.58.88-7,3.88-12.69,13.49-12.81,21.47-.06,4,1.35,6.88,3.65,8.19h0L339.7,221l27.07-42.77Z"/>
              <polygon class="cls-5" points="319.54 175.92 345.68 189.99 363.62 176.39 332.04 166.21 319.54 175.92"/>
              <path class="cls-1" d="M340.4,225.71l-24-25.61c-2.9-1.59-4.8-5.58-4.73-10.6.14-9.1,6.47-19.71,14.41-24.15,4.12-2.29,8.17-2.64,11.44-1l33.8,12.41Zm-7.28-56.13a8.45,8.45,0,0,0-3.95,1.22c-6,3.34-11.12,11.94-11.22,18.79,0,2.69.72,4.67,2.07,5.44l19,21.22,23.17-36.62L334.77,170A3.61,3.61,0,0,0,333.12,169.58Z"/>
              <path class="cls-2" d="M386.43,197.7h0a6.66,6.66,0,0,0-1.26-.68l-15.71-17.65c-3.29-2.13-8-2-13.18.91C346.11,186,337.73,200,337.56,211.64c-.08,5.58,1.75,9.57,4.77,11.62h0a8.39,8.39,0,0,0,2,1l21.5,6.52a12.21,12.21,0,0,0,1.31.66L391,243.29l17.34-30.74Z"/>
              <polygon class="cls-5" points="345.68 189.99 390.98 220.18 404.7 210.08 366.77 178.21 348.6 185.94 345.68 189.99"/>
              <path class="cls-1" d="M392.27,247.4,342.9,227.05a10.19,10.19,0,0,1-2.31-1.21c-4.06-2.74-6.24-7.8-6.15-14.24.19-12.84,9.11-27.79,20.32-34,6-3.36,12-3.65,16.39-.81l41.33,34.83ZM364.32,181a13.73,13.73,0,0,0-6.52,2c-9.13,5.09-17,18.22-17.12,28.68-.06,4.27,1.15,7.45,3.4,9a6,6,0,0,0,1.26.65l44.41,17.87,14.47-25.67-36.6-31.63A6,6,0,0,0,364.32,181Z"/>
              <path class="cls-2" d="M428.63,225.81l-19.91-13-.37-.25h0c-2.23-1.28-5.32-1.12-8.75.8-7,3.88-12.7,13.5-12.81,21.47-.07,4.37,1.58,7.32,4.22,8.47l20.46,13.36Z"/>
              <polygon class="cls-5" points="392.09 220.96 413.53 235.25 425.49 223.69 404.22 211.79 392.09 220.96"/>
              <path class="cls-1" d="M410.51,259.74,389.3,245.91c-3.5-1.48-5.71-5.63-5.63-11.14.14-9.1,6.47-19.71,14.42-24.14,4.29-2.41,8.48-2.69,11.81-.79l.56.37,22.3,14.58ZM405,214.88a8.15,8.15,0,0,0-3.86,1.19c-6,3.34-11.12,11.94-11.22,18.79,0,2.87.81,4.91,2.35,5.58l18.11,11.78,14.12-25.38L407,215.41A3.92,3.92,0,0,0,405,214.88Z"/>
              <path class="cls-1" d="M431.09,223.56c-3.33-2-7.59-1.75-12,.7-8,4.44-14.29,15-14.42,24.15-.08,5,1.72,8.87,5.06,10.87a9.54,9.54,0,0,0,5,1.33,14.53,14.53,0,0,0,7-2c7.95-4.44,14.28-15,14.42-24.15C436.23,229.41,434.43,225.55,431.09,223.56Z"/>
              <g>
                <path class="cls-1" d="M285.52,86.41c-15.06,0-30.17-3.5-41.8-10.44-11.9-7.1-18.37-16.79-18.22-27.27s6.9-20,19-26.72C267.42,9.18,303,9.69,325.55,23.15h0c11.9,7.11,18.37,16.79,18.22,27.27s-6.9,20-19,26.73C313.68,83.33,299.62,86.41,285.52,86.41Zm-1.79-61.1c-12.08,0-24.09,2.51-33.15,7.56-8,4.49-12.52,10.18-12.6,16s4.22,11.65,12.14,16.37c18.43,11,49.83,11.46,68.56,1,8.05-4.49,12.53-10.18,12.61-16s-4.22-11.65-12.14-16.37h0C309.63,28.18,296.64,25.31,283.73,25.31Z"/>
                <path class="cls-5" d="M285.52,73.7c-15.06,0-30.17-3.5-41.8-10.44-11.9-7.1-18.37-16.79-18.22-27.27s6.9-20,19-26.72C267.42-3.53,303-3,325.55,10.44h0c11.9,7.11,18.37,16.79,18.22,27.27s-6.9,20-19,26.73C313.68,70.63,299.62,73.7,285.52,73.7Zm-1.79-61.1c-12.08,0-24.09,2.51-33.15,7.56-8,4.49-12.52,10.18-12.6,16s4.22,11.65,12.14,16.37c18.43,11,49.83,11.46,68.56,1,8.05-4.49,12.53-10.18,12.61-16s-4.22-11.65-12.14-16.37h0C309.63,15.47,296.64,12.6,283.73,12.6Z"/>
              </g>
            </g>
          </g>
        </g>
      </g>
    </g>
  </g>
</svg>
