<svg xmlns="http://www.w3.org/2000/svg" viewBox="0 0 49.49 76.33">
  <defs>
    <style>
      .cls-1 {
        fill: #16110d;
      }

      .cls-2 {
        fill: #1677ff;
      }

      .cls-3 {
        fill: #15100c;
      }

      .cls-4 {
        fill: #9cc9ff;
      }
    </style>
  </defs>
  <g id="Layer_2" data-name="Layer 2">
    <g id="content">
      <g id="_1" data-name="1">
        <g>
          <g>
            <path class="cls-1" d="M16.38,75.65a.3.3,0,0,1,0,.56,1,1,0,0,1-1,0c-.27-.15-.27-.4,0-.56A1.1,1.1,0,0,1,16.38,75.65Z"/>
            <path class="cls-1" d="M18.91,74.19c.27.16.27.41,0,.56a1,1,0,0,1-1,0c-.27-.15-.27-.4,0-.56A1.1,1.1,0,0,1,18.91,74.19Z"/>
            <path class="cls-1" d="M21.44,72.73c.27.16.27.41,0,.56a1.1,1.1,0,0,1-1,0c-.27-.15-.27-.4,0-.56A1.1,1.1,0,0,1,21.44,72.73Z"/>
            <path class="cls-1" d="M24,71.27c.27.15.27.4,0,.56a1.1,1.1,0,0,1-1,0,.3.3,0,0,1,0-.56A1.1,1.1,0,0,1,24,71.27Z"/>
            <ellipse class="cls-1" cx="26.02" cy="70.09" rx="0.68" ry="0.4"/>
            <path class="cls-1" d="M29,68.35c.27.15.27.4,0,.56a1.08,1.08,0,0,1-1,0c-.27-.16-.27-.41,0-.56A1,1,0,0,1,29,68.35Z"/>
            <ellipse class="cls-1" cx="31.08" cy="67.16" rx="0.68" ry="0.4"/>
            <path class="cls-1" d="M34.1,65.42a.3.3,0,0,1,0,.56,1,1,0,0,1-1,0c-.27-.15-.27-.4,0-.56A1.1,1.1,0,0,1,34.1,65.42Z"/>
            <ellipse class="cls-1" cx="36.14" cy="64.24" rx="0.68" ry="0.4"/>
            <ellipse class="cls-1" cx="10.83" cy="75.93" rx="0.68" ry="0.4"/>
            <path class="cls-1" d="M13.85,74.19a.3.3,0,0,1,0,.56,1,1,0,0,1-1,0c-.27-.15-.27-.4,0-.56A1.1,1.1,0,0,1,13.85,74.19Z"/>
            <ellipse class="cls-1" cx="15.89" cy="73.01" rx="0.68" ry="0.4"/>
            <path class="cls-1" d="M18.91,71.27c.27.15.27.4,0,.56a1.1,1.1,0,0,1-1,0c-.27-.16-.27-.41,0-.56A1.1,1.1,0,0,1,18.91,71.27Z"/>
            <ellipse class="cls-1" cx="20.96" cy="70.09" rx="0.68" ry="0.4"/>
            <path class="cls-1" d="M24,68.35c.27.15.27.4,0,.56a1.1,1.1,0,0,1-1,0,.3.3,0,0,1,0-.56A1,1,0,0,1,24,68.35Z"/>
            <path class="cls-1" d="M26.5,66.89c.27.15.27.4,0,.55a1,1,0,0,1-1,0,.29.29,0,0,1,0-.55A1,1,0,0,1,26.5,66.89Z"/>
            <path class="cls-1" d="M29,65.42c.27.16.27.41,0,.56a1,1,0,0,1-1,0c-.27-.15-.27-.4,0-.56A1.08,1.08,0,0,1,29,65.42Z"/>
            <path class="cls-1" d="M31.56,64c.27.16.27.41,0,.56a1,1,0,0,1-1,0c-.27-.15-.27-.4,0-.56A1.08,1.08,0,0,1,31.56,64Z"/>
            <path class="cls-1" d="M34.1,62.5a.3.3,0,0,1,0,.56,1.1,1.1,0,0,1-1,0c-.27-.15-.27-.4,0-.56A1.1,1.1,0,0,1,34.1,62.5Z"/>
            <ellipse class="cls-1" cx="8.3" cy="74.47" rx="0.68" ry="0.4"/>
            <ellipse class="cls-1" cx="10.83" cy="73.01" rx="0.68" ry="0.4"/>
            <path class="cls-1" d="M13.85,71.27a.3.3,0,0,1,0,.56,1.1,1.1,0,0,1-1,0c-.27-.16-.27-.41,0-.56A1.1,1.1,0,0,1,13.85,71.27Z"/>
            <ellipse class="cls-1" cx="15.89" cy="70.09" rx="0.68" ry="0.4"/>
            <path class="cls-1" d="M18.91,68.35c.27.15.27.4,0,.56a1.1,1.1,0,0,1-1,0c-.27-.16-.27-.41,0-.56A1,1,0,0,1,18.91,68.35Z"/>
            <path class="cls-1" d="M21.44,66.89c.27.15.27.4,0,.55a1,1,0,0,1-1,0c-.27-.15-.27-.4,0-.55A1,1,0,0,1,21.44,66.89Z"/>
            <path class="cls-1" d="M24,65.42c.27.16.27.41,0,.56a1,1,0,0,1-1,0,.3.3,0,0,1,0-.56A1.1,1.1,0,0,1,24,65.42Z"/>
            <ellipse class="cls-1" cx="26.02" cy="64.24" rx="0.68" ry="0.4"/>
            <path class="cls-1" d="M29,62.5c.27.16.27.41,0,.56a1.08,1.08,0,0,1-1,0c-.27-.15-.27-.4,0-.56A1.08,1.08,0,0,1,29,62.5Z"/>
            <ellipse class="cls-1" cx="31.08" cy="61.32" rx="0.68" ry="0.4"/>
            <path class="cls-1" d="M6.25,72.73c.27.16.27.41,0,.56a1.1,1.1,0,0,1-1,0,.3.3,0,0,1,0-.56A1.1,1.1,0,0,1,6.25,72.73Z"/>
            <path class="cls-1" d="M8.78,71.27c.27.15.27.4,0,.56a1.08,1.08,0,0,1-1,0c-.27-.16-.27-.41,0-.56A1.08,1.08,0,0,1,8.78,71.27Z"/>
            <ellipse class="cls-1" cx="10.83" cy="70.09" rx="0.68" ry="0.4"/>
            <path class="cls-1" d="M13.85,68.35a.3.3,0,0,1,0,.56,1.1,1.1,0,0,1-1,0c-.27-.16-.27-.41,0-.56A1,1,0,0,1,13.85,68.35Z"/>
            <ellipse class="cls-1" cx="15.89" cy="67.16" rx="0.68" ry="0.4"/>
            <path class="cls-1" d="M18.91,65.42c.27.16.27.41,0,.56a1,1,0,0,1-1,0c-.27-.15-.27-.4,0-.56A1.1,1.1,0,0,1,18.91,65.42Z"/>
            <path class="cls-1" d="M21.44,64c.27.16.27.41,0,.56a1,1,0,0,1-1,0c-.27-.15-.27-.4,0-.56A1.1,1.1,0,0,1,21.44,64Z"/>
            <path class="cls-1" d="M24,62.5c.27.16.27.41,0,.56a1.1,1.1,0,0,1-1,0,.3.3,0,0,1,0-.56A1.1,1.1,0,0,1,24,62.5Z"/>
            <ellipse class="cls-1" cx="26.02" cy="61.32" rx="0.68" ry="0.4"/>
            <path class="cls-1" d="M29,59.58c.27.15.27.4,0,.56a1.08,1.08,0,0,1-1,0c-.27-.16-.27-.41,0-.56A1,1,0,0,1,29,59.58Z"/>
            <path class="cls-1" d="M3.72,71.27c.27.15.27.4,0,.56a1.1,1.1,0,0,1-1,0,.3.3,0,0,1,0-.56A1.1,1.1,0,0,1,3.72,71.27Z"/>
            <path class="cls-1" d="M6.25,69.81c.27.15.27.4,0,.56a1.1,1.1,0,0,1-1,0,.3.3,0,0,1,0-.56A1,1,0,0,1,6.25,69.81Z"/>
            <path class="cls-1" d="M8.78,68.35c.27.15.27.4,0,.56a1.08,1.08,0,0,1-1,0c-.27-.16-.27-.41,0-.56A1,1,0,0,1,8.78,68.35Z"/>
            <ellipse class="cls-1" cx="10.83" cy="67.16" rx="0.68" ry="0.4"/>
            <path class="cls-1" d="M13.85,65.42a.3.3,0,0,1,0,.56,1,1,0,0,1-1,0c-.27-.15-.27-.4,0-.56A1.1,1.1,0,0,1,13.85,65.42Z"/>
            <ellipse class="cls-1" cx="15.89" cy="64.24" rx="0.68" ry="0.4"/>
            <path class="cls-1" d="M18.91,62.5c.27.16.27.41,0,.56a1.1,1.1,0,0,1-1,0c-.27-.15-.27-.4,0-.56A1.1,1.1,0,0,1,18.91,62.5Z"/>
            <ellipse class="cls-1" cx="20.96" cy="61.32" rx="0.68" ry="0.4"/>
            <path class="cls-1" d="M24,59.58c.27.15.27.4,0,.56a1.1,1.1,0,0,1-1,0,.3.3,0,0,1,0-.56A1,1,0,0,1,24,59.58Z"/>
            <path class="cls-1" d="M26.5,58.12c.27.15.27.4,0,.56a1.1,1.1,0,0,1-1,0,.3.3,0,0,1,0-.56A1,1,0,0,1,26.5,58.12Z"/>
            <ellipse class="cls-1" cx="0.68" cy="70.07" rx="0.68" ry="0.4"/>
            <path class="cls-1" d="M3.7,68.33c.27.16.27.41,0,.56a1.1,1.1,0,0,1-1,0c-.27-.15-.27-.4,0-.56A1.1,1.1,0,0,1,3.7,68.33Z"/>
            <path class="cls-1" d="M6.23,66.87c.27.15.27.4,0,.56a1.1,1.1,0,0,1-1,0,.3.3,0,0,1,0-.56A1.1,1.1,0,0,1,6.23,66.87Z"/>
            <path class="cls-1" d="M8.76,65.41c.27.15.27.4,0,.56a1.1,1.1,0,0,1-1,0,.3.3,0,0,1,0-.56A1,1,0,0,1,8.76,65.41Z"/>
            <path class="cls-1" d="M11.29,64c.27.15.27.4,0,.56a1.08,1.08,0,0,1-1,0c-.27-.16-.27-.41,0-.56A1,1,0,0,1,11.29,64Z"/>
            <path class="cls-1" d="M13.82,62.49c.27.15.27.4,0,.55a1,1,0,0,1-1,0c-.27-.15-.27-.4,0-.55A1,1,0,0,1,13.82,62.49Z"/>
            <path class="cls-1" d="M16.36,61a.3.3,0,0,1,0,.56,1,1,0,0,1-1,0c-.27-.15-.27-.4,0-.56A1.1,1.1,0,0,1,16.36,61Z"/>
            <path class="cls-1" d="M18.89,59.56a.3.3,0,0,1,0,.56,1,1,0,0,1-1,0c-.27-.15-.27-.4,0-.56A1.1,1.1,0,0,1,18.89,59.56Z"/>
            <ellipse class="cls-1" cx="20.93" cy="58.38" rx="0.68" ry="0.4"/>
            <path class="cls-1" d="M24,56.64a.29.29,0,0,1,0,.56,1.1,1.1,0,0,1-1,0,.29.29,0,0,1,0-.56A1.1,1.1,0,0,1,24,56.64Z"/>
            <path class="cls-1" d="M1.17,66.87c.27.15.27.4,0,.56a1.1,1.1,0,0,1-1,0c-.27-.16-.27-.41,0-.56A1.1,1.1,0,0,1,1.17,66.87Z"/>
            <path class="cls-1" d="M3.7,65.41c.27.15.27.4,0,.56a1.1,1.1,0,0,1-1,0c-.27-.16-.27-.41,0-.56A1,1,0,0,1,3.7,65.41Z"/>
            <ellipse class="cls-1" cx="5.75" cy="64.23" rx="0.68" ry="0.4"/>
            <ellipse class="cls-1" cx="8.28" cy="62.77" rx="0.68" ry="0.4"/>
            <path class="cls-1" d="M11.29,61c.27.16.27.41,0,.56a1,1,0,0,1-1,0c-.27-.15-.27-.4,0-.56A1.08,1.08,0,0,1,11.29,61Z"/>
            <path class="cls-1" d="M13.82,59.56c.27.16.27.41,0,.56a1,1,0,0,1-1,0c-.27-.15-.27-.4,0-.56A1.08,1.08,0,0,1,13.82,59.56Z"/>
            <path class="cls-1" d="M16.36,58.1a.3.3,0,0,1,0,.56,1,1,0,0,1-1,0c-.27-.15-.27-.4,0-.56A1.1,1.1,0,0,1,16.36,58.1Z"/>
            <path class="cls-1" d="M18.89,56.64a.3.3,0,0,1,0,.56,1.1,1.1,0,0,1-1,0,.29.29,0,0,1,0-.56A1.1,1.1,0,0,1,18.89,56.64Z"/>
            <path class="cls-1" d="M21.42,55.18c.27.15.27.4,0,.56a1.1,1.1,0,0,1-1,0c-.27-.16-.27-.41,0-.56A1,1,0,0,1,21.42,55.18Z"/>
            <path class="cls-1" d="M38.19,62.52a1.1,1.1,0,0,1,1,0c.27.16.27.41,0,.56a1,1,0,0,1-1,0A.3.3,0,0,1,38.19,62.52Z"/>
            <ellipse class="cls-1" cx="41.21" cy="61.34" rx="0.68" ry="0.4"/>
            <ellipse class="cls-1" cx="43.74" cy="59.88" rx="0.68" ry="0.4"/>
            <path class="cls-1" d="M46.76,58.14c.27.15.27.4,0,.56a1.1,1.1,0,0,1-1,0c-.27-.16-.27-.41,0-.56A1,1,0,0,1,46.76,58.14Z"/>
            <path class="cls-1" d="M49.29,56.67c.27.16.27.41,0,.56a1,1,0,0,1-1,0,.3.3,0,0,1,0-.56A1.1,1.1,0,0,1,49.29,56.67Z"/>
            <path class="cls-1" d="M35.66,61.06a1.1,1.1,0,0,1,1,0c.27.15.27.4,0,.56a1.08,1.08,0,0,1-1,0A.3.3,0,0,1,35.66,61.06Z"/>
            <ellipse class="cls-1" cx="38.68" cy="59.88" rx="0.68" ry="0.4"/>
            <ellipse class="cls-1" cx="41.21" cy="58.42" rx="0.68" ry="0.4"/>
            <path class="cls-1" d="M44.23,56.67c.27.16.27.41,0,.56a1,1,0,0,1-1,0c-.27-.15-.27-.4,0-.56A1.1,1.1,0,0,1,44.23,56.67Z"/>
            <path class="cls-1" d="M46.76,55.21c.27.16.27.41,0,.56a1,1,0,0,1-1,0c-.27-.15-.27-.4,0-.56A1.1,1.1,0,0,1,46.76,55.21Z"/>
            <path class="cls-1" d="M49.29,53.75c.27.16.27.41,0,.56a1,1,0,0,1-1,0,.3.3,0,0,1,0-.56A1.1,1.1,0,0,1,49.29,53.75Z"/>
            <path class="cls-1" d="M33.13,59.6a1,1,0,0,1,1,0c.27.15.27.4,0,.56a1.1,1.1,0,0,1-1,0A.3.3,0,0,1,33.13,59.6Z"/>
            <path class="cls-1" d="M36.63,58.14c.27.15.27.4,0,.56a1.08,1.08,0,0,1-1,0c-.27-.16-.27-.41,0-.56A1,1,0,0,1,36.63,58.14Z"/>
            <ellipse class="cls-1" cx="38.68" cy="56.95" rx="0.68" ry="0.4"/>
            <path class="cls-1" d="M41.7,55.21a.3.3,0,0,1,0,.56,1,1,0,0,1-1,0c-.27-.15-.27-.4,0-.56A1.1,1.1,0,0,1,41.7,55.21Z"/>
            <ellipse class="cls-1" cx="43.74" cy="54.03" rx="0.68" ry="0.4"/>
            <path class="cls-1" d="M46.76,52.29c.27.16.27.41,0,.56a1.1,1.1,0,0,1-1,0c-.27-.15-.27-.4,0-.56A1.1,1.1,0,0,1,46.76,52.29Z"/>
            <path class="cls-1" d="M30.6,58.14a1,1,0,0,1,1,0c.27.15.27.4,0,.56a1.1,1.1,0,0,1-1,0C30.34,58.54,30.33,58.29,30.6,58.14Z"/>
            <ellipse class="cls-1" cx="33.62" cy="56.95" rx="0.68" ry="0.4"/>
            <path class="cls-1" d="M36.63,55.21c.27.16.27.41,0,.56a1,1,0,0,1-1,0c-.27-.15-.27-.4,0-.56A1.08,1.08,0,0,1,36.63,55.21Z"/>
            <path class="cls-1" d="M39.17,53.75a.3.3,0,0,1,0,.56,1,1,0,0,1-1,0c-.27-.15-.27-.4,0-.56A1.1,1.1,0,0,1,39.17,53.75Z"/>
            <ellipse class="cls-1" cx="41.21" cy="52.57" rx="0.68" ry="0.4"/>
            <path class="cls-1" d="M44.23,50.83c.27.15.27.4,0,.56a1.1,1.1,0,0,1-1,0c-.27-.16-.27-.41,0-.56A1,1,0,0,1,44.23,50.83Z"/>
            <path class="cls-1" d="M28.07,56.68a1,1,0,0,1,1,0c.27.15.27.4,0,.55a1.07,1.07,0,0,1-1,0C27.8,57.08,27.8,56.83,28.07,56.68Z"/>
            <path class="cls-1" d="M31.57,55.21c.27.16.27.41,0,.56a1,1,0,0,1-1,0,.3.3,0,0,1,0-.56A1.1,1.1,0,0,1,31.57,55.21Z"/>
            <path class="cls-1" d="M34.1,53.75c.27.16.27.41,0,.56a1,1,0,0,1-1,0c-.27-.15-.27-.4,0-.56A1.08,1.08,0,0,1,34.1,53.75Z"/>
            <path class="cls-1" d="M36.63,52.29c.27.16.27.41,0,.56a1.08,1.08,0,0,1-1,0c-.27-.15-.27-.4,0-.56A1.08,1.08,0,0,1,36.63,52.29Z"/>
            <ellipse class="cls-1" cx="38.68" cy="51.11" rx="0.68" ry="0.4"/>
            <ellipse class="cls-1" cx="41.21" cy="49.65" rx="0.68" ry="0.4"/>
            <path class="cls-1" d="M25.52,55.2a1,1,0,0,1,1,0,.3.3,0,0,1,0,.56,1.1,1.1,0,0,1-1,0C25.25,55.6,25.25,55.35,25.52,55.2Z"/>
            <path class="cls-1" d="M29,53.74c.27.15.27.4,0,.56a1.1,1.1,0,0,1-1,0c-.27-.16-.27-.41,0-.56A1,1,0,0,1,29,53.74Z"/>
            <path class="cls-1" d="M31.55,52.28c.27.15.27.4,0,.55a1,1,0,0,1-1,0,.29.29,0,0,1,0-.55A1,1,0,0,1,31.55,52.28Z"/>
            <path class="cls-1" d="M34.08,50.81c.27.16.27.41,0,.56a1,1,0,0,1-1,0,.3.3,0,0,1,0-.56A1.1,1.1,0,0,1,34.08,50.81Z"/>
            <path class="cls-1" d="M36.61,49.35c.27.16.27.41,0,.56a1,1,0,0,1-1,0,.3.3,0,0,1,0-.56A1.1,1.1,0,0,1,36.61,49.35Z"/>
            <ellipse class="cls-1" cx="38.66" cy="48.17" rx="0.68" ry="0.4"/>
            <path class="cls-1" d="M23,53.74a1,1,0,0,1,1,0,.3.3,0,0,1,0,.56,1.1,1.1,0,0,1-1,0C22.72,54.14,22.72,53.89,23,53.74Z"/>
            <ellipse class="cls-1" cx="26" cy="52.55" rx="0.68" ry="0.4"/>
            <path class="cls-1" d="M29,50.81c.27.16.27.41,0,.56a1,1,0,0,1-1,0c-.27-.15-.27-.4,0-.56A1.1,1.1,0,0,1,29,50.81Z"/>
            <path class="cls-1" d="M31.55,49.35c.27.16.27.41,0,.56a1,1,0,0,1-1,0,.3.3,0,0,1,0-.56A1.1,1.1,0,0,1,31.55,49.35Z"/>
            <path class="cls-1" d="M34.08,47.89c.27.16.27.41,0,.56a1.1,1.1,0,0,1-1,0C32.85,48.3,33.81,47.74,34.08,47.89Z"/>
            <path class="cls-1" d="M21.42,52.28c.27.15.27.4,0,.56a1.08,1.08,0,0,1-1,0C20.19,52.68,21.15,52.12,21.42,52.28Z"/>
            <path class="cls-1" d="M24,50.81a.3.3,0,0,1,0,.56,1,1,0,0,1-1,0C22.72,51.22,23.69,50.66,24,50.81Z"/>
          </g>
          <g>
            <g>
              <g>
                <path class="cls-2" d="M45.65,50.48h0L45.58,6.25H25.05l.06,44v.19h0a1.51,1.51,0,0,0,.84,1l7.66,4.42a3.82,3.82,0,0,0,3.46.14l8-4.61A1,1,0,0,0,45.65,50.48Z"/>
                <path class="cls-3" d="M35.56,56.79a4.36,4.36,0,0,1-2.14-.54l-7.66-4.42a1.89,1.89,0,0,1-1-1.3,1.31,1.31,0,0,1,0-.28L24.67,6.52a.65.65,0,0,1,.65-.65h20a.65.65,0,0,1,.64.65L46,50.45a1.38,1.38,0,0,1-.78,1.33l-8,4.61A3.42,3.42,0,0,1,35.56,56.79ZM25.43,6.63l.06,43.66v.14a1.17,1.17,0,0,0,.65.74l7.66,4.42a3.5,3.5,0,0,0,3.08.15l8-4.62c.2-.12.44-.32.4-.59v-.05L45.2,6.63Z"/>
              </g>
              <g>
                <path class="cls-2" d="M45,7.28,37,11.9a3.85,3.85,0,0,1-3.46-.14L25.89,7.33c-1-.59-1.13-1.48-.25-2l8-4.61a3.8,3.8,0,0,1,3.45.14l7.66,4.42C45.77,5.88,45.88,6.77,45,7.28Z"/>
                <path class="cls-4" d="M33.65,3.49,26.44,7.66l7.1,4.1A3.83,3.83,0,0,0,37,11.9l7.22-4.17-7.1-4.1A3.86,3.86,0,0,0,33.65,3.49Z"/>
                <path class="cls-3" d="M35.5,12.62a4.36,4.36,0,0,1-2.14-.54L25.7,7.66a1.77,1.77,0,0,1-1-1.45A1.4,1.4,0,0,1,25.45,5l8-4.61a4.19,4.19,0,0,1,3.83.14L44.94,5a1.77,1.77,0,0,1,1,1.46,1.35,1.35,0,0,1-.78,1.19l-8,4.62A3.49,3.49,0,0,1,35.5,12.62ZM35.13.76a2.74,2.74,0,0,0-1.3.29l-8,4.62a.7.7,0,0,0-.4.54c0,.26.24.56.65.8l7.66,4.42a3.5,3.5,0,0,0,3.08.14l8-4.61c.18-.11.41-.29.41-.54s-.25-.56-.66-.8L36.9,1.2A3.63,3.63,0,0,0,35.13.76Z"/>
              </g>
              <polygon class="cls-3" points="35.47 12.24 35.35 56.4 37.07 56.06 45.66 51.12 45.58 7.04 38.7 10.8 36.29 12.16 35.47 12.24"/>
            </g>
            <g>
              <g>
                <path class="cls-2" d="M31.73,58.59h0l-.06-24.75H15.05l.06,24.6a.38.38,0,0,0,0,.15h0a1.17,1.17,0,0,0,.68.83L22,63a3.1,3.1,0,0,0,2.79.12l6.48-3.74A.79.79,0,0,0,31.73,58.59Z"/>
                <path class="cls-3" d="M23.57,63.78a3.56,3.56,0,0,1-1.77-.45l-6.2-3.58a1.58,1.58,0,0,1-.87-1.11,1,1,0,0,1,0-.24l-.05-24.31a.62.62,0,0,1,.63-.63H31.42a.63.63,0,0,1,.63.63l.06,24.48a1.16,1.16,0,0,1-.67,1.14L25,63.45A2.84,2.84,0,0,1,23.57,63.78Zm-8.09-5.24a.92.92,0,0,0,.49.55l6.21,3.58a2.71,2.71,0,0,0,2.41.12l6.48-3.74c.14-.08.31-.22.29-.41v0L31.3,34.21H15.43l.06,24.23h0Z"/>
              </g>
              <g>
                <path class="cls-2" d="M31.21,34.67l-6.48,3.74a3.1,3.1,0,0,1-2.79-.12l-6.2-3.58c-.83-.47-.92-1.2-.2-1.61L22,29.36a3.1,3.1,0,0,1,2.79.12L31,33.06C31.83,33.54,31.92,34.26,31.21,34.67Z"/>
                <path class="cls-4" d="M24.73,38.33l5.26-3-5.19-3A3.1,3.1,0,0,0,22,32.19l-5.25,3,5.18,3A3.1,3.1,0,0,0,24.73,38.33Z"/>
                <path class="cls-3" d="M23.52,39.07a3.56,3.56,0,0,1-1.77-.45L15.55,35a1.51,1.51,0,0,1-.88-1.24,1.2,1.2,0,0,1,.68-1L21.82,29a3.46,3.46,0,0,1,3.17.12l6.2,3.58A1.51,1.51,0,0,1,32.07,34a1.19,1.19,0,0,1-.67,1l-6.48,3.74A2.84,2.84,0,0,1,23.52,39.07Zm-.3-9.61a2.11,2.11,0,0,0-1,.23l-6.47,3.74c-.11.06-.3.19-.3.37s.19.41.5.59L22.13,38a2.76,2.76,0,0,0,2.42.11L31,34.35c.11-.07.29-.2.29-.38s-.19-.41-.49-.58l-6.21-3.58A2.84,2.84,0,0,0,23.22,29.46Z"/>
              </g>
              <polygon class="cls-3" points="23.42 38.69 23.4 63.4 25.78 62.54 31.74 58.84 31.74 34.34 24.43 38.69 23.42 38.69"/>
            </g>
            <g>
              <g>
                <path class="cls-2" d="M19.72,65.21h0l-.07-12.29H1.82l.05,12.13v.16h0a1.32,1.32,0,0,0,.72.89l6.66,3.84a3.36,3.36,0,0,0,3,.13l6.94-4A.87.87,0,0,0,19.72,65.21Z"/>
                <path class="cls-3" d="M11,70.74a3.88,3.88,0,0,1-1.88-.47L2.41,66.43a1.68,1.68,0,0,1-.91-1.17,1,1,0,0,1,0-.25L1.44,53.17a.63.63,0,0,1,.63-.63H19.41a.63.63,0,0,1,.62.63l.07,12a1.23,1.23,0,0,1-.71,1.19l-6.94,4A3,3,0,0,1,11,70.74ZM2.2,53.3l0,11.75v.11a1,1,0,0,0,.54.61l6.66,3.84a3,3,0,0,0,2.62.13l6.94-4c.17-.1.36-.26.33-.47v-.05L19.28,53.3Z"/>
              </g>
              <g>
                <path class="cls-2" d="M19.15,53.82l-6.94,4a3.32,3.32,0,0,1-3-.13L2.55,53.86c-.89-.51-1-1.29-.21-1.73l6.94-4a3.35,3.35,0,0,1,3,.12l6.66,3.85C19.82,52.6,19.92,53.38,19.15,53.82Z"/>
                <path class="cls-4" d="M12.24,57.7l6.06-3.5-6-3.46a3.32,3.32,0,0,0-3-.12l-6.07,3.5,6,3.46A3.34,3.34,0,0,0,12.24,57.7Z"/>
                <path class="cls-3" d="M10.9,58.51A3.78,3.78,0,0,1,9,58L2.36,54.19a1.59,1.59,0,0,1-.92-1.31,1.26,1.26,0,0,1,.71-1.08l6.94-4a3.69,3.69,0,0,1,3.38.13l6.66,3.84a1.6,1.6,0,0,1,.92,1.31,1.26,1.26,0,0,1-.71,1.08l-6.94,4A3.11,3.11,0,0,1,10.9,58.51ZM10.58,48.2a2.25,2.25,0,0,0-1.11.25l-6.94,4c-.13.07-.33.22-.33.42s.2.46.54.65l6.65,3.85A3,3,0,0,0,12,57.5l6.94-4c.12-.07.33-.22.33-.42s-.2-.46-.54-.66l-6.66-3.84A3.21,3.21,0,0,0,10.58,48.2Z"/>
              </g>
              <polygon class="cls-3" points="10.74 58.13 10.74 70.36 12.49 69.79 19.85 65.53 19.56 53.44 11.61 58.13 10.74 58.13"/>
            </g>
          </g>
        </g>
      </g>
    </g>
  </g>
</svg>
