<svg xmlns="http://www.w3.org/2000/svg" viewBox="0 0 40.12 66.92">
  <defs>
    <style>
      .cls-1 {
        fill: #16110d;
      }

      .cls-2 {
        fill: #1677ff;
      }

      .cls-3 {
        fill: #9cc9ff;
      }
    </style>
  </defs>
  <g id="Layer_2" data-name="Layer 2">
    <g id="content">
      <g id="icons">
        <g id="_4" data-name="4">
          <g>
            <g>
              <ellipse class="cls-1" cx="16.59" cy="62.38" rx="0.68" ry="0.4"/>
              <ellipse class="cls-1" cx="19.12" cy="60.91" rx="0.68" ry="0.4"/>
              <ellipse class="cls-1" cx="21.65" cy="59.45" rx="0.68" ry="0.4"/>
              <path class="cls-1" d="M24.67,57.71c.27.16.27.41,0,.56a1.1,1.1,0,0,1-1,0c-.27-.15-.27-.4,0-.56A1.1,1.1,0,0,1,24.67,57.71Z"/>
              <path class="cls-1" d="M14.54,60.63c.27.16.27.41,0,.56a1,1,0,0,1-1,0c-.27-.15-.27-.4,0-.56A1.08,1.08,0,0,1,14.54,60.63Z"/>
              <path class="cls-1" d="M17.08,59.17a.3.3,0,0,1,0,.56,1,1,0,0,1-1,0c-.27-.15-.27-.4,0-.56A1.1,1.1,0,0,1,17.08,59.17Z"/>
              <path class="cls-1" d="M19.61,57.71a.3.3,0,0,1,0,.56,1.1,1.1,0,0,1-1,0c-.27-.15-.27-.4,0-.56A1.1,1.1,0,0,1,19.61,57.71Z"/>
              <ellipse class="cls-1" cx="21.65" cy="56.53" rx="0.68" ry="0.4"/>
              <ellipse class="cls-1" cx="11.53" cy="59.45" rx="0.68" ry="0.4"/>
              <path class="cls-1" d="M14.54,57.71c.27.16.27.41,0,.56a1.08,1.08,0,0,1-1,0c-.27-.15-.27-.4,0-.56A1.08,1.08,0,0,1,14.54,57.71Z"/>
              <ellipse class="cls-1" cx="16.59" cy="56.53" rx="0.68" ry="0.4"/>
              <ellipse class="cls-1" cx="19.12" cy="55.07" rx="0.68" ry="0.4"/>
              <path class="cls-1" d="M9.48,57.71c.27.16.27.41,0,.56a1.1,1.1,0,0,1-1,0,.3.3,0,0,1,0-.56A1.1,1.1,0,0,1,9.48,57.71Z"/>
              <path class="cls-1" d="M12,56.25c.27.15.27.4,0,.56a1.08,1.08,0,0,1-1,0c-.27-.16-.27-.41,0-.56A1.08,1.08,0,0,1,12,56.25Z"/>
              <path class="cls-1" d="M14.54,54.79c.27.15.27.4,0,.56a1.08,1.08,0,0,1-1,0c-.27-.16-.27-.41,0-.56A1,1,0,0,1,14.54,54.79Z"/>
              <ellipse class="cls-1" cx="16.59" cy="53.61" rx="0.68" ry="0.4"/>
              <ellipse class="cls-1" cx="6.47" cy="56.53" rx="0.68" ry="0.4"/>
              <path class="cls-1" d="M9.48,54.79c.27.15.27.4,0,.56a1.1,1.1,0,0,1-1,0,.3.3,0,0,1,0-.56A1,1,0,0,1,9.48,54.79Z"/>
              <path class="cls-1" d="M12,53.33c.27.15.27.4,0,.56a1.08,1.08,0,0,1-1,0c-.27-.16-.27-.41,0-.56A1,1,0,0,1,12,53.33Z"/>
              <path class="cls-1" d="M14.54,51.87c.27.15.27.4,0,.55a1,1,0,0,1-1,0c-.27-.15-.27-.4,0-.55A1,1,0,0,1,14.54,51.87Z"/>
              <ellipse class="cls-1" cx="3.91" cy="55.05" rx="0.68" ry="0.4"/>
              <path class="cls-1" d="M6.93,53.31c.27.16.27.41,0,.56a1,1,0,0,1-1,0c-.27-.15-.27-.4,0-.56A1.1,1.1,0,0,1,6.93,53.31Z"/>
              <path class="cls-1" d="M9.46,51.85c.27.16.27.41,0,.56a1.1,1.1,0,0,1-1,0c-.27-.15-.27-.4,0-.56A1.1,1.1,0,0,1,9.46,51.85Z"/>
              <path class="cls-1" d="M12,50.39c.27.15.27.4,0,.56a1.1,1.1,0,0,1-1,0,.3.3,0,0,1,0-.56A1,1,0,0,1,12,50.39Z"/>
              <ellipse class="cls-1" cx="3.91" cy="52.13" rx="0.68" ry="0.4"/>
              <path class="cls-1" d="M6.93,50.39c.27.15.27.4,0,.56a1.1,1.1,0,0,1-1,0c-.27-.16-.27-.41,0-.56A1,1,0,0,1,6.93,50.39Z"/>
              <ellipse class="cls-1" cx="29.35" cy="66.53" rx="0.68" ry="0.4"/>
              <ellipse class="cls-1" cx="31.88" cy="65.06" rx="0.68" ry="0.4"/>
              <path class="cls-1" d="M24.77,66.25c.27.15.27.4,0,.55a1,1,0,0,1-1,0c-.27-.15-.27-.4,0-.55A1,1,0,0,1,24.77,66.25Z"/>
              <path class="cls-1" d="M27.3,64.78c.27.16.27.41,0,.56a1,1,0,0,1-1,0c-.27-.15-.27-.4,0-.56A1.1,1.1,0,0,1,27.3,64.78Z"/>
              <path class="cls-1" d="M29.83,63.32c.27.16.27.41,0,.56a1,1,0,0,1-1,0,.3.3,0,0,1,0-.56A1.1,1.1,0,0,1,29.83,63.32Z"/>
              <ellipse class="cls-1" cx="31.88" cy="62.14" rx="0.68" ry="0.4"/>
              <ellipse class="cls-1" cx="21.75" cy="65.06" rx="0.68" ry="0.4"/>
              <path class="cls-1" d="M24.77,63.32c.27.16.27.41,0,.56a1,1,0,0,1-1,0c-.27-.15-.27-.4,0-.56A1.1,1.1,0,0,1,24.77,63.32Z"/>
              <ellipse class="cls-1" cx="26.82" cy="62.14" rx="0.68" ry="0.4"/>
              <ellipse class="cls-1" cx="29.35" cy="60.68" rx="0.68" ry="0.4"/>
              <path class="cls-1" d="M19.71,63.32a.3.3,0,0,1,0,.56,1,1,0,0,1-1,0c-.27-.15-.27-.4,0-.56A1.1,1.1,0,0,1,19.71,63.32Z"/>
              <path class="cls-1" d="M22.24,61.86a.3.3,0,0,1,0,.56,1,1,0,0,1-1,0c-.27-.15-.27-.4,0-.56A1.1,1.1,0,0,1,22.24,61.86Z"/>
              <path class="cls-1" d="M24.77,60.4c.27.15.27.4,0,.56a1.1,1.1,0,0,1-1,0c-.27-.16-.27-.41,0-.56A1.1,1.1,0,0,1,24.77,60.4Z"/>
              <ellipse class="cls-1" cx="26.82" cy="59.22" rx="0.68" ry="0.4"/>
            </g>
            <g>
              <g>
                <path class="cls-2" d="M37.14,17.4l-14.63-15L7.86.47a2.07,2.07,0,0,0-1.7.19L1.42,3.43l3,6.33v10A68.28,68.28,0,0,0,14,45.27C20.35,55.17,21.6,56,21.6,56s.75.38,4.08-.64l.87.4,3.37-2a19.05,19.05,0,0,0,2.19-1.18l.06,0h0c6-4.22,7.2-13.08,7.2-13.08l.37-16.79A7.73,7.73,0,0,0,37.14,17.4Z"/>
                <path class="cls-3" d="M38.26,24.5a2,2,0,0,0,.79-2.56,8.11,8.11,0,0,0-2-2.71L23.73,5.45,16.44,9.83a14.28,14.28,0,0,1-1.85-1.28l-.71.4L29.3,29.79Z"/>
                <path class="cls-1" d="M22.15,56.42a1.76,1.76,0,0,1-.72-.1c-.17-.11-1.53-1.16-7.74-10.85A69.4,69.4,0,0,1,4,19.78V9.84L.93,3.28,6,.33A2.45,2.45,0,0,1,8,.11l14.72,2L37.4,17.13a8,8,0,0,1,2.72,5.55l-.38,16.79c-.05.42-1.29,8.94-7.17,13.25v0l-.21.13a21.33,21.33,0,0,1-2.28,1.23l-3.51,2-.91-.42A12.75,12.75,0,0,1,22.15,56.42Zm-.34-.75c.07,0,1,.17,3.76-.69l.14,0,.82.38,3.2-1.88a19.41,19.41,0,0,0,2.16-1.15l.06,0c5.77-4.07,7-12.73,7-12.82l.38-16.74a7.36,7.36,0,0,0-2.48-5l0,0L22.33,2.78,7.81.84A1.8,1.8,0,0,0,6.37,1L1.9,3.58,4.75,9.76v10a68.55,68.55,0,0,0,9.57,25.33c6,9.36,7.4,10.54,7.49,10.61Z"/>
              </g>
              <g>
                <path class="cls-2" d="M22.19,2.61a.12.12,0,0,0,0-.23L7.86.47a2.07,2.07,0,0,0-1.7.19L1.42,3.43,3,6.73,17.63,5.27Z"/>
                <path class="cls-3" d="M22.68,3.85a.12.12,0,0,0-.05-.23L8.35,1.71a2.06,2.06,0,0,0-1.7.19L1.9,4.67,3.44,8,18.12,6.51Z"/>
                <path class="cls-1" d="M2.73,7.13,1.15,3.74A.56.56,0,0,1,1.37,3L6,.33A2.45,2.45,0,0,1,8,.11L22.2,2a.5.5,0,0,1,.42.39.51.51,0,0,1-.24.54h0l-4.71,2.7ZM1.9,3.58,3.19,6.33,17.51,4.9l3.86-2.25L7.81.84A1.8,1.8,0,0,0,6.37,1Z"/>
              </g>
              <path class="cls-1" d="M32.27,20.24l-14.64-15L3,3.31C1.45,2.9.38,3.83.38,5.58V22.06A68.21,68.21,0,0,0,10,47.59c6.34,9.91,7.59,10.72,7.59,10.72s1.25.63,7.63-1.91C33.32,53.17,34.85,42,34.85,42V25.52A7.67,7.67,0,0,0,32.27,20.24Z"/>
              <path class="cls-1" d="M18.16,58.76a1.58,1.58,0,0,1-.73-.12c-.17-.11-1.53-1.15-7.74-10.84A69.41,69.41,0,0,1,0,22.1V5.58a2.81,2.81,0,0,1,1-2.3A2.34,2.34,0,0,1,3.08,3l14.73,2L32.52,20a8,8,0,0,1,2.72,5.55V42c-.07.52-1.66,11.49-9.86,14.76C21.16,58.43,19.12,58.76,18.16,58.76ZM17.81,58c.05,0,1.48.37,7.28-2,7.79-3.11,9.38-14,9.39-14.11V25.52a7.4,7.4,0,0,0-2.47-5l0,0L17.45,5.62,2.94,3.69a1.67,1.67,0,0,0-1.52.18A2.06,2.06,0,0,0,.76,5.58V22.06a68.55,68.55,0,0,0,9.57,25.33C16.4,56.88,17.76,58,17.81,58Z"/>
              <path class="cls-2" d="M18.09,55.12a1.61,1.61,0,0,1-.66-.1c-.15-.1-1.34-1-6.74-9.44A60.36,60.36,0,0,1,2.27,23.25V8.9a2.51,2.51,0,0,1,.84-2A2.15,2.15,0,0,1,5,6.57l12.8,1.71L30.59,21.36A7,7,0,0,1,33,26.21V40.52c-.06.46-1.45,10-8.59,12.85C20.71,54.83,18.93,55.12,18.09,55.12Zm-.27-.74c.06,0,1.34.26,6.27-1.7C30.83,50,32.2,40.56,32.21,40.47V26.21a6.37,6.37,0,0,0-2.13-4.3l0,0L17.45,9,4.87,7.31a1.42,1.42,0,0,0-1.29.15A1.77,1.77,0,0,0,3,8.9V23.21a59.49,59.49,0,0,0,8.31,22c5.25,8.21,6.44,9.16,6.49,9.2Z"/>
              <path class="cls-2" d="M21.06,24.68c-1.67-1-3.11-.7-3.84,0a9.94,9.94,0,0,0-3.59-4.26,3.2,3.2,0,0,0-3.26-.28,3.22,3.22,0,0,0-1.39,3,11.89,11.89,0,0,0,1.5,5.44l5,9.5a3.32,3.32,0,0,0,2,1.73,1.59,1.59,0,0,0,.36,0,1.22,1.22,0,0,0,.73-.23l5.06-3.67A4.64,4.64,0,0,0,25.25,32,9.29,9.29,0,0,0,21.06,24.68Zm-.44.75A8.34,8.34,0,0,1,24.39,32a3.86,3.86,0,0,1-1.27,3.23l-5.05,3.66a.46.46,0,0,1-.39,0,2.49,2.49,0,0,1-1.38-1.29l-5.06-9.5a11.15,11.15,0,0,1-1.4-5,2.4,2.4,0,0,1,1-2.22,1.63,1.63,0,0,1,.83-.21,3.27,3.27,0,0,1,1.57.49,9.11,9.11,0,0,1,3.29,4,.83.83,0,0,0,.66.55.61.61,0,0,0,.53-.25C18.07,24.84,19.24,24.63,20.62,25.43Z"/>
            </g>
          </g>
        </g>
      </g>
    </g>
  </g>
</svg>
