<svg xmlns="http://www.w3.org/2000/svg" viewBox="0 0 40.36 27.62">
  <defs>
    <style>
      .cls-1 {
        fill: #272525;
      }
    </style>
  </defs>
  <g id="Layer_2" data-name="Layer 2">
    <g id="Layer_1-2" data-name="Layer 1">
      <g>
        <path class="cls-1" d="M39.82,9.81,35,8.69v-8A.69.69,0,0,0,34.27,0H.69A.69.69,0,0,0,0,.69v18a.69.69,0,0,0,.69.69H3.62v.08a.69.69,0,0,0,.08.52.74.74,0,0,0,.44.31l.36.08,31.29,7.2h.11a.69.69,0,0,0,.66-.52l3.13-13.56.66-2.9a.67.67,0,0,0-.08-.52A.7.7,0,0,0,39.82,9.81ZM35,14.9h0L35,15ZM22.15,20.32a5.14,5.14,0,0,0,2.75-.8l.15-.1h8.89l-.34,1.47-.31,0A3.79,3.79,0,0,0,30,22.8a4.45,4.45,0,0,0-.25.54l-17-3.92h6.55l.4.25.32.16a6,6,0,0,0,1,.36A5.2,5.2,0,0,0,22.15,20.32Zm-.81-.9H23A4.41,4.41,0,0,1,21.34,19.42ZM1.39,18V1.39H33.58V18Zm34,8.06-29-6.67h4.36a.32.32,0,0,0,.25.27L29.84,24h.08a.33.33,0,0,0,.31-.24,3.15,3.15,0,0,1,3-2.29,4,4,0,0,1,.6.05.32.32,0,0,0,.37-.24l.46-2,.14-.11a.69.69,0,0,0,.19-.48v-.86l.72-3.1a.33.33,0,0,0-.23-.39A2.88,2.88,0,0,1,35,14.2V10.11l3.88.89Z"/>
        <path class="cls-1" d="M30.92,5.77a3.27,3.27,0,0,1-3.07-3.19.34.34,0,0,0-.34-.32h-20a.34.34,0,0,0-.34.32A3.29,3.29,0,0,1,4,5.77a.34.34,0,0,0-.32.34v7.2a.34.34,0,0,0,.32.34,3.29,3.29,0,0,1,3.08,3.19.34.34,0,0,0,.34.32H27.51a.34.34,0,0,0,.34-.32,3.27,3.27,0,0,1,3.07-3.19.34.34,0,0,0,.32-.34V6.11A.35.35,0,0,0,30.92,5.77ZM30.56,13a4,4,0,0,0-3.37,3.48H7.77A4,4,0,0,0,4.4,13V6.42A4,4,0,0,0,7.77,2.94H27.19a4,4,0,0,0,3.37,3.48Z"/>
        <path class="cls-1" d="M17.65,4.14a5.49,5.49,0,0,0-5.4,5.57,5.49,5.49,0,0,0,5.4,5.57,5.5,5.5,0,0,0,5.41-5.57A5.5,5.5,0,0,0,17.65,4.14Zm0,10.27a4.63,4.63,0,0,1-4.54-4.7,4.55,4.55,0,1,1,9.09,0A4.63,4.63,0,0,1,17.65,14.41Z"/>
      </g>
    </g>
  </g>
</svg>
