<svg xmlns="http://www.w3.org/2000/svg" viewBox="0 0 49.74 78.53">
  <defs>
    <style>
      .cls-1 {
        fill: #16110d;
      }

      .cls-2 {
        fill: #1677ff;
      }

      .cls-3 {
        fill: #a1ccff;
      }

      .cls-4 {
        fill: #fec;
      }
    </style>
  </defs>
  <g id="Layer_2" data-name="Layer 2">
    <g id="content">
      <g id="icons">
        <g id="_8" data-name="8">
          <g>
            <g>
              <path class="cls-1" d="M9,77.82a.29.29,0,0,1,0,.56,1.1,1.1,0,0,1-1,0,.3.3,0,0,1,0-.56A1.1,1.1,0,0,1,9,77.82Z"/>
              <ellipse class="cls-1" cx="6" cy="76.64" rx="0.68" ry="0.4"/>
              <path class="cls-1" d="M4,74.9c.27.15.27.4,0,.56a1.1,1.1,0,0,1-1,0c-.27-.16-.27-.41,0-.56A1,1,0,0,1,4,74.9Z"/>
              <ellipse class="cls-1" cx="0.93" cy="73.72" rx="0.68" ry="0.4"/>
              <ellipse class="cls-1" cx="0.84" cy="71.05" rx="0.68" ry="0.4"/>
              <path class="cls-1" d="M3.86,69.31c.27.15.27.4,0,.55a1,1,0,0,1-1,0c-.27-.15-.27-.4,0-.55A1,1,0,0,1,3.86,69.31Z"/>
              <path class="cls-1" d="M13.13,77.86a1,1,0,0,1,1,0c.27.15.27.4,0,.55a1.07,1.07,0,0,1-1,0A.3.3,0,0,1,13.13,77.86Z"/>
              <path class="cls-1" d="M16.64,76.39a.3.3,0,0,1,0,.56,1,1,0,0,1-1,0c-.27-.15-.27-.4,0-.56A1.1,1.1,0,0,1,16.64,76.39Z"/>
              <ellipse class="cls-1" cx="18.68" cy="75.21" rx="0.68" ry="0.4"/>
              <ellipse class="cls-1" cx="21.21" cy="73.75" rx="0.68" ry="0.4"/>
              <ellipse class="cls-1" cx="23.75" cy="72.29" rx="0.68" ry="0.4"/>
              <ellipse class="cls-1" cx="26.28" cy="70.83" rx="0.68" ry="0.4"/>
              <path class="cls-1" d="M29.29,69.09c.27.15.27.4,0,.56a1.1,1.1,0,0,1-1,0,.3.3,0,0,1,0-.56A1,1,0,0,1,29.29,69.09Z"/>
              <path class="cls-1" d="M31.82,67.63c.27.15.27.4,0,.55a1,1,0,0,1-1,0,.29.29,0,0,1,0-.55A1,1,0,0,1,31.82,67.63Z"/>
              <path class="cls-1" d="M34.35,66.16c.27.16.27.41,0,.56a1,1,0,0,1-1,0c-.27-.15-.27-.4,0-.56A1.08,1.08,0,0,1,34.35,66.16Z"/>
              <ellipse class="cls-1" cx="36.4" cy="64.98" rx="0.68" ry="0.4"/>
              <ellipse class="cls-1" cx="38.93" cy="63.52" rx="0.68" ry="0.4"/>
              <ellipse class="cls-1" cx="41.46" cy="62.06" rx="0.68" ry="0.4"/>
              <ellipse class="cls-1" cx="43.99" cy="60.6" rx="0.68" ry="0.4"/>
              <ellipse class="cls-1" cx="46.53" cy="59.14" rx="0.68" ry="0.4"/>
              <path class="cls-1" d="M49.54,57.4c.27.15.27.4,0,.55a1,1,0,0,1-1,0,.29.29,0,0,1,0-.55A1,1,0,0,1,49.54,57.4Z"/>
              <path class="cls-1" d="M10.58,76.38a1.07,1.07,0,0,1,1,0c.27.15.27.4,0,.56a1.1,1.1,0,0,1-1,0C10.31,76.78,10.31,76.53,10.58,76.38Z"/>
              <path class="cls-1" d="M14.08,74.92c.27.15.27.4,0,.56a1.1,1.1,0,0,1-1,0,.3.3,0,0,1,0-.56A1,1,0,0,1,14.08,74.92Z"/>
              <path class="cls-1" d="M16.61,73.46c.27.15.27.4,0,.55a1,1,0,0,1-1,0c-.27-.15-.27-.4,0-.55A1,1,0,0,1,16.61,73.46Z"/>
              <ellipse class="cls-1" cx="18.66" cy="72.27" rx="0.68" ry="0.4"/>
              <ellipse class="cls-1" cx="21.19" cy="70.81" rx="0.68" ry="0.4"/>
              <ellipse class="cls-1" cx="23.72" cy="69.35" rx="0.68" ry="0.4"/>
              <path class="cls-1" d="M26.74,67.61c.27.15.27.4,0,.56a1.1,1.1,0,0,1-1,0c-.27-.16-.27-.41,0-.56A1.1,1.1,0,0,1,26.74,67.61Z"/>
              <path class="cls-1" d="M29.27,66.15c.27.15.27.4,0,.56a1.1,1.1,0,0,1-1,0c-.27-.16-.27-.41,0-.56A1,1,0,0,1,29.27,66.15Z"/>
              <path class="cls-1" d="M31.8,64.69c.27.15.27.4,0,.56a1.1,1.1,0,0,1-1,0,.3.3,0,0,1,0-.56A1,1,0,0,1,31.8,64.69Z"/>
              <path class="cls-1" d="M34.33,63.23c.27.15.27.4,0,.55a1,1,0,0,1-1,0,.29.29,0,0,1,0-.55A1,1,0,0,1,34.33,63.23Z"/>
              <ellipse class="cls-1" cx="36.38" cy="62.04" rx="0.68" ry="0.4"/>
              <ellipse class="cls-1" cx="38.91" cy="60.58" rx="0.68" ry="0.4"/>
              <ellipse class="cls-1" cx="41.44" cy="59.12" rx="0.68" ry="0.4"/>
              <ellipse class="cls-1" cx="43.97" cy="57.66" rx="0.68" ry="0.4"/>
              <ellipse class="cls-1" cx="46.5" cy="56.2" rx="0.68" ry="0.4"/>
              <path class="cls-1" d="M49.52,54.46c.27.15.27.4,0,.56a1.1,1.1,0,0,1-1,0c-.27-.16-.27-.41,0-.56A1,1,0,0,1,49.52,54.46Z"/>
              <path class="cls-1" d="M8.05,74.92a1,1,0,0,1,1,0,.3.3,0,0,1,0,.56,1.1,1.1,0,0,1-1,0C7.78,75.32,7.78,75.07,8.05,74.92Z"/>
              <path class="cls-1" d="M11.55,73.46c.27.15.27.4,0,.55a1,1,0,0,1-1,0,.29.29,0,0,1,0-.55A1,1,0,0,1,11.55,73.46Z"/>
              <path class="cls-1" d="M14.08,72c.27.16.27.41,0,.56a1,1,0,0,1-1,0,.3.3,0,0,1,0-.56A1.1,1.1,0,0,1,14.08,72Z"/>
              <path class="cls-1" d="M16.61,70.53c.27.16.27.41,0,.56a1,1,0,0,1-1,0c-.27-.15-.27-.4,0-.56A1.08,1.08,0,0,1,16.61,70.53Z"/>
              <path class="cls-1" d="M19.14,69.07c.27.16.27.41,0,.56a1.08,1.08,0,0,1-1,0c-.27-.15-.27-.4,0-.56A1.08,1.08,0,0,1,19.14,69.07Z"/>
              <ellipse class="cls-1" cx="21.19" cy="67.89" rx="0.68" ry="0.4"/>
              <ellipse class="cls-1" cx="23.72" cy="66.43" rx="0.68" ry="0.4"/>
              <ellipse class="cls-1" cx="26.25" cy="64.97" rx="0.68" ry="0.4"/>
              <ellipse class="cls-1" cx="28.79" cy="63.51" rx="0.68" ry="0.4"/>
              <ellipse class="cls-1" cx="31.32" cy="62.04" rx="0.68" ry="0.4"/>
              <path class="cls-1" d="M34.33,60.3c.27.16.27.41,0,.56a1,1,0,0,1-1,0,.3.3,0,0,1,0-.56A1.1,1.1,0,0,1,34.33,60.3Z"/>
              <path class="cls-1" d="M36.86,58.84c.27.16.27.41,0,.56a1,1,0,0,1-1,0,.3.3,0,0,1,0-.56A1.1,1.1,0,0,1,36.86,58.84Z"/>
              <path class="cls-1" d="M39.39,57.38c.27.15.27.4,0,.56a1.08,1.08,0,0,1-1,0c-.27-.16-.27-.41,0-.56A1.08,1.08,0,0,1,39.39,57.38Z"/>
              <path class="cls-1" d="M41.93,55.92a.3.3,0,0,1,0,.56,1.1,1.1,0,0,1-1,0c-.27-.16-.27-.41,0-.56A1,1,0,0,1,41.93,55.92Z"/>
              <ellipse class="cls-1" cx="43.97" cy="54.74" rx="0.68" ry="0.4"/>
              <path class="cls-1" d="M5.52,73.46a1,1,0,0,1,1,0,.3.3,0,0,1,0,.56,1.1,1.1,0,0,1-1,0C5.25,73.86,5.25,73.61,5.52,73.46Z"/>
              <path class="cls-1" d="M9,72c.27.16.27.41,0,.56a1,1,0,0,1-1,0c-.27-.15-.27-.4,0-.56A1.1,1.1,0,0,1,9,72Z"/>
              <ellipse class="cls-1" cx="11.07" cy="70.81" rx="0.68" ry="0.4"/>
              <path class="cls-1" d="M14.08,69.07c.27.16.27.41,0,.56a1.1,1.1,0,0,1-1,0,.3.3,0,0,1,0-.56A1.1,1.1,0,0,1,14.08,69.07Z"/>
              <ellipse class="cls-1" cx="16.13" cy="67.89" rx="0.68" ry="0.4"/>
              <path class="cls-1" d="M19.14,66.15c.27.15.27.4,0,.56a1.08,1.08,0,0,1-1,0c-.27-.16-.27-.41,0-.56A1,1,0,0,1,19.14,66.15Z"/>
              <path class="cls-1" d="M21.68,64.69a.3.3,0,0,1,0,.56,1.1,1.1,0,0,1-1,0c-.27-.16-.27-.41,0-.56A1,1,0,0,1,21.68,64.69Z"/>
              <path class="cls-1" d="M24.21,63.23a.29.29,0,0,1,0,.55,1,1,0,0,1-1,0c-.27-.15-.27-.4,0-.55A1,1,0,0,1,24.21,63.23Z"/>
              <path class="cls-1" d="M26.74,61.76c.27.16.27.41,0,.56a1,1,0,0,1-1,0Z"/>
              <path class="cls-1" d="M28.3,60.3a1.1,1.1,0,0,1,1,0c.27.16.27.41,0,.56a1,1,0,0,1-1,0c-.27-.15-.27-.4,0-.56Z"/>
              <path class="cls-1" d="M31.8,58.84c.27.16.27.41,0,.56a1,1,0,0,1-1,0,.3.3,0,0,1,0-.56A1.1,1.1,0,0,1,31.8,58.84Z"/>
              <ellipse class="cls-1" cx="33.85" cy="57.66" rx="0.68" ry="0.4"/>
              <ellipse class="cls-1" cx="36.38" cy="56.2" rx="0.68" ry="0.4"/>
              <ellipse class="cls-1" cx="38.91" cy="54.74" rx="0.68" ry="0.4"/>
              <ellipse class="cls-1" cx="41.44" cy="53.28" rx="0.68" ry="0.4"/>
              <path class="cls-1" d="M3,72a1,1,0,0,1,1,0c.27.16.27.41,0,.56a1,1,0,0,1-1,0C2.72,72.4,2.72,72.15,3,72Z"/>
              <path class="cls-1" d="M6.49,70.53c.27.16.27.41,0,.56a1,1,0,0,1-1,0c-.27-.15-.27-.4,0-.56A1.1,1.1,0,0,1,6.49,70.53Z"/>
              <path class="cls-1" d="M34.33,54.46c.27.15.27.4,0,.56a1.1,1.1,0,0,1-1,0Z"/>
            </g>
            <g>
              <g>
                <g>
                  <path class="cls-2" d="M26.31,54V46.59l9.89,5.71v7.37Z"/>
                  <polygon class="cls-2" points="26.32 46.59 35.35 41.4 45.24 47.11 36.21 52.3 26.32 46.59"/>
                  <polygon class="cls-3" points="26.46 49.01 35.35 43.91 45.24 49.61 36.12 54.57 26.46 49.01"/>
                  <path class="cls-1" d="M35.35,40.92,25.9,46.35v7.86l10.3,5.95,9.45-5.44V46.86Zm.43,18-9-5.23V47.31l9.05,5.23ZM27.16,46.59l8.19-4.71,9,5.23-8.19,4.7Z"/>
                </g>
                <g>
                  <path class="cls-2" d="M13.34,61.58V30.25L23.23,36V67.29Z"/>
                  <polygon class="cls-2" points="13.34 30.25 22.38 25.06 32.26 30.76 23.23 35.95 13.34 30.25"/>
                  <polygon class="cls-3" points="13.48 32.67 22.38 27.56 32.26 33.27 23.15 38.23 13.48 32.67"/>
                  <path class="cls-1" d="M22.38,24.57,12.93,30V61.82l10.3,5.95,9.45-5.43V30.52Zm.43,42-9-5.22V31l9,5.23ZM14.18,30.25l8.19-4.71,9.05,5.22-8.19,4.71Z"/>
                </g>
                <g>
                  <path class="cls-2" d="M.42,68.79V58.48l9.89,5.71V74.5Z"/>
                  <polygon class="cls-2" points="0.42 58.48 9.45 53.29 19.34 59 10.3 64.19 0.42 58.48"/>
                  <polygon class="cls-3" points="0.56 60.9 9.45 55.8 19.34 61.51 10.22 66.46 0.56 60.9"/>
                  <path class="cls-1" d="M9.45,52.81,0,58.24V69l10.3,6,9.46-5.43V58.76Zm.44,21-9-5.23V59.2l9.05,5.23ZM1.26,58.48l8.19-4.71L18.5,59l-8.19,4.71Z"/>
                </g>
              </g>
              <path class="cls-3" d="M25.78,22.45a3.4,3.4,0,0,0,2.8-2.05,3.57,3.57,0,0,0-.75-3.56,1.77,1.77,0,0,1-.46-1.66,1.53,1.53,0,0,1,1.28-.85l1.08-.18a3.42,3.42,0,0,0,2.72-2,3.53,3.53,0,0,0-.57-3.4l-.51-.7A1.62,1.62,0,0,1,31,6.48a1.57,1.57,0,0,1,1.33-.82l.34,0a3.45,3.45,0,0,0,2.86-2A3.57,3.57,0,0,0,34.83,0L33.34,1.2a1.73,1.73,0,0,1,.44,1.66,1.57,1.57,0,0,1-1.34.85l-.35,0a3.45,3.45,0,0,0-2.83,2,3.5,3.5,0,0,0,.56,3.44l.51.71a1.63,1.63,0,0,1,.34,1.55,1.55,1.55,0,0,1-1.26.83l-1.08.18a3.4,3.4,0,0,0-2.75,2.06A3.61,3.61,0,0,0,26.34,18a1.71,1.71,0,0,1,.45,1.66,1.54,1.54,0,0,1-1.31.86Z"/>
              <path class="cls-3" d="M12,26.89a1.78,1.78,0,0,0-.67-1.7,1.87,1.87,0,0,0-1.91-.09.92.92,0,0,1-.9,0,.8.8,0,0,1-.27-.76l.05-.58a1.75,1.75,0,0,0-.65-1.64A1.83,1.83,0,0,0,5.87,22l-.43.16a.87.87,0,0,1-.84,0,.84.84,0,0,1-.24-.79l0-.18a1.8,1.8,0,0,0-.66-1.72,1.85,1.85,0,0,0-1.91-.1l.41.91a.89.89,0,0,1,.9,0,.84.84,0,0,1,.26.79l0,.19A1.79,1.79,0,0,0,4,22.9a1.86,1.86,0,0,0,1.83.17l.42-.17a.93.93,0,0,1,.84,0,.84.84,0,0,1,.25.76l-.05.57A1.78,1.78,0,0,0,8,25.93a1.86,1.86,0,0,0,1.9.08.89.89,0,0,1,.9,0,.77.77,0,0,1,.26.77Z"/>
              <path class="cls-3" d="M32.61,27.56a3.18,3.18,0,1,0-3.18-3.17A3.18,3.18,0,0,0,32.61,27.56Zm0-5.4a2.23,2.23,0,1,1-2.22,2.23A2.22,2.22,0,0,1,32.6,22.16Z"/>
              <path class="cls-3" d="M8.2,34a3,3,0,1,0-3.52-2.42A3,3,0,0,0,8.2,34Zm-.94-5A2.11,2.11,0,1,1,5.57,31.4,2.1,2.1,0,0,1,7.26,28.94Z"/>
              <path class="cls-4" d="M27.9,37.79l.93-.53V50.1l-1.3.75V40a3.3,3.3,0,0,1-.61.82,4,4,0,0,1-.77.61V40.41a4.55,4.55,0,0,0,1-1.1A5.21,5.21,0,0,0,27.9,37.79Z"/>
            </g>
          </g>
        </g>
      </g>
    </g>
  </g>
</svg>
