<svg xmlns="http://www.w3.org/2000/svg" viewBox="0 0 54.37 71.89">
  <defs>
    <style>
      .cls-1 {
        fill: #16110d;
      }

      .cls-2 {
        fill: #1677ff;
      }

      .cls-3 {
        fill: #140f0c;
      }

      .cls-4 {
        fill: #9cc9ff;
      }

      .cls-5 {
        fill: #130e0c;
      }
    </style>
  </defs>
  <g id="Layer_2" data-name="Layer 2">
    <g id="content">
      <g id="_6" data-name="6">
        <g>
          <g>
            <path class="cls-1" d="M27.5,67.07c-.27.15-.27.4,0,.56a1.1,1.1,0,0,0,1,0c.27-.16.27-.41,0-.56A1,1,0,0,0,27.5,67.07Z"/>
            <ellipse class="cls-1" cx="25.45" cy="65.89" rx="0.68" ry="0.4"/>
            <ellipse class="cls-1" cx="22.92" cy="64.43" rx="0.68" ry="0.4"/>
            <ellipse class="cls-1" cx="20.39" cy="62.96" rx="0.68" ry="0.4"/>
            <path class="cls-1" d="M30,65.61c-.27.15-.27.4,0,.56a1.1,1.1,0,0,0,1,0c.27-.16.27-.41,0-.56A1,1,0,0,0,30,65.61Z"/>
            <path class="cls-1" d="M27.5,64.15c-.27.15-.27.4,0,.56a1.1,1.1,0,0,0,1,0c.27-.16.27-.41,0-.56A1,1,0,0,0,27.5,64.15Z"/>
            <path class="cls-1" d="M25,62.69c-.27.15-.27.4,0,.55a1,1,0,0,0,1,0c.27-.15.27-.4,0-.55A1,1,0,0,0,25,62.69Z"/>
            <ellipse class="cls-1" cx="22.92" cy="61.5" rx="0.68" ry="0.4"/>
            <path class="cls-1" d="M32.56,64.15a.3.3,0,0,0,0,.56,1.1,1.1,0,0,0,1,0c.27-.16.27-.41,0-.56A1,1,0,0,0,32.56,64.15Z"/>
            <ellipse class="cls-1" cx="30.52" cy="62.96" rx="0.68" ry="0.4"/>
            <path class="cls-1" d="M27.5,61.22c-.27.16-.27.41,0,.56a1,1,0,0,0,1,0c.27-.15.27-.4,0-.56A1.1,1.1,0,0,0,27.5,61.22Z"/>
            <ellipse class="cls-1" cx="25.45" cy="60.04" rx="0.68" ry="0.4"/>
            <path class="cls-1" d="M35.09,62.69a.29.29,0,0,0,0,.55,1,1,0,0,0,1,0c.27-.15.27-.4,0-.55A1,1,0,0,0,35.09,62.69Z"/>
            <path class="cls-1" d="M32.56,61.22a.3.3,0,0,0,0,.56,1,1,0,0,0,1,0c.27-.15.27-.4,0-.56A1.1,1.1,0,0,0,32.56,61.22Z"/>
            <path class="cls-1" d="M30,59.76c-.27.16-.27.41,0,.56a1,1,0,0,0,1,0c.27-.15.27-.4,0-.56A1.1,1.1,0,0,0,30,59.76Z"/>
            <path class="cls-1" d="M27.5,58.3c-.27.16-.27.41,0,.56a1.1,1.1,0,0,0,1,0c.27-.15.27-.4,0-.56A1.1,1.1,0,0,0,27.5,58.3Z"/>
            <ellipse class="cls-1" cx="38.11" cy="61.5" rx="0.68" ry="0.4"/>
            <path class="cls-1" d="M35.09,59.76a.3.3,0,0,0,0,.56,1,1,0,0,0,1,0c.27-.15.27-.4,0-.56A1.1,1.1,0,0,0,35.09,59.76Z"/>
            <path class="cls-1" d="M32.56,58.3a.3.3,0,0,0,0,.56,1.1,1.1,0,0,0,1,0c.27-.15.27-.4,0-.56A1.1,1.1,0,0,0,32.56,58.3Z"/>
            <path class="cls-1" d="M30,56.84c-.27.15-.27.4,0,.56a1.1,1.1,0,0,0,1,0c.27-.16.27-.41,0-.56A1.1,1.1,0,0,0,30,56.84Z"/>
            <ellipse class="cls-1" cx="40.66" cy="60.03" rx="0.68" ry="0.4"/>
            <ellipse class="cls-1" cx="38.13" cy="58.57" rx="0.68" ry="0.4"/>
            <path class="cls-1" d="M35.12,56.82c-.27.16-.27.41,0,.56a1,1,0,0,0,1,0c.27-.15.27-.4,0-.56A1.08,1.08,0,0,0,35.12,56.82Z"/>
            <path class="cls-1" d="M32.59,55.36c-.27.16-.27.41,0,.56a1,1,0,0,0,1,0c.27-.15.27-.4,0-.56A1.08,1.08,0,0,0,32.59,55.36Z"/>
            <ellipse class="cls-1" cx="40.66" cy="57.1" rx="0.68" ry="0.4"/>
            <path class="cls-1" d="M37.65,55.36c-.27.16-.27.41,0,.56a1,1,0,0,0,1,0,.3.3,0,0,0,0-.56A1.1,1.1,0,0,0,37.65,55.36Z"/>
            <path class="cls-1" d="M14.75,71.22c-.27.15-.27.4,0,.56a1.08,1.08,0,0,0,1,0c.27-.16.27-.41,0-.56A1.08,1.08,0,0,0,14.75,71.22Z"/>
            <path class="cls-1" d="M12.21,69.76a.3.3,0,0,0,0,.56,1.1,1.1,0,0,0,1,0c.27-.16.27-.41,0-.56A1,1,0,0,0,12.21,69.76Z"/>
            <path class="cls-1" d="M19.81,71.22c-.27.15-.27.4,0,.56a1.1,1.1,0,0,0,1,0,.3.3,0,0,0,0-.56A1.1,1.1,0,0,0,19.81,71.22Z"/>
            <path class="cls-1" d="M17.28,69.76c-.27.15-.27.4,0,.56a1.1,1.1,0,0,0,1,0,.3.3,0,0,0,0-.56A1,1,0,0,0,17.28,69.76Z"/>
            <path class="cls-1" d="M14.75,68.3c-.27.15-.27.4,0,.56a1.08,1.08,0,0,0,1,0c.27-.16.27-.41,0-.56A1,1,0,0,0,14.75,68.3Z"/>
            <ellipse class="cls-1" cx="12.7" cy="67.11" rx="0.68" ry="0.4"/>
            <ellipse class="cls-1" cx="22.82" cy="70.04" rx="0.68" ry="0.4"/>
            <path class="cls-1" d="M19.81,68.3c-.27.15-.27.4,0,.56a1.1,1.1,0,0,0,1,0,.3.3,0,0,0,0-.56A1,1,0,0,0,19.81,68.3Z"/>
            <ellipse class="cls-1" cx="17.76" cy="67.11" rx="0.68" ry="0.4"/>
            <path class="cls-1" d="M14.75,65.37c-.27.16-.27.41,0,.56a1,1,0,0,0,1,0c.27-.15.27-.4,0-.56A1.08,1.08,0,0,0,14.75,65.37Z"/>
            <path class="cls-1" d="M24.87,68.3c-.27.15-.27.4,0,.56a1.1,1.1,0,0,0,1,0c.27-.16.27-.41,0-.56A1,1,0,0,0,24.87,68.3Z"/>
            <path class="cls-1" d="M22.34,66.84c-.27.15-.27.4,0,.55a1,1,0,0,0,1,0,.29.29,0,0,0,0-.55A1,1,0,0,0,22.34,66.84Z"/>
            <path class="cls-1" d="M19.81,65.37c-.27.16-.27.41,0,.56a1,1,0,0,0,1,0,.3.3,0,0,0,0-.56A1.1,1.1,0,0,0,19.81,65.37Z"/>
            <ellipse class="cls-1" cx="17.76" cy="64.19" rx="0.68" ry="0.4"/>
          </g>
          <g>
            <g>
              <path class="cls-2" d="M.28,43.26c0-14.67,10.3-32.51,23-39.84,5.93-3.42,11.33-3.95,15.4-2h0a10.42,10.42,0,0,1,1.49.85l7.33,4.16-2.08,3.69a24.87,24.87,0,0,1,.84,6.63c0,14.67-10.3,32.5-23,39.83a25.23,25.23,0,0,1-5.36,2.37L15.6,63,7.43,58.36c-.24-.13-.48-.26-.71-.4l-.13-.08h0C2.69,55.37.28,50.33.28,43.26Z"/>
              <path class="cls-3" d="M7.3,58.61c-.25-.13-.49-.27-.72-.41L6.27,58v0C2.22,55.31,0,50.08,0,43.26,0,28.52,10.38,10.54,23.14,3.18,28.86-.13,34.37-.88,38.67,1.05V1l.14.08A11.78,11.78,0,0,1,40.33,2l7.58,4.31-2.16,3.83a25.3,25.3,0,0,1,.82,6.59c0,14.73-10.39,32.71-23.15,40.08a25.54,25.54,0,0,1-5.3,2.35l-2.41,4.28ZM40,2.46a10.42,10.42,0,0,0-1.34-.78h0l-.13-.06C34.42-.3,29,.42,23.42,3.67,10.82,10.94.57,28.7.57,43.26.57,50,2.76,55.08,6.75,57.64l.12.07c.22.14.45.27.7.4l7.92,4.52,2.24-4,.11,0a25.13,25.13,0,0,0,5.3-2.33C35.74,49,46,31.25,46,16.7a24.46,24.46,0,0,0-.83-6.55l0-.11,2-3.55Z"/>
            </g>
            <path class="cls-4" d="M3.71,42.55A41.94,41.94,0,0,1,24.51,6.6a22.49,22.49,0,0,1,8.6-3L40.7,7.89l.12-.23a25.32,25.32,0,0,0,2.75-1l5.17,2.93-2.08,3.7a24.4,24.4,0,0,1,.84,6.62c0,14.67-10.29,32.5-23,39.84a25.91,25.91,0,0,1-5.36,2.36l-.12.23-8.18-4.66c-.24-.13-.47-.26-.7-.41L10,57.17h0C6.11,54.66,3.71,49.62,3.71,42.55Z"/>
            <path class="cls-3" d="M6.59,57.88h0C2.69,55.37.28,50.33.28,43.26.28,36.46,2.5,29,6.14,22.18l8.47,4.91s4.7,11.19,4.7,12.16c0,.64-.68,11.89-1.12,19.56-.09,0-.18.06-.27.09L15.6,63,7.43,58.36c-.24-.13-.48-.26-.71-.4Z"/>
            <g>
              <path class="cls-4" d="M8.09,47.72c0,14.67,10.29,20.62,23,13.28s23-25.17,23-39.83S43.79.56,31.09,7.89,8.09,33.06,8.09,47.72Z"/>
              <path class="cls-3" d="M14.68,62.86C10.25,60.3,7.8,54.92,7.8,47.72,7.8,33,18.18,15,30.94,7.64,37.18,4,43.05,3.47,47.49,6S54.37,14,54.37,21.17C54.37,35.9,44,53.88,31.23,61.25a21.19,21.19,0,0,1-10.42,3.19A12.17,12.17,0,0,1,14.68,62.86ZM31.23,8.13c-12.61,7.28-22.86,25-22.86,39.59,0,7,2.34,12.19,6.6,14.65s9.92,1.88,16-1.61c12.61-7.28,22.86-25,22.86-39.59,0-7-2.34-12.19-6.59-14.65A11.58,11.58,0,0,0,41.36,5,20.7,20.7,0,0,0,31.23,8.13Z"/>
            </g>
            <g>
              <ellipse class="cls-4" cx="31.09" cy="34.45" rx="27.85" ry="16.08" transform="translate(-14.29 44.14) rotate(-60)"/>
              <ellipse class="cls-2" cx="30.92" cy="36.58" rx="27.85" ry="16.08" transform="translate(-16.22 45.07) rotate(-60)"/>
              <path class="cls-3" d="M17,58.81c-3.81-2.2-5.91-6.82-5.91-13,0-12.62,8.9-28,19.83-34.35,5.36-3.09,10.4-3.58,14.21-1.38s5.91,6.82,5.91,13c0,12.62-8.9,28-19.83,34.35a18.15,18.15,0,0,1-8.94,2.73A10.47,10.47,0,0,1,17,58.81ZM31.23,12C20.45,18.18,11.68,33.37,11.68,45.81c0,6,2,10.41,5.62,12.51s8.48,1.6,13.64-1.38c10.78-6.23,19.55-21.42,19.55-33.86,0-6-2-10.41-5.62-12.5a9.81,9.81,0,0,0-5-1.28A17.66,17.66,0,0,0,31.23,12Z"/>
            </g>
            <g>
              <path class="cls-3" d="M29.54,56.22C40.41,50,49.23,34.68,49.23,22.12c0-5.34-1.47-9.38-4.14-11.72,0,0,0,0,0,0,3.58,2,5.68,6.52,5.68,12.82C50.78,35.76,42,51,31.09,57.3c-6.15,3.55-11.77,3.23-15.39.22,0,0,0,0,0,0C19.26,59.4,24.23,59.29,29.54,56.22Z"/>
              <path class="cls-3" d="M15.52,57.73l-.2-.18.31-.43.22.12c3.73,2,8.67,1.55,13.55-1.26C40.18,49.75,49,34.57,49,22.12c0-5.21-1.4-9.19-4.05-11.51l-.19-.18L45,10l.22.13c3.76,2.14,5.82,6.78,5.82,13.06,0,12.63-8.9,28-19.83,34.35a17.73,17.73,0,0,1-8.74,2.6A10.62,10.62,0,0,1,15.52,57.73Zm34-35.61c0,12.63-8.89,28-19.83,34.35-4,2.29-8,3.07-11.44,2.27,3.56,1.53,8.12,1,12.7-1.68C41.72,50.83,50.49,35.64,50.49,23.2c0-4.67-1.16-8.38-3.32-10.78A18.06,18.06,0,0,1,49.51,22.12Z"/>
            </g>
            <path class="cls-5" d="M41.18,40.13h0c.29-.52.27-1.07,0-1.23L30.58,33.58c-.31-.15-.79.15-1.08.67h0c-.29.52-.27,1.07,0,1.23L40.1,40.8C40.41,41,40.89,40.66,41.18,40.13Z"/>
            <path class="cls-4" d="M41.39,39.41v0c.29-.52.28-1.07,0-1.22L30.79,32.86c-.31-.16-.8.14-1.08.66h0c-.29.53-.27,1.08,0,1.23l10.58,5.31C40.62,40.23,41.1,39.93,41.39,39.41Z"/>
            <g>
              <path class="cls-3" d="M28,34.82a7.41,7.41,0,0,1,2-3.5c1.33-1.28,2.59-1.59,3.45-1.16l.07,0h0l.08,0L35,31a.36.36,0,0,1,.12.48l-.51.85s0,0,0,.06a7.49,7.49,0,0,1-3.38,5.85l-.21.11-.43.73a.35.35,0,0,1-.48.12L29,38.55a1.75,1.75,0,0,1-.27-.16l.06,0-.09-.06C27.93,37.81,27.6,36.58,28,34.82Z"/>
              <path class="cls-3" d="M30,39.45l-1.11-.64a3.37,3.37,0,0,1-.32-.19h0l0,0c-.91-.68-1.18-2.08-.74-3.85h0a7.57,7.57,0,0,1,2.12-3.64c1.32-1.27,2.73-1.72,3.76-1.21l.08,0,.09.06,1.31.76a.64.64,0,0,1,.22.87l-.46.78a7.79,7.79,0,0,1-3.52,6.08l-.15.08-.39.65a.64.64,0,0,1-.55.31A.71.71,0,0,1,30,39.45Zm.31-7.93a7,7,0,0,0-2,3.37h0c-.38,1.51-.18,2.72.52,3.25l.09,0h0a1.06,1.06,0,0,0,.19.11l1.13.65s.08,0,.09,0l.44-.73.09-.09.07,0,.14-.07a7.19,7.19,0,0,0,3.24-5.66v-.08l.55-.92,0-.09-1.31-.77-.13-.07a1.53,1.53,0,0,0-.67-.15A3.82,3.82,0,0,0,30.28,31.52Z"/>
            </g>
            <g>
              <path class="cls-4" d="M29.32,37.14c0,2.15,1.52,3,3.38,2a7.47,7.47,0,0,0,3.38-5.86c0-2.15-1.51-3-3.38-1.95A7.5,7.5,0,0,0,29.32,37.14Z"/>
              <path class="cls-3" d="M30.17,39.57A2.63,2.63,0,0,1,29,37.14,7.79,7.79,0,0,1,32.56,31a2.63,2.63,0,0,1,2.67-.24,2.63,2.63,0,0,1,1.14,2.43,7.79,7.79,0,0,1-3.52,6.1,3.31,3.31,0,0,1-1.66.51A2,2,0,0,1,30.17,39.57Zm2.68-8a7.16,7.16,0,0,0-3.24,5.61,2.11,2.11,0,0,0,.85,1.94,2.11,2.11,0,0,0,2.1-.24,7.15,7.15,0,0,0,3.24-5.61A2.11,2.11,0,0,0,35,31.29a1.54,1.54,0,0,0-.74-.19A2.79,2.79,0,0,0,32.85,31.53Z"/>
            </g>
            <g>
              <path class="cls-2" d="M32.22,34.23c1.18-.68,2.15-.13,2.15,1.24a2.72,2.72,0,0,1,0,.49,4.48,4.48,0,0,1-1.62,1.81c-1.18.68-2.14.13-2.14-1.24a2.77,2.77,0,0,1,0-.49A4.48,4.48,0,0,1,32.22,34.23Z"/>
              <path class="cls-3" d="M31,38.06a1.79,1.79,0,0,1-.77-1.63,5,5,0,0,1,2.29-4A1.58,1.58,0,0,1,35.13,34a5,5,0,0,1-2.28,4,2.27,2.27,0,0,1-1.11.33A1.4,1.4,0,0,1,31,38.06ZM32.85,33a4.44,4.44,0,0,0-2,3.48,1,1,0,0,0,1.72,1,4.44,4.44,0,0,0,2-3.47,1.26,1.26,0,0,0-.49-1.15.82.82,0,0,0-.42-.1A1.64,1.64,0,0,0,32.85,33Z"/>
            </g>
            <path class="cls-3" d="M26.05,20.08c.36-.35.75-.36.88,0l4.15,11.48-.25.21a7.54,7.54,0,0,0-1,1.19L25.63,21.33A1.38,1.38,0,0,1,26.05,20.08Z"/>
            <polygon class="cls-3" points="41.65 4.75 33.82 0.29 37.34 0.85 39.23 1.64 45.84 5.38 43.19 4.75 41.65 4.75"/>
            <polygon class="cls-3" points="14.86 25 15.15 24.51 7.41 19.93 7.12 20.42 14.86 25"/>
            <rect class="cls-3" x="15.51" y="11.22" width="0.57" height="8.99" transform="translate(-5.7 21.54) rotate(-60)"/>
            <rect class="cls-3" x="35.21" y="-1.93" width="0.57" height="9.14" transform="translate(15.93 32.38) rotate(-60.91)"/>
          </g>
        </g>
      </g>
    </g>
  </g>
</svg>
