<svg xmlns="http://www.w3.org/2000/svg" viewBox="0 0 18.01 20.02">
  <g id="Layer_2" data-name="Layer 2">
    <g id="Layer_1-2" data-name="Layer 1">
      <g id="Iconly_Light-outline_Calendar" data-name="Iconly Light-outline Calendar">
        <g id="Calendar-6">
          <path id="Calendar-7" d="M5.11,20a5.12,5.12,0,0,1-3.73-1.35A5.14,5.14,0,0,1,0,14.91V6.5A5,5,0,0,1,1.38,2.81,5,5,0,0,1,4.59,1.5V.71A.69.69,0,0,1,5.27,0a.69.69,0,0,1,.7.6v.87h6.08V.71a.69.69,0,0,1,1.37-.1V1.5a5,5,0,0,1,3.25,1.35A5.06,5.06,0,0,1,18,6.5V15a5.06,5.06,0,0,1-1.37,3.69A5.18,5.18,0,0,1,12.91,20Zm-3.72-5.1a3.34,3.34,0,0,0,2.94,3.7,3.39,3.39,0,0,0,.78,0h7.8c2.39,0,3.71-1.29,3.71-3.63V8.29H1.39Zm15.23-8V6.5a3.59,3.59,0,0,0-.92-2.66,3.51,3.51,0,0,0-2.27-.94v.88a.69.69,0,0,1-1.38.09v-1H6v.9a.68.68,0,0,1-.68.69.68.68,0,0,1-.69-.6v-1A3.22,3.22,0,0,0,1.37,6.15c0,.11,0,.23,0,.35v.4Zm-4.21,8a.71.71,0,0,1,.6-.7h.1a.7.7,0,0,1,.68.72.72.72,0,0,1-.58.67h-.1A.7.7,0,0,1,12.41,14.85Zm-4.1,0a.71.71,0,0,1,.6-.7H9a.7.7,0,0,1,.68.72.71.71,0,0,1-.58.67H9a.69.69,0,0,1-.69-.69Zm-4.1,0a.71.71,0,0,1,.6-.7h.1a.7.7,0,0,1,.67.73.7.7,0,0,1-.57.66h-.1a.69.69,0,0,1-.7-.69Zm8.2-3.62a.7.7,0,0,1,.6-.69h.1a.7.7,0,0,1,.1,1.39h-.1A.72.72,0,0,1,12.41,11.23Zm-4.1,0a.7.7,0,0,1,.6-.69H9a.71.71,0,0,1,.68.73.69.69,0,0,1-.58.66H9a.7.7,0,0,1-.69-.7Zm-4.1,0a.7.7,0,0,1,.6-.69h.1A.7.7,0,0,1,5,11.92h-.1a.71.71,0,0,1-.7-.7Z"/>
        </g>
      </g>
    </g>
  </g>
</svg>
