<svg xmlns="http://www.w3.org/2000/svg" viewBox="0 0 44.3 75.68">
  <defs>
    <style>
      .cls-1 {
        fill: #4d4e50;
      }
    </style>
  </defs>
  <g id="Layer_2" data-name="Layer 2">
    <g id="Object">
      <g>
        <path class="cls-1" d="M44.3,9.8A11.94,11.94,0,0,0,39.59.14a.65.65,0,0,0-1.05.51V9l-6.23,3.83L26.07,9V.65a.65.65,0,0,0-1-.52,12,12,0,0,0,2.51,20.53V54.53A12,12,0,0,0,25,75a.65.65,0,0,0,1-.52V66.19l6.24-3.83,6.23,3.83v8.33a.65.65,0,0,0,1.05.52,12,12,0,0,0-2.52-20.52V20.65A12,12,0,0,0,44.3,9.8Z"/>
        <path class="cls-1" d="M13.06,34.76H9.32V12.48L11,9.88,9,0H5L3,9.88l1.64,2.6V34.76H.92A1,1,0,0,0,0,35.81v1.8a1,1,0,0,0,.92,1h.21A8.46,8.46,0,0,0,0,42.92V68c0,4.25,3,7.69,6.74,7.69h.5C11,75.68,14,72.24,14,68V42.92a8.46,8.46,0,0,0-1.13-4.26h.2a1,1,0,0,0,.93-1v-1.8A1,1,0,0,0,13.06,34.76ZM3.3,70.49H1.8V42.92H3.3Zm4.36,0H6.15V42.92H7.66Zm4.36,0H10.51V42.92H12Z"/>
      </g>
    </g>
  </g>
</svg>
