<svg xmlns="http://www.w3.org/2000/svg" viewBox="0 0 657.78 416.75">
  <defs>
    <style>
      .cls-1 {
        fill: #ebebeb;
      }

      .cls-2 {
        fill: #dbdbdb;
      }

      .cls-3 {
        fill: #fff;
      }

      .cls-4 {
        fill: #263238;
      }

      .cls-5 {
        fill: #1677ff;
      }

      .cls-6 {
        opacity: 0.1;
      }

      .cls-7 {
        fill: #455a64;
      }

      .cls-8 {
        fill: #f7a9a0;
      }

      .cls-9 {
        fill: #a6a6a6;
      }

      .cls-10 {
        fill: #37474f;
      }

      .cls-11 {
        fill: #ad6359;
      }

      .cls-12 {
        fill: #c7c7c7;
      }

      .cls-13 {
        fill: #ff9cbd;
      }

      .cls-14 {
        fill: #d3766a;
      }
    </style>
  </defs>
  <g id="Layer_2" data-name="Layer 2">
    <g id="Background_Complete" data-name="Background Complete">
      <g>
        <polygon class="cls-1" points="10.62 325.67 197.31 325.67 201.2 249.06 6.73 249.06 10.62 325.67"/>
        <g>
          <path class="cls-2" d="M188.46,284.13H110.41L109,257.53h81.22Zm-77.16-.94h76.28l1.59-24.71H109.94Z"/>
          <path class="cls-2" d="M187,314.73H113.47l-1.2-24h76.25Zm-72.66-1h71.78l1.38-22.12H113.26Z"/>
          <path class="cls-2" d="M157,273.72H143.84L143,267.3h14.77Zm-12.28-1h11.45l.59-4.53H144.08Z"/>
          <path class="cls-2" d="M157,305.93H143.84l-.83-6.41h14.77ZM144.67,305h11.45l.59-4.53H144.08Z"/>
        </g>
        <g>
          <path class="cls-2" d="M96.65,284.13H18.6l-1.46-26.6H98.36Zm-77.16-.94H95.77l1.59-24.71H18.13Z"/>
          <path class="cls-2" d="M95.21,314.73H21.66l-1.2-24H96.71Zm-72.66-1H94.33l1.38-22.12H21.45Z"/>
          <path class="cls-2" d="M65.14,273.72H52l-.83-6.42H66Zm-12.28-1H64.31l.59-4.53H52.27Z"/>
          <path class="cls-2" d="M65.14,305.93H52l-.83-6.41H66ZM52.86,305H64.31l.59-4.53H52.27Z"/>
        </g>
        <g>
          <polygon class="cls-1" points="27.36 325.67 26.19 334.01 23.83 350.78 19.22 350.78 19.22 325.67 27.36 325.67"/>
          <polygon class="cls-2" points="27.36 325.67 26.19 334.01 19.22 334.01 19.22 325.67 27.36 325.67"/>
        </g>
        <g>
          <polygon class="cls-1" points="180.57 325.67 181.74 334.01 184.1 350.78 188.71 350.78 188.71 325.67 180.57 325.67"/>
          <polygon class="cls-2" points="180.57 325.67 181.74 334.01 188.71 334.01 188.71 325.67 180.57 325.67"/>
        </g>
      </g>
      <g>
        <path class="cls-1" d="M596.91,280.75l13.35-.28,6.58-.12c2.19,0,4.37,0,6.55-.05l-.45.45-.05-11.19.5.5L610.15,270c-4.41,0-8.83-.11-13.24-.16l.27-.27c0,1.83-.08,3.67-.13,5.53Zm0,0-.14-5.54c0-1.87-.12-3.76-.13-5.65v-.27h.28c4.41,0,8.83-.16,13.24-.16l13.24-.06h.5v.51l0,11.19v.44h-.44c-2.23,0-4.47,0-6.7-.05L610,281Z"/>
        <path class="cls-1" d="M611.68,294.86l13.36-.28,6.58-.12c2.18,0,4.36,0,6.54,0l-.44.45-.06-11.19.5.49-13.24-.06c-4.41,0-8.83-.11-13.24-.16l.27-.27c0,1.83-.08,3.67-.13,5.53Zm0,0-.14-5.54c0-1.87-.11-3.76-.13-5.65v-.27h.28c4.41-.05,8.83-.16,13.24-.16l13.24-.06h.5v.51l0,11.19v.44h-.44c-2.23,0-4.47,0-6.69-.05l-6.66-.12Z"/>
        <path class="cls-1" d="M582.14,294.86l13.35-.28,6.58-.12c2.19,0,4.37,0,6.55,0l-.45.45,0-11.19.5.49-13.24-.06c-4.42,0-8.83-.11-13.24-.16l.27-.27c0,1.83-.09,3.67-.13,5.53Zm0,0-.14-5.54c0-1.87-.12-3.76-.14-5.65v-.27h.28c4.41-.05,8.82-.16,13.24-.16l13.24-.06h.5v.51l-.06,11.19v.44h-.44c-2.23,0-4.47,0-6.7-.05l-6.66-.12Z"/>
        <path class="cls-1" d="M27.68,294.86,41,294.58l6.57-.12c2.19,0,4.37,0,6.55,0l-.45.45-.05-11.19.5.49-13.24-.06c-4.41,0-8.83-.11-13.24-.16l.27-.27c0,1.83-.08,3.67-.13,5.53Zm0,0-.14-5.54c-.05-1.87-.11-3.76-.13-5.65v-.27h.28c4.41-.05,8.83-.16,13.24-.16l13.24-.06h.5v.51l0,11.19v.44h-.44c-2.23,0-4.47,0-6.69-.05l-6.67-.12Z"/>
        <path class="cls-1" d="M455.85,70.85l13.36-.28,6.58-.11c2.18,0,4.36,0,6.54-.06l-.44.45-.06-11.19.5.5-13.24-.06c-4.41,0-8.83-.12-13.24-.17l.27-.27c0,1.83-.08,3.67-.13,5.53Zm0,0-.14-5.54c0-1.86-.11-3.75-.13-5.65v-.27h.27c4.41-.06,8.83-.16,13.24-.17l13.24-.06h.5v.5l-.05,11.19v.45h-.44c-2.23,0-4.47,0-6.69-.05L469,71.13Z"/>
        <path class="cls-1" d="M27.68,19,41,18.71l6.57-.11c2.19-.05,4.37,0,6.55-.06l-.45.45L53.66,7.8l.5.5L40.92,8.23c-4.41,0-8.83-.11-13.24-.16L28,7.8c0,1.83-.08,3.67-.13,5.53Zm0,0-.14-5.54c-.05-1.87-.11-3.75-.13-5.65V7.53h.28c4.41,0,8.83-.15,13.24-.16L54.16,7.3h.5v.5l0,11.19v.45h-.44c-2.23,0-4.47,0-6.69-.05l-6.67-.11Z"/>
        <path class="cls-1" d="M12.91,33.1l13.35-.28,6.58-.11c2.19-.05,4.37,0,6.55-.06l-.45.45,0-11.19.5.5-13.24-.07c-4.42,0-8.83-.11-13.24-.16l.27-.27c0,1.83-.09,3.67-.13,5.53Zm0,0-.14-5.54c0-1.87-.12-3.75-.14-5.65v-.27h.28c4.41-.05,8.82-.15,13.24-.16l13.24-.06h.5v.5L39.83,33.1v.45h-.44c-2.23,0-4.47,0-6.7,0L26,33.38Z"/>
        <path class="cls-1" d="M611.68,19,625,18.72l6.58-.11c2.18-.05,4.36,0,6.54-.06l-.44.45-.06-11.19.5.5-13.24-.06c-4.41,0-8.83-.12-13.24-.17l.27-.27c0,1.83-.08,3.67-.13,5.54Zm0,0-.14-5.54c0-1.86-.11-3.75-.13-5.65V7.54h.28c4.41,0,8.83-.16,13.24-.17l13.24-.06h.5v.5l0,11.19v.45h-.44c-2.23,0-4.47,0-6.69-.06l-6.66-.11Z"/>
        <path class="cls-1" d="M365.82,124.54l-13.36.28-6.58.11c-2.19,0-4.36,0-6.54.06l.44-.45.06,11.19-.5-.5,13.24.07c4.41,0,8.82.11,13.24.16l-.28.27c0-1.83.09-3.67.13-5.53Zm0,0,.14,5.54c0,1.87.11,3.75.13,5.65V136h-.27c-4.42.05-8.83.15-13.24.16l-13.24.06h-.51v-.5l.05-11.19v-.45h.45c2.23,0,4.46,0,6.69.05l6.66.11Z"/>
        <path class="cls-1" d="M351,110.43l-13.35.28-6.58.11c-2.19.05-4.36,0-6.55.06l.45-.45.05,11.19-.5-.5,13.24.07c4.42,0,8.83.11,13.24.16l-.27.27c0-1.83.09-3.67.13-5.53Zm0,0,.15,5.54c0,1.87.11,3.75.13,5.65v.27H351c-4.41,0-8.82.15-13.24.16l-13.24.06h-.5v-.5l.06-11.19V110h.44c2.24,0,4.47,0,6.7.05l6.66.11Z"/>
      </g>
      <g>
        <path class="cls-1" d="M581,46.12a14.74,14.74,0,0,1,2.55,5.19,9.47,9.47,0,0,1-.82,6.07c-.29.69-.67,1.52-1.14,2.48a19.47,19.47,0,0,0-1.18,3.08,10.38,10.38,0,0,0-.41,3.31,5.57,5.57,0,0,0,1.15,3.13A5.34,5.34,0,0,0,582.94,71a5.5,5.5,0,0,0,2.13.6,5.76,5.76,0,0,0,2.22-.32,7.48,7.48,0,0,0,2.06-1.07,6.64,6.64,0,0,0,1.79-1.93,8.9,8.9,0,0,0,1-2.23,9.82,9.82,0,0,0,.35-2.35,17.1,17.1,0,0,0,0-2.18l6.83-.22a12.42,12.42,0,0,1,.31,4.19,13.6,13.6,0,0,1-1,4,14.67,14.67,0,0,1-2.13,3.58,16.59,16.59,0,0,1-3.11,3,16.91,16.91,0,0,1-4.32,2.3,12.32,12.32,0,0,1-4.8.74,11.67,11.67,0,0,1-4.85-1.36,13,13,0,0,1-4.4-3.94,12.61,12.61,0,0,1-1.78-3.23,10.19,10.19,0,0,1-.59-3.14,12.31,12.31,0,0,1,.34-3.13A23.92,23.92,0,0,1,574,61c.39-.93.79-1.84,1.2-2.74a15.87,15.87,0,0,0,1-2.67,8,8,0,0,0,.21-2.65,5.22,5.22,0,0,0-1.08-2.61Zm-9-12,5.3,7.18-5.77,4.26-5.3-7.18Z"/>
        <path class="cls-1" d="M605.85,34.51A16.27,16.27,0,0,1,607,28.26a10.28,10.28,0,0,1,4.68-4.83c.71-.43,1.59-.91,2.63-1.46A20.61,20.61,0,0,0,617.35,20a10.78,10.78,0,0,0,2.52-2.66,6.11,6.11,0,0,0,1-3.51,5.79,5.79,0,0,0-.57-2.63,5.91,5.91,0,0,0-1.49-1.92,6.18,6.18,0,0,0-2.16-1.17,8.39,8.39,0,0,0-2.52-.39,7.37,7.37,0,0,0-2.84.53A9.73,9.73,0,0,0,609,9.62a11.56,11.56,0,0,0-1.85,1.85,19.81,19.81,0,0,0-1.38,1.95L599.6,9.16a13.9,13.9,0,0,1,2.45-3.91,15.22,15.22,0,0,1,3.48-2.87A16.63,16.63,0,0,1,609.75.6a18.33,18.33,0,0,1,4.69-.6,18.69,18.69,0,0,1,5.33.78,13.47,13.47,0,0,1,4.72,2.49,13,13,0,0,1,3.41,4.36A14.35,14.35,0,0,1,629.21,14a13.91,13.91,0,0,1-.53,4,11.43,11.43,0,0,1-1.53,3.16,12.85,12.85,0,0,1-2.34,2.55,26.24,26.24,0,0,1-3.06,2.21c-.94.56-1.89,1.11-2.84,1.63a17.22,17.22,0,0,0-2.59,1.74,8.3,8.3,0,0,0-1.91,2.2,5.73,5.73,0,0,0-.75,3ZM606,51.05v-9.8h7.88v9.8Z"/>
        <path class="cls-1" d="M38.35,77.73a16.52,16.52,0,0,1-.19-6.35,10.39,10.39,0,0,1,3.59-5.69c.6-.56,1.36-1.22,2.27-2a22.84,22.84,0,0,0,2.58-2.54,11.34,11.34,0,0,0,1.91-3.13,6.17,6.17,0,0,0,.28-3.65A5.81,5.81,0,0,0,47.69,52a5.91,5.91,0,0,0-1.86-1.57,6.36,6.36,0,0,0-2.36-.7,8.72,8.72,0,0,0-2.55.14,7.48,7.48,0,0,0-2.66,1.11,10.07,10.07,0,0,0-2,1.8,11.56,11.56,0,0,0-1.42,2.19,20.31,20.31,0,0,0-1,2.2L27,54.23a14,14,0,0,1,1.59-4.33,15,15,0,0,1,2.8-3.53,16.14,16.14,0,0,1,3.77-2.61,18.31,18.31,0,0,1,4.46-1.57A18.92,18.92,0,0,1,45,41.85a13.41,13.41,0,0,1,5.13,1.46,12.86,12.86,0,0,1,4.24,3.56,14.21,14.21,0,0,1,2.6,5.94,13.83,13.83,0,0,1,.32,4,11.37,11.37,0,0,1-.84,3.41,13.2,13.2,0,0,1-1.76,3A27.76,27.76,0,0,1,52.13,66c-.81.75-1.63,1.48-2.44,2.19a16.93,16.93,0,0,0-2.18,2.23A8.61,8.61,0,0,0,46.09,73a5.74,5.74,0,0,0-.1,3.1Zm3.57,16.16-2-9.59,7.71-1.63,2,9.58Z"/>
      </g>
      <g>
        <g>
          <g>
            <polygon class="cls-1" points="412.55 53.07 507.55 53.07 507.55 3.22 412.55 3.22 412.55 3.22 412.55 53.07 412.55 53.07"/>
            <polygon class="cls-1" points="522.25 53.07 507.55 53.07 507.55 37.76 522.25 53.07"/>
          </g>
          <g>
            <rect class="cls-3" x="421.64" y="11.84" width="76.81" height="0.95"/>
            <rect class="cls-3" x="421.64" y="16.95" width="47.63" height="0.95"/>
            <rect class="cls-3" x="421.64" y="27.18" width="65.25" height="0.95"/>
            <rect class="cls-3" x="421.64" y="32.3" width="76.81" height="0.95"/>
            <rect class="cls-3" x="421.64" y="37.42" width="76.81" height="0.95"/>
            <rect class="cls-3" x="421.64" y="42.53" width="37.87" height="0.95"/>
          </g>
        </g>
        <g>
          <g>
            <rect class="cls-2" x="124.82" y="165.65" width="95" height="43.97"/>
            <polygon class="cls-2" points="110.11 209.62 124.82 209.62 124.82 194.31 110.11 209.62"/>
          </g>
          <g>
            <rect class="cls-3" x="134.09" y="188.61" width="68.99" height="0.95"/>
            <rect class="cls-3" x="134.09" y="193.73" width="58.18" height="0.95"/>
            <rect class="cls-3" x="134.09" y="178.38" width="61.33" height="0.95"/>
            <rect class="cls-3" x="134.09" y="173.26" width="75.06" height="0.95"/>
            <rect class="cls-3" x="134.09" y="198.84" width="62.51" height="0.95"/>
          </g>
        </g>
        <g>
          <g>
            <rect class="cls-2" x="451.08" y="64.54" width="95" height="28.97"/>
            <polygon class="cls-2" points="436.37 93.5 451.08 93.5 451.08 78.19 436.37 93.5"/>
          </g>
          <g>
            <rect class="cls-3" x="460.35" y="72.49" width="68.99" height="0.95"/>
            <rect class="cls-3" x="460.35" y="77.61" width="58.18" height="0.95"/>
            <rect class="cls-3" x="460.35" y="82.73" width="62.51" height="0.95"/>
          </g>
        </g>
      </g>
    </g>
    <g id="Shadow">
      <ellipse class="cls-1" cx="450.44" cy="403.71" rx="207.34" ry="13.04"/>
    </g>
    <g id="Floor">
      <polygon class="cls-4" points="3.81 351.02 84.88 350.77 165.95 350.69 328.09 350.52 490.23 350.69 571.3 350.77 652.38 351.02 571.3 351.26 490.23 351.35 328.09 351.52 165.95 351.35 84.88 351.26 3.81 351.02"/>
    </g>
    <g id="FAQs">
      <g>
        <g>
          <g>
            <path class="cls-5" d="M71.06,334.19V156.4a16.53,16.53,0,0,1,16.58-16.58h98.54a16.73,16.73,0,0,1,0,33.45H104.51v55.15h70.22a16.73,16.73,0,0,1,0,33.45H104.51v72.32a16.79,16.79,0,0,1-16.87,16.58A16.53,16.53,0,0,1,71.06,334.19Z"/>
            <path class="cls-6" d="M71.06,334.19V156.4a16.53,16.53,0,0,1,16.58-16.58h98.54a16.73,16.73,0,0,1,0,33.45H104.51v55.15h70.22a16.73,16.73,0,0,1,0,33.45H104.51v72.32a16.79,16.79,0,0,1-16.87,16.58A16.53,16.53,0,0,1,71.06,334.19Z"/>
          </g>
          <path class="cls-5" d="M58.48,334.19V156.4a16.53,16.53,0,0,1,16.57-16.58h98.54a16.73,16.73,0,0,1,0,33.45H91.93v55.15h70.21a16.73,16.73,0,0,1,0,33.45H91.93v72.32a16.79,16.79,0,0,1-16.88,16.58A16.53,16.53,0,0,1,58.48,334.19Z"/>
        </g>
        <g>
          <g>
            <path class="cls-5" d="M311.69,301.05H238.46l-14.77,39.17A16.91,16.91,0,0,1,208,350.77a17.37,17.37,0,0,1-5.72-.91,17.09,17.09,0,0,1-10-21.69L259,150.67a16.83,16.83,0,0,1,16-10.54,16.57,16.57,0,0,1,16,10.54l66.59,177.5a17.08,17.08,0,0,1-9.94,21.69,16.85,16.85,0,0,1-21.1-9.64ZM299.33,267.9l-24.41-64.79L250.51,267.9Z"/>
            <path class="cls-6" d="M311.69,301.05H238.46l-14.77,39.17A16.91,16.91,0,0,1,208,350.77a17.37,17.37,0,0,1-5.72-.91,17.09,17.09,0,0,1-10-21.69L259,150.67a16.83,16.83,0,0,1,16-10.54,16.57,16.57,0,0,1,16,10.54l66.59,177.5a17.08,17.08,0,0,1-9.94,21.69,16.85,16.85,0,0,1-21.1-9.64ZM299.33,267.9l-24.41-64.79L250.51,267.9Z"/>
          </g>
          <path class="cls-5" d="M299.11,301.05H225.88l-14.77,39.17a16.91,16.91,0,0,1-15.67,10.55,17.28,17.28,0,0,1-5.72-.91,17.09,17.09,0,0,1-9.95-21.69l66.6-177.5a16.83,16.83,0,0,1,16-10.54,16.56,16.56,0,0,1,16,10.54l66.6,177.5A17.1,17.1,0,0,1,335,349.86a16.85,16.85,0,0,1-21.1-9.64ZM286.75,267.9l-24.41-64.79L237.93,267.9Z"/>
        </g>
        <g>
          <g>
            <path class="cls-5" d="M591.61,380.6c-16.58,12.66-33.76,19-49.73,19H541c-21.09,0-38.87-8.44-55.15-18.08A37.6,37.6,0,0,0,467.45,377c-9.94,0-20.19,4.22-21.4,5.13-6,3.31-12.95,2.71-17.47-.91-.31-.3-.91-.3-1.81-.6-.3-.3-.3-.3-.6-.3-1.51-2.11-3.32-3.92-4.22-6.93-4.52-9-.3-19,8.13-23.21l.91-.6a131.68,131.68,0,0,1-33.45-22.9A118,118,0,0,1,367.4,248a115.62,115.62,0,0,1,30.14-77.75c19.28-20.79,45.8-33.45,75.33-33.45a99.36,99.36,0,0,1,74.74,33.45A111.9,111.9,0,0,1,578.35,248a114.13,114.13,0,0,1-30.74,78.65,116.37,116.37,0,0,1-33.45,23.81l-6.93,2.71C519.89,360.11,531.34,364,541,364c8.74,0,17.18-2.11,29.53-11.45a17.34,17.34,0,0,1,24.41,3C601,363.12,599.74,374,591.61,380.6ZM423.75,302.25A65.6,65.6,0,0,0,472.87,324c19.29,0,36.47-8.14,49.73-21.7,13-13.86,20.79-32.85,20.79-54.24s-7.83-40.38-20.79-53.64c-13.26-13.86-30.44-22-49.73-22a64.81,64.81,0,0,0-49.12,22C410.8,207.63,403,226.61,403,248S410.8,288.39,423.75,302.25Z"/>
            <path class="cls-6" d="M591.61,380.6c-16.58,12.66-33.76,19-49.73,19H541c-21.09,0-38.87-8.44-55.15-18.08A37.6,37.6,0,0,0,467.45,377c-9.94,0-20.19,4.22-21.4,5.13-6,3.31-12.95,2.71-17.47-.91-.31-.3-.91-.3-1.81-.6-.3-.3-.3-.3-.6-.3-1.51-2.11-3.32-3.92-4.22-6.93-4.52-9-.3-19,8.13-23.21l.91-.6a131.68,131.68,0,0,1-33.45-22.9A118,118,0,0,1,367.4,248a115.62,115.62,0,0,1,30.14-77.75c19.28-20.79,45.8-33.45,75.33-33.45a99.36,99.36,0,0,1,74.74,33.45A111.9,111.9,0,0,1,578.35,248a114.13,114.13,0,0,1-30.74,78.65,116.37,116.37,0,0,1-33.45,23.81l-6.93,2.71C519.89,360.11,531.34,364,541,364c8.74,0,17.18-2.11,29.53-11.45a17.34,17.34,0,0,1,24.41,3C601,363.12,599.74,374,591.61,380.6ZM423.75,302.25A65.6,65.6,0,0,0,472.87,324c19.29,0,36.47-8.14,49.73-21.7,13-13.86,20.79-32.85,20.79-54.24s-7.83-40.38-20.79-53.64c-13.26-13.86-30.44-22-49.73-22a64.81,64.81,0,0,0-49.12,22C410.8,207.63,403,226.61,403,248S410.8,288.39,423.75,302.25Z"/>
          </g>
          <path class="cls-5" d="M579,380.6c-16.57,12.66-33.75,19-49.72,19h-.9c-21.1,0-38.88-8.44-55.15-18.08A37.65,37.65,0,0,0,454.87,377c-9.95,0-20.19,4.22-21.4,5.13-6,3.31-13,2.71-17.48-.91-.3-.3-.9-.3-1.8-.6-.31-.3-.31-.3-.61-.3-1.5-2.11-3.31-3.92-4.22-6.93-4.52-9-.3-19,8.14-23.21l.9-.6A132,132,0,0,1,385,326.66,117.94,117.94,0,0,1,354.82,248,115.61,115.61,0,0,1,385,170.26c19.29-20.79,45.81-33.45,75.34-33.45A99.39,99.39,0,0,1,535,170.26,111.93,111.93,0,0,1,565.76,248,114.16,114.16,0,0,1,535,326.66a116.65,116.65,0,0,1-33.45,23.81l-6.93,2.71C507.3,360.11,518.75,364,528.4,364c8.74,0,17.17-2.11,29.53-11.45a17.34,17.34,0,0,1,24.41,3C588.36,363.12,587.16,374,579,380.6ZM411.17,302.25A65.58,65.58,0,0,0,460.29,324c19.29,0,36.46-8.14,49.72-21.7,13-13.86,20.8-32.85,20.8-54.24S523,207.63,510,194.37c-13.26-13.86-30.43-22-49.72-22a64.8,64.8,0,0,0-49.12,22c-13,13.26-20.79,32.24-20.79,53.64S398.21,288.39,411.17,302.25Z"/>
        </g>
      </g>
    </g>
    <g id="Plant">
      <g>
        <g>
          <g>
            <path class="cls-5" d="M54.62,272c-10.76,14.57-22,31.48-24.71,49.74,0,.28.41.37.48.1a107.21,107.21,0,0,1,4.75-14.63c7.08-2,14-3.55,17.73-10.56,3.79-7.22,3.31-16.63,2.59-24.49C55.41,271.69,54.83,271.67,54.62,272Z"/>
            <g>
              <path class="cls-4" d="M35.25,307c4.83-10.84,11-21.73,18.92-30.65,0-.06.14,0,.09.09-5.16,6.35-9.09,13.27-12.92,20.3,3.56-3.61,7.47-6.85,10.84-10.68.07-.08.17,0,.11.1-3.35,4-7,8.39-11.37,11.37L37.37,304c.29-.17.59-.31.89-.46a0,0,0,0,1,.05.08c-.33.17-.66.34-1,.49-.56,1-1.12,2.05-1.71,3.07C35.46,307.45,35.15,307.25,35.25,307Z"/>
              <path class="cls-4" d="M38.84,303.24a62.79,62.79,0,0,0,8.26-5.51c.07-.06.17,0,.1.1A43.25,43.25,0,0,1,39,303.44C38.83,303.51,38.71,303.31,38.84,303.24Z"/>
            </g>
          </g>
          <g>
            <path class="cls-5" d="M28.67,319c0,.22.4.22.39,0,.06-6,0-12.06.1-18.1,1.54-3.11,4.85-4.83,7.15-7.33a32.52,32.52,0,0,0,4.29-6,43.16,43.16,0,0,0,5-16.6c.63-6.43-1.81-27.67-4.52-26.93-1.41.38-6,10.9-7.17,14.38A99.63,99.63,0,0,0,29.61,276C27.41,290.19,27.59,304.73,28.67,319Z"/>
            <g>
              <path class="cls-4" d="M28.62,293l0,0c.33-7.61,2.05-15.3,3.65-22.68,1.73-8,3.75-15.44,7.85-22.54.07-.13.27,0,.2.12a83.07,83.07,0,0,0-6.3,17.3c.27-.43.6-.84.89-1.24.11-.16.38,0,.26.15a11.52,11.52,0,0,1-1.27,1.81.07.07,0,0,1-.06,0c-1.41,5.69-2.42,11.5-3.28,17.3.06-.07.12-.15.19-.22s.12,0,.09.07-.23.38-.35.57c-.43,2.95-.84,5.89-1.24,8.8C34.52,288,39,282.7,41.52,276.19c0,0,.06,0,0,0C39.1,283,35.2,289,29.19,293.05l-.33,2.35c0,.16-.28.12-.28,0,0-.69,0-1.39.06-2.08C28.57,293.21,28.53,293.1,28.62,293Z"/>
              <path class="cls-4" d="M31.09,282a120.9,120.9,0,0,0,10.68-18.4.07.07,0,0,1,.13.06,59.68,59.68,0,0,1-10.61,18.49C31.2,282.26,31,282.12,31.09,282Z"/>
              <path class="cls-4" d="M36.42,262.12c1.66-2.93,3.41-5.79,5-8.79,0-.08.16,0,.12.08a45.33,45.33,0,0,1-4.84,8.86A.15.15,0,0,1,36.42,262.12Z"/>
              <path class="cls-4" d="M35.77,263.4a0,0,0,0,1,0,.05A0,0,0,0,1,35.77,263.4Z"/>
            </g>
          </g>
          <g>
            <path class="cls-5" d="M24.6,301.58a62,62,0,0,1-1.41,11.85c.06.43.12.86.19,1.3a57,57,0,0,0,2.12-13.21.43.43,0,0,0,0-.41h0a87.41,87.41,0,0,0-1.32-17.9c-1.87-11.06-5.94-21.67-13.65-30a.55.55,0,0,0-.85.18c-3.11,7.91-2,17.35.62,25.24a46.19,46.19,0,0,0,6.12,12C19.07,294.37,22.45,297.52,24.6,301.58Z"/>
            <g>
              <path class="cls-4" d="M11.45,256.94c7.31,11.86,12.4,25.93,13,39.94,0,.24-.41.31-.44.06q-.27-1.89-.57-3.75h0a47.63,47.63,0,0,1-8.3-9.57c0-.06.06-.14.11-.08a99.83,99.83,0,0,0,8,8.77q-.78-4.65-1.87-9.15l-.58-.68c-.13-.15.08-.37.21-.22l.18.2a106,106,0,0,0-3.82-12.13c-1.86-2.22-3.94-4.14-5.3-6.81a.06.06,0,0,1,.1-.06,54.71,54.71,0,0,0,3.38,4.48c.49.57,1,1.1,1.54,1.65a92.34,92.34,0,0,0-6-12.47A.16.16,0,0,1,11.45,256.94Z"/>
              <path class="cls-4" d="M12.93,271.57c2.36,3.18,5.05,6.22,7.25,9.5a.1.1,0,0,1-.15.12,48.83,48.83,0,0,1-7.26-9.52A.09.09,0,0,1,12.93,271.57Z"/>
              <path class="cls-4" d="M20.51,281.81l.1.1a.08.08,0,0,1-.11.11l-.1-.1A.08.08,0,0,1,20.51,281.81Z"/>
            </g>
          </g>
          <g>
            <path class="cls-5" d="M0,279.74a36.48,36.48,0,0,0,7.71,18.1A19.23,19.23,0,0,0,14,302.72c2.71,1.34,5.54,2.88,8.35,4a55.26,55.26,0,0,1,2.95,10.5l.27-.93c-1.8-15.45-11.8-28.66-24.58-37.13A.62.62,0,0,0,0,279.74Z"/>
            <g>
              <path class="cls-4" d="M4.42,284.31c-.09-.08,0-.24.13-.17a52.39,52.39,0,0,1,16.3,20.08c.09.21-.2.4-.32.19-.6-1-1.2-2.06-1.82-3.05h0c-2.92-.55-5.68-2.61-7.85-4.56-.06-.05,0-.13.09-.08a17.89,17.89,0,0,0,3.69,2.59,38.14,38.14,0,0,0,3.71,1.47c-1.08-1.72-2.21-3.36-3.38-5a34,34,0,0,1-8.78-4.93c-.08-.06,0-.2.09-.14a88.74,88.74,0,0,0,8.15,4.36,71.6,71.6,0,0,0-5.76-6.71c-1-.53-2-1-3-1.62-.07,0,0-.17.07-.15A11.12,11.12,0,0,1,8,287.75C6.88,286.58,5.69,285.43,4.42,284.31Z"/>
              <path class="cls-4" d="M4.69,289.64a4.46,4.46,0,0,1,.5.35.05.05,0,0,1-.07.08,3.7,3.7,0,0,1-.51-.29A.08.08,0,0,1,4.69,289.64Z"/>
            </g>
          </g>
        </g>
        <g>
          <g>
            <polygon class="cls-7" points="45.5 350.65 10.46 350.65 13.29 318.74 13.91 311.7 42.05 311.7 42.67 318.74 45.5 350.65"/>
            <polygon class="cls-4" points="42.67 318.74 13.29 318.74 13.91 311.7 42.05 311.7 42.67 318.74"/>
          </g>
          <rect class="cls-7" x="12.23" y="306.78" width="31.49" height="6.96"/>
        </g>
      </g>
    </g>
    <g id="Character_3" data-name="Character 3">
      <g>
        <g>
          <g>
            <g>
              <path class="cls-8" d="M648.66,400.36c-2.13.67-62.85-.34-65.14-1.84-.87-.56-1.24-9.42-1.38-20.12,0-2.32,0-4.71-.06-7.13,0-15.75.14-30.23.14-30.23l40.64,1.06-1.28,29.71-.29,7.12s23.07,10.79,25.41,12.7S650.8,399.68,648.66,400.36Z"/>
              <path class="cls-3" d="M648.66,400.36c-2.13.67-62.85-.34-65.14-1.84-1.06-.69-1.39-13.62-1.44-27.25l39.5.54-.29,7.12s23.07,10.79,25.41,12.7S650.8,399.68,648.66,400.36Z"/>
              <g>
                <path class="cls-9" d="M648.66,400.36c-2.13.67-62.85-.34-65.14-1.84-.87-.56-1.24-9.42-1.38-20.12l39.15.53s23.07,10.79,25.41,12.7S650.8,399.68,648.66,400.36Z"/>
                <path class="cls-6" d="M613.34,400.19c-14.75-.37-28.74-1-29.82-1.67-.87-.57-1.24-9.42-1.38-20.13l8,.11C596.32,384.32,607.46,394.71,613.34,400.19Z"/>
                <g>
                  <g>
                    <path class="cls-4" d="M647.83,397.91c-10.17-.42-51.25-1.15-61.34-.79-.08,0-.08.06,0,.07,10.08.63,51.16,1,61.34.89C648,398.08,648.05,397.92,647.83,397.91Z"/>
                    <path class="cls-4" d="M642.83,389.39a8.14,8.14,0,0,0-6.13,2.38,7.94,7.94,0,0,0-2.37,5.4c0,.06.11.06.12,0a9.46,9.46,0,0,1,8.38-7.66A.06.06,0,0,0,642.83,389.39Z"/>
                    <path class="cls-4" d="M625.22,380c-4.08-.12-8.82,1.24-11.41,4.53-.1.12.08.26.2.2a57.08,57.08,0,0,1,11.27-4.23A.25.25,0,0,0,625.22,380Z"/>
                    <path class="cls-4" d="M628.34,381.29c-4.07-.13-8.82,1.23-11.41,4.52-.1.13.09.27.21.21a56.37,56.37,0,0,1,11.26-4.23A.25.25,0,0,0,628.34,381.29Z"/>
                    <path class="cls-4" d="M631.47,382.57c-4.08-.13-8.82,1.23-11.41,4.52-.1.13.08.27.2.21a56.46,56.46,0,0,1,11.27-4.23A.25.25,0,0,0,631.47,382.57Z"/>
                    <path class="cls-4" d="M634.59,383.85c-4.07-.13-8.82,1.23-11.41,4.52-.1.13.09.27.21.21a55.77,55.77,0,0,1,11.26-4.23A.25.25,0,0,0,634.59,383.85Z"/>
                    <path class="cls-4" d="M589.25,387.5c-4.58-.06-4.68,7-.1,7.1S593.82,387.56,589.25,387.5Z"/>
                  </g>
                  <path class="cls-4" d="M629.8,369.21c-2-1.74-4.66-.11-6,1.64A21.4,21.4,0,0,0,620,381.21a.12.12,0,0,0,.13.12.5.5,0,0,0,.73.34c2.93-2,6.31-3.69,8.56-6.49C630.69,373.54,631.72,370.86,629.8,369.21Zm-5.14,8.58c-1.42,1-2.88,1.92-4.26,3,.76-2,1.43-4.06,2.39-6a22.09,22.09,0,0,1,1.54-2.72c.9-1.33,5-4.67,5.29-.23C629.8,374.25,626.35,376.6,624.66,377.79Z"/>
                  <path class="cls-4" d="M609.82,382.55c3.54.6,7.21-.35,10.71-.83a.49.49,0,0,0,.31-.74.1.1,0,0,0,0-.17,21.34,21.34,0,0,0-9.77-5.17c-2.14-.45-5.19.07-5.55,2.73C605.2,380.88,607.75,382.2,609.82,382.55Zm-2.42-2.36c-2.7-3.54,2.55-3.74,4.11-3.34a21.87,21.87,0,0,1,3,1c2,.81,3.87,1.89,5.78,2.89-1.73.13-3.44.41-5.16.61C613,381.6,608.88,382.14,607.4,380.19Z"/>
                </g>
              </g>
            </g>
            <g>
              <path class="cls-7" d="M623.19,368.7H578.7s8.38-94.72,8-96.53c-.45-2.33-3.07-12.84-6.57-26.58-1.09-4.3-2.28-8.91-3.5-13.69-3.32-12.93-7-27.06-10.16-39.35-4.78-18.41-8.52-32.72-8.52-32.72h37.71s4.39,13.93,9.93,32c9,29.45,21.08,70,22.27,79.84C629.82,287.64,623.19,368.7,623.19,368.7Z"/>
              <g>
                <path class="cls-4" d="M621.22,361.11c-6.8-.14-4.84-.2-11.64-.26-3.32,0-25.18-.22-28.28.29a.07.07,0,0,0,0,.14c3.11.51,25,.32,28.28.29,6.8-.06,4.84-.12,11.64-.26A.1.1,0,0,0,621.22,361.11Z"/>
                <path class="cls-4" d="M595.1,265.82c-1.46-6.43-3.64-12.73-5.54-19q-5.77-19.23-11.63-38.45-2.92-9.62-5.87-19.21c-1-3.24-2-6.47-3-9.69s-2.12-6.29-3-9.48c-.36-1.29-.56-.58-.1,1.06.94,3.32,1.87,6.64,2.83,9.95q2.88,9.84,5.79,19.66,5.79,19.54,11.67,39.07l5.89,19.57a81.55,81.55,0,0,1,2.4,9.47,42.94,42.94,0,0,1,.39,10.13c-.42,6.81-1.21,13.6-1.84,20.39l-1.89,20.42c-1.25,13.54-1.92,17.9-3.14,31.44-.16,1.72-.31,3.44-.44,5.16,0,.57.83.53.89,0,1.46-13.39,2-17.64,3.26-31.05l3.75-40c.31-3.35.67-6.71.67-10.08A41.75,41.75,0,0,0,595.1,265.82Z"/>
              </g>
            </g>
            <path class="cls-4" d="M591.41,159.83c-2.62,20.25-7.61,58.22-11.25,85.76-8.5-33.38-22.18-85.76-22.18-85.76Z"/>
          </g>
          <g>
            <g>
              <path class="cls-8" d="M603.67,400.54c-2.11.73-62.84,1.52-65.17.08-.89-.54-1.52-9.37-2-20.07-.1-2.31-.18-4.7-.26-7.13-.51-15.73-.75-30.22-.75-30.22l40.64-.14-.39,29.74-.09,7.13s23.38,10.1,25.78,11.95S605.78,399.8,603.67,400.54Z"/>
              <path class="cls-3" d="M603.67,400.54c-2.11.73-62.84,1.52-65.17.08-1.08-.66-1.79-13.57-2.24-27.2l39.5-.62-.09,7.13s23.38,10.1,25.78,11.95S605.78,399.8,603.67,400.54Z"/>
              <g>
                <path class="cls-9" d="M603.67,400.54c-2.11.73-62.84,1.52-65.17.08-.89-.54-1.52-9.37-2-20.07l39.15-.62s23.38,10.1,25.78,11.95S605.78,399.8,603.67,400.54Z"/>
                <g>
                  <g>
                    <path class="cls-4" d="M602.77,398.12c-10.19-.12-51.27.36-61.34,1-.08,0-.08.06,0,.06,10.09.34,51.17-.47,61.34-.91C603,398.28,603,398.12,602.77,398.12Z"/>
                    <path class="cls-4" d="M597.51,389.74a8.17,8.17,0,0,0-6.06,2.57,7.92,7.92,0,0,0-2.2,5.46c0,.06.11.06.12,0a9.45,9.45,0,0,1,8.14-7.9C597.59,389.86,597.59,389.74,597.51,389.74Z"/>
                    <path class="cls-4" d="M579.63,380.89c-4.07,0-8.78,1.5-11.27,4.86-.09.13.09.27.21.2a57.19,57.19,0,0,1,11.14-4.56A.26.26,0,0,0,579.63,380.89Z"/>
                    <path class="cls-4" d="M582.79,382.08c-4.07,0-8.78,1.49-11.27,4.86-.09.13.09.26.22.2a55.64,55.64,0,0,1,11.13-4.56A.26.26,0,0,0,582.79,382.08Z"/>
                    <path class="cls-4" d="M586,383.26c-4.07,0-8.78,1.5-11.26,4.86-.1.13.09.27.21.2A56.85,56.85,0,0,1,586,383.76.26.26,0,0,0,586,383.26Z"/>
                    <path class="cls-4" d="M589.12,384.45c-4.08,0-8.78,1.49-11.27,4.86-.1.13.09.26.21.2A55.89,55.89,0,0,1,589.19,385,.26.26,0,0,0,589.12,384.45Z"/>
                    <path class="cls-4" d="M543.9,389.44c-4.57.07-4.47,7.17.11,7.1S548.48,389.36,543.9,389.44Z"/>
                  </g>
                  <path class="cls-4" d="M583.9,370c-2.09-1.68-4.67,0-5.91,1.82a21.27,21.27,0,0,0-3.57,10.46c0,.09.06.12.13.12a.49.49,0,0,0,.73.32c2.88-2.05,6.21-3.88,8.37-6.74C584.91,374.27,585.87,371.55,583.9,370ZM579,378.69c-1.39,1-2.82,2-4.17,3.09.7-2,1.31-4.1,2.21-6.07a24.25,24.25,0,0,1,1.46-2.76c.86-1.36,4.82-4.82,5.28-.39C584.05,375,580.66,377.45,579,378.69Z"/>
                  <path class="cls-4" d="M564.31,383.88c3.56.5,7.21-.56,10.68-1.14a.5.5,0,0,0,.3-.75.11.11,0,0,0,0-.17,21.31,21.31,0,0,0-9.92-4.88c-2.15-.39-5.18.23-5.46,2.89S562.24,383.59,564.31,383.88Zm-2.48-2.29c-2.81-3.45,2.44-3.8,4-3.46a25.71,25.71,0,0,1,3,.93c2,.76,3.92,1.78,5.86,2.73-1.73.18-3.42.51-5.14.76C567.49,382.84,563.37,383.5,561.83,381.59Z"/>
                </g>
              </g>
            </g>
            <g>
              <path class="cls-7" d="M594.47,159.83s-.87,18-5,32.33c-.33,1.18-.69,2.34-1.08,3.45a66.75,66.75,0,0,0-10.86,5.59s-.44,14.51-.87,30.7c-.49,18.09,2.32,38.27,2.42,42.56.38,16-1.57,94.06-1.57,94.06L533,368.7s7.61-88.33,7.56-94.2c-.09-9.43,3.23-75,2.67-76.5-7.16-18.73,2.31-38.17,2.31-38.17Z"/>
              <g>
                <path class="cls-4" d="M576,360.61c-6.8-.11-4.85-.18-11.64-.21-3.33,0-25.18-.12-28.28.41a.07.07,0,0,0,0,.14c3.11.5,25,.22,28.28.17,6.8-.09,4.84-.14,11.64-.31C576.11,360.8,576.11,360.61,576,360.61Z"/>
                <path class="cls-4" d="M590.24,194.54a82.21,82.21,0,0,0-12.71,6.66.15.15,0,0,0,.13.26c4.29-2.08,8.67-4.09,12.84-6.41A.29.29,0,0,0,590.24,194.54Z"/>
                <path class="cls-4" d="M583.55,188.49q.19-3.06.47-6.1c.4-4.63.89-9.28,1.7-13.87.06-.35.57-.22.54.12-.32,3.6-.73,7.2-1.06,10.8s-.77,7.17-.84,10.75c0,1.08.06,2.91,1.38,3.21,1.78.4,2.62-1.94,3-3.22a58.45,58.45,0,0,0,2.23-9.8c.59-3.78.9-7.6,1.26-11.4a.12.12,0,0,1,.24,0c0,7.55-.08,15.44-2.9,22.56-.55,1.39-1.51,2.8-3.12,3h-.08a.3.3,0,0,1,0,.13c0,.22-.09.42-.12.63s-.07.36-.11.53c-.07.37-.13.74-.22,1.1a.28.28,0,0,1-.55-.06.26.26,0,0,1-.16-.22,6.13,6.13,0,0,1,.5-2.14,2.65,2.65,0,0,1-1.95-1.64A9.31,9.31,0,0,1,583.55,188.49Z"/>
                <path class="cls-4" d="M547.77,198a81.81,81.81,0,0,0-1.95-9.28c-1.64-6.91-.53-16.31,1.24-23.06.05-.18-.24-.24-.3-.07-1.77,5.76-3.06,14.06-2.37,20.1.32,2.87,2.63,11.59,2.56,14.71-.14,6.14.35,58.51-.07,79.88-.27,14-3.17,61.08-3.62,75.11,0,.12.21.12.22,0,1.63-25,3.74-50.55,4.08-75.05C547.89,256.5,548.17,201.4,547.77,198Z"/>
                <path class="cls-4" d="M569.72,167.2c-.19,2.15-.27,4.31-.59,6.45a8.63,8.63,0,0,1-2.41,5.21,12.72,12.72,0,0,1-5,2.85c-2.44.73-9.87.75-12.4.38-.64-.09-.58.4.62.67a77.18,77.18,0,0,0,8.2.59,17.88,17.88,0,0,0,4-.28,11.11,11.11,0,0,0,5.8-3,9.3,9.3,0,0,0,2.39-5.84,35.06,35.06,0,0,0-.27-7C570,167,569.74,167,569.72,167.2Z"/>
              </g>
            </g>
          </g>
        </g>
        <g>
          <path class="cls-4" d="M571.25,109c0,.11.17.11.18,0,.48-5.49,6.11-8.83,6.26-14.43a13.15,13.15,0,0,0-2-7,37.39,37.39,0,0,0-2.9-3.86c-.14-.21-.28-.42-.41-.63a27.37,27.37,0,0,1-2.3-4.18,15.42,15.42,0,0,1-1-5.29c-.15-3.47-.06-7-2.31-9.85-1.87-2.39-3.86-5.34-8-6.77-6.43-2.19-13.92.7-18.62,6.08a12.21,12.21,0,0,0-2,3.17,7.13,7.13,0,0,0-5.34,5c-1.25,3.89,1.12,9.26.76,11.22-.32,1.72-1.47,3.14-2.27,4.67a30.83,30.83,0,0,0-2.19,4,10.6,10.6,0,0,0-.51,6.13,11.64,11.64,0,0,0,2.17,5.17,9.48,9.48,0,0,0,4.38,2.94c.4.15.81.28,1.22.42l0,0c1.41.88,2.94,1.57,4.27,2.57a7.48,7.48,0,0,1,2.8,4.49c.38,1.65.44,3.36.7,5a12.17,12.17,0,0,0,1.56,4.42,14.3,14.3,0,0,0,7.07,5.78,21.69,21.69,0,0,0,10.69,1c3.2-.44,6.28-1.64,8.22-4.34a10.19,10.19,0,0,0,1.68-8.18,28,28,0,0,0-2.05-4.78,8.21,8.21,0,0,1-.74-5c1.07-5.62,6.79-9.68,5.71-15.82a14,14,0,0,0-1.73-4.43,13.79,13.79,0,0,1,2.77,7.08c.2,2.87-1,5.32-2.53,7.66S571.38,106.07,571.25,109Zm-35.89-3.84a9.28,9.28,0,0,1-5.39-4.65,12.6,12.6,0,0,1-1.08-8,14.61,14.61,0,0,1,1.56-3.61l0-.09a14.25,14.25,0,0,0-.61,2.5A15.25,15.25,0,0,0,531,99.44a14.1,14.1,0,0,0,4.48,5.76Z"/>
          <g>
            <g>
              <g>
                <path class="cls-10" d="M607.31,65.49l-5.49,28.28c-.26.84.19,1.48,1,1.43l14.39-.79a2.33,2.33,0,0,0,1.91-1.59l5.49-28.28c.25-.84-.19-1.48-1-1.43l-14.39.79A2.33,2.33,0,0,0,607.31,65.49Z"/>
                <path class="cls-7" d="M609,65.38l-5.49,28.28c-.25.84.2,1.48,1,1.43l14.4-.79a2.33,2.33,0,0,0,1.91-1.59l5.49-28.28c.25-.84-.2-1.48-1-1.43l-14.39.79A2.34,2.34,0,0,0,609,65.38Z"/>
                <path class="cls-4" d="M613,66.44a1.23,1.23,0,1,1-1.26-1.18A1.22,1.22,0,0,1,613,66.44Z"/>
              </g>
              <path class="cls-8" d="M563.24,110.28c9,17,28.29,38.67,35.87,38.41,3.6-.11,10.07.45,14.6-3.91,9.9-9.5,17.72-27.17,19-37.14.46-3.55-17-10.37-19.39-7.39-5.61,7-11.88,20.45-12.93,20.42-3.88-.11-19.62-12-30.6-20.42C556.47,90.06,559.68,103.52,563.24,110.28Z"/>
              <g>
                <path class="cls-8" d="M632.31,89.45c-2.14-7.06-3.77-8.54-2.42-15.45.89-4.54-1.62-7.06-4.64-3.31-4.93,6.13-4.08,15.81-2.81,19.08Z"/>
                <path class="cls-8" d="M632,110.74s2.73-10.1,1.19-17.84c-1.06-5.36-4.67-16.75-20.05-22.14-3.65-1.28-9.75-.51-4.55,3.74,3.69,3,6.94,3.82,8.77,6,0,0-7.65,1.89-8.78,5.6A70.52,70.52,0,0,0,606.32,96a16,16,0,0,0,1.81.59s-1,3.51,1.83,8.28Z"/>
                <path class="cls-8" d="M631.39,88c-2.26-1.75-7.13-5.37-12.14-7-5.56-1.76-16.76-3.64-18,.48-.92,3,3.29,4.12,3.29,4.12s-4.79.19-5,3.1c-.22,2.66,3.09,3.31,3.09,3.31s-2.88.62-2.6,3.21c.35,3.12,6.34,1.32,9.42,4.17C610.11,100,631.39,88,631.39,88Z"/>
                <path class="cls-4" d="M618.38,87.19a23.22,23.22,0,0,0-13.76-1.68c-.12,0-.16.13,0,.13a57.33,57.33,0,0,1,13.79,1.6S618.4,87.2,618.38,87.19Z"/>
                <path class="cls-4" d="M616.44,92.75a26.19,26.19,0,0,0-13.83-.85c-.12,0-.15.14,0,.13a61.38,61.38,0,0,1,13.86.78A0,0,0,0,0,616.44,92.75Z"/>
              </g>
            </g>
            <g>
              <path class="cls-5" d="M633.23,114.87s-12.77,28.33-20.76,31.91-12.92,3.08-16,2.77a8.23,8.23,0,0,1-3.27-1.41c-8.49-5.48-24.14-25.55-30.64-36.94-4.89-8.56-4.75-16.51,2.16-14.27a22.91,22.91,0,0,1,6.45,3.72c13,9.89,27.9,19.19,28.58,18.8s7.33-12.09,7.33-12.09Z"/>
              <path class="cls-4" d="M630,120.07c-1-.47-9.9-3.49-11.86-4.1s-9.94-3.2-12-3.67a.07.07,0,0,0,0,.14c1.95.84,10,3.48,12,4.14s10.9,3.46,11.92,3.63C630.05,120.23,630.05,120.11,630,120.07Z"/>
              <path class="cls-1" d="M593.21,115.88A130.69,130.69,0,0,1,576.44,131c-2.16-2.69-4.28-5.46-6.23-8.18a113.48,113.48,0,0,0,14.41-12.52C587.82,112.44,590.77,114.36,593.21,115.88Z"/>
              <path class="cls-6" d="M617.72,142.05c-1.85,2.29-3.64,4-5.26,4.73-8,3.58-12.9,3.08-16,2.76a7.91,7.91,0,0,1-3.29-1.4c-8.48-5.48-24.13-25.55-30.64-36.94-4.42-7.76-4.72-15,.4-14.63C576.75,107.93,603,129.74,617.72,142.05Z"/>
            </g>
          </g>
          <g>
            <path class="cls-5" d="M586.17,134.35l11.33,28.53s-41.17.88-53.85.74c0,0-8-46.28,4.73-61.83,6.35-7.77,11.9-7.33,17.28-2.48,1.37,1.23,19.37,14.93,21.44,22.58A19.53,19.53,0,0,1,586.17,134.35Z"/>
            <g>
              <path class="cls-4" d="M577.18,132.94a51.05,51.05,0,0,0-7.67,1.33c-1.24.33-2.47.71-3.69,1.13-.61.21-1.22.39-1.84.57a7.82,7.82,0,0,1-2,.39c-.06,0-.06.1,0,.1a13.55,13.55,0,0,0,1.91-.06,14.1,14.1,0,0,0,1.81-.35c1.27-.33,2.52-.71,3.78-1.05,2.56-.68,5.11-1.36,7.7-1.85C577.33,133.13,577.3,132.92,577.18,132.94Z"/>
              <path class="cls-4" d="M583.59,135.17a57.33,57.33,0,0,0-6.42-.25c-1.07,0-2.13.11-3.2.22-.51.05-1,.12-1.52.18s-1.11.23-1.66.3c-.06,0-.06.1,0,.09.53-.05,1.07,0,1.6,0l1.6-.06c1.06,0,2.13-.06,3.2-.11,2.13-.09,4.26-.16,6.4-.17C583.71,135.35,583.7,135.18,583.59,135.17Z"/>
            </g>
          </g>
          <g>
            <g>
              <path class="cls-5" d="M547.73,100.13c-18.38,12.54-38.05,38-35.76,45.35,2.56,8.16,29-9.62,28.55-10.84-.38-1,4.4-10.78,11.23-24.74C558.69,95.7,552.27,97,547.73,100.13Z"/>
              <path class="cls-1" d="M545.11,123.56c-2.09,4.37-3.59,7.66-4.24,9.5A144.24,144.24,0,0,1,520,127.51c2-2.75,4.33-5.61,6.83-8.46A115.55,115.55,0,0,0,545.11,123.56Z"/>
            </g>
            <g>
              <g>
                <path class="cls-8" d="M512,145.48c2.49,5.61,11.7,8.39,34.23,17.58,3.11,1.27,18-18.32,14.75-19.85-4.11-1.92-20.46-8.5-21.72-8.84C528.64,131.59,510.29,141.67,512,145.48Z"/>
                <g>
                  <path class="cls-8" d="M556.47,141.23s9.63,3.44,14.13,6.82a36.15,36.15,0,0,1,10.61,13.67c2.58,5.76,4.84,21.49.43,22.93-4,1.3-5.5-14.88-5.5-14.88s4.26,16.25-.84,16.93-5.78-18.2-5.78-18.2,4,16.8-1.37,16.67c-4.06-.09-5.64-17.16-5.64-17.16s3.34,14.46-.84,14.54c-4.62.09-7.06-15.57-7.06-15.57-10.66-1.58-15.09-6.69-17.81-10.7C536.14,155.31,556.47,141.23,556.47,141.23Z"/>
                  <g>
                    <path class="cls-4" d="M575,164.05c.57,1.89,1.16,3.8,1.56,5.74s.73,3.88.94,5.85a33,33,0,0,1,.12,7.72c.12-4.6-1.2-11.55-1.6-13.48s-.7-3.88-1.09-5.82C575,164,575,164,575,164.05Z"/>
                    <path class="cls-4" d="M568,165.37c.62,2.44,1.33,4.85,1.84,7.32s.78,4.84,1.12,7.33c0,.2-.08.15-.12,0-.44-2.48-1-4.73-1.5-7.2s-.85-5-1.4-7.4C568,165.34,568,165.33,568,165.37Z"/>
                    <path class="cls-4" d="M561.8,165.41a56.62,56.62,0,0,1,2,11.42c0,.19-.12.11-.15-.09-.58-3.8-1-6.79-1.94-11.29C561.65,165.38,561.77,165.33,561.8,165.41Z"/>
                  </g>
                </g>
              </g>
              <g>
                <g>
                  <path class="cls-5" d="M561,141.14S539.25,162.68,539,162.62s-25.82-10.93-27-17.14,17.87-13.45,27.24-11.15S561,141.14,561,141.14Z"/>
                  <path class="cls-4" d="M552.5,139.53c-.87.7-7.7,7.83-9.15,9.41s-7.45,8-8.82,9.75a.08.08,0,0,0,.12.11c1.66-1.47,7.73-7.92,9.24-9.5s8.12-8.79,8.73-9.68C552.67,139.55,552.56,139.49,552.5,139.53Z"/>
                </g>
                <g>
                  <path class="cls-4" d="M528.34,134.79c2-.6,7.68-1.81,12.61-.09,0,0,0,.09,0,.08a38.48,38.48,0,0,0-12.56.08C528.31,134.88,528.29,134.81,528.34,134.79Z"/>
                  <g>
                    <path class="cls-4" d="M559.69,142.47l1.3-1.38,0,.12-5.1-1.76q-2.55-.87-5.12-1.68c-3.42-1.12-6.86-2.16-10.33-3.05l-.41-.1.15-.39c1.41-3.59,2.88-7.15,4.51-10.64a110.53,110.53,0,0,1,5.35-10.24c-1.71,3.44-3.31,6.94-4.83,10.47s-3,7.08-4.33,10.67l-.26-.49c3.5.92,6.94,2,10.34,3.18,1.7.6,3.39,1.23,5.07,1.87s3.35,1.33,5,2l.11,0-.08.07Z"/>
                    <path class="cls-4" d="M546.15,121.12a20.16,20.16,0,0,1,1.58-2.39,14.77,14.77,0,0,1,1.93-2.11,13.79,13.79,0,0,1-1.54,2.42c-.3.37-.59.74-.92,1.09A7,7,0,0,1,546.15,121.12Z"/>
                  </g>
                </g>
              </g>
            </g>
          </g>
          <g>
            <g>
              <path class="cls-8" d="M552.9,101.44c.44.93,6.49,6.26,10.92,5.08,1.44-.38-.32-8.34-.32-8.34v-.62l0-8.64-11-4.11L551,84.29s.14,2.36.35,5.31q0,.2,0,.42c0,.16,0,.32,0,.48l.09,1.33c0,.34,0,.67.09,1s.07.7.11,1.06A56.67,56.67,0,0,0,552.9,101.44Z"/>
              <path class="cls-4" d="M563.5,97.68a17.86,17.86,0,0,1-12-5.71.66.66,0,0,1,0-.14c-.05-.44-.07-.9-.1-1.34,0-.15,0-.31,0-.47s0-.28,0-.42c-.21-2.94-.35-5.32-.35-5.32l1.58.52,11,4.12-.06,8.64Z"/>
            </g>
            <g>
              <path class="cls-8" d="M573,76.61c1.15,15.12-7.77,17.52-11,17.77-3,.22-13.07.6-15.79-14.32s4-20.24,10.7-21.11S571.88,61.49,573,76.61Z"/>
              <g>
                <path class="cls-4" d="M569.75,73a9,9,0,0,1-1-.15,1.74,1.74,0,0,1-1-.35.54.54,0,0,1,0-.67,1.35,1.35,0,0,1,1.3-.4,2,2,0,0,1,1.29.62A.58.58,0,0,1,569.75,73Z"/>
                <path class="cls-4" d="M559.68,74.74a8.44,8.44,0,0,0,1-.25,1.73,1.73,0,0,0,1-.47.54.54,0,0,0,0-.66,1.32,1.32,0,0,0-1.34-.26,2,2,0,0,0-1.22.75A.58.58,0,0,0,559.68,74.74Z"/>
                <g>
                  <g>
                    <path class="cls-4" d="M562.18,77.44s-.08.06-.07.1c.1,1,0,2.24-.88,2.65,0,0,0,.06,0,0C562.38,80,562.44,78.41,562.18,77.44Z"/>
                    <path class="cls-4" d="M561.18,76.42c-1.68,0-1.59,3.34,0,3.36S562.59,76.43,561.18,76.42Z"/>
                  </g>
                  <path class="cls-4" d="M560.53,76.61c-.29.2-.57.54-.92.58s-.73-.29-1-.62c0,0-.06,0-.06,0,0,.64.27,1.3,1,1.38s1.07-.51,1.22-1.16C560.75,76.7,560.65,76.53,560.53,76.61Z"/>
                </g>
                <g>
                  <g>
                    <path class="cls-4" d="M568.2,76.7s.08,0,.08.09c0,1,.2,2.23,1.16,2.54a0,0,0,0,1,0,.06C568.28,79.27,568,77.69,568.2,76.7Z"/>
                    <path class="cls-4" d="M569.08,75.57c1.67-.2,1.95,3.16.4,3.34S567.68,75.74,569.08,75.57Z"/>
                  </g>
                  <path class="cls-4" d="M569.8,75.74c.28.15.57.45.88.45s.61-.39.82-.76c0,0,0,0,0,0,.07.64-.08,1.33-.69,1.5s-1-.36-1.21-1C569.61,75.86,569.68,75.67,569.8,75.74Z"/>
                </g>
                <path class="cls-4" d="M562.1,85.56c.25.25.49.59.87.63a2.72,2.72,0,0,0,1.12-.24s.07,0,0,0a1.39,1.39,0,0,1-1.34.54,1.11,1.11,0,0,1-.8-.94C562,85.54,562.07,85.52,562.1,85.56Z"/>
                <path class="cls-4" d="M566.79,81.45s.27,1.56.3,2.29a3.94,3.94,0,0,1-3.9-1c-.06-.06,0-.15.1-.1a5.36,5.36,0,0,0,3.23.8c.05-.21-.55-2.65-.43-2.66a6,6,0,0,1,1.68.32c-.47-3.26-1.46-6.41-1.88-9.66,0-.11.15-.15.19,0a53,53,0,0,1,2.47,10.31C568.63,82.07,567.09,81.57,566.79,81.45Z"/>
              </g>
              <g>
                <path class="cls-4" d="M547.14,81.6c2.9.27,3.43-6.36,3.43-6.36s12.24-2.46,13-12.51a17,17,0,0,0,8.84,9s-.77-11-9.54-12.83c0,0-10.92-3.6-16.73,5.16S545.19,81.41,547.14,81.6Z"/>
                <path class="cls-4" d="M563.57,62a11,11,0,0,1-.41,4.59,11.37,11.37,0,0,1-2.2,4.11,9.37,9.37,0,0,1-.81.86l-.41.42-.46.36c-.31.24-.61.49-.93.71s-.67.4-1,.58l-.51.29-.54.22-1.07.45c-.73.23-1.48.42-2.22.6.7-.33,1.41-.58,2.09-.91l1-.53.5-.26c.16-.1.31-.21.46-.32.31-.21.62-.42.94-.62l.86-.71.43-.36.38-.4a9.58,9.58,0,0,0,.75-.82,13,13,0,0,0,2.23-3.84,13.34,13.34,0,0,0,.62-2.16A13.07,13.07,0,0,0,563.57,62Z"/>
              </g>
              <g>
                <path class="cls-8" d="M548.71,81s-3.26-4.77-5.42-3.61.26,8,2.77,9a2.55,2.55,0,0,0,3.45-1.34Z"/>
                <path class="cls-4" d="M544,79.39s0,0,0,.07a6.45,6.45,0,0,1,3.31,4.09,1.41,1.41,0,0,0-2.11-.41c-.05,0,0,.1,0,.09a1.58,1.58,0,0,1,1.73.57,7.1,7.1,0,0,1,.82,1.41c.08.16.37.08.31-.1v0C548.17,82.81,546.45,79.64,544,79.39Z"/>
              </g>
            </g>
          </g>
        </g>
      </g>
    </g>
    <g id="Character_2" data-name="Character 2">
      <g>
        <g>
          <g>
            <path class="cls-11" d="M387.86,405.27c2.09-.87,48.58-41.38,49.38-44,.31-1-5.2-8.13-12.09-16.53-1.49-1.82-3-3.69-4.62-5.57-10.27-12.26-21.44-25-21.44-25l-31.18,27,22.3,24.28,4.89,5.33s-10.86,23.47-11.42,26.49S385.76,406.14,387.86,405.27Z"/>
            <path class="cls-3" d="M387.86,405.27c2.09-.87,48.58-41.38,49.38-44,.37-1.23-7.83-11.48-16.71-22.1l-30.32,26.26,4.89,5.33s-10.86,23.47-11.42,26.49S385.76,406.14,387.86,405.27Z"/>
            <g>
              <path class="cls-10" d="M387.86,405.27c2.09-.87,48.58-41.38,49.38-44,.31-1-5.2-8.13-12.09-16.53l-30,26s-10.86,23.47-11.42,26.49S385.76,406.14,387.86,405.27Z"/>
              <g>
                <g>
                  <path class="cls-4" d="M386.9,402.83c7.63-7,39.05-34.42,47.12-40.74.06,0,.1,0,0,.05C426.65,369.22,395,396.4,387,403,386.85,403.1,386.74,403,386.9,402.83Z"/>
                  <path class="cls-4" d="M385.21,392.93a8.33,8.33,0,0,1,6.32-2.16,8.07,8.07,0,0,1,5.37,2.65s0,.12-.1.08a9.58,9.58,0,0,0-11.5-.47A.07.07,0,0,1,385.21,392.93Z"/>
                  <path class="cls-4" d="M392.75,374.13c3.08-2.76,7.66-4.81,11.82-3.95.16,0,.11.27,0,.3A57,57,0,0,0,393,374.56.26.26,0,0,1,392.75,374.13Z"/>
                  <path class="cls-4" d="M391.16,377.17c3.08-2.76,7.66-4.81,11.82-3.95.16,0,.11.26,0,.3a57,57,0,0,0-11.52,4.08A.26.26,0,0,1,391.16,377.17Z"/>
                  <path class="cls-4" d="M389.57,380.21c3.08-2.77,7.66-4.82,11.82-3.95.16,0,.11.26,0,.29a57.65,57.65,0,0,0-11.52,4.09A.26.26,0,0,1,389.57,380.21Z"/>
                  <path class="cls-4" d="M388,383.24c3.08-2.76,7.66-4.81,11.82-3.95.16,0,.11.27,0,.3a57,57,0,0,0-11.52,4.08A.26.26,0,0,1,388,383.24Z"/>
                  <path class="cls-3" d="M425.58,356.42c3.51-3,8.24,2.4,4.73,5.45S422.07,359.46,425.58,356.42Z"/>
                </g>
                <path class="cls-4" d="M386.36,373.1c3.58.71,7.33-.16,10.89-.56a.5.5,0,0,0,.34-.74c.06,0,.09-.11,0-.17a21.68,21.68,0,0,0-9.78-5.51c-2.16-.51-5.26-.06-5.7,2.63S384.27,372.69,386.36,373.1ZM384,370.64c-2.65-3.66,2.68-3.72,4.26-3.28a22.57,22.57,0,0,1,3,1.11c2,.88,3.87,2,5.79,3.09-1.76.09-3.5.33-5.26.48C389.64,372.22,385.43,372.66,384,370.64Z"/>
                <path class="cls-4" d="M407,360c-2-1.82-4.73-.23-6.1,1.51a21.73,21.73,0,0,0-4.2,10.41c0,.09.06.13.13.13a.49.49,0,0,0,.72.36c3-1.91,6.51-3.58,8.86-6.36C407.74,364.4,408.87,361.71,407,360Zm-5.45,8.58c-1.46,1-3,1.87-4.4,2.9.83-2,1.56-4.08,2.59-6a22.75,22.75,0,0,1,1.63-2.72c.95-1.33,5.16-4.61,5.38-.1C406.83,365.1,403.26,367.39,401.51,368.56Z"/>
              </g>
            </g>
          </g>
          <g>
            <path class="cls-4" d="M333.23,293.2c2.92,16.67,46.29,63.31,51.3,68.65l1.14,1.22,33.06-27.71-.42-.49-31.77-38.13,89.74-4.34-35.2-25s-2.7,1.71-8.48,1.12c-19.94-2.06-64.87-6.58-75.39-5.71C343.65,263.89,330.54,277.9,333.23,293.2Z"/>
            <g>
              <path class="cls-10" d="M375.11,282.55a40.15,40.15,0,0,1,3.28,3.85c1.12,1.35,2.26,2.69,3.38,4l0,0c-.2-.4-.4-.81-.62-1.2-.73-1.36-1.32-2.78-2.17-4.07-.05-.08.07-.16.12-.08.87,1.28,1.87,2.5,2.63,3.85.35.64.69,1.29,1,1.95.17.36.35.72.51,1.09.07.17.16.34.22.53.5.62,1,1.26,1.48,1.9,1.08,1.42,2,2.94,3.13,4.35.06.07-.07.15-.12.08-1.1-1.33-2.32-2.55-3.43-3.87s-2.22-2.71-3.28-4.1-2.06-2.73-3.1-4.09a41.3,41.3,0,0,1-3.15-4.19C375,282.57,375.07,282.51,375.11,282.55Z"/>
              <path class="cls-10" d="M380.76,355.35c1.87-1.74,3.9-3.35,5.88-5s4-3.25,6-4.86c4-3.21,8-6.46,12.08-9.62,2.23-1.73,4.47-3.45,6.8-5.06.1-.07.22.09.13.18-3.81,3.46-7.87,6.62-11.88,9.83s-8.05,6.41-12.12,9.57c-2.22,1.72-4.44,3.5-6.77,5.09C380.78,355.57,380.68,355.42,380.76,355.35Z"/>
            </g>
          </g>
        </g>
        <g>
          <g>
            <path class="cls-11" d="M451.08,217.55c-4.92,9.47-22.48,36-36.39,41.15-7.66,2.83-46.92,9.94-52.78,5.86-6.85-4.78-5-26.24-.13-27.06,14.79-2.52,42.71.08,49.38-2.33,3-1.1,18.12-13.87,34.61-24.66C452,206.43,454.25,211.44,451.08,217.55Z"/>
            <g>
              <path class="cls-7" d="M375.93,235.4s.2,32.42,1.72,32,34.88-4.79,43.26-9.58,21.6-24.07,29.24-36.77.35-15.41-7.73-9-30.74,21.6-32.21,21.74S375.93,235.4,375.93,235.4Z"/>
              <path class="cls-4" d="M382.16,263.77c.17-4.38.28-8.75.19-13.13,0-2.18-.12-4.37-.23-6.55s-.44-4.36-.52-6.54c0-.12-.19-.1-.18,0,.19,2.17.09,4.39.16,6.56s.14,4.37.19,6.56c.1,4.36.2,8.73.21,13.1C382,263.91,382.16,263.89,382.16,263.77Z"/>
              <path class="cls-10" d="M423.26,256.15c8.35-6.57,19.93-23.59,26.88-35.14,5.45-9.06,3.31-13-1.3-12.25Z"/>
            </g>
          </g>
          <g>
            <g>
              <rect class="cls-12" x="377.35" y="265.61" width="57.78" height="2.59"/>
              <polygon class="cls-9" points="422.76 265.61 424.74 268.2 377.35 268.2 377.35 265.61 422.76 265.61"/>
              <g>
                <polygon class="cls-12" points="420.29 268.2 363.99 268.2 359.3 229.95 415.61 229.95 420.29 268.2"/>
                <path class="cls-3" d="M393.22,249.08a3.34,3.34,0,0,1-3.36,3.42,3.49,3.49,0,0,1-3.49-3.42,3.35,3.35,0,0,1,3.37-3.43A3.49,3.49,0,0,1,393.22,249.08Z"/>
              </g>
            </g>
            <g>
              <path class="cls-11" d="M359.75,233.65c-2.12,3.28-7.36,7.11-8.08,9.92A3.33,3.33,0,0,0,353,247.3s-3,1-3.27,3.7c-.12,1.37,2,2.76,2,2.76a4,4,0,0,0-2.46,3.32c0,1.89,2.05,3,2.05,3s-1.88,2-1.31,3.92c1.15,3.94,17.27,6.07,20.54.46,1.53-2.61-2.43-2.92-2.43-2.92s5.8-.93,6.33-4.25-4.65-3.39-4.65-3.39,5.62-1,5.81-4.45-5-2.83-5-2.83,3.9-2,3.44-4.66c-.76-4.47-9.95.28-13.38-1Z"/>
              <g>
                <path class="cls-4" d="M351.62,260.31c-.05,0-.08.06,0,.08a28.28,28.28,0,0,0,16.74,1.21c.18-.05.18-.36,0-.34A57.67,57.67,0,0,1,351.62,260.31Z"/>
                <path class="cls-4" d="M351.65,253.78c-.06,0-.08.09,0,.12a26.48,26.48,0,0,0,18.34.18c.2-.08.31-.36.06-.29C365.94,255.05,356.78,254.91,351.65,253.78Z"/>
                <path class="cls-4" d="M371,246.32c-5.82,2-11.71,2-17.75,1.07-.08,0-.09.1,0,.13,2.84,1.25,6.75,1.43,9.8,1.32a16.25,16.25,0,0,0,8.05-2.32C371.18,246.47,371.13,246.28,371,246.32Z"/>
              </g>
            </g>
          </g>
          <g>
            <g>
              <path class="cls-7" d="M429.66,279.61s64.54,9.79,64.86,9.39-9.18-69.57-31.32-80.65c-3.51-1.76-11.88-2.6-15.33,1.14C438,220.15,428.79,278.69,429.66,279.61Z"/>
              <g>
                <path class="cls-10" d="M430.15,273.83l63.55,8.93c-.3-1.9-.69-4.17-1.16-6.72l-61.42-8.64C430.73,269.84,430.4,272,430.15,273.83Z"/>
                <path class="cls-10" d="M431.7,264l60.17,8.45c-.22-1.13-.46-2.29-.71-3.49l-58.87-8.28C432.08,261.81,431.88,262.93,431.7,264Z"/>
              </g>
            </g>
            <g>
              <g>
                <g>
                  <path class="cls-11" d="M450.38,221.87c3.59.16,8.46-6.21,10-10.89.1-.33-.93-3.31-2-7-.65-2.23-1.32-4.74-1.77-7.07l-13.94,6.35a37.57,37.57,0,0,1,3.13,8.68,4.7,4.7,0,0,1,.08,1c0,.05,0,.11,0,.17C445.9,215,446.92,221.72,450.38,221.87Z"/>
                  <path class="cls-4" d="M442.63,203.27a37.57,37.57,0,0,1,3.13,8.68,4.74,4.74,0,0,1,.08,1,.81.81,0,0,0,0,.15,8,8,0,0,0,1.52-.2c8.47-1.83,8.85-12.81,8.79-15.78Z"/>
                </g>
                <g>
                  <path class="cls-11" d="M455.14,178c2.59,4.87,2.75,20.37-.28,24.42-4.41,5.87-13.06,8-18.42,2.4-5.19-5.45-5.05-25.65-1.52-29.48C440.12,169.73,451.32,170.83,455.14,178Z"/>
                  <g>
                    <g>
                      <path class="cls-4" d="M442,190.26s.08.05.08.09c0,1,.08,2.23,1,2.59,0,0,0,.06,0,.05C441.93,192.82,441.78,191.24,442,190.26Z"/>
                      <path class="cls-4" d="M442.93,189.19c1.67-.11,1.76,3.23.22,3.33S441.53,189.28,442.93,189.19Z"/>
                    </g>
                    <g>
                      <path class="cls-4" d="M435.9,190.43s-.08,0-.07.09c.06,1,0,2.23-1,2.6a0,0,0,0,0,0,.06C436,193,436.13,191.4,435.9,190.43Z"/>
                      <path class="cls-4" d="M435,189.37c-1.67-.08-1.71,3.27-.16,3.34S436.35,189.44,435,189.37Z"/>
                    </g>
                    <path class="cls-4" d="M444.2,187.62a12.46,12.46,0,0,1-1.31-.42,2.21,2.21,0,0,1-1.25-.68.71.71,0,0,1,.09-.86,1.74,1.74,0,0,1,1.76-.23A2.53,2.53,0,0,1,445,186.5.76.76,0,0,1,444.2,187.62Z"/>
                    <path class="cls-4" d="M433.61,187.72c.46-.09.87-.25,1.31-.38a2.19,2.19,0,0,0,1.28-.65.72.72,0,0,0-.07-.86,1.76,1.76,0,0,0-1.76-.28,2.6,2.6,0,0,0-1.54,1A.75.75,0,0,0,433.61,187.72Z"/>
                    <path class="cls-4" d="M443.35,199.38c-.19.3-.35.68-.71.79a2.79,2.79,0,0,1-1.15,0s-.06,0,0,.06a1.39,1.39,0,0,0,1.41.26,1.1,1.1,0,0,0,.59-1.07C443.46,199.34,443.38,199.34,443.35,199.38Z"/>
                    <path class="cls-4" d="M442,196.44a3.52,3.52,0,0,1-2.31,1.64,4.48,4.48,0,0,1-1.27.09,4,4,0,0,1-.47,0,.24.24,0,0,1-.21-.22h0v-2.22c-.29.16-1.75.87-1.74.45A52.29,52.29,0,0,1,437,185.41a.1.1,0,0,1,.19,0c0,3.32-.53,6.63-.55,10a6.15,6.15,0,0,1,1.65-.55c.06,0-.08,2.72-.07,2.74a4.88,4.88,0,0,0,3.62-1.24C441.94,196.29,442,196.36,442,196.44Z"/>
                  </g>
                  <g>
                    <path class="cls-4" d="M438.71,198a4.3,4.3,0,0,0,1.86,1.23,2,2,0,0,0,1.2,0c.85-.3.81-1.1.6-1.76a4.76,4.76,0,0,0-.47-1A5.65,5.65,0,0,1,438.71,198Z"/>
                    <path class="cls-13" d="M440.57,199.22a2,2,0,0,0,1.2,0c.85-.3.81-1.1.6-1.76A2,2,0,0,0,440.57,199.22Z"/>
                  </g>
                  <path class="cls-4" d="M432.86,181.06c.53-1.38,1.14-2.78,1.94-3.09s1.44,1.66,3.3,1.7c2.52.06,3.63-2.3,7.12-2.71,5-.58,7.44,3.53,7.89,10.67.4,6.38,4.29,6.8,4.29,6.8s1.69-14.19-2.5-18.66-13.38-6.13-19.29-1.4C433.45,176.1,432.86,181.06,432.86,181.06Z"/>
                  <g>
                    <path class="cls-11" d="M453.89,191.86s2.55-5.44,5-4.61,1.08,8.31-1.34,9.72a2.67,2.67,0,0,1-3.77-.8Z"/>
                    <path class="cls-4" d="M458.42,189.38s.06.05,0,.07c-1.69,1.05-2.35,2.9-2.72,4.76a1.47,1.47,0,0,1,2.1-.78.06.06,0,0,1,0,.11,1.64,1.64,0,0,0-1.68.87,8,8,0,0,0-.6,1.59c-.06.18-.37.14-.34-.06v0C454.74,193.59,456,190.05,458.42,189.38Z"/>
                  </g>
                  <g>
                    <path class="cls-9" d="M439.65,171.81a22.61,22.61,0,0,1,6.08-2.52c2.4-.55,10.12-.75,12.11.6s3.22,8.51,3.38,9.56.34,7.48-1.81,9.26-3.49-9-7.51-12.26S439.65,171.81,439.65,171.81Z"/>
                    <path class="cls-6" d="M439.65,171.81s8.24,1.42,12.25,4.64,5.36,14,7.51,12.26c.95-.78,1.34-1.84,1.58-3.58-.8-3.12-2.59-7.9-5.58-11-2.8-2.94-7.22-4.11-11.83-4.16A26.18,26.18,0,0,0,439.65,171.81Z"/>
                    <g>
                      <path class="cls-9" d="M459.44,195.21c-.51-2.87-4.24-10.3-7.77-14.41s-12.87-5.78-14.12-5.58c-3.06.5-3.58,2-4.1,1.81s2.2-4,3-4.64a10,10,0,0,1,4.15-1.5c1.34-.11,9.66-.13,13,3.07s8.61,12.62,8.09,15.22c-.13.63-.89,1.1-1.06,2-.22,1.16-.32,2.48-.58,3.31C459.87,195.14,459.48,195.46,459.44,195.21Z"/>
                      <g>
                        <path class="cls-4" d="M450.75,178.88a14.69,14.69,0,0,0,1.85-1.67,10.88,10.88,0,0,0,1.52-2,0,0,0,1,1,.09,0,8.27,8.27,0,0,1-1.34,2.2,6.92,6.92,0,0,1-2,1.57C450.75,179.06,450.68,178.93,450.75,178.88Z"/>
                        <path class="cls-4" d="M459.17,192.32c.06-.21.18-.41.26-.62a4.58,4.58,0,0,0,.19-.75,6.31,6.31,0,0,1,.19-1.43,5.19,5.19,0,0,1,.57-1,1.91,1.91,0,0,0,.45-1.23c0-.07.09-.08.1,0a5,5,0,0,1-.74,2.34,8.82,8.82,0,0,0-.24,1.54,2.33,2.33,0,0,1-.64,1.28A.09.09,0,0,1,459.17,192.32Z"/>
                        <path class="cls-4" d="M457.85,189.3a10.88,10.88,0,0,0,.71-1.06,8.39,8.39,0,0,0,.51-1.15c.15-.38.26-.78.4-1.16s.38-.91.52-1.37c0-.06.1,0,.08,0-.14.48-.2,1-.33,1.48a9,9,0,0,1-.43,1.23,6.46,6.46,0,0,1-.57,1.11,3.24,3.24,0,0,1-.85.92S457.84,189.33,457.85,189.3Z"/>
                        <path class="cls-4" d="M456.51,186.59a8,8,0,0,0,1.39-1.94c.35-.69.67-1.41,1-2.13,0-.05.11,0,.09,0a9.22,9.22,0,0,1-.77,2.29,4.66,4.66,0,0,1-.64,1,5.13,5.13,0,0,1-1,.83S456.47,186.63,456.51,186.59Z"/>
                        <path class="cls-4" d="M455.09,184a2.84,2.84,0,0,0,.69-.85c.21-.35.42-.71.62-1.07s.39-.68.58-1a3,3,0,0,0,.41-1.11,0,0,0,0,1,.09,0,3.09,3.09,0,0,1-.21,1.16,9.18,9.18,0,0,1-.54,1.2,11.17,11.17,0,0,1-.71,1.08,1.88,1.88,0,0,1-.86.74A.07.07,0,0,1,455.09,184Z"/>
                        <path class="cls-4" d="M453.91,180.66c.24-.29.48-.58.7-.89s.42-.63.61-1,.43-.67.61-1c0-.06.11,0,.09,0a7.49,7.49,0,0,1-.43,1.11,7.79,7.79,0,0,1-.6,1,7.92,7.92,0,0,1-.71.91,3,3,0,0,1-.87.76c-.05,0-.12,0-.09-.09A6.43,6.43,0,0,1,453.91,180.66Z"/>
                        <path class="cls-4" d="M448.37,177.46c.25-.38.49-.75.77-1.11a13.4,13.4,0,0,1,.93-1,13,13,0,0,1,2.09-1.74s.11,0,.07.07c-1.25,1.31-2.55,2.57-3.78,3.89C448.4,177.57,448.34,177.52,448.37,177.46Z"/>
                        <path class="cls-4" d="M446.37,175.17a6.65,6.65,0,0,1,.88-1,12.72,12.72,0,0,1,2.34-1.63c.05,0,.11,0,.06.08-.7.57-1.41,1.13-2.07,1.75a10.65,10.65,0,0,0-.95.95c-.29.34-.51.73-.78,1.08,0,0-.07,0-.07,0A3.49,3.49,0,0,1,446.37,175.17Z"/>
                        <path class="cls-4" d="M443.85,174.29a6.12,6.12,0,0,1,.81-1,7.28,7.28,0,0,1,2-1.45c.05,0,.09.05.05.08a14.44,14.44,0,0,0-1.84,1.65c-.29.3-.56.62-.83.93a12.25,12.25,0,0,1-.78,1,0,0,0,0,1-.05,0A6.25,6.25,0,0,1,443.85,174.29Z"/>
                        <path class="cls-4" d="M442,173q.42-.42.87-.81a3.63,3.63,0,0,1,.94-.66c.05,0,.09,0,.05.08-.54.53-1.08,1.07-1.61,1.62A9.83,9.83,0,0,0,441,175s-.06,0,0,0A3.73,3.73,0,0,1,442,173Z"/>
                        <path class="cls-4" d="M439.75,172.78a6,6,0,0,1,1.8-1.4c.05,0,.09.06.05.09A7.4,7.4,0,0,0,440,173a10.78,10.78,0,0,0-1.21,1.86s-.07,0-.06,0A4.94,4.94,0,0,1,439.75,172.78Z"/>
                        <path class="cls-4" d="M437,174.37a3.9,3.9,0,0,1,.2-.47,5.2,5.2,0,0,1,.56-.85,11.35,11.35,0,0,1,1.51-1.43c.05,0,.11,0,.06.08a8.74,8.74,0,0,0-1.4,1.45,7.36,7.36,0,0,0-.54.83,4.39,4.39,0,0,0-.21.44,2.83,2.83,0,0,1-.2.43s-.08,0-.09,0A1.24,1.24,0,0,1,437,174.37Z"/>
                        <path class="cls-4" d="M435.32,174.7a6.49,6.49,0,0,1,.46-.7,6.76,6.76,0,0,1,.54-.64c.2-.21.41-.41.6-.62,0-.05.12,0,.07.07a3.92,3.92,0,0,0-.55.67l-.48.66-.48.66a7.63,7.63,0,0,1-.48.68,0,0,0,0,1-.06,0A3.45,3.45,0,0,1,435.32,174.7Z"/>
                      </g>
                    </g>
                  </g>
                </g>
              </g>
              <path class="cls-4" d="M445.32,215.45s.05,0,.05,0c0,2.92.21,9.69,4.75,9a9.7,9.7,0,0,0,4.76-2.75,25.33,25.33,0,0,0,3.63-4.18,37,37,0,0,0,3.29-5.28c0-.08.16,0,.12.07-1,1.85-1.76,3.76-2.91,5.52a22.39,22.39,0,0,1-3.9,4.62,9.68,9.68,0,0,1-5.09,2.71,3.68,3.68,0,0,1-3.92-2.54A16.29,16.29,0,0,1,445.32,215.45Z"/>
            </g>
          </g>
          <g>
            <g>
              <path class="cls-11" d="M471.44,223.27c4.38,24.84.15,43.44-4.07,45.75-11.36,6.2-38.63-6.38-46.32-8.88-3.11-1,11.06-24.8,14.24-23.33,7.47,3.46,17.95,9.32,18.38,9.28.84-.09,1.82-6.43,6.16-24.9C463.34,206.24,469.65,213.12,471.44,223.27Z"/>
              <g>
                <path class="cls-11" d="M396.25,225c-.78,3.12,7.08,4.39,7.08,4.39a5.89,5.89,0,0,0-3.11,2.57c-1.15,2.16,1.74,4.9,1.74,4.9a7.27,7.27,0,0,0-2.85,3.23c-.89,2.18,1.63,5.36,1.63,5.36a6.43,6.43,0,0,0-.72,4.42c1,4,7.11,5.58,10.71,7.31,3.87,1.85,10.26,2.53,13.17,3.84l12.57-23s-12.15-12.86-19.08-14.86C413.54,222.06,397.44,220.27,396.25,225Z"/>
                <g>
                  <path class="cls-4" d="M403.41,229.36a53.38,53.38,0,0,1,13,1.54.07.07,0,1,1,0,.14c-4.21-.91-8.77-.73-13-1.48A.1.1,0,0,1,403.41,229.36Z"/>
                  <path class="cls-4" d="M402.15,236.61a11.32,11.32,0,0,1,2.93.55c1,.26,2,.54,3.06.84,2,.6,4.05,1.24,6,1.94.09,0,.07.18,0,.15-2-.59-4.06-1.15-6.1-1.66-1-.25-2.06-.5-3.09-.73a13.61,13.61,0,0,1-2.87-.81A.15.15,0,0,1,402.15,236.61Z"/>
                  <path class="cls-4" d="M400.83,245.51a8.24,8.24,0,0,1,2.61.63l2.76.86c1.85.56,3.69,1.12,5.56,1.62.09,0,.06.17,0,.15-1.9-.5-3.8-1-5.69-1.48l-2.79-.77a7.47,7.47,0,0,1-2.46-.92A.05.05,0,0,1,400.83,245.51Z"/>
                </g>
              </g>
              <path class="cls-4" d="M453.67,246.09c-3.12-1.44-6.2-3-9.28-4.48l-4.61-2.29-2.31-1.13c-.75-.34-1.58-.77-2.26-1l-.13,0-.05-.05c-2-2-4-3.93-6.07-5.87-1-1-2.07-1.89-3.13-2.82a29.7,29.7,0,0,0-3.33-2.59,25.14,25.14,0,0,1,3.54,2.33c1.12.86,2.21,1.77,3.28,2.68,2.16,1.83,4.19,3.79,6.22,5.75l-.17-.09a21.9,21.9,0,0,1,2.43,1.07l2.3,1.16,4.57,2.38C447.69,242.7,450.71,244.34,453.67,246.09Z"/>
            </g>
            <g>
              <path class="cls-7" d="M437.41,236.27l-13.68,28s37,15.11,44.1,6.91,6.83-35.64,3.52-50.65-10.64-7.74-12.27.55-4.67,24.13-5.41,23.94S437.41,236.27,437.41,236.27Z"/>
              <path class="cls-4" d="M441.34,241.36c-2,3.6-4,7.22-5.75,10.93-.89,1.85-1.76,3.71-2.59,5.59s-1.49,3.84-2.35,5.7c0,.1.12.17.17.06.76-1.9,1.79-3.71,2.65-5.57s1.75-3.72,2.63-5.57c1.78-3.71,3.54-7.41,5.4-11.07C441.55,241.32,441.39,241.26,441.34,241.36Z"/>
              <path class="cls-4" d="M436.85,237.41c.16-.39.31-.79.47-1.19l0-.09.1.05c2,.92,4,1.93,6,2.92s3.95,2.06,5.9,3.14,3.89,2.16,5.8,3.31,3.82,2.29,5.68,3.53c-2.05-.9-4.05-1.88-6-2.88s-4-2-5.92-3.09-3.89-2.16-5.82-3.27-3.83-2.27-5.71-3.48l.14-.05C437.3,236.68,437.07,237.05,436.85,237.41Z"/>
              <g>
                <path class="cls-4" d="M457.8,227.54a59.51,59.51,0,0,1-1.27,8.92c-.31,1.46-.67,2.92-1.1,4.37a14.13,14.13,0,0,1-1.76,4.16,9.88,9.88,0,0,0,.57-2.15l.43-2.2c.28-1.47.59-2.93.89-4.39A89,89,0,0,1,457.8,227.54Z"/>
                <path class="cls-4" d="M456.15,228.74c.1.87.13,1.7.19,2.54,0,.41.07.83.1,1.25s.1.83.14,1.27a5.35,5.35,0,0,1-.74-2.49A6.78,6.78,0,0,1,456.15,228.74Z"/>
              </g>
              <g>
                <path class="cls-4" d="M473.12,232.74a100,100,0,0,1,.65,10.53,98.28,98.28,0,0,1-.39,10.57,52.86,52.86,0,0,1-1.94,10.42,23.31,23.31,0,0,1-2.11,4.9,8.52,8.52,0,0,1-3.85,3.57,8.72,8.72,0,0,0,3.42-3.82,22.51,22.51,0,0,0,1.8-4.86,49.2,49.2,0,0,0,1-5.11c.28-1.72.48-3.46.64-5.2.35-3.47.5-7,.63-10.47.06-1.76.08-3.51.09-5.26S473.12,234.5,473.12,232.74Z"/>
                <path class="cls-4" d="M473.91,235a4.62,4.62,0,0,1,.08,1.85,4,4,0,0,1-.63,1.74,12,12,0,0,1,.14-1.82A8.71,8.71,0,0,1,473.91,235Z"/>
              </g>
            </g>
          </g>
        </g>
        <g>
          <g>
            <path class="cls-11" d="M260.79,356.22c.88,2.09,41.53,48.45,44.2,49.24,1,.3,8.11-5.22,16.49-12.15,1.82-1.49,3.68-3.05,5.56-4.64,12.22-10.3,24.95-21.52,24.95-21.52l-27.1-31.09-24.21,22.38-5.32,4.91S271.85,352.56,268.84,352,259.91,354.12,260.79,356.22Z"/>
            <path class="cls-3" d="M260.79,356.22c.88,2.09,41.53,48.45,44.2,49.24,1.23.36,11.45-7.87,22.05-16.79l-26.36-30.23-5.32,4.91S271.85,352.56,268.84,352,259.91,354.12,260.79,356.22Z"/>
            <g>
              <path class="cls-10" d="M260.79,356.22c.88,2.09,41.53,48.45,44.2,49.24,1,.3,8.11-5.22,16.49-12.15l-26.12-30S271.85,352.56,268.84,352,259.91,354.12,260.79,356.22Z"/>
              <g>
                <g>
                  <path class="cls-4" d="M263.23,355.26c7,7.6,34.54,38.93,40.89,47,.05.06,0,.1-.05,0-7.11-7.38-34.39-38.94-41-46.91C263,355.2,263.08,355.09,263.23,355.26Z"/>
                  <path class="cls-4" d="M273.12,353.53a8.34,8.34,0,0,1,2.18,6.31,8.07,8.07,0,0,1-2.63,5.38c-.05,0-.12-.05-.08-.1a9.58,9.58,0,0,0,.43-11.5A.07.07,0,0,1,273.12,353.53Z"/>
                  <path class="cls-4" d="M291.94,361c2.77,3.07,4.84,7.64,4,11.81,0,.16-.26.11-.3,0a56.83,56.83,0,0,0-4.12-11.51A.26.26,0,0,1,291.94,361Z"/>
                  <path class="cls-4" d="M288.9,359.43c2.77,3.07,4.84,7.64,4,11.81,0,.16-.26.11-.3,0a57,57,0,0,0-4.12-11.5A.26.26,0,0,1,288.9,359.43Z"/>
                  <path class="cls-4" d="M285.86,357.85c2.77,3.07,4.83,7.64,4,11.81,0,.16-.27.11-.3,0a57.57,57.57,0,0,0-4.12-11.5A.26.26,0,0,1,285.86,357.85Z"/>
                  <path class="cls-4" d="M282.82,356.27c2.77,3.07,4.83,7.64,4,11.81,0,.16-.26.11-.29,0a57.57,57.57,0,0,0-4.12-11.5A.26.26,0,0,1,282.82,356.27Z"/>
                  <path class="cls-3" d="M309.76,393.79c3.06,3.49-2.38,8.24-5.43,4.74S306.71,390.28,309.76,393.79Z"/>
                </g>
                <path class="cls-4" d="M293,354.62c-.69,3.58.19,7.33.6,10.89a.51.51,0,0,0,.74.34.12.12,0,0,0,.18,0,21.85,21.85,0,0,0,5.47-9.81c.5-2.16,0-5.26-2.65-5.69S293.36,352.53,293,354.62Zm2.45-2.41c3.66-2.65,3.74,2.68,3.3,4.26a24,24,0,0,1-1.1,3c-.87,2-2,3.88-3.07,5.8-.1-1.76-.34-3.5-.5-5.25C293.84,357.89,293.39,353.68,295.4,352.21Z"/>
                <path class="cls-4" d="M306.14,375.17c1.81-2,.22-4.73-1.53-6.09a21.76,21.76,0,0,0-10.43-4.17c-.08,0-.12.06-.12.13a.5.5,0,0,0-.36.73c1.92,3,3.6,6.49,6.39,8.83C301.72,376,304.42,377.09,306.14,375.17Zm-8.59-5.41c-1-1.47-1.89-3-2.92-4.4a65.36,65.36,0,0,1,6,2.57,23.35,23.35,0,0,1,2.73,1.62c1.33.95,4.63,5.14.12,5.38C301,375.06,298.72,371.5,297.55,369.76Z"/>
              </g>
            </g>
          </g>
          <g>
            <path class="cls-4" d="M301.81,353.53l28.33,35L417.85,322l8.46-6.42s2.54,1.55,6.34,3.45c5.28,2.63,13,5.92,19.73,6.62,11.29,1.19,28.2.29,37.12-12.76,7.52-11,4.41-24.77,4.41-24.77l-12.54-4.77s-30.19-23.05-49.1-23c-8,0-19.46,6.6-30,13.41S301.81,353.53,301.81,353.53Z"/>
            <g>
              <path class="cls-10" d="M426.31,315.55s2.54,1.55,6.34,3.45c6.24-8.14,19.53-23,19.93-23.53Z"/>
              <path class="cls-10" d="M470.34,275.65c1.79,1.13,3.53,2.35,5.31,3.52s3.53,2.22,5.2,3.48,3.3,2.67,4.91,4.07c.77.67,1.54,1.35,2.29,2a20.58,20.58,0,0,1,2.19,2.19c.06.08-.05.17-.12.13a23.72,23.72,0,0,1-2.42-1.8l-2.52-2c-1.63-1.27-3.28-2.49-4.9-3.76s-3.11-2.65-4.7-3.93-3.5-2.64-5.27-3.93A0,0,0,1,1,470.34,275.65Z"/>
              <path class="cls-10" d="M308.05,352c1.82,1.81,3.51,3.76,5.22,5.67s3.41,3.84,5.1,5.78c3.38,3.88,6.79,7.73,10.12,11.66,1.83,2.15,3.64,4.32,5.35,6.58.08.1-.08.22-.17.13-3.62-3.65-6.95-7.57-10.32-11.44s-6.76-7.78-10.08-11.71c-1.82-2.15-3.69-4.29-5.37-6.54C307.83,352,308,351.89,308.05,352Z"/>
              <path class="cls-10" d="M376.83,353c4.35-3.73,14.28-11.09,18.8-14.61s9-7,13.56-10.43c1.32-1,2.64-1.93,4-2.9s2.7-1.85,4-2.85c.07-.06.15.07.08.13-1.19.92-2.3,2-3.47,2.92s-2.21,1.84-3.33,2.75c-2.19,1.77-4.4,3.5-6.6,5.25-4.48,3.53-9,7-13.55,10.45-2.59,1.94-10.58,7.7-13.23,9.56C376.89,353.37,376.68,353.12,376.83,353Z"/>
              <path class="cls-10" d="M346.88,316.86c4-3.62,13.2-10.65,17.42-14s8.52-6.84,12.8-10.23,8.51-6.71,12.76-10.07,8.23-6.56,12.6-9.47c2.4-1.6,4.86-3.09,7.4-4.44a49,49,0,0,1,7.69-3.53.07.07,0,0,1,.06.13c-2.16,1.33-4.44,2.47-6.63,3.76s-4.3,2.61-6.39,4c-4.34,2.9-8.42,6.15-12.53,9.37-8.51,6.69-17,13.41-25.6,20-4.8,3.7-14.36,11.33-19.37,14.75A.17.17,0,0,1,346.88,316.86Z"/>
            </g>
          </g>
        </g>
      </g>
    </g>
    <g id="Character_1" data-name="Character 1">
      <g>
        <g>
          <g>
            <g>
              <path class="cls-14" d="M2.23,169.21c.68-2.06,37.24-50.37,39.74-51.3.29-.12,16.63,11.51,16.63,11.51.67.9,31.74-5.67,31.74-5.67l.31,37.48L34.06,160s-7.65,4.49-14.64,8.15h0a86.58,86.58,0,0,1-9.2,4.46C7.37,173.37,1.53,171.27,2.23,169.21Z"/>
              <path class="cls-3" d="M10.2,172.65a82.56,82.56,0,0,0,9.2-4.46h0c7-3.67,14.64-8.16,14.64-8.16l12.59.27,19.72-31.82c-4.33.77-7.56,1.23-7.77.94,0,0-16.34-11.63-16.63-11.51-2.5.93-39,49.24-39.74,51.3S7.37,173.38,10.2,172.65Z"/>
              <g>
                <path class="cls-9" d="M1.9,169.28c.71-2.12,37.44-50.4,40-51.35,1-.37,9,4.57,16.69,11.49l-23.72,31.1S13,172.11,10.08,172.86,1.18,171.39,1.9,169.28Z"/>
                <g>
                  <g>
                    <path class="cls-4" d="M4.35,170.06c6.36-7.95,31.24-40.58,36.92-48.91,0-.07,0-.1-.05,0-6.47,7.73-31.09,40.57-37,48.85C4.1,170.13,4.22,170.22,4.35,170.06Z"/>
                    <path class="cls-4" d="M14.18,171.07a8.19,8.19,0,0,0,1.71-6.34,8,8,0,0,0-3-5.1s-.12.05-.07.1A9.45,9.45,0,0,1,14.08,171C14,171.06,14.13,171.14,14.18,171.07Z"/>
                    <path class="cls-4" d="M32.14,162.44c2.51-3.21,4.22-7.83,3.11-11.86,0-.15-.27-.09-.29,0a56.08,56.08,0,0,1-3.26,11.57A.26.26,0,0,0,32.14,162.44Z"/>
                    <path class="cls-4" d="M29.26,164.2c2.51-3.21,4.23-7.83,3.11-11.86,0-.16-.27-.09-.29,0A56.08,56.08,0,0,1,28.82,164,.26.26,0,0,0,29.26,164.2Z"/>
                    <path class="cls-4" d="M26.39,166c2.51-3.21,4.22-7.83,3.1-11.86,0-.16-.26-.09-.29,0A56.06,56.06,0,0,1,26,165.71.26.26,0,0,0,26.39,166Z"/>
                    <path class="cls-4" d="M23.51,167.72c2.51-3.21,4.22-7.83,3.1-11.86,0-.16-.26-.09-.28,0a56.08,56.08,0,0,1-3.26,11.57A.26.26,0,0,0,23.51,167.72Z"/>
                    <path class="cls-4" d="M47.39,129.06c2.75-3.65-2.9-7.93-5.66-4.28S44.63,132.7,47.39,129.06Z"/>
                  </g>
                  <path class="cls-4" d="M38.12,172.52c2.61-.61,2.85-3.69,2.21-5.77a21.41,21.41,0,0,0-6-9.25.11.11,0,0,0-.17,0,.5.5,0,0,0-.71.38c-.16,3.52-.76,7.26.16,10.73C34.11,170.67,35.66,173.09,38.12,172.52Zm-3.86-9.22c0-1.73.16-3.45.13-5.18a64.09,64.09,0,0,1,3.41,5.47,24.36,24.36,0,0,1,1.29,2.85c.53,1.52.82,6.76-3,4.4C34.06,169.54,34.22,165.37,34.26,163.3Z"/>
                  <path class="cls-4" d="M39.21,148.54c-2.58,2.49-4,6-5.67,9.11a.5.5,0,0,0,.41.69c0,.07,0,.13.12.12a21.34,21.34,0,0,0,10-4.81c1.63-1.45,3-4.21,1.08-6.08S40.71,147.09,39.21,148.54Zm3.33-.55c4.44-.08,1.5,4.26.25,5.29a21.57,21.57,0,0,1-2.56,1.77c-1.84,1.14-3.81,2-5.75,2.94.92-1.47,1.7-3,2.56-4.51C38.07,151.68,40.09,148,42.54,148Z"/>
                </g>
              </g>
            </g>
            <g>
              <path class="cls-10" d="M92.05,112.26h25.4s26.57-12.77,48-7.62c24.54,5.9,27.68,36.71,9.34,47.61-23.24,13.8-126.63,11.13-126.63,11.13L70.48,125.5s34.38-7.24,65.56-6.19l-44,6Z"/>
              <g>
                <path class="cls-4" d="M69,127.94a1.33,1.33,0,0,0,.05-.19.75.75,0,0,1,0-.16l.09-.37c.08-.25.17-.49.26-.74s.2-.48.32-.72a4.69,4.69,0,0,1,.42-.67s0,0,.06,0l0,0,.06,0,.06,0c3.78-.7,29.47-4.38,33.29-4.81s7.72-.8,11.58-1.12a230,230,0,0,1,23.19-.84c.72,0,1.45,0,2.17.07.15,0,.32-.08.48-.12.37-.09.74-.18,1.11-.25.7-.14,1.4-.24,2.1-.35,1.47-.22,2.93-.37,4.39-.65a.07.07,0,0,1,0,.14c-1.46.33-2.9.75-4.36,1.07l-1.27.27c2.83.15,5.67.36,8.5.62.08,0,.09.15,0,.14-3.85-.23-7.74-.25-11.59-.19s-7.66.15-11.48.37c-7.74.44-15.47,1.14-23.18,1.94-4.32.46-30.52,4.28-34.86,4.46h0c0,.1-.07.2-.12.3s-.24.47-.37.7-.25.44-.39.65l-.21.32-.11.15s-.1.12-.11.17S68.94,128,69,127.94Z"/>
                <path class="cls-4" d="M56.19,161.08c1.38-2.22,2.56-4.58,3.83-6.86s2.54-4.58,3.82-6.87c2.54-4.56,11.67-19.91,12.57-21,.06-.07.17,0,.14.09-.42,1.18-6.12,11.35-7.43,13.61-2.63,4.53-5.38,9-8.1,13.45-.78,1.28-1.58,2.54-2.37,3.81s-1.62,2.52-2.34,3.82A.07.07,0,1,1,56.19,161.08Z"/>
                <path class="cls-4" d="M76.67,130.19c2.28-.55,4.62-.91,6.92-1.34s4.62-.88,6.94-1.3q6.93-1.29,13.89-2.47c9.25-1.55,18.54-2.85,27.88-3.74,5.28-.51,10.56-.84,15.84-1.23.12,0,.11.17,0,.18-9.41.42-18.8,1.69-28.12,3s-18.43,2.78-27.62,4.33L84.62,129c-2.63.45-5.26,1-7.91,1.35C76.61,130.35,76.57,130.21,76.67,130.19Z"/>
              </g>
            </g>
          </g>
          <g>
            <g>
              <path class="cls-14" d="M40.49,291.76c2.27-.13,61.2-23.67,62.82-25.93C104,265,80.37,209.6,80.37,209.6L42.84,224.49l15.91,37s-18,18.6-19.55,21.27S38.22,291.89,40.49,291.76Z"/>
              <path class="cls-4" d="M40.49,291.76c2.27-.13,61.2-23.68,62.82-25.94.2-.26-1.94-5.8-5-13.32-10.09,5.84-46.93,26.39-50.58,25.75-2.55-.45-1.42-3.06-.19-5-4,4.29-7.69,8.36-8.34,9.5C37.68,285.42,38.22,291.9,40.49,291.76Z"/>
            </g>
            <g>
              <path class="cls-10" d="M92.9,234,49.51,254S13.93,171.05,12.63,141.87c-1.1-24.83,10.1-45.84,66-29.78l13.7.17v9.45c-6,.79-22,3.31-22,3.31-11.66,4.4-15.42,6.22-15.23,6.6C84.12,190.36,92.9,234,92.9,234Z"/>
              <g>
                <path class="cls-4" d="M48.19,121.14c1.69,2.24,3.25,4.58,4.74,7a100.29,100.29,0,0,1,28.43-7.5c2.75-.33,5.51-.58,8.27-.73.11,0,.11.17,0,.17a125,125,0,0,0-28.93,5.51c-2.6.8-5.15,1.73-7.71,2.64,1.79,2.87,3.48,5.8,5.1,8.76a175,175,0,0,1,8.16,17c1.34,3.22,2.64,6.47,3.8,9.76,0,.1-.13.16-.17.07q-7.63-17.06-16.69-33.38c-1.7-3.07-3.48-6.1-5.14-9.19C48,121.16,48.13,121.06,48.19,121.14Z"/>
                <path class="cls-4" d="M48.6,243.87c2.44-.94,4.8-2.13,7.18-3.2l7.16-3.22c4.77-2.14,21.27-9,22.63-9.29a.09.09,0,0,1,.07.16c-1.06.69-11.7,5.42-14.11,6.45-4.81,2.07-9.68,4-14.53,5.94-1.39.56-2.79,1.09-4.18,1.63s-2.8,1-4.16,1.66C48.57,244,48.52,243.9,48.6,243.87Z"/>
                <path class="cls-4" d="M48.4,125.45c3.29,6.25,6.1,12.8,9,19.26s5.61,12.91,8.3,19.42q8,19.44,15,39.3c2.63,7.49,3.76,12.64,6.15,20.21,0,.11-.14.15-.17,0-4.42-13.38-7.89-24.25-12.89-37.41s-10.29-26.17-15.9-39.05q-2.36-5.43-4.8-10.83c-1.62-3.6-3.31-7.18-4.83-10.82A.13.13,0,1,1,48.4,125.45Z"/>
              </g>
            </g>
          </g>
        </g>
        <g>
          <g>
            <g>
              <path class="cls-4" d="M132.43,65.85a.44.44,0,0,1-.4.43l-1.81,0c-1.25-4.35-2.71-7.84-2.36-6.5a21.66,21.66,0,0,1,.58,6.45l-3.58-.13c-.76-7.52-2.09-13.17-2.12-11.47-.14,6.88-.73,9-1.41,11.35-8.62-.34-19.93-.91-28.09-1.49-.59-4.18-1-8.68-1.2-8.38-1.32,2.22-1.91,5.54-2.15,8.13-2.6-.21-4.67-.42-5.93-.61,0,0-.31-3.5-.3-4.64a23.62,23.62,0,0,1,1.65-8.54,42.25,42.25,0,0,1,4.46-7.68l0-.06a0,0,0,0,0,0,0,23.88,23.88,0,0,0,2.63-5.15l0,0a23.29,23.29,0,0,0,1-4c.82-5,4-9.15,8.91-10.08C112.1,15.66,120.79,20,123,26.7c.2.65.39,1.4.57,2.21v0c.67,3,1.16,6.87,1.67,9.86v0a0,0,0,0,0,0,0h0a27.73,27.73,0,0,0,.78,3.48C127.8,47.8,132.73,51.24,132.43,65.85Z"/>
              <path class="cls-4" d="M100.21,24.56A9.59,9.59,0,0,0,94,31.78,24.53,24.53,0,0,1,92.24,38a22.52,22.52,0,0,1-4.06,5.23,16.39,16.39,0,0,0-4.87,8.71,27.91,27.91,0,0,0,.09,11.55s0,0,0,0a29.61,29.61,0,0,1,.61-12c1-3.94,3.51-6.27,6.09-9.12a16.69,16.69,0,0,0,4.11-7.88c.39-1.8.53-3.7,1.41-5.36A10.82,10.82,0,0,1,100.4,25,.22.22,0,0,0,100.21,24.56Z"/>
              <path class="cls-4" d="M130.73,48.43c-2-3-4-5.69-5-9.36-.9-3.34-1.27-6.82-2.19-10.16,0-.06-.09,0-.08,0,1.35,5.9,1.2,11.73,4.5,16.88,1.79,2.8,3.6,5.41,4.66,8.67a28.11,28.11,0,0,1,1.19,10.58.09.09,0,1,0,.18,0A23.32,23.32,0,0,0,130.73,48.43Z"/>
            </g>
            <g>
              <path class="cls-4" d="M103.54,22.48c-.22,1.21-6.33,3.42-10.09-.18s-1.29-9.54,4.29-8.25C101.26,14.87,104,19.93,103.54,22.48Z"/>
              <path class="cls-4" d="M92,16.57a7.09,7.09,0,0,1,3.56-3.12,4.33,4.33,0,0,1,4.3.52,8.74,8.74,0,0,1,2.76,3.76,13.17,13.17,0,0,1,.72,2.31,6.69,6.69,0,0,1,.17,2.44,5.7,5.7,0,0,0,.27-2.5,10.25,10.25,0,0,0-.49-2.5,8.43,8.43,0,0,0-2.89-4.25,4.85,4.85,0,0,0-5.12-.43A6.32,6.32,0,0,0,92,16.57Z"/>
            </g>
          </g>
          <g>
            <path class="cls-14" d="M94.79,61.81c2.84,15.06,11.46,34.55,19.28,34.85,7.15.28,23.7-6.57,30.59-10.36s-6.7-21.18-10.82-19c-5.5,2.87-15.1,9.37-16.57,8.81-1.84-.7-3.53-3.78-13.44-17.9C99.78,52.4,93.58,55.4,94.79,61.81Z"/>
            <g>
              <path class="cls-14" d="M141.45,61.52c3.25-.76,6.92-1.9,10.39-1.46s5.86,5.35,5.72,6.67-2.35,9.37-5.83,9-.69-6.45-.74-7.19-.09-1.67-.75-1.67-12.74,4.19-12.74,4.19Z"/>
              <g>
                <path class="cls-14" d="M141.62,62c.2,0,9.92-2.64,13.39-2.2s5.86,5.35,5.72,6.66-2.35,9.38-5.83,9-.69-6.45-.75-7.19-.08-1.67-.74-1.67-12.74,4.19-12.74,4.19Z"/>
                <path class="cls-4" d="M153.77,74.92a4.13,4.13,0,0,1-.36-2.12,7.15,7.15,0,0,1,.37-2.2,11.42,11.42,0,0,0,.63-1.87,3.71,3.71,0,0,0-.29-1.89c-.21-.52-.74-.41-1.2-.3a17.62,17.62,0,0,0-2,.65c-.7.25-1.4.53-2.09.8a16.07,16.07,0,0,0-2.14.89.05.05,0,0,0,0,.1c.63-.15,1.24-.39,1.85-.6s1.39-.48,2.09-.7,1.3-.45,1.95-.65a2.09,2.09,0,0,1,1-.18c.26.09.32.76.35,1a3.25,3.25,0,0,1-.32,1.86,9.6,9.6,0,0,0-.57,1.87,5.11,5.11,0,0,0,0,1.83,6.64,6.64,0,0,0,.67,1.58C153.69,75.05,153.81,75,153.77,74.92Z"/>
              </g>
              <g>
                <path class="cls-14" d="M129.6,70s10.59-7.74,12.79-9.27c4.4-3.06,22.11-8.14,24.5-8.14s2.72,5-9.34,8.73c-6.35,2-7.81,5.35-7.9,7.29s1.35,5.72,4.6,6,5.86-4.24,8.89-4.44.48,5-2,8a20,20,0,0,1-9.45,5.85c-2.92.75-12,3.54-12,3.54Z"/>
                <path class="cls-4" d="M158.51,72.72c-1.32.81-2.83,1.88-4.44,1.77s-2.63-1.31-3.25-2.75a6.2,6.2,0,0,1-.37-4.57,7.62,7.62,0,0,1,2.62-3.39,18.11,18.11,0,0,1,4.7-2.44c.08,0,0-.14-.05-.11-1.56.5-6.4,1.89-7.78,5.89a6.31,6.31,0,0,0,.41,4.66,4.53,4.53,0,0,0,3,3c1.9.36,3.71-1,5.21-2C158.67,72.73,158.58,72.67,158.51,72.72Z"/>
              </g>
            </g>
            <g>
              <path class="cls-5" d="M93.84,64.86A66.38,66.38,0,0,0,98.42,82.4c.48,1.13.8,1.7.8,1.7L113.8,73.84l2-1.42s-.24-.41-1-1.53c-1.14-1.6-3.42-4.62-7.79-9.91a28.79,28.79,0,0,0-6.71-6.33C95,51.48,92.64,55.76,93.84,64.86Z"/>
              <path class="cls-5" d="M96.84,83.52l3,5.3,16.3-11.71,3.66-2.62c-.38-.4-4-4.34-4-4.34l-1,.74-2.06,1.44L98.42,82.4Z"/>
              <path class="cls-4" d="M93.84,64.86A66.38,66.38,0,0,0,98.42,82.4l-1.58,1.12,3,5.3,16.3-11.71c-.77-1.07-1.54-2.16-2.33-3.27l-1.08-1.51c-4.8-6.78-9.59-13.55-12.44-17.68C95,51.48,92.64,55.76,93.84,64.86Z"/>
            </g>
          </g>
          <path class="cls-14" d="M117.56,113.27l-.9-18.44s7.34-9,4.67-15.48c-1.35-3.27-11-19.92-16.27-24.1-5-3.93-12.62-.15-15,3.1C80.89,71,73.92,82.28,67.32,110.74c0,0,18.67,6.26,35.58,6.26C108.17,117,117.56,113.27,117.56,113.27Z"/>
          <g>
            <path class="cls-5" d="M119.69,108.64l-3-13.81s7.34-9,4.67-15.48c-1.35-3.27-11-19.92-16.27-24.1-5-3.93-13-.66-15.45,2.55-9.49,12.61-17,25.58-22.63,49.6Z"/>
            <g>
              <path class="cls-4" d="M100.52,93.91a43.71,43.71,0,0,1,6.57.25c1.08.14,2.15.32,3.22.53.54.11,1.07.19,1.61.28a7.44,7.44,0,0,0,1.7.1,0,0,0,0,1,0,.08,12.38,12.38,0,0,1-1.61.17,11.53,11.53,0,0,1-1.55-.1c-1.1-.12-2.2-.3-3.3-.44-2.21-.28-4.43-.57-6.66-.69C100.41,94.09,100.41,93.91,100.52,93.91Z"/>
              <path class="cls-4" d="M95.4,96.51a47.87,47.87,0,0,1,5.35-.94c.9-.1,1.8-.15,2.7-.18h1.3c.48,0,1,.06,1.43.06,0,0,.06.07,0,.07-.45,0-.9.12-1.35.16l-1.34.14c-.9.09-1.8.19-2.7.27-1.8.17-3.59.35-5.39.58C95.32,96.67,95.31,96.53,95.4,96.51Z"/>
            </g>
          </g>
          <g>
            <g>
              <path class="cls-14" d="M96,56.55c-.07,1,4.86,8.86,9.12,10,1.38.35,1.27-7.7,1.27-7.7l.3-.51,4.1-7.2-7.29-8.62-1.07-1.18s-1,2.05-2.21,4.6c0,.12-.11.24-.17.37l-.2.41c-.19.38-.38.77-.56,1.16s-.27.59-.4.9l-.42.94A54.15,54.15,0,0,0,96,56.55Z"/>
              <path class="cls-4" d="M100.2,45.89a16.65,16.65,0,0,0,6.47,12.4l4.1-7.2-7.29-8.62-1.07-1.18S101.41,43.34,100.2,45.89Z"/>
            </g>
            <g>
              <path class="cls-14" d="M125.64,39.73c-.42,14.54-9.18,15.92-12.32,15.83-2.84-.09-12.52-.74-13.6-15.25s5.82-18.9,12.34-19S126.07,25.19,125.64,39.73Z"/>
              <g>
                <path class="cls-4" d="M123,37c-.34-.08-.63-.2-1-.3a1.61,1.61,0,0,1-.92-.5.53.53,0,0,1,.06-.63,1.29,1.29,0,0,1,1.29-.17,1.83,1.83,0,0,1,1.11.77A.55.55,0,0,1,123,37Z"/>
                <path class="cls-4" d="M113.63,36c.35,0,.66-.07,1-.11a1.69,1.69,0,0,0,1-.31.53.53,0,0,0,.06-.63,1.28,1.28,0,0,0-1.23-.42,1.85,1.85,0,0,0-1.24.55A.55.55,0,0,0,113.63,36Z"/>
                <g>
                  <g>
                    <path class="cls-4" d="M115.35,39.89s-.08,0-.08.08c0,1-.25,2.12-1.17,2.38,0,0,0,.06,0,0C115.21,42.33,115.47,40.83,115.35,39.89Z"/>
                    <path class="cls-4" d="M114.55,38.79c-1.58-.24-1.94,2.94-.47,3.16S115.87,39,114.55,38.79Z"/>
                  </g>
                  <path class="cls-4" d="M113.9,38.89c-.29.15-.6.43-.94.43s-.65-.37-.86-.72c0,0-.06,0-.06,0-.08.61.08,1.26.73,1.42s1.07-.34,1.29-.93C114.1,39,114,38.83,113.9,38.89Z"/>
                </g>
                <g>
                  <g>
                    <path class="cls-4" d="M120.71,40.42s.08.06.07.1c-.15,1-.15,2.13.7,2.56,0,0,0,.06,0,.05C120.39,42.85,120.42,41.33,120.71,40.42Z"/>
                    <path class="cls-4" d="M121.72,39.5c1.59.07,1.34,3.26-.14,3.19S120.38,39.44,121.72,39.5Z"/>
                  </g>
                  <path class="cls-4" d="M122.36,39.76c.24.19.47.52.77.56s.63-.27.88-.58c0,0,0,0,0,0,0,.61-.28,1.23-.88,1.3s-.89-.49-1-1.11C122.17,39.85,122.27,39.69,122.36,39.76Z"/>
                </g>
                <path class="cls-4" d="M114.51,47.84c.19.26.38.61.73.7a2.69,2.69,0,0,0,1.09-.08,0,0,0,0,1,0,.06,1.33,1.33,0,0,1-1.32.33,1.07,1.07,0,0,1-.64-1S114.48,47.8,114.51,47.84Z"/>
                <path class="cls-4" d="M119,44.68s.06,1.5,0,2.19c0,.06-.18.08-.42.07,0,0,0,0,0,0a3.32,3.32,0,0,1-3.09-1.56c0-.07.06-.13.12-.08a5,5,0,0,0,2.93,1.16c.06-.18-.19-2.55-.08-2.55a6.15,6.15,0,0,1,1.55.52c0-3.12-.56-6.2-.54-9.3a.1.1,0,0,1,.19,0,50.28,50.28,0,0,1,1,10C120.63,45.49,119.25,44.83,119,44.68Z"/>
                <g>
                  <path class="cls-4" d="M118.13,46.52a3.59,3.59,0,0,1-1.5,1,1.61,1.61,0,0,1-1,0c-.7-.22-.68-.87-.52-1.42a3.66,3.66,0,0,1,.37-.83A4.63,4.63,0,0,0,118.13,46.52Z"/>
                  <path class="cls-13" d="M116.63,47.55a1.61,1.61,0,0,1-1,0c-.7-.22-.68-.87-.52-1.42A1.66,1.66,0,0,1,116.63,47.55Z"/>
                </g>
              </g>
              <g>
                <path class="cls-4" d="M117.54,24.47a6.61,6.61,0,0,1-.61,3.86c-2,3.17-5.9,1.85-7.43,3s-1.26,3.72-2.56,4.83c-1.81,1.54-3.94.63-4.34,1.76s-1.57,4.73-3.09,5-5.6-24.93,13.59-22c0,0,2.7-.68,6.64,1.73,4.55,2.78,5.54,10.35,5.54,10.35s-.2,0-.79-.68c-.84-.92-1.12-1.72-1.74-2.32-1-1-1.61-.7-2.63-1.64A12.69,12.69,0,0,1,117.54,24.47Z"/>
                <path class="cls-4" d="M117.36,23.37a12.75,12.75,0,0,1,.24,3,5.41,5.41,0,0,1-.72,2.82,4,4,0,0,1-2.4,1.48c-1,.24-2,.22-3,.51a3,3,0,0,0-1.4.83,4.13,4.13,0,0,0-.73,1.41A5.26,5.26,0,0,1,108,36a3.3,3.3,0,0,1-2.7.8,7.28,7.28,0,0,0-3-.17,7.14,7.14,0,0,1,3,.41,3.64,3.64,0,0,0,3-.75,5.46,5.46,0,0,0,1.53-2.69,3.77,3.77,0,0,1,.66-1.26,2.54,2.54,0,0,1,1.2-.67c.92-.28,2-.29,3-.55a5.17,5.17,0,0,0,1.46-.6,3.11,3.11,0,0,0,1.15-1.1,5.72,5.72,0,0,0,.65-3A13.31,13.31,0,0,0,117.36,23.37Z"/>
                <path class="cls-4" d="M117.64,24.29a10.16,10.16,0,0,0,.64,2.76,5,5,0,0,0,1.7,2.34,7.35,7.35,0,0,0,1.27.66,2.35,2.35,0,0,1,1,.81,7,7,0,0,0,.71,1.23,3.28,3.28,0,0,0,1.15.85,3.47,3.47,0,0,1-1-1,6.33,6.33,0,0,1-.57-1.26,2.54,2.54,0,0,0-1.09-1,8,8,0,0,1-1.2-.65,5.31,5.31,0,0,1-1.63-2.1A20.37,20.37,0,0,1,117.64,24.29Z"/>
              </g>
              <g>
                <path class="cls-14" d="M102.07,40.5s-2.63-4.87-4.81-4-.56,7.7,1.74,8.88a2.46,2.46,0,0,0,3.42-.93Z"/>
                <path class="cls-4" d="M97.77,38.46s0,0,0,.06a6.23,6.23,0,0,1,2.75,4.23,1.36,1.36,0,0,0-2-.6s0,.1,0,.1a1.51,1.51,0,0,1,1.59.71,8,8,0,0,1,.64,1.43c.06.16.34.11.3-.07v0C101.37,42.14,100.05,38.94,97.77,38.46Z"/>
              </g>
            </g>
          </g>
          <g>
            <g>
              <path class="cls-14" d="M89.36,66.74c4,14.84,24.72,43.13,33.24,45,9.86,2.14,36-9.5,42-14.91,2.4-2.15-12-17.7-15.11-16.19-13,6.29-23.78,8.54-25.64,7.53-2.85-1.55-15.11-14.85-23.15-23.85C90.62,53,87.54,60.08,89.36,66.74Z"/>
              <path class="cls-14" d="M164,97.25c1.35-.63,10.28-8.56,12.79-12.11A42,42,0,0,0,183,73c2.2-6.92,3.07-11.92,2.17-14-1.05-2.45-1.32-2.84-6.88,8.84-3.15,6.61-6.67,7.66-9.79,7.91a50.86,50.86,0,0,0-21.64,6.74S158.78,99.69,164,97.25Z"/>
              <g>
                <path class="cls-4" d="M189.46,55.83,170.59,75.14a2.07,2.07,0,0,1-2.16.5L157,70.45c-.63-.29-.7-1-.14-1.56l18.86-19.3a2.08,2.08,0,0,1,2.16-.51l11.41,5.2C189.94,54.57,190,55.26,189.46,55.83Z"/>
                <path class="cls-10" d="M188.37,55.33,169.51,74.64a2.09,2.09,0,0,1-2.17.5L155.94,70c-.64-.29-.7-1-.15-1.56l18.86-19.3a2.08,2.08,0,0,1,2.16-.51l11.41,5.2C188.86,54.07,188.93,54.76,188.37,55.33Z"/>
                <path class="cls-3" d="M186.7,56,169.41,73.68a1.94,1.94,0,0,1-2,.5l-10.2-4.64c-.57-.26-.61-.91-.08-1.45l17.3-17.71c1.08-1.1,1.78-1.13,2.35-.87l2,.93c.12.05.1.22,0,.36l-.06.07c-.34.34-.12.44.14.56l4.73,2.15a.58.58,0,0,0,.81-.12l.06-.07a.5.5,0,0,1,.48-.16l2,.93C187.55,54.42,187.69,55,186.7,56Z"/>
                <path class="cls-3" d="M182.29,52.37,181,51.78c-.05,0-.05-.06,0-.1h0a.13.13,0,0,1,.14,0l1.29.59c.05,0,.05.07,0,.11h0A.12.12,0,0,1,182.29,52.37Z"/>
                <polygon class="cls-5" points="174.71 65.58 166.04 61.63 173.46 54.04 182.13 57.99 174.71 65.58"/>
                <polygon class="cls-9" points="169.88 65.18 164.82 62.88 165.26 62.43 170.32 64.74 169.88 65.18"/>
                <polygon class="cls-9" points="170.1 66.34 164.11 63.61 164.32 63.39 170.32 66.12 170.1 66.34"/>
                <polygon class="cls-9" points="169.7 66.75 163.71 64.02 163.93 63.8 169.92 66.53 169.7 66.75"/>
                <polygon class="cls-9" points="169.3 67.16 163.31 64.43 163.53 64.21 169.52 66.93 169.3 67.16"/>
                <polygon class="cls-9" points="176.8 52.22 175.72 51.73 175.9 51.55 176.98 52.04 176.8 52.22"/>
                <polygon class="cls-9" points="176.47 52.56 175.39 52.07 175.57 51.88 176.65 52.38 176.47 52.56"/>
                <polygon class="cls-9" points="176.14 52.9 175.06 52.4 175.24 52.22 176.32 52.71 176.14 52.9"/>
                <path class="cls-5" d="M173.51,66.66a1.81,1.81,0,0,1-.5.09.69.69,0,0,1-.07-.35c0-.25.28-.48.49-.39s0,.3,0,.3.24-.19.41-.11S173.84,66.55,173.51,66.66Z"/>
                <polygon class="cls-5" points="167.53 71.69 160.54 68.5 162.25 66.75 169.25 69.94 167.53 71.69"/>
              </g>
              <path class="cls-14" d="M170.07,75.46c-3.21.37,6.6-7.17,6.4-10.84s-3.65-2.18-6.26.16c-9.05,8.12-16.44,8.49-20.71,15.83S170.07,75.46,170.07,75.46Z"/>
              <path class="cls-4" d="M118.49,83.46c.89.73,1.75,1.5,2.62,2.26a17.27,17.27,0,0,0,2.5,2,5.27,5.27,0,0,0,3.5.37,30.11,30.11,0,0,0,3.14-.64,93.81,93.81,0,0,0,12.44-4.1,66.33,66.33,0,0,0,6.71-2.87l-.25.27a15.48,15.48,0,0,1,2-2.8,17.85,17.85,0,0,1,2.93-2.7A31.82,31.82,0,0,1,157.62,73c.64-.36,1.29-.72,1.95-1l1-.51c.28-.15,1-.37,1.15-.63-.08.11-.22,0-.12-.11l0,0a.08.08,0,0,1,.1,0l0,0a.06.06,0,0,1,0,.07c-.11.18-.34.25-.5.36l-.92.61-1.71,1.12c-1.28.83-2.58,1.67-3.8,2.58a30.06,30.06,0,0,0-3,2.53c-.48.46-.91,1-1.37,1.45A13.21,13.21,0,0,0,149.37,81c0,.05-4,2-6,2.9s-4.17,1.75-6.32,2.48-4.3,1.38-6.49,1.94a25.9,25.9,0,0,1-3.38.67,5.55,5.55,0,0,1-3.08-.21,12,12,0,0,1-2.59-2.25c-1-1-2.07-1.94-3.06-2.95C118.38,83.5,118.44,83.42,118.49,83.46Z"/>
            </g>
            <g>
              <path class="cls-5" d="M118.71,82.91,103.18,96S91.44,79.78,88.77,67.62s3.6-13.44,14-2C112.92,76.9,118.71,82.91,118.71,82.91Z"/>
              <g>
                <path class="cls-4" d="M107.8,71.1c1.82,1.78,3.56,3.68,5.28,5.55.83.92,1.66,1.84,2.48,2.77l1.29,1.48a12.39,12.39,0,0,0,1.48,1.59c.1.08,0,.22-.11.12a24.75,24.75,0,0,0-2.67-2.75c-.93-.93-1.83-1.88-2.73-2.85-1.75-1.89-3.49-3.83-5.09-5.85C107.69,71.11,107.76,71.06,107.8,71.1Z"/>
                <path class="cls-4" d="M92,78.88a13,13,0,0,0,1.52,1.71l.62.64c-.9-1.7-1.77-3.42-2.54-5.17a0,0,0,1,1,0,0c2,3.35,3.85,6.81,5.86,10.17s3.88,7,6.07,10.27a.08.08,0,1,1-.14.09c-2.11-3.34-4.41-6.56-6.36-10-.78-1.38-1.56-2.77-2.32-4.17a7.6,7.6,0,0,1-.7-.69c-.26-.29-.52-.57-.75-.88-.46-.62-.94-1.23-1.44-1.82C91.82,78.91,92,78.79,92,78.88Z"/>
              </g>
              <path class="cls-5" d="M122.85,84.62l-4.33-4-17.75,15,3.42,5Z"/>
              <path class="cls-4" d="M102.94,93.6c2.2-2,4.56-3.89,6.86-5.8s4.75-3.68,7-5.67c.08-.08.19.05.11.12-2.27,2-4.38,4.09-6.7,6a87.63,87.63,0,0,1-7.14,5.47A.09.09,0,1,1,102.94,93.6Z"/>
              <path class="cls-4" d="M107.27,98c-1.12.77-2.18,1.6-3.23,2.45l.35,0c-1.1-1.7-2.26-3.37-3.5-5l0,.19c.42-.4.84-.81,1.24-1.23-.49.32-1,.66-1.43,1l-.1.07.08.12c1,1.75,2.16,3.43,3.34,5.08l.17.23.19-.18C105.35,99.88,106.33,99,107.27,98Z"/>
            </g>
          </g>
        </g>
      </g>
    </g>
    <g id="Speech_Bubbles" data-name="Speech Bubbles">
      <g>
        <g>
          <polygon class="cls-7" points="211.24 106.3 425.14 106.3 425.14 39.14 211.24 39.14 211.24 39.14 211.24 106.3 211.24 106.3"/>
          <polygon class="cls-7" points="425.14 131.06 425.14 106.27 399.32 106.27 425.14 131.06"/>
        </g>
        <g>
          <rect class="cls-3" x="224.74" y="50.75" width="148.33" height="1.28"/>
          <rect class="cls-3" x="224.74" y="57.65" width="117.55" height="1.28"/>
          <rect class="cls-3" x="224.74" y="71.43" width="136.14" height="1.28"/>
          <rect class="cls-3" x="224.74" y="78.32" width="148.33" height="1.28"/>
          <rect class="cls-3" x="224.74" y="85.21" width="148.33" height="1.28"/>
          <rect class="cls-3" x="224.74" y="92.1" width="107.25" height="1.28"/>
        </g>
        <path class="cls-3" d="M390.92,79.57a13.68,13.68,0,0,1,.95-5.22,8.69,8.69,0,0,1,3.91-4c.6-.36,1.33-.76,2.2-1.22a16.84,16.84,0,0,0,2.55-1.63,9.22,9.22,0,0,0,2.1-2.22,5.16,5.16,0,0,0,.86-2.94,4.9,4.9,0,0,0-.47-2.19,5.06,5.06,0,0,0-1.25-1.6,5.27,5.27,0,0,0-1.81-1,7.18,7.18,0,0,0-2.1-.32,6,6,0,0,0-2.37.44,8,8,0,0,0-1.93,1.13A9.35,9.35,0,0,0,392,60.33,16.8,16.8,0,0,0,390.86,62l-5.15-3.56a11.51,11.51,0,0,1,2-3.26,12.42,12.42,0,0,1,2.91-2.4,13.39,13.39,0,0,1,3.52-1.48,15.05,15.05,0,0,1,3.92-.51,15.31,15.31,0,0,1,4.44.66,11.25,11.25,0,0,1,3.95,2.07,10.74,10.74,0,0,1,2.84,3.65,11.88,11.88,0,0,1,1.1,5.3,11.32,11.32,0,0,1-.45,3.35,9.22,9.22,0,0,1-1.27,2.64,11.67,11.67,0,0,1-2,2.14,22,22,0,0,1-2.55,1.83c-.79.48-1.58.93-2.37,1.37a14,14,0,0,0-2.16,1.45,7,7,0,0,0-1.6,1.84,4.76,4.76,0,0,0-.63,2.52ZM391,93.38V85.2h6.58v8.18Z"/>
      </g>
    </g>
  </g>
</svg>
