<svg xmlns="http://www.w3.org/2000/svg" viewBox="0 0 20 20.02">
  <g id="Layer_2" data-name="Layer 2">
    <g id="Layer_1-2" data-name="Layer 1">
      <g id="Iconly_Light-outline_Activity" data-name="Iconly Light-outline Activity">
        <g id="Activity-6">
          <path id="Activity-7" d="M5.46,20A5.25,5.25,0,0,1,0,15V6.52C0,3.25,2.08.94,5.23.83H12.5a.73.73,0,0,1,.1,1.45H5.46a3.82,3.82,0,0,0-4,3.64,2.41,2.41,0,0,0,0,.38v8c0,2.52,1.44,4.14,3.78,4.23H13.8a3.81,3.81,0,0,0,4-3.62V7.53a.72.72,0,0,1,1.44-.1v6.9c0,3.28-2.07,5.57-5.23,5.68H5.46ZM4.7,13.45l-.09-.06a.72.72,0,0,1-.19-.92l.06-.09,2.9-3.76a.73.73,0,0,1,.94-.19l.09.06,2.73,2.14,2.39-3.07a.73.73,0,0,1,1.21.8l-.06.08L11.84,12.1a.73.73,0,0,1-.93.18l-.09-.06L8.09,10.08,5.64,13.26a.73.73,0,0,1-.93.19ZM14.83,2.6a2.59,2.59,0,1,1,2.59,2.58h0A2.59,2.59,0,0,1,14.83,2.6Zm1.45,0a1.14,1.14,0,0,0,2.27,0,1.13,1.13,0,0,0-1.13-1.14h0A1.12,1.12,0,0,0,16.28,2.6Z"/>
        </g>
      </g>
    </g>
  </g>
</svg>
