<svg xmlns="http://www.w3.org/2000/svg" viewBox="0 0 49.38 60.6">
  <defs>
    <style>
      .cls-1 {
        fill: #4d4e50;
      }
    </style>
  </defs>
  <g id="Layer_2" data-name="Layer 2">
    <g id="Object">
      <g>
        <path class="cls-1" d="M3.61,0A3.61,3.61,0,0,0,0,3.61V57A3.62,3.62,0,0,0,3.61,60.6H35.84V53.5a5.68,5.68,0,0,1,5.67-5.67h7.87V3.61A3.61,3.61,0,0,0,45.77,0ZM40,33.06H9.41V30.58H40Zm0-8.7H9.41V21.88H40Zm0-8.69H9.41V13.18H40Z"/>
        <path class="cls-1" d="M37.9,53.5v5.74l9.91-9.35h-6.3A3.61,3.61,0,0,0,37.9,53.5Z"/>
      </g>
    </g>
  </g>
</svg>
