<svg xmlns="http://www.w3.org/2000/svg" xmlns:xlink="http://www.w3.org/1999/xlink" viewBox="0 0 2559.94 1967.35">
  <defs>
    <style>
      .cls-1 {
        fill: none;
      }

      .cls-2 {
        clip-path: url(#clip-path);
      }

      .cls-3 {
        fill: #dae6ff;
      }

      .cls-4 {
        fill: #bbcff8;
      }

      .cls-5 {
        fill: #fb4848;
      }

      .cls-6 {
        fill: #ff6760;
      }

      .cls-7 {
        fill: #fff;
      }

      .cls-8 {
        fill: #f9a58f;
      }

      .cls-9 {
        fill: #db7665;
      }

      .cls-10 {
        fill: #ea8f7d;
      }

      .cls-11 {
        fill: #0b0755;
      }

      .cls-12 {
        fill: #91b5f8;
      }

      .cls-13 {
        fill: #1677ff;
      }
    </style>
    <clipPath id="clip-path" transform="translate(0 153.4)">
      <path class="cls-1" d="M2225,1621c-71.39,22.86-158.34,29.06-227.4,24.29,0,0-1269.71,122.31-1728.68-3.09-339.68-92.81-298.67-423.21-194.72-634.69C179.36,793.57-96.63,380.13,347,140.38,602.2,2.49,831.08,223.16,1272.22,60.25c398.28-147.08,912-15.53,1037.66,292.94,86.43,212.2-22.52,441,86.43,551.82C2573,1084.83,2491.76,1535.53,2225,1621Z"/>
    </clipPath>
  </defs>
  <g id="Layer_2" data-name="Layer 2">
    <g id="_Layer_" data-name="&lt;Layer&gt;">
      <g class="cls-2">
        <path class="cls-3" d="M2225,1621c-71.39,22.86-158.34,29.06-227.4,24.29,0,0-1269.71,122.31-1728.68-3.09-339.68-92.81-298.67-423.21-194.72-634.69C179.36,793.57-96.63,380.13,347,140.38,602.2,2.49,831.08,223.16,1272.22,60.25c398.28-147.08,912-15.53,1037.66,292.94,86.43,212.2-22.52,441,86.43,551.82C2573,1084.83,2491.76,1535.53,2225,1621Z" transform="translate(0 153.4)"/>
        <g>
          <path class="cls-4" d="M471.88,1753.54a2,2,0,0,0,.31-.13,1.68,1.68,0,0,0,.7-2.27C359,1536.77,264.7,1388.2,207.23,1332.8c-1.28-1.23-2.2-2.11-2.58-2.58a1.68,1.68,0,0,0-2.62,2.11c.51.63,1.4,1.48,2.86,2.9,57.22,55.16,151.34,203.42,265,417.48A1.68,1.68,0,0,0,471.88,1753.54Z" transform="translate(0 153.4)"/>
          <path class="cls-4" d="M173.73,1327.27c6.73,6.16,36,14.11,37.76,12.19s-8.72-30.39-15.45-36.55a16.52,16.52,0,1,0-22.31,24.36Z" transform="translate(0 153.4)"/>
          <path class="cls-4" d="M229.54,1339c-.89,9.29,10.64,38.11,13.3,38.36s19.45-25.84,20.34-35.13a16.9,16.9,0,1,0-33.64-3.23Z" transform="translate(0 153.4)"/>
          <path class="cls-4" d="M208.17,1397.63c9.25-1.23,34.73-19,34.38-21.6s-29.56-13.13-38.81-11.91a16.9,16.9,0,0,0,4.43,33.51Z" transform="translate(0 153.4)"/>
          <path class="cls-4" d="M337.85,1474.53c-3.17,15.35,10.87,65.52,15.25,66.42s37.14-39.6,40.31-54.94a28.37,28.37,0,0,0-55.56-11.48Z" transform="translate(0 153.4)"/>
          <path class="cls-4" d="M291.57,1568.53c15.66-.37,61.38-25.34,61.28-29.81s-47-27.27-62.61-26.91a28.37,28.37,0,0,0,1.33,56.72Z" transform="translate(0 153.4)"/>
          <path class="cls-4" d="M389.12,1523.61c-7.91,17.46-4.67,81.13.32,83.39s55-37.27,62.92-54.73a34.72,34.72,0,0,0-63.24-28.66Z" transform="translate(0 153.4)"/>
          <path class="cls-4" d="M321,1648.14c19-2.42,71.53-38.58,70.84-44s-60.58-27.28-79.6-24.86a34.71,34.71,0,1,0,8.76,68.87Z" transform="translate(0 153.4)"/>
          <path class="cls-4" d="M428.62,1593c-7.92,17.46-4.67,81.13.31,83.39s55-37.27,62.92-54.73A34.71,34.71,0,1,0,428.62,1593Z" transform="translate(0 153.4)"/>
          <path class="cls-4" d="M360.48,1717.57c19-2.42,71.52-38.58,70.83-44s-60.58-27.28-79.6-24.86a34.71,34.71,0,0,0,8.77,68.87Z" transform="translate(0 153.4)"/>
          <path class="cls-4" d="M501.39,1675.69c-14,13.13-35.22,73.24-31.48,77.23s65.06-13.51,79-26.64a34.71,34.71,0,0,0-47.55-50.59Z" transform="translate(0 153.4)"/>
          <path class="cls-4" d="M397,1786.76c19.17,0,75.79-29.33,75.78-34.81s-56.69-34.64-75.87-34.62a34.72,34.72,0,1,0,.09,69.43Z" transform="translate(0 153.4)"/>
          <path class="cls-4" d="M263,1381.23c-.9,9.44,10.82,38.72,13.51,39s19.77-26.26,20.68-35.7a17.17,17.17,0,0,0-34.19-3.28Z" transform="translate(0 153.4)"/>
          <path class="cls-4" d="M242.63,1441.14c9.4-1.24,35.29-19.25,34.93-21.94s-30-13.34-39.43-12.1a17.17,17.17,0,0,0,4.5,34Z" transform="translate(0 153.4)"/>
          <path class="cls-4" d="M299.27,1419.45c-2.38,13.26,10.81,56.08,14.59,56.76s31.05-34.87,33.43-48.13a24.39,24.39,0,1,0-48-8.63Z" transform="translate(0 153.4)"/>
          <path class="cls-4" d="M264.33,1505.81c13.35-1.77,50.12-27.36,49.62-31.17s-42.66-19-56-17.2a24.4,24.4,0,1,0,6.4,48.37Z" transform="translate(0 153.4)"/>
        </g>
        <g>
          <path class="cls-4" d="M775.73,1718.11a2.17,2.17,0,0,0,.51,0,2.54,2.54,0,0,0,2.28-2.78C742,1349.89,695.13,1087.77,646.43,977.24c-1.09-2.45-1.87-4.22-2.13-5.09a2.54,2.54,0,1,0-4.87,1.45,59,59,0,0,0,2.34,5.69c48.49,110,95.26,371.63,131.69,736.54A2.54,2.54,0,0,0,775.73,1718.11Z" transform="translate(0 153.4)"/>
          <path class="cls-4" d="M602.69,950.28c5.89,12.49,42.33,40.41,45.89,38.73s5.22-47.56-.67-60a25,25,0,0,0-45.22,21.31Z" transform="translate(0 153.4)"/>
          <path class="cls-4" d="M674.12,998.69c-6.57,12.49-6.94,59.45-3.37,61.33s42.06-25,48.63-37.52a25.57,25.57,0,1,0-45.26-23.81Z" transform="translate(0 153.4)"/>
          <path class="cls-4" d="M610.57,1068.54c13.66,3.6,59.49-6.62,60.52-10.52s-33.85-35.34-47.51-38.94a25.57,25.57,0,1,0-13,49.46Z" transform="translate(0 153.4)"/>
          <path class="cls-4" d="M748.05,1250.59c-13.24,19.67-22.35,98-16.73,101.75s74.71-34.15,87.95-53.82a42.92,42.92,0,0,0-71.22-47.93Z" transform="translate(0 153.4)"/>
          <path class="cls-4" d="M629.35,1355.68c22.15,8.46,100.48-.29,102.9-6.61S682.15,1284,660,1275.49a42.93,42.93,0,0,0-30.66,80.19Z" transform="translate(0 153.4)"/>
          <path class="cls-4" d="M791.71,1348.71c-21.1,19.91-53.06,110.93-47.38,117s98.39-20.64,119.48-40.56a52.52,52.52,0,1,0-72.1-76.39Z" transform="translate(0 153.4)"/>
          <path class="cls-4" d="M624.88,1484c28,7.51,122.28-13,124.42-21s-69.18-73-97.19-80.46A52.53,52.53,0,1,0,624.88,1484Z" transform="translate(0 153.4)"/>
          <path class="cls-4" d="M807.2,1468.58c-21.1,19.91-53.07,110.92-47.38,116.94s98.39-20.64,119.48-40.55a52.52,52.52,0,0,0-72.1-76.39Z" transform="translate(0 153.4)"/>
          <path class="cls-4" d="M640.37,1603.87c28,7.52,122.28-13,124.42-21s-69.18-72.94-97.2-80.46a52.52,52.52,0,0,0-27.22,101.46Z" transform="translate(0 153.4)"/>
          <path class="cls-4" d="M861.69,1626c-27.09,10.38-91.31,82.36-88.35,90.09s98.83,18.39,125.92,8a52.52,52.52,0,1,0-37.57-98.1Z" transform="translate(0 153.4)"/>
          <path class="cls-4" d="M651.78,1721.67c26.86,11,122.94,2.39,126.07-5.28s-59.52-81-86.38-92a52.52,52.52,0,1,0-39.69,97.26Z" transform="translate(0 153.4)"/>
          <path class="cls-4" d="M696.79,1077.05c-6.68,12.7-7,60.41-3.43,62.32s42.74-25.43,49.42-38.12a26,26,0,0,0-46-24.2Z" transform="translate(0 153.4)"/>
          <path class="cls-4" d="M633.88,1149.24c13.87,3.65,60.44-6.73,61.49-10.69S661,1102.64,647.09,1099a26,26,0,0,0-13.21,50.25Z" transform="translate(0 153.4)"/>
          <path class="cls-4" d="M725.62,1151.35c-10.94,17.2-17,84.71-12.12,87.83s63.48-31,74.42-48.22a36.91,36.91,0,0,0-62.3-39.61Z" transform="translate(0 153.4)"/>
          <path class="cls-4" d="M627.17,1252.23c19.71,5.18,85.88-9.56,87.36-15.19s-48.87-51-68.58-56.21a36.91,36.91,0,1,0-18.78,71.4Z" transform="translate(0 153.4)"/>
        </g>
        <g>
          <path class="cls-4" d="M2268.34,243.07a1.34,1.34,0,0,0-.28-.18,1.68,1.68,0,0,0-2.28.69C2152,458,2081.71,619.32,2068,698c-.3,1.75-.52,3-.7,3.58a1.68,1.68,0,0,0,3.22,1,39.74,39.74,0,0,0,.8-4c13.65-78.3,83.77-239.31,197.44-453.38A1.68,1.68,0,0,0,2268.34,243.07Z" transform="translate(0 153.4)"/>
          <path class="cls-4" d="M2082.18,728.81c1.34-9-8.47-37.73-11-38.11s-20.29,24.24-21.63,33.27a16.52,16.52,0,1,0,32.68,4.84Z" transform="translate(0 153.4)"/>
          <path class="cls-4" d="M2060.63,676c8.19-4.47,25.6-30.16,24.33-32.5s-32.31-1.65-40.5,2.81A16.9,16.9,0,0,0,2060.63,676Z" transform="translate(0 153.4)"/>
          <path class="cls-4" d="M2121.18,660.88c-6.2-7-35.15-18.16-37.14-16.39s5.67,31.84,11.86,38.82a16.9,16.9,0,1,0,25.28-22.43Z" transform="translate(0 153.4)"/>
          <path class="cls-4" d="M2112.26,510.37c14.49-6,48.19-45.7,46.49-49.83s-53.61-8.6-68.1-2.63a28.37,28.37,0,0,0,21.61,52.46Z" transform="translate(0 153.4)"/>
          <path class="cls-4" d="M2216.05,496.06c-9.07-12.77-55.37-36.66-59-34.07s3.7,54.17,12.77,66.94a28.37,28.37,0,1,0,46.24-32.87Z" transform="translate(0 153.4)"/>
          <path class="cls-4" d="M2124.2,440.41c18.9-3.23,69.83-41.58,68.91-47s-61.68-24.7-80.58-21.47a34.71,34.71,0,0,0,11.67,68.44Z" transform="translate(0 153.4)"/>
          <path class="cls-4" d="M2265.53,427.11c-12.65-14.4-72-37.65-76.13-34s11.33,65.46,24,79.86a34.71,34.71,0,1,0,52.14-45.83Z" transform="translate(0 153.4)"/>
          <path class="cls-4" d="M2159.6,368.8c18.9-3.22,69.83-41.57,68.91-47s-61.68-24.69-80.58-21.47a34.71,34.71,0,0,0,11.67,68.44Z" transform="translate(0 153.4)"/>
          <path class="cls-4" d="M2300.93,355.51c-12.65-14.41-72-37.65-76.12-34s11.32,65.47,24,79.87a34.71,34.71,0,1,0,52.14-45.83Z" transform="translate(0 153.4)"/>
          <path class="cls-4" d="M2187.32,262.22c18.7,4.22,80.4-11.83,81.6-17.17s-47.62-46.33-66.32-50.55a34.71,34.71,0,0,0-15.28,67.72Z" transform="translate(0 153.4)"/>
          <path class="cls-4" d="M2337.82,286.53c-10.76-15.87-66.75-46.35-71.28-43.28s3.06,66.37,13.81,82.24a34.72,34.72,0,1,0,57.47-39Z" transform="translate(0 153.4)"/>
          <path class="cls-4" d="M2076.87,624.61c8.33-4.54,26-30.65,24.72-33s-32.82-1.68-41.15,2.86a17.17,17.17,0,0,0,16.43,30.16Z" transform="translate(0 153.4)"/>
          <path class="cls-4" d="M2137.93,608c-6.3-7.09-35.72-18.45-37.74-16.65s5.76,32.36,12.06,39.45a17.17,17.17,0,0,0,25.68-22.8Z" transform="translate(0 153.4)"/>
          <path class="cls-4" d="M2088.23,573.18c12.32-5.46,40.41-40.36,38.85-43.88s-46.27-6.19-58.59-.74a24.4,24.4,0,0,0,19.74,44.62Z" transform="translate(0 153.4)"/>
          <path class="cls-4" d="M2179.35,553.76c-8.94-10.07-50.74-26.2-53.61-23.65s8.18,46,17.12,56a24.4,24.4,0,0,0,36.49-32.39Z" transform="translate(0 153.4)"/>
        </g>
        <g>
          <path class="cls-4" d="M2206.64-38.2a3.52,3.52,0,0,0-.29-.42,2.54,2.54,0,0,0-3.58-.33c-282.32,234.89-473.2,420.57-537.49,522.81-1.43,2.27-2.46,3.91-3,4.61a2.55,2.55,0,1,0,3.94,3.23c.77-.95,1.76-2.52,3.4-5.13,64-101.8,254.52-287,536.43-521.61A2.54,2.54,0,0,0,2206.64-38.2Z" transform="translate(0 153.4)"/>
          <path class="cls-4" d="M1667.44,535.19c7-11.87,9.77-57.69,6.38-59.7s-42.32,22.31-49.36,34.18a25,25,0,1,0,43,25.52Z" transform="translate(0 153.4)"/>
          <path class="cls-4" d="M1667.53,448.91c14-1.56,53.15-27.55,52.71-31.56s-44.29-20.83-58.33-19.28a25.57,25.57,0,0,0,5.62,50.84Z" transform="translate(0 153.4)"/>
          <path class="cls-4" d="M1761,462.43c-4.67-13.32-38.81-45.58-42.61-44.24s-10.32,47.84-5.65,61.16A25.57,25.57,0,1,0,1761,462.43Z" transform="translate(0 153.4)"/>
          <path class="cls-4" d="M1834.82,246.58c23.71-.05,93.68-36.36,93.66-43.12s-70.13-42.78-93.84-42.73a42.93,42.93,0,0,0,.18,85.85Z" transform="translate(0 153.4)"/>
          <path class="cls-4" d="M1988.35,286.06c-5.38-23.09-56.51-83.08-63.1-81.54s-25.88,78-20.49,101a42.92,42.92,0,1,0,83.59-19.51Z" transform="translate(0 153.4)"/>
          <path class="cls-4" d="M1891.66,155.46c28.31,6.32,121.61-18.17,123.42-26.25s-72.21-70-100.52-76.27a52.52,52.52,0,0,0-22.9,102.52Z" transform="translate(0 153.4)"/>
          <path class="cls-4" d="M2097.18,217.89c-9.47-27.42-79.26-94-87.08-91.31s-21.69,98.16-12.23,125.58a52.53,52.53,0,1,0,99.31-34.27Z" transform="translate(0 153.4)"/>
          <path class="cls-4" d="M1982.29,75.49c28.31,6.33,121.61-18.16,123.42-26.24S2033.5-20.7,2005.19-27a52.52,52.52,0,0,0-22.9,102.52Z" transform="translate(0 153.4)"/>
          <path class="cls-4" d="M2187.81,137.92c-9.47-27.42-79.26-94-87.08-91.31S2079,144.77,2088.5,172.2a52.53,52.53,0,0,0,99.31-34.28Z" transform="translate(0 153.4)"/>
          <path class="cls-4" d="M2082.21-57.84C2106-41.21,2201.58-28.31,2206.32-35.1s-40.11-92.18-63.88-108.81A52.53,52.53,0,0,0,2069.29-131,52.52,52.52,0,0,0,2082.21-57.84Z" transform="translate(0 153.4)"/>
          <path class="cls-4" d="M2279,62.5c-6-28.39-66.88-103.18-75-101.48S2170.24,55.7,2176.2,84.09A52.53,52.53,0,1,0,2279,62.5Z" transform="translate(0 153.4)"/>
          <path class="cls-4" d="M1719.76,386.24c14.26-1.58,54-28,53.55-32.06s-45-21.17-59.26-19.59a26,26,0,1,0,5.71,51.65Z" transform="translate(0 153.4)"/>
          <path class="cls-4" d="M1814.8,397.93c-4.74-13.54-39.43-46.31-43.29-45s-10.49,48.61-5.74,62.15a26,26,0,1,0,49-17.19Z" transform="translate(0 153.4)"/>
          <path class="cls-4" d="M1765.16,320.74c20.38-.57,79.72-33.34,79.56-39.15s-61.25-35.21-81.63-34.64a36.91,36.91,0,0,0,2.07,73.79Z" transform="translate(0 153.4)"/>
          <path class="cls-4" d="M1903.88,345.81c-6.75-19.24-56-65.79-61.51-63.87s-14.9,69.06-8.16,88.29a36.91,36.91,0,0,0,69.67-24.42Z" transform="translate(0 153.4)"/>
        </g>
        <g>
          <g>
            <g>
              <ellipse class="cls-5" cx="1825.06" cy="1250.75" rx="37" ry="131.32" transform="translate(545.13 3208.87) rotate(-89.08)"/>
              <polygon class="cls-5" points="1956.37 1406.27 1957.48 1382.65 1933.57 1385.82 1694.87 1378.43 1693.75 1402.04 1771.75 1427.72 1883.04 1415.45 1956.37 1406.27"/>
              <ellipse class="cls-6" cx="1826.18" cy="1227.14" rx="37" ry="131.32" transform="translate(569.83 3186.75) rotate(-89.08)"/>
              <path class="cls-7" d="M1725.5,1223.11l24.79.4c.31-4,4.8-8.09,11-10.41l16.42,1.93c-5.93,2.39-10.66,5.91-10.72,9.79-.08,4.91,9.93,8.39,23.93,8.61,13.5.22,21.89-2.34,29.34-7.34,9.93-6.9,21.29-11.07,42.65-10.73,20.37.33,35.77,4.66,39.35,11.08l24.8.4-.07,4.29-23.81-.39c-.56,4.15-4.53,6.92-8.74,8.86l-16.17-2c3-1.41,8.41-4.16,8.48-8.58.09-5.33-11.17-7.52-21-7.68-12.77-.2-19.19,2.26-28.13,8.13-10.42,7-23.24,10.35-45.09,10-19.4-.31-37.5-4.41-41.56-11.6l-25.53-.41Z" transform="translate(0 153.4)"/>
            </g>
            <g>
              <path class="cls-5" d="M1797.76,1237.68c72.52,1.16,131.58-14.46,131.91-34.89s-58.2-37.94-130.72-39.1-131.57,14.45-131.9,34.88S1725.25,1236.51,1797.76,1237.68Z" transform="translate(0 153.4)"/>
              <polygon class="cls-5" points="1929.67 1356.19 1930.78 1332.58 1906.87 1335.75 1668.17 1328.36 1667.05 1351.97 1745.05 1377.64 1856.34 1365.37 1929.67 1356.19"/>
              <ellipse class="cls-6" cx="1799.48" cy="1177.07" rx="37" ry="131.32" transform="translate(593.63 3110.79) rotate(-89.08)"/>
              <path class="cls-7" d="M1698.8,1173l24.79.4c.31-4,4.8-8.09,11-10.41L1751,1165c-5.94,2.39-10.66,5.91-10.72,9.79-.08,4.91,9.93,8.39,23.93,8.61,13.5.22,21.89-2.34,29.33-7.34,9.94-6.9,21.3-11.08,42.66-10.73,20.37.33,35.77,4.65,39.35,11.08l24.8.4-.07,4.28-23.81-.38c-.56,4.14-4.53,6.92-8.74,8.85l-16.17-2c3-1.4,8.41-4.15,8.48-8.58.09-5.32-11.17-7.51-21-7.67-12.77-.2-19.19,2.25-28.13,8.13-10.42,7-23.24,10.35-45.09,10-19.4-.31-37.5-4.41-41.56-11.6l-25.53-.41Z" transform="translate(0 153.4)"/>
            </g>
            <g>
              <path class="cls-5" d="M1829.27,1206.55c72.52,1.17,131.57-14.45,131.9-34.88s-58.19-37.94-130.71-39.11-131.57,14.45-131.9,34.89S1756.75,1205.39,1829.27,1206.55Z" transform="translate(0 153.4)"/>
              <polygon class="cls-5" points="1961.17 1325.07 1962.29 1301.46 1938.37 1304.63 1699.67 1297.24 1698.56 1320.85 1776.56 1346.52 1887.85 1334.25 1961.17 1325.07"/>
              <path class="cls-6" d="M1830.39,1182.94c72.52,1.17,131.57-14.45,131.9-34.88s-58.19-38-130.71-39.11-131.58,14.45-131.91,34.88S1757.87,1181.77,1830.39,1182.94Z" transform="translate(0 153.4)"/>
              <path class="cls-7" d="M1730.31,1141.92l24.79.4c.31-4,4.79-8.09,11-10.41l16.42,1.92c-5.93,2.4-10.65,5.92-10.71,9.79-.08,4.91,9.93,8.39,23.92,8.62,13.5.22,21.89-2.35,29.34-7.35,9.93-6.89,21.3-11.07,42.65-10.73,20.38.33,35.78,4.66,39.36,11.08l24.79.4-.07,4.29-23.81-.38c-.56,4.14-4.53,6.91-8.73,8.85l-16.18-2c3-1.4,8.42-4.15,8.49-8.58.08-5.33-11.18-7.51-21-7.67-12.76-.21-19.19,2.25-28.12,8.13-10.42,7-23.25,10.35-45.1,10-19.39-.31-37.5-4.4-41.55-11.59l-25.53-.42Z" transform="translate(0 153.4)"/>
            </g>
            <g>
              <path class="cls-5" d="M1829.47,1171.34c72.52,1.17,131.57-14.45,131.9-34.88s-58.19-37.94-130.71-39.11-131.57,14.46-131.9,34.89S1757,1170.18,1829.47,1171.34Z" transform="translate(0 153.4)"/>
              <polygon class="cls-5" points="1961.37 1289.86 1962.49 1266.25 1938.57 1269.42 1699.87 1262.03 1698.76 1285.64 1776.76 1311.31 1888.04 1299.04 1961.37 1289.86"/>
              <ellipse class="cls-6" cx="1831.18" cy="1110.74" rx="37" ry="131.32" transform="translate(691.14 3077.22) rotate(-89.08)"/>
              <path class="cls-7" d="M1730.5,1106.71l24.8.4c.31-4,4.79-8.09,11-10.41l16.42,1.92c-5.93,2.4-10.65,5.92-10.72,9.79-.07,4.91,9.94,8.4,23.93,8.62,13.5.22,21.89-2.35,29.34-7.35,9.93-6.89,21.29-11.07,42.65-10.73,20.38.33,35.78,4.66,39.36,11.08l24.79.4-.07,4.29-23.81-.38c-.56,4.14-4.53,6.91-8.74,8.85l-16.17-2c3-1.4,8.42-4.15,8.49-8.58.08-5.32-11.18-7.51-21-7.67-12.76-.2-19.19,2.25-28.12,8.13-10.43,7-23.25,10.35-45.1,10-19.39-.32-37.5-4.41-41.56-11.6l-25.53-.41Z" transform="translate(0 153.4)"/>
            </g>
            <g>
              <path class="cls-5" d="M1829.64,1137.85c72.52,1.17,131.57-14.45,131.9-34.88s-58.19-37.94-130.71-39.11-131.57,14.45-131.9,34.89S1757.12,1136.69,1829.64,1137.85Z" transform="translate(0 153.4)"/>
              <polygon class="cls-5" points="1961.54 1256.37 1962.66 1232.76 1938.74 1235.93 1700.04 1228.54 1698.93 1252.15 1776.93 1277.82 1888.21 1265.55 1961.54 1256.37"/>
              <path class="cls-6" d="M1830.76,1114.24c72.51,1.17,131.57-14.45,131.9-34.88s-58.2-37.94-130.71-39.11-131.58,14.45-131.91,34.88S1758.24,1113.08,1830.76,1114.24Z" transform="translate(0 153.4)"/>
              <path class="cls-7" d="M1730.67,1073.22l24.8.4c.31-4,4.79-8.09,11-10.41l16.42,1.92c-5.93,2.4-10.65,5.92-10.71,9.79-.08,4.91,9.93,8.39,23.92,8.62,13.5.22,21.89-2.35,29.34-7.35,9.93-6.89,21.3-11.07,42.65-10.73,20.38.33,35.78,4.66,39.36,11.08l24.79.4-.07,4.29-23.81-.38c-.56,4.14-4.53,6.91-8.73,8.85l-16.18-2c3-1.4,8.42-4.15,8.49-8.58.08-5.33-11.18-7.51-21-7.67-12.76-.21-19.19,2.25-28.12,8.13-10.43,7-23.25,10.35-45.1,10-19.39-.31-37.5-4.4-41.56-11.6l-25.53-.41Z" transform="translate(0 153.4)"/>
            </g>
            <g>
              <path class="cls-5" d="M1823.91,1111.39c72.52,1.16,131.57-14.46,131.9-34.89s-58.19-37.94-130.71-39.1-131.58,14.45-131.9,34.88S1751.39,1110.22,1823.91,1111.39Z" transform="translate(0 153.4)"/>
              <polygon class="cls-5" points="1955.81 1229.9 1956.93 1206.29 1933.01 1209.46 1694.31 1202.07 1693.19 1225.68 1771.2 1251.36 1882.48 1239.08 1955.81 1229.9"/>
              <ellipse class="cls-6" cx="1825.62" cy="1050.78" rx="37" ry="131.32" transform="translate(745.62 3012.67) rotate(-89.08)"/>
              <path class="cls-7" d="M1724.94,1046.75l24.8.4c.31-4,4.79-8.09,11-10.41l16.42,1.93c-5.93,2.39-10.65,5.91-10.72,9.78-.08,4.92,9.94,8.4,23.93,8.62,13.5.22,21.89-2.34,29.34-7.34,9.93-6.9,21.29-11.08,42.65-10.73,20.38.32,35.78,4.65,39.36,11.08l24.79.4-.07,4.28-23.81-.38c-.56,4.14-4.53,6.92-8.74,8.85l-16.17-2c3-1.41,8.41-4.16,8.49-8.59.08-5.32-11.18-7.51-21-7.67-12.76-.2-19.19,2.25-28.12,8.13-10.43,7-23.25,10.35-45.1,10-19.39-.31-37.5-4.41-41.56-11.6l-25.53-.41Z" transform="translate(0 153.4)"/>
            </g>
            <g>
              <ellipse class="cls-5" cx="1827.53" cy="1037.33" rx="37" ry="131.32" transform="translate(760.95 3001.34) rotate(-89.08)"/>
              <polygon class="cls-5" points="1958.83 1192.84 1959.95 1169.23 1936.03 1172.4 1697.33 1165.01 1696.22 1188.62 1774.22 1214.29 1885.51 1202.02 1958.83 1192.84"/>
              <path class="cls-6" d="M1828.05,1050.71c72.51,1.17,131.57-14.45,131.9-34.88s-58.2-38-130.71-39.11-131.58,14.45-131.91,34.88S1755.53,1049.54,1828.05,1050.71Z" transform="translate(0 153.4)"/>
              <path class="cls-7" d="M1728,1009.69l24.79.39c.31-4,4.79-8.08,11-10.4l16.42,1.92c-5.93,2.39-10.65,5.92-10.71,9.79-.08,4.91,9.93,8.39,23.92,8.62,13.5.21,21.89-2.35,29.34-7.35,9.93-6.9,21.3-11.07,42.65-10.73,20.38.33,35.78,4.66,39.36,11.08l24.79.4-.07,4.29-23.81-.38c-.56,4.14-4.53,6.91-8.73,8.85l-16.18-2c3-1.41,8.42-4.15,8.49-8.58.08-5.33-11.18-7.51-21-7.67-12.76-.21-19.19,2.25-28.12,8.12-10.43,7-23.25,10.35-45.1,10-19.39-.31-37.5-4.41-41.55-11.6l-25.53-.41Z" transform="translate(0 153.4)"/>
            </g>
            <g>
              <ellipse class="cls-5" cx="1816.17" cy="1005.18" rx="37" ry="131.32" transform="translate(781.91 2958.36) rotate(-89.08)"/>
              <polygon class="cls-5" points="1947.47 1160.7 1948.59 1137.09 1924.67 1140.25 1685.97 1132.86 1684.86 1156.47 1762.86 1182.15 1874.15 1169.88 1947.47 1160.7"/>
              <path class="cls-6" d="M1816.69,1018.57c72.52,1.16,131.57-14.45,131.9-34.89s-58.19-37.94-130.71-39.1S1686.3,959,1686,979.46,1744.17,1017.4,1816.69,1018.57Z" transform="translate(0 153.4)"/>
              <path class="cls-7" d="M1716.61,977.54l24.79.4c.31-4,4.8-8.08,11-10.41l16.42,1.93c-5.93,2.39-10.65,5.92-10.71,9.79-.08,4.91,9.93,8.39,23.92,8.62,13.5.21,21.89-2.35,29.34-7.35,9.93-6.9,21.3-11.07,42.65-10.73,20.38.33,35.78,4.66,39.36,11.08l24.79.4-.06,4.29-23.82-.38c-.55,4.14-4.53,6.91-8.73,8.85l-16.18-2c3-1.41,8.42-4.16,8.49-8.58.08-5.33-11.18-7.52-21-7.67-12.76-.21-19.18,2.25-28.12,8.12-10.42,7-23.25,10.35-45.1,10-19.39-.31-37.49-4.41-41.55-11.6l-25.53-.41Z" transform="translate(0 153.4)"/>
            </g>
            <g>
              <ellipse class="cls-5" cx="1798.98" cy="969.98" rx="37" ry="131.32" transform="translate(800.2 2906.53) rotate(-89.08)"/>
              <polygon class="cls-5" points="1930.28 1125.49 1931.4 1101.88 1907.48 1105.05 1668.78 1097.65 1667.67 1121.27 1745.67 1146.94 1856.96 1134.67 1930.28 1125.49"/>
              <path class="cls-6" d="M1799.5,983.36c72.52,1.17,131.57-14.45,131.9-34.88s-58.19-38-130.71-39.11-131.58,14.45-131.91,34.88S1727,982.19,1799.5,983.36Z" transform="translate(0 153.4)"/>
              <path class="cls-7" d="M1699.42,942.34l24.79.39c.31-4,4.8-8.08,11-10.4l16.42,1.92c-5.93,2.4-10.65,5.92-10.71,9.79-.08,4.91,9.93,8.39,23.92,8.62,13.5.21,21.89-2.35,29.34-7.35,9.93-6.89,21.3-11.07,42.65-10.73,20.38.33,35.78,4.66,39.36,11.08l24.79.4-.06,4.29-23.82-.38c-.55,4.14-4.53,6.91-8.73,8.85l-16.18-2c3-1.4,8.42-4.15,8.49-8.58.08-5.33-11.18-7.51-21-7.67-12.76-.21-19.18,2.25-28.12,8.12-10.42,7-23.25,10.35-45.1,10-19.39-.31-37.49-4.4-41.55-11.6l-25.53-.41Z" transform="translate(0 153.4)"/>
            </g>
            <g>
              <path class="cls-5" d="M1815.94,973.48c72.52,1.17,131.57-14.45,131.9-34.88s-58.19-37.94-130.71-39.11-131.57,14.45-131.9,34.88S1743.42,972.31,1815.94,973.48Z" transform="translate(0 153.4)"/>
              <polygon class="cls-5" points="1947.84 1092 1948.96 1068.39 1925.04 1071.55 1686.34 1064.16 1685.23 1087.78 1763.23 1113.45 1874.52 1101.18 1947.84 1092"/>
              <ellipse class="cls-6" cx="1817.65" cy="912.87" rx="37" ry="131.32" transform="translate(875.67 2869.01) rotate(-89.08)"/>
              <path class="cls-7" d="M1717,908.84l24.79.4c.31-4,4.79-8.08,11-10.41l16.42,1.93c-5.93,2.39-10.65,5.92-10.71,9.79-.08,4.91,9.93,8.39,23.92,8.62,13.5.21,21.89-2.35,29.34-7.35,9.93-6.9,21.3-11.07,42.65-10.73,20.38.33,35.78,4.66,39.36,11.08l24.79.4-.07,4.29-23.81-.38c-.56,4.14-4.53,6.91-8.73,8.85l-16.18-2c3-1.41,8.42-4.16,8.49-8.58.08-5.33-11.18-7.51-21-7.67-12.76-.21-19.19,2.25-28.12,8.12-10.43,7-23.25,10.35-45.1,10-19.39-.31-37.5-4.41-41.55-11.6l-25.54-.41Z" transform="translate(0 153.4)"/>
            </g>
            <g>
              <path class="cls-5" d="M1786.46,947c72.52,1.17,131.58-14.45,131.91-34.88s-58.2-37.94-130.72-39.11-131.57,14.45-131.9,34.89S1714,945.85,1786.46,947Z" transform="translate(0 153.4)"/>
              <polygon class="cls-5" points="1918.37 1065.53 1919.48 1041.92 1895.57 1045.09 1656.87 1037.7 1655.75 1061.31 1733.75 1086.98 1845.04 1074.71 1918.37 1065.53"/>
              <ellipse class="cls-6" cx="1788.17" cy="886.41" rx="37" ry="131.32" transform="translate(873.13 2813.5) rotate(-89.08)"/>
              <path class="cls-7" d="M1687.5,882.38l24.79.4c.31-4,4.8-8.09,11-10.41l16.42,1.92c-5.94,2.4-10.66,5.92-10.72,9.79-.08,4.91,9.93,8.4,23.93,8.62,13.5.22,21.89-2.35,29.33-7.35,9.94-6.89,21.3-11.07,42.66-10.73,20.37.33,35.77,4.66,39.35,11.08l24.8.4-.07,4.29-23.81-.38c-.56,4.14-4.53,6.91-8.74,8.85l-16.18-2c3-1.4,8.42-4.15,8.49-8.58.09-5.32-11.17-7.51-21-7.67-12.77-.21-19.19,2.25-28.13,8.13-10.42,7-23.24,10.35-45.09,10-19.4-.32-37.5-4.41-41.56-11.6l-25.53-.41Z" transform="translate(0 153.4)"/>
            </g>
          </g>
          <g>
            <g>
              <path class="cls-5" d="M1636.5,1335.45c72,1.16,130.59-14.34,130.92-34.62s-57.76-37.66-129.74-38.82-130.59,14.35-130.91,34.63S1564.53,1334.29,1636.5,1335.45Z" transform="translate(0 153.4)"/>
              <polygon class="cls-5" points="1767.42 1454.23 1768.53 1430.8 1744.79 1433.94 1507.88 1426.6 1506.77 1450.04 1584.19 1475.52 1694.64 1463.34 1767.42 1454.23"/>
              <path class="cls-6" d="M1637.61,1312c72,1.15,130.59-14.35,130.91-34.63s-57.75-37.65-129.73-38.81-130.59,14.34-130.91,34.62S1565.63,1310.86,1637.61,1312Z" transform="translate(0 153.4)"/>
              <path class="cls-7" d="M1538.28,1271.3l24.61.39c.3-4,4.76-8,10.89-10.33l16.29,1.91c-5.88,2.38-10.57,5.88-10.63,9.72-.08,4.87,9.86,8.33,23.74,8.55,13.41.22,21.73-2.32,29.12-7.29,9.86-6.84,21.14-11,42.34-10.65,20.22.33,35.51,4.63,39.06,11l24.61.4-.07,4.25-23.63-.38c-.56,4.11-4.5,6.86-8.68,8.79l-16-2c2.95-1.39,8.35-4.12,8.42-8.51.09-5.29-11.09-7.46-20.83-7.62-12.67-.2-19,2.24-27.92,8.07-10.34,6.91-23.07,10.27-44.76,9.92-19.24-.31-37.21-4.37-41.24-11.51l-25.34-.41Z" transform="translate(0 153.4)"/>
            </g>
            <g>
              <path class="cls-5" d="M1610,1285.75c72,1.16,130.59-14.34,130.92-34.62s-57.76-37.66-129.74-38.81-130.59,14.34-130.91,34.62S1538,1284.6,1610,1285.75Z" transform="translate(0 153.4)"/>
              <polygon class="cls-5" points="1740.92 1404.53 1742.02 1381.1 1718.29 1384.24 1481.38 1376.91 1480.27 1400.34 1557.69 1425.82 1668.14 1413.64 1740.92 1404.53"/>
              <path class="cls-6" d="M1611.11,1262.32c72,1.16,130.59-14.34,130.91-34.62s-57.75-37.66-129.73-38.82-130.59,14.35-130.91,34.62S1539.13,1261.16,1611.11,1262.32Z" transform="translate(0 153.4)"/>
              <path class="cls-7" d="M1511.78,1221.6l24.61.4c.3-4,4.76-8,10.89-10.33l16.29,1.91c-5.88,2.37-10.57,5.87-10.63,9.71-.08,4.88,9.86,8.33,23.74,8.56,13.41.21,21.73-2.33,29.12-7.29,9.86-6.85,21.14-11,42.34-10.65,20.22.32,35.51,4.62,39.06,11l24.61.4-.07,4.26-23.63-.38c-.56,4.11-4.5,6.86-8.68,8.78l-16-2c2.95-1.4,8.35-4.12,8.42-8.52.09-5.28-11.09-7.46-20.83-7.61-12.67-.21-19,2.23-27.92,8.06-10.34,6.91-23.07,10.28-44.76,9.93-19.24-.31-37.21-4.38-41.24-11.52l-25.34-.4Z" transform="translate(0 153.4)"/>
            </g>
            <g>
              <path class="cls-5" d="M1641.27,1254.86c72,1.16,130.59-14.34,130.92-34.62s-57.76-37.66-129.74-38.81-130.59,14.34-130.91,34.62S1569.3,1253.71,1641.27,1254.86Z" transform="translate(0 153.4)"/>
              <polygon class="cls-5" points="1772.19 1373.64 1773.29 1350.21 1749.56 1353.35 1512.65 1346.02 1511.54 1369.45 1588.96 1394.93 1699.41 1382.75 1772.19 1373.64"/>
              <path class="cls-6" d="M1642.38,1231.43c72,1.16,130.59-14.35,130.91-34.63s-57.75-37.65-129.73-38.81-130.59,14.34-130.91,34.62S1570.4,1230.27,1642.38,1231.43Z" transform="translate(0 153.4)"/>
              <path class="cls-7" d="M1543.05,1190.71l24.61.4c.3-4,4.76-8,10.89-10.33l16.29,1.91c-5.88,2.37-10.57,5.87-10.63,9.71-.08,4.88,9.86,8.33,23.74,8.56,13.41.21,21.73-2.33,29.12-7.3,9.86-6.84,21.14-11,42.34-10.64,20.22.32,35.51,4.62,39.06,11l24.61.4-.07,4.25-23.63-.37c-.56,4.11-4.5,6.86-8.68,8.78l-16-2c2.95-1.4,8.35-4.13,8.42-8.52.09-5.29-11.09-7.46-20.83-7.61-12.67-.21-19,2.23-27.92,8.06-10.34,6.91-23.07,10.28-44.76,9.93-19.24-.31-37.21-4.38-41.24-11.52L1543,1195Z" transform="translate(0 153.4)"/>
            </g>
            <g>
              <path class="cls-5" d="M1641.47,1219.92c72,1.16,130.59-14.35,130.91-34.62s-57.75-37.66-129.73-38.82-130.59,14.34-130.91,34.62S1569.49,1218.76,1641.47,1219.92Z" transform="translate(0 153.4)"/>
              <polygon class="cls-5" points="1772.38 1338.7 1773.49 1315.26 1749.75 1318.41 1512.84 1311.07 1511.73 1334.51 1589.15 1359.99 1699.61 1347.81 1772.38 1338.7"/>
              <path class="cls-6" d="M1642.58,1196.48c72,1.16,130.58-14.34,130.91-34.62s-57.76-37.66-129.73-38.81-130.59,14.34-130.92,34.62S1570.6,1195.33,1642.58,1196.48Z" transform="translate(0 153.4)"/>
              <path class="cls-7" d="M1543.24,1155.77l24.61.39c.31-4,4.76-8,10.89-10.33l16.3,1.91c-5.89,2.38-10.57,5.87-10.63,9.72-.08,4.87,9.85,8.33,23.74,8.55,13.4.22,21.73-2.33,29.12-7.29,9.86-6.84,21.14-11,42.33-10.65,20.23.33,35.51,4.62,39.07,11l24.6.39-.06,4.26-23.64-.38c-.55,4.11-4.5,6.86-8.67,8.79l-16.05-2c2.94-1.39,8.35-4.12,8.42-8.51.09-5.29-11.09-7.46-20.84-7.62-12.67-.2-19,2.24-27.91,8.07-10.35,6.9-23.07,10.27-44.76,9.92-19.25-.31-37.22-4.37-41.25-11.51l-25.33-.41Z" transform="translate(0 153.4)"/>
            </g>
            <g>
              <path class="cls-5" d="M1641.64,1186.68c72,1.16,130.59-14.35,130.91-34.62s-57.75-37.66-129.73-38.82-130.59,14.34-130.92,34.62S1569.66,1185.52,1641.64,1186.68Z" transform="translate(0 153.4)"/>
              <polygon class="cls-5" points="1772.55 1305.46 1773.66 1282.02 1749.92 1285.17 1513.01 1277.83 1511.9 1301.27 1589.32 1326.75 1699.78 1314.57 1772.55 1305.46"/>
              <path class="cls-6" d="M1642.75,1163.24c72,1.16,130.58-14.34,130.91-34.62s-57.76-37.66-129.73-38.81-130.59,14.34-130.92,34.62S1570.77,1162.09,1642.75,1163.24Z" transform="translate(0 153.4)"/>
              <path class="cls-7" d="M1543.41,1122.53l24.61.39c.31-4,4.76-8,10.89-10.33l16.3,1.91c-5.89,2.38-10.57,5.87-10.64,9.72-.07,4.87,9.86,8.33,23.75,8.55,13.4.22,21.73-2.33,29.12-7.29,9.86-6.85,21.14-11,42.33-10.65,20.23.33,35.51,4.62,39.06,11l24.61.39-.07,4.26-23.63-.38c-.55,4.11-4.5,6.86-8.67,8.79l-16-2c2.94-1.39,8.35-4.12,8.42-8.51.08-5.29-11.09-7.46-20.84-7.62-12.67-.2-19,2.24-27.91,8.07-10.35,6.9-23.08,10.27-44.76,9.92-19.25-.31-37.22-4.37-41.25-11.51l-25.34-.41Z" transform="translate(0 153.4)"/>
            </g>
            <g>
              <path class="cls-5" d="M1612.38,1160.41c72,1.16,130.59-14.34,130.92-34.62s-57.76-37.66-129.74-38.82-130.58,14.35-130.91,34.62S1540.41,1159.25,1612.38,1160.41Z" transform="translate(0 153.4)"/>
              <polygon class="cls-5" points="1743.3 1279.19 1744.4 1255.75 1720.67 1258.9 1483.76 1251.56 1482.65 1275 1560.07 1300.48 1670.52 1288.3 1743.3 1279.19"/>
              <path class="cls-6" d="M1613.49,1137c72,1.16,130.59-14.34,130.91-34.62s-57.75-37.66-129.73-38.81-130.59,14.34-130.91,34.62S1541.51,1135.82,1613.49,1137Z" transform="translate(0 153.4)"/>
              <path class="cls-7" d="M1514.16,1096.26l24.61.39c.31-4,4.76-8,10.89-10.33l16.3,1.91c-5.89,2.38-10.58,5.88-10.64,9.72-.08,4.87,9.86,8.33,23.75,8.55,13.4.22,21.72-2.33,29.11-7.29,9.86-6.84,21.14-11,42.34-10.65,20.22.33,35.51,4.63,39.06,11l24.61.39-.07,4.26-23.63-.38c-.56,4.11-4.5,6.86-8.68,8.79l-16-2c3-1.39,8.35-4.12,8.42-8.51.09-5.29-11.09-7.46-20.83-7.62-12.67-.2-19,2.24-27.92,8.07-10.34,6.91-23.07,10.27-44.76,9.92-19.24-.31-37.21-4.37-41.24-11.51l-25.34-.41Z" transform="translate(0 153.4)"/>
            </g>
            <g>
              <path class="cls-5" d="M1652.55,1104.28c72,1.15,130.58-14.35,130.91-34.63s-57.76-37.65-129.73-38.81-130.59,14.34-130.92,34.62S1580.57,1103.12,1652.55,1104.28Z" transform="translate(0 153.4)"/>
              <polygon class="cls-5" points="1783.46 1223.06 1784.57 1199.62 1760.83 1202.77 1523.92 1195.43 1522.81 1218.87 1600.23 1244.35 1710.68 1232.17 1783.46 1223.06"/>
              <path class="cls-6" d="M1653.65,1080.84c72,1.16,130.59-14.34,130.92-34.62s-57.76-37.66-129.74-38.82-130.58,14.35-130.91,34.63S1581.68,1079.68,1653.65,1080.84Z" transform="translate(0 153.4)"/>
              <path class="cls-7" d="M1554.32,1040.13l24.61.39c.31-4,4.76-8,10.89-10.33l16.3,1.91c-5.89,2.38-10.58,5.87-10.64,9.72-.08,4.87,9.86,8.33,23.75,8.55,13.4.22,21.73-2.33,29.12-7.29,9.86-6.85,21.13-11,42.33-10.65,20.22.33,35.51,4.62,39.06,11l24.61.39-.07,4.26-23.63-.38c-.56,4.11-4.5,6.86-8.67,8.79l-16.06-2c2.95-1.39,8.36-4.12,8.43-8.52.08-5.28-11.09-7.45-20.84-7.61-12.67-.2-19,2.24-27.91,8.07-10.35,6.9-23.08,10.27-44.76,9.92-19.25-.31-37.22-4.37-41.25-11.51l-25.34-.41Z" transform="translate(0 153.4)"/>
            </g>
          </g>
          <path class="cls-8" d="M2559.94,1615.32c-99.55-89.16-291-262.81-332.11-316-47.22-61.08-129.65-160.77-185.58-178.12-52.76-16.37-139.31-5.21-245.31-.37-126,5.75-206.87,21-226.27,30.64-26.78,13.3-16.86,47.67,19,66.86,33.75,18.06,195-10.38,216.25,34.09,6.94,14.51-180,34.53-209.57,29.85s-184-151.36-240.9-184.27-94.31-5.66-93.85,1.6c1.1,17.39,225.54,290.13,296.4,349.52s415.56-11.84,463.43-9.26c35.24,1.91,287.81,292.62,357.43,374.06,88.49-.08,60.8-153.35,144.88-184.33h0Q2542,1622.9,2559.94,1615.32Z" transform="translate(0 153.4)"/>
        </g>
        <g>
          <path class="cls-9" d="M1037.24,462.1s-22.82,66.8-15.79,89.94,36.16,87.59,34.74,113.4c-.45,8-8.23,70.22-22,80.53-9.28,7-34.77-12.43-31.42-44.13,5.85-55.1-14.85-84.06-26.89-105.36-20.53-36.33-29.62-58.43-27.38-39.67,0,0,15.34,56.57,16.24,82.06.24,6.89-7.18,61.09-20.85,68-7.41,3.72-33.68-5.69-31-54.91,1.75-32.34-18.85-50.4-34.93-70.25-13.91-17.18-75.37-56.93-75.37-56.93l65.63-66.89Z" transform="translate(0 153.4)"/>
          <path class="cls-10" d="M1099.42,556.71s49,93.35,57.46,133.39c3.4,16,9.58,69.74-2.33,80.95-19.65,18.49-50.3-16.25-55.09-65.64-4.76-49-57.78-80.28-85.31-109.09C945.71,524.7,904.47,481.6,904.47,481.6Z" transform="translate(0 153.4)"/>
          <path class="cls-8" d="M226.82,536.31c25.84,3.24,50.07,6.41,71.22,9.36,11.78,1.68,22.63,3.27,32.22,4.77,15.51,2.44,27.8,4.64,35.77,6.52,20.4,4.8,51.83,7.83,78.81,19h0c18.27,7.53,34.49,18.77,43.89,36.79,23.29,44.66,123.36,115.19,210.81,158,47.69,23.38,99.05,65.47,117.94,82.76,14.85,13.6,68.37,73.61,85.93,76.49,10.33,1.68,30.22-29,30.92-45.07,1.53-34.34-27.86-73.18-83.71-130.57-53.21-54.68-63.8-89.27-66.68-122.66-1.86-21.69-.57-43.88,22.74-67,2.75-2.71,10.82-12,23-21.73,25.52-20.51,69.11-43.45,119.33-13.92.59.35,1.17.68,1.78,1h0v0c21.65,12.19,47.75,18,71.61,25.11,25,7.43,47.51,16.29,59.89,35.38,15.06,23.22,38.49,42.47,63,64.46h0c17.77,15.88,36.12,33.21,52.27,54.52,39.41,51.93,74.92,43.12,84,17.76,4.89-13.76-39.47-98.5-47.48-110.17-10.66-15.58-94.06-117.77-111.12-133.58-42-38.92-214.24-148.52-246.69-166.83-55-31-192-20.16-306.94-22.65q-11.53-.24-23.07-.81h0A854.89,854.89,0,0,1,420.73,277.8q-19.68-3.89-39.15-8.75c-5.85-1.46-11.71-3-17.53-4.57C297.77,362.1,254.48,452.35,226.82,536.31Z" transform="translate(0 153.4)"/>
          <path class="cls-11" d="M400,533.78a11.58,11.58,0,1,0,2.83,16.13A11.58,11.58,0,0,0,400,533.78Z" transform="translate(0 153.4)"/>
          <g>
            <ellipse class="cls-5" cx="993.75" cy="794.54" rx="207.93" ry="100.75" transform="translate(-138.19 1528.94) rotate(-65.81)"/>
            <polygon class="cls-5" points="910.75 1138.55 970.74 1154.53 973.25 1116.72 1126.53 769.97 1070.32 755.32 961.09 861.8 903.16 1018.9 910.75 1138.55"/>
            <ellipse class="cls-6" cx="1053.53" cy="810.14" rx="208.45" ry="118.06" transform="translate(-135.55 1557.13) rotate(-64.09)"/>
            <path class="cls-7" d="M1093.24,809.62q11.46-3.57,20.68-14.19a73.73,73.73,0,0,0,14.16-25.51q8.26-24.9,2.41-42.29t-26.2-22.08h0l9.33-28.11-11.64-2.7-9.33,28.12-9.89-2.29,9.32-28.12-11.64-2.69-9.32,28.12-25.75-6q-6.22-1.44-9.25,7.68L973.63,887.92q-3,9.11,3.2,10.55l25.75,6-11.24,33.89L1003,941l11.24-33.9,9.89,2.29-11.24,33.9,11.64,2.69,11.24-33.9,1.48.34a43.25,43.25,0,0,0,27.27-2,55,55,0,0,0,22.16-17.61,96.05,96.05,0,0,0,14.85-28.61Q1114,826.53,1093.24,809.62ZM1050.65,717l44.42,10.27q13.48,3.12,16.88,12.08t-2.34,26.28q-5.34,16.11-14.85,23.55a24.36,24.36,0,0,1-21.55,4.66l-44.63-10.32Zm17.24,167.68q-9.81,8.7-23.51,5.52l-47.53-11,24.48-73.82,44.21,10.23q14.12,3.25,18.88,14.5T1083,859.91Q1077.7,876,1067.89,884.7Z" transform="translate(0 153.4)"/>
          </g>
          <path class="cls-8" d="M503.39,290.12,856.6,525.68c-10.46,8.8-47.39,36.57-49.9,39-23.31,23.11-24.6,45.3-22.74,67,2.88,33.39,13.47,68,66.68,122.66,55.85,57.39,85.24,96.23,83.71,130.57-.7,16-20.59,46.75-30.92,45.07-17.56-2.88-71.08-62.89-85.93-76.49-18.89-17.29-70.25-59.38-117.94-82.76-87.45-42.84-187.52-113.37-210.81-158-9.4-18-25.62-29.26-43.89-36.79h0c-27-11.14-58.41-14.17-78.81-19-8-1.88-20.26-4.08-35.77-6.52-9.59-1.5-20.44-3.09-32.22-4.77-21.15-2.95-45.38-6.12-71.22-9.36A973.69,973.69,0,0,1,276.1,415.38l116.36-143.7q14.09,3.3,28.27,6.12Q461.73,286,503.39,290.12Z" transform="translate(0 153.4)"/>
          <polygon class="cls-12" points="388.74 398.74 547.08 446.94 445.01 729.37 294.67 710.2 388.74 398.74"/>
          <path class="cls-13" d="M1.19,566c89.48,8.16,318.41,9.6,318.41,9.6l1.9-5.63,0,0,3.08-9.33.37-1.1,0,0,3.12-9.39,87.36-263.22,0,0,0,0,3.15-9.47h0l3.7-11.14,3.23-9.68v0l3-9.08L205.37,154.52C103.57,260.16-13.06,441.66,1.19,566Z" transform="translate(0 153.4)"/>
          <circle class="cls-11" cx="400.45" cy="514.07" r="17.8" transform="translate(-250.82 689.4) rotate(-54.01)"/>
        </g>
      </g>
    </g>
  </g>
</svg>
