<svg xmlns="http://www.w3.org/2000/svg" viewBox="0 0 37.18 34.11">
  <defs>
    <style>
      .cls-1 {
        fill: #272525;
      }
    </style>
  </defs>
  <g id="Layer_2" data-name="Layer 2">
    <g id="Layer_1-2" data-name="Layer 1">
      <g>
        <path class="cls-1" d="M18.9,11.24a3.3,3.3,0,0,1-1.79-.54l-.35-.23L16.21,12l.2.14a4.25,4.25,0,0,0,2,.65v1.39h1.51V12.71A2.67,2.67,0,0,0,22,10.12c0-1.64-1.24-2.36-2.32-2.8-1.28-.53-1.5-.82-1.5-1.26s.3-.85,1.13-.85a3,3,0,0,1,1.56.42l.33.19.58-1.52-.24-.13A3.91,3.91,0,0,0,20,3.66V2.32H18.47V3.76A2.5,2.5,0,0,0,16.4,6.22c0,1.5,1.18,2.17,2.46,2.67.95.39,1.34.77,1.34,1.33S19.68,11.24,18.9,11.24Zm.2-3c-1.48-.58-2.05-1.16-2.05-2.07a1.91,1.91,0,0,1,1.79-1.88l.27,0V3h.2V4.28h.32A3.5,3.5,0,0,1,21,4.6l-.11.29a3.77,3.77,0,0,0-1.55-.33c-1.23,0-1.77.75-1.77,1.5,0,1,.82,1.41,1.89,1.86,1.37.55,1.92,1.19,1.92,2.2a2.06,2.06,0,0,1-1.89,2l-.27,0v1.38H19V12.17H18.7A4,4,0,0,1,17,11.75l.11-.3a4,4,0,0,0,1.8.43,1.76,1.76,0,0,0,2-1.66C20.85,9.14,19.92,8.62,19.1,8.29Z"/>
        <path class="cls-1" d="M26.17,12a8.05,8.05,0,0,0-7-12,8,8,0,0,0-7,12H2.47L0,18.76,1.16,34.11h35l1-15.39L34.05,12ZM12,8.05A7.14,7.14,0,0,1,19.17.92a7.05,7.05,0,0,1,4.19,1.37l.27.21A7.14,7.14,0,0,1,26.3,8.05a5.85,5.85,0,0,1,0,.73,7,7,0,0,1-.52,2.05A7.16,7.16,0,0,1,23.15,14a7.06,7.06,0,0,1-4,1.21A7.13,7.13,0,0,1,12,8.05Zm8.85,7.87h9.64v1.65H6.66V15.92H17.44l.1,0a7.66,7.66,0,0,0,1.59.17h0A8.09,8.09,0,0,0,20.89,15.92Zm14,16.8H2.45l-.93-12.3H35.68Zm.89-13.47v.19H1.44v-.19l0-.3,2-5.53h9.73c.11.13.24.24.36.36a7.86,7.86,0,0,0,2.07,1.49H6v2.95H31.18V15.27H22.74a8.17,8.17,0,0,0,2.43-1.85h8L35.78,19Z"/>
      </g>
    </g>
  </g>
</svg>
