<svg xmlns="http://www.w3.org/2000/svg" viewBox="0 0 28.69 31.76">
  <defs>
    <style>
      .cls-1 {
        fill: #272525;
      }
    </style>
  </defs>
  <g id="Layer_2" data-name="Layer 2">
    <g id="Layer_1-2" data-name="Layer 1">
      <g>
        <path class="cls-1" d="M9.11,31.76a9.14,9.14,0,0,0,8.61-6.11l1.64,0c2.79,0,9.3-.29,9.3-3v-3.7a1.15,1.15,0,0,0,0-.26.85.85,0,0,0,0-.23v-3a1.15,1.15,0,0,0,0-.26.85.85,0,0,0,0-.23V11.59a1,1,0,0,0,0-.25,1.15,1.15,0,0,0-.08-.41,1.5,1.5,0,0,0,.05-.37V6.85a1.07,1.07,0,0,0,0-.25,1,1,0,0,0,0-.24V3a1.07,1.07,0,0,0,0-.25,1.26,1.26,0,0,0-.08-.43,1.17,1.17,0,0,0-.49-.66C26.22.06,20.16,0,19.36,0s-6.87.06-8.77,1.67a1.17,1.17,0,0,0-.49.66,1.26,1.26,0,0,0-.08.43,1.07,1.07,0,0,0,0,.25V6.36a1,1,0,0,0,0,.24,1.07,1.07,0,0,0,0,.25v3.71a1.5,1.5,0,0,0,0,.37,1.15,1.15,0,0,0-.08.41,1,1,0,0,0,0,.25v2c-.31,0-.62-.05-.94-.05a9.12,9.12,0,0,0,0,18.23ZM27.6,22.57v.09c-.05,1-3.73,1.85-8.24,1.85l-1.32,0a9.36,9.36,0,0,0,.19-1.85c0-.16,0-.32,0-.48.42,0,.81,0,1.15,0,2.09,0,6.28-.17,8.24-1.4Zm0-3.5v.09c-.05,1-3.73,1.85-8.24,1.85l-1.29,0a8.82,8.82,0,0,0-1-2.72c.85.05,1.64.07,2.25.07,2.09,0,6.28-.17,8.24-1.41Zm0-8.59v.1c-.05,1-3.73,1.85-8.24,1.85s-8.2-.83-8.25-1.85V8.35c2,1.24,6.15,1.4,8.25,1.4s6.28-.16,8.24-1.4ZM19.36,1.34c4.68,0,7.58.87,8.07,1.42-.49.54-3.39,1.41-8.07,1.41s-7.59-.87-8.08-1.41C11.77,2.21,14.67,1.34,19.36,1.34Zm0,4.17c.74,0,5.94,0,8.24-1.32V6.74c-.05,1-3.73,1.85-8.24,1.85s-8.2-.83-8.25-1.85V4.19C13.41,5.46,18.61,5.51,19.36,5.51Zm0,8.59c.74,0,5.94,0,8.24-1.32v2.54c-.05,1-3.73,1.85-8.24,1.85-1.09,0-2.12-.05-3.07-.13a9.14,9.14,0,0,0-5.18-3.29v-1C13.41,14.05,18.61,14.1,19.36,14.1Zm-10.25.6a7.95,7.95,0,1,1-7.94,7.94A7.95,7.95,0,0,1,9.11,14.7Z"/>
        <path class="cls-1" d="M9.11,28.79A6.15,6.15,0,1,0,3,22.64,6.15,6.15,0,0,0,9.11,28.79Zm0-11.51a5.37,5.37,0,1,1-5.36,5.36A5.38,5.38,0,0,1,9.11,17.28Z"/>
        <path class="cls-1" d="M7.18,25.53a2.74,2.74,0,0,0,.79.36L8.3,26v.58a.39.39,0,0,0,.39.39h1a.39.39,0,0,0,.39-.39v-.69a2.22,2.22,0,0,0,.91-.61,2.08,2.08,0,0,0,.51-1.37,2,2,0,0,0-.13-.74,2,2,0,0,0-.64-.89,3.65,3.65,0,0,0-1-.56h0a2.44,2.44,0,0,1-.66-.35s-.05,0-.05-.06,0,0,0-.05a.16.16,0,0,1,0-.08.5.5,0,0,1,.31-.08,1.72,1.72,0,0,1,.52.08l.31.14.22.13a.36.36,0,0,0,.32,0,.39.39,0,0,0,.24-.23l.38-1a.4.4,0,0,0-.17-.47L11,19.65a2.56,2.56,0,0,0-.86-.33v-.55a.4.4,0,0,0-.39-.39h-1a.4.4,0,0,0-.39.39v.66a2.1,2.1,0,0,0-.82.54A2,2,0,0,0,7,21.33a1.91,1.91,0,0,0,.15.76,2.08,2.08,0,0,0,.71.84,5.12,5.12,0,0,0,1,.51,2,2,0,0,1,.55.31.43.43,0,0,1,.06.09.22.22,0,0,1,0,.1.19.19,0,0,1-.08.17.59.59,0,0,1-.38.11,1.67,1.67,0,0,1-.95-.29l-.23-.15a.41.41,0,0,0-.34-.05.4.4,0,0,0-.25.24l-.36,1a.38.38,0,0,0,.14.44Zm.66-.84A2.62,2.62,0,0,0,9,25a1.3,1.3,0,0,0,.89-.28,1,1,0,0,0,.36-.77,1.06,1.06,0,0,0-.08-.4,1,1,0,0,0-.23-.33,2.4,2.4,0,0,0-.81-.49,4.2,4.2,0,0,1-.83-.42,1.27,1.27,0,0,1-.45-.52,1.06,1.06,0,0,1-.09-.45,1.2,1.2,0,0,1,.32-.83,1.59,1.59,0,0,1,.73-.41.37.37,0,0,0,.3-.37v-.56h.21v.49A.39.39,0,0,0,9.7,20a2.37,2.37,0,0,1,.77.21l-.1.26-.27-.11a2.43,2.43,0,0,0-.77-.12,1.16,1.16,0,0,0-.85.3.91.91,0,0,0-.27.64.93.93,0,0,0,.08.39,1.13,1.13,0,0,0,.24.31,3.35,3.35,0,0,0,.9.48h0a3.39,3.39,0,0,1,.8.45,1.3,1.3,0,0,1,.4.55,1.42,1.42,0,0,1,.08.48,1.29,1.29,0,0,1-.32.86h0a1.52,1.52,0,0,1-.8.46.4.4,0,0,0-.3.38v.58H9.08v-.53a.38.38,0,0,0-.36-.38,3.1,3.1,0,0,1-.53-.1A2,2,0,0,1,7.75,25Z"/>
      </g>
    </g>
  </g>
</svg>
