<svg xmlns="http://www.w3.org/2000/svg" viewBox="0 0 22.45 28.59">
  <defs>
    <style>
      .cls-1 {
        fill: #272525;
      }
    </style>
  </defs>
  <g id="Layer_2" data-name="Layer 2">
    <g id="Layer_1-2" data-name="Layer 1">
      <g>
        <path class="cls-1" d="M4.15,28.59h14.6a3.7,3.7,0,0,0,3.7-3.69V10.29a3.7,3.7,0,0,0-3.7-3.69H4.15a3.7,3.7,0,0,0-3.7,3.69V24.9A3.7,3.7,0,0,0,4.15,28.59ZM1.84,10.29A2.31,2.31,0,0,1,4.15,8h14.6a2.31,2.31,0,0,1,2.31,2.3V24.9a2.32,2.32,0,0,1-2.31,2.31H4.15A2.32,2.32,0,0,1,1.84,24.9Z"/>
        <path class="cls-1" d="M3.62,6.07h15c2,0,3.62-1.12,3.62-2.54v-1C22.25,1.12,20.66,0,18.63,0h-15C1.59,0,0,1.12,0,2.54v1C0,5,1.59,6.07,3.62,6.07ZM1.39,2.54c0-.54,1-1.15,2.23-1.15h15c1.28,0,2.23.61,2.23,1.15v1c0,.54-.95,1.15-2.23,1.15h-15c-1.28,0-2.23-.61-2.23-1.15Z"/>
        <path class="cls-1" d="M4.06,11.05a19.53,19.53,0,0,0,7.24,1.28,22.9,22.9,0,0,0,7.48-1.26.69.69,0,1,0-.45-1.31,19.94,19.94,0,0,1-2.33.65,21.06,21.06,0,0,1-9.29,0,14.33,14.33,0,0,1-2.09-.63.69.69,0,0,0-.56,1.27Z"/>
        <path class="cls-1" d="M15,19.52a3.73,3.73,0,0,0-2.13-1.17l-.24-.05v-.78l.09.07a.9.9,0,0,0,.57.2h0a1.09,1.09,0,0,0,.4-.1l0,0,.92-.58a.68.68,0,0,0,.33-.55.63.63,0,0,0-.2-.46,4,4,0,0,0-2.15-1.26v-.63a.74.74,0,0,0-.74-.74h-.82a.74.74,0,0,0-.74.74v.6a4.32,4.32,0,0,0-1,.31,2.63,2.63,0,0,0-1.8,2.53,2.46,2.46,0,0,0,.5,1.47,4,4,0,0,0,.27.31,3.89,3.89,0,0,0,2,1v1.24A3.46,3.46,0,0,1,9.53,21,.72.72,0,0,0,9,20.69a1,1,0,0,0-.37.1l-.87.5a.67.67,0,0,0-.35.59.64.64,0,0,0,.16.41,4.31,4.31,0,0,0,.93.93,4.73,4.73,0,0,0,1.89.87v.52a.74.74,0,0,0,.74.74h.82a.74.74,0,0,0,.74-.74v-.52a4.42,4.42,0,0,0,1.59-.63,2.72,2.72,0,0,0,1.31-2.33A2.39,2.39,0,0,0,15,19.52Zm-.12,2.16a2,2,0,0,1-.52.93,2.34,2.34,0,0,1-.45.37l-.17.1a4,4,0,0,1-1.44.48.28.28,0,0,0-.24.29v.76a.17.17,0,0,1-.17.16h-.82a.16.16,0,0,1-.16-.16v-.76a.3.3,0,0,0-.24-.29,4.11,4.11,0,0,1-1.88-.8A3.94,3.94,0,0,1,8,22l0,0s0,0,0-.05,0,0,.06-.08l.82-.48.13,0a.16.16,0,0,1,.13.06l0,0a3.62,3.62,0,0,0,1.44,1,.28.28,0,0,0,.26,0,.27.27,0,0,0,.12-.23V20.14a.28.28,0,0,0-.24-.28,3.15,3.15,0,0,1-2.16-1.11,1.81,1.81,0,0,1-.38-1.13,2.09,2.09,0,0,1,1.46-2,4.19,4.19,0,0,1,1.07-.3.29.29,0,0,0,.25-.28v-.85a.16.16,0,0,1,.16-.16h.82a.17.17,0,0,1,.17.16v.87a.28.28,0,0,0,.23.28,3.49,3.49,0,0,1,2.06,1.13l0,0s0,0,0,0,0,0-.06.07l-.9.57-.15,0a.35.35,0,0,1-.2-.07,2.47,2.47,0,0,0-.62-.41.28.28,0,0,0-.28,0,.31.31,0,0,0-.13.25v1.55a.28.28,0,0,0,.24.28,3.49,3.49,0,0,1,2.26,1.06A1.83,1.83,0,0,1,15,21.12,2,2,0,0,1,14.89,21.68Z"/>
        <path class="cls-1" d="M10.8,16.72a.26.26,0,0,0-.27,0l-.09,0a1,1,0,0,0-.64.91,1,1,0,0,0,.73,1l.1,0a.34.34,0,0,0,.17-.05.33.33,0,0,0,.12-.24V17a.3.3,0,0,0-.12-.24Z"/>
        <path class="cls-1" d="M12.44,20.08a.3.3,0,0,0-.26,0,.28.28,0,0,0-.11.23v1.7a.26.26,0,0,0,.13.24.27.27,0,0,0,.15.05.21.21,0,0,0,.12,0,1.5,1.5,0,0,0,.22-.11,1.21,1.21,0,0,0,.62-1.07A1.06,1.06,0,0,0,12.44,20.08Zm.2,1.39v-.62a.42.42,0,0,1,.09.28A.64.64,0,0,1,12.64,21.47Z"/>
      </g>
    </g>
  </g>
</svg>
